/* XPM */
static char *_[] = {
/* columns rows colors chars-per-pixel */
"40 70 131 2 ",
"   c #D97F61",
".  c #DA7D64",
"X  c #DD7F65",
"o  c #D5746A",
"O  c #D4706F",
"+  c #DD7D68",
"@  c #DF7A6E",
"#  c #D26677",
"$  c #D36D71",
"%  c #D56E72",
"&  c #D36A74",
"*  c #D56B74",
"=  c #D76F74",
"-  c #D96F75",
";  c #D5677B",
":  c #D6687B",
">  c #D77171",
",  c #D87270",
"<  c #DC7373",
"1  c #DB7077",
"2  c #E8B927",
"3  c #EABE24",
"4  c #EEBF27",
"5  c #E6B22E",
"6  c #E8B22F",
"7  c #EAB52E",
"8  c #EABA29",
"9  c #ECBC29",
"0  c #F3BE2E",
"q  c #E5AE33",
"w  c #E6AC36",
"e  c #E9AE37",
"r  c #E3A63B",
"t  c #E4A838",
"y  c #EBAE39",
"u  c #F0AF3E",
"i  c #ECB433",
"p  c #EBB334",
"a  c #EEB534",
"s  c #F1B539",
"d  c #EBC31F",
"f  c #ECC31F",
"g  c #EFC61F",
"h  c #F0C71F",
"j  c #F1C81F",
"k  c #EEC126",
"l  c #F4C723",
"z  c #F2C326",
"x  c #F2C426",
"c  c #F6C626",
"v  c #F2C920",
"b  c #F5CB20",
"n  c #F7CD20",
"m  c #FACF21",
"M  c #F8C927",
"N  c #F7C629",
"B  c #F8C828",
"V  c #FBD021",
"C  c #FCD121",
"Z  c #DF9947",
"A  c #DD8B56",
"S  c #DA855A",
"D  c #D9815E",
"F  c #DF8B5A",
"G  c #E09D43",
"H  c #E1954D",
"J  c #E09848",
"K  c #E79B4D",
"L  c #E0875F",
"P  c #E08C58",
"I  c #E48D5B",
"U  c #E0885E",
"Y  c #E79752",
"T  c #E49157",
"R  c #E89952",
"E  c #EDA646",
"W  c #DD8065",
"Q  c #E28761",
"!  c #E08167",
"~  c #BE1FBC",
"^  c #BF21BB",
"/  c #BF20BC",
"(  c #C73E9E",
")  c #C93EA1",
"_  c #CA3CA5",
"`  c #C434A8",
"'  c #C330AC",
"]  c #C631AF",
"[  c #C734AC",
"{  c #C024B7",
"}  c #C32DB1",
"|  c #C52DB2",
" . c #C228B5",
".. c #C42AB5",
"X. c #C024B8",
"o. c #C121BC",
"O. c #C630B0",
"+. c #CD4F8F",
"@. c #CE5787",
"#. c #CF5D80",
"$. c #CF558C",
"%. c #D25F82",
"&. c #D45F83",
"*. c #D15B86",
"=. c #D35C87",
"-. c #D1578A",
";. c #D0558C",
":. c #D05889",
">. c #D45C88",
",. c #C94697",
"<. c #CE4B97",
"1. c #CD4C94",
"2. c #C7409D",
"3. c #CB459A",
"4. c #CA419E",
"5. c #CC449D",
"6. c #CC4898",
"7. c #CF5091",
"8. c #D15390",
"9. c #C940A0",
"0. c #BA0FCC",
"q. c #BC17C4",
"w. c #BE1AC3",
"e. c #BF1DC1",
"r. c #BD18C4",
"t. c #BB12C9",
"y. c #BC14C8",
"u. c #B703D7",
"i. c #B706D4",
"p. c #B90AD1",
"a. c #B600DB",
/* pixels */
"C C C C C C C C C C C C C C C C C C C C C C C C C C C C C C C C C C C C C C C C ",
"C C C C C C C C C C C C C C C C C C C C C C C C C C C C C C C C C C C C C C C C ",
"C C C C C C C C C C C C C C C C C C C C C C C C C C C C C C C C C C C C C C C C ",
"C C C C C C C C C C C C C C C C C C C C C C C C C C C C C C C C C C C C C C C C ",
"C C C C C C C C C C C C C C C C C C C C C C C C C C C C C C C C C C C C C C C C ",
"C C C C C C C C C C C C C C C C C C C C C C C C C C C C C C C C C C C C C C C C ",
"C C C C C C C C C C C C C C C C C C C C C C C C C C C C C C C C C C C C C C C C ",
"C C C C C C C C C C C C C C C C C C C C C C C C C C C C C C C C C C C C C C C C ",
"C C C C C C C C C C C C C C C C C V V V V C C C C C C C C C C C C C C C C C C C ",
"C C C C C C C C C C C C V u ! >.5.[ | ..O._ 8.1 R B V C C C C C C C C C C C C C ",
"C C C C C C C C C V B < e.a.a.a.a.a.a.a.a.a.a.a.a.p.6.E V C C C C C C C C C C C ",
"C C C C C C C C V u o.a.a.a.a.a.a.a.a.a.a.a.a.a.a.a.a.a.8.M V C C C C C C C C C ",
"C C C C C C C V s y.a.a.a.a.a.a.a.a.a.a.a.a.a.a.a.a.a.a.a.] N V C C C C C C C C ",
"C C C C C C V m ] a.a.a.a.a.a.a.a.a.a.a.a.a.a.a.a.a.a.a.a.a.9.m V C C C C C C C ",
"C C C C C V m Q a.a.a.a.a.a.a.a.a.a.a.a.a.a.a.a.a.a.a.a.a.a.a.! V V C C C C C C ",
"C C C C C V m ] a.a.a.a.a.a.a.a.a.a.p.^ i.a.a.a.a.a.a.a.a.a.a.w.m V C C C C C C ",
"C C C C V m 0 a.a.a.a.a.a.a.a.a.a.` 2 d 5 ~ a.a.a.a.a.a.a.a.a.a.Y m V C C C C C ",
"C C C C V m T a.a.a.a.a.a.a.a.a.a.J g g g O a.a.a.a.a.a.a.a.a.a.&.m V C C C C C ",
"C C C C V m - a.a.a.a.a.a.a.a.a.a.8 g h g . a.a.a.a.a.a.a.a.a.a.) m m C C C C C ",
"C C C V m m -.a.a.a.a.a.a.a.a.a.a.k v b v . a.a.a.a.a.a.a.a.a.a.} n m V C C C C ",
"C C C V m n 6.a.a.a.a.a.a.a.a.a.a.z n n b X a.a.a.a.a.a.a.a.a.a. .n m V C C C C ",
"C C C V m n 4.a.a.a.a.a.a.a.a.a.a.z n m n X a.a.a.a.a.a.a.a.a.a. .n m V C C C C ",
"C C C V m n 9.a.a.a.a.a.a.a.a.a.a.x n m n X a.a.a.a.a.a.a.a.a.a. .n m V C C C C ",
"C C C V m n 9.a.a.a.a.a.a.a.a.a.a.x m m n W a.a.a.a.a.a.a.a.a.a.} n m V C C C C ",
"C C C V m n -./ ~ ~ ~ ~ ~ ~ ~ / / x m m n X a.a.a.a.a.a.a.a.a.a.4.n m V C C C C ",
"C C C V m n v g g f d d d d g g j b m m n = a.a.a.a.a.a.a.a.a.a., n m V C C C C ",
"C C C V m m b v h g g g g g h j b n m m n ) a.a.a.a.a.a.a.a.a.a.p n m V C C C C ",
"C C C V V m n b b v v v v v b b n m m m W a.a.a.a.a.a.a.a.a.a.+.v n m V C C C C ",
"C C C C V m m m m n n n n n L &.&.=.6.e.a.a.a.a.a.a.a.a.a.a.^ 9 b m m V C C C C ",
"C C C C C V V m m m m m m m <.a.a.a.a.a.a.a.a.a.a.a.a.a.a.( 7 j n m V C C C C C ",
"C C C C C C C V V V V V V m <.a.a.a.a.a.a.a.a.a.a.a.a.{ O 8 h b n m V C C C C C ",
"C C C C C C C C C C C V m m <.a.a.a.a.a.a.a.a.a.a.a.a.a.a.p.; b m V V C C C C C ",
"C C C C C C C C C C C V m n <.a.a.a.a.a.a.a.a.a.a.a.a.a.a.a.a.6.m V C C C C C C ",
"C C C C C C C C C C C V m n <.a.a.a.a.a.a.a.a.a.a.a.a.a.a.a.a.a.I V V C C C C C ",
"C C C C C C C C C C C V m n <.a.a.a.a.a.a.a.a.a.a.a.a.a.a.a.a.a.` m V C C C C C ",
"C C C C C C C C C C C V m n 9 7 6 q G $ t.a.a.a.a.a.a.a.a.a.a.a.u.N m V C C C C ",
"C C C C C C C C C C C V m n b j g g g g t p.a.a.a.a.a.a.a.a.a.a.a.K m V C C C C ",
"C C C C C C C C C C C V m m n b v v h g g ,.a.a.a.a.a.a.a.a.a.a.a.+ m V C C C C ",
"C C C C C V @ 8.8.8.8.8.8.8.7.7.7.l b v h % a.a.a.a.a.a.a.a.a.a.a.: m m C C C C ",
"C C C C V V 9.a.a.a.a.a.a.a.a.a.a.c n n v . a.a.a.a.a.a.a.a.a.a.a.=.n m V C C C ",
"C C C V V m 9.a.a.a.a.a.a.a.a.a.a.c m m b X a.a.a.a.a.a.a.a.a.a.a.-.n m V C C C ",
"C C C V m m 9.a.a.a.a.a.a.a.a.a.a.c m m n X a.a.a.a.a.a.a.a.a.a.a.;.n m V C C C ",
"C C C V m n 9.a.a.a.a.a.a.a.a.a.a.x m m n X a.a.a.a.a.a.a.a.a.a.a.;.n m V C C C ",
"C C C V m n 4.a.a.a.a.a.a.a.a.a.a.x m m n W a.a.a.a.a.a.a.a.a.a.a.$.n m V C C C ",
"C C C V m n 3.a.a.a.a.a.a.a.a.a.a.x m m n W a.a.a.a.a.a.a.a.a.a.a.$.n m V C C C ",
"C C C V m n 1.a.a.a.a.a.a.a.a.a.a.x m m n W a.a.a.a.a.a.a.a.a.a.a.:.n m V C C C ",
"C C C V m n *.a.a.a.a.a.a.a.a.a.a.z m m n W a.a.a.a.a.a.a.a.a.a.a.%.n m V C C C ",
"C C C V m n = a.a.a.a.a.a.a.a.a.a.a m m n X a.a.a.a.a.a.a.a.a.a.a., n m V C C C ",
"C C C V m n F a.a.a.a.a.a.a.a.a.a.U n m n : a.a.a.a.a.a.a.a.a.a.a.P n m V C C C ",
"C C C V m n y a.a.a.a.a.a.a.a.a.a.] b m b { a.a.a.a.a.a.a.a.a.a.a.i n m V C C C ",
"C C C V m n v r.a.a.a.a.a.a.a.a.a.a.| :.{ a.a.a.a.a.a.a.a.a.a.a.X.v n m V C C C ",
"C C C V m m b *.a.a.a.a.a.a.a.a.a.a.a.a.a.a.a.a.a.a.a.a.a.a.a.a.> b m m V C C C ",
"C C C C V m b e i.a.a.a.a.a.a.a.a.a.a.a.a.a.a.a.a.a.a.a.a.a.a.q.4 b m V C C C C ",
"C C C C V m n v * a.a.a.a.a.a.a.a.a.a.a.a.a.a.a.a.a.a.a.a.a.i.H v n m V C C C C ",
"C C C C V m n v g @.a.a.a.a.a.a.a.a.a.a.a.a.a.a.a.a.a.a.a.p.A h b m m V C C C C ",
"C C C C C V m n v g   0.a.a.a.a.a.a.a.a.a.a.a.a.a.a.a.a.2.w g v n m V C C C C C ",
"C C C C C V m m b j g 8 O ' i.a.a.a.a.a.a.a.a.a.a.^ #.r g g v n m m V C C C C C ",
"C C C C C C V m n b j g g g 3 G S o & # & O D Z 8 f g g h v n m m V C C C C C C ",
"C C C C C C V V m m b v j h g g g g g g g g g g g g h v b n m m V C C C C C C C ",
"C C C C C C C V V m m n b b v v j j j j j j j v v v b n m m m V C C C C C C C C ",
"C C C C C C C C V V m m m m n n n b b b b b n n n n m m m V V C C C C C C C C C ",
"C C C C C C C C C C V V V m m m m m m m m m m m m m V V V C C C C C C C C C C C ",
"C C C C C C C C C C C C C V V V V V V V V V V V V V C C C C C C C C C C C C C C ",
"C C C C C C C C C C C C C C C C C C C C C C C C C C C C C C C C C C C C C C C C ",
"C C C C C C C C C C C C C C C C C C C C C C C C C C C C C C C C C C C C C C C C ",
"C C C C C C C C C C C C C C C C C C C C C C C C C C C C C C C C C C C C C C C C ",
"C C C C C C C C C C C C C C C C C C C C C C C C C C C C C C C C C C C C C C C C ",
"C C C C C C C C C C C C C C C C C C C C C C C C C C C C C C C C C C C C C C C C ",
"C C C C C C C C C C C C C C C C C C C C C C C C C C C C C C C C C C C C C C C C ",
"C C C C C C C C C C C C C C C C C C C C C C C C C C C C C C C C C C C C C C C C "
};
