/* XPM */
static char *_[] = {
/* columns rows colors chars-per-pixel */
"40 70 122 2 ",
"   c #D77966",
".  c #DD7E66",
"X  c #D5756A",
"o  c #D6716F",
"O  c #DA776C",
"+  c #DD786F",
"@  c #D26777",
"#  c #D36B73",
"$  c #D36A74",
"%  c #D86E76",
"&  c #D36679",
"*  c #D6677B",
"=  c #D3637C",
"-  c #D3647D",
";  c #D5647E",
":  c #D66A78",
">  c #D96A7B",
",  c #D8687D",
"<  c #D77171",
"1  c #D87172",
"2  c #DD7671",
"3  c #EABC26",
"4  c #ECBD27",
"5  c #E7B729",
"6  c #E6B42C",
"7  c #EFBE2A",
"8  c #F2BF2D",
"9  c #F4BF2F",
"0  c #E2A33D",
"q  c #E3A53C",
"w  c #E8A93B",
"e  c #EAAD3A",
"r  c #EEAF3B",
"t  c #EAA93F",
"y  c #EBB431",
"u  c #EFB732",
"i  c #ECB434",
"p  c #ECB038",
"a  c #F3BA34",
"s  c #F0B339",
"d  c #EBC31F",
"f  c #ECC31F",
"g  c #EEC51F",
"h  c #F0C71F",
"j  c #F1C81F",
"k  c #EAC022",
"l  c #ECC121",
"z  c #EFC421",
"x  c #F6C627",
"c  c #F3C920",
"v  c #F4CA20",
"b  c #F7CD20",
"n  c #F8CE20",
"m  c #FBD121",
"M  c #FCD121",
"N  c #DD8F52",
"B  c #DA8758",
"V  c #DA845C",
"C  c #DD845F",
"Z  c #DF8A5A",
"A  c #E19B45",
"S  c #E39D45",
"D  c #E3974E",
"F  c #E69D4A",
"G  c #EA9F4D",
"H  c #E18D57",
"J  c #E08A5B",
"K  c #E08C58",
"L  c #E3895F",
"P  c #E49650",
"I  c #E29056",
"U  c #E79357",
"Y  c #E69456",
"T  c #E5905A",
"R  c #E3A141",
"E  c #E8A344",
"W  c #EBA644",
"Q  c #EDAA42",
"!  c #E9A049",
"~  c #DF8461",
"^  c #BD1CBF",
"/  c #C63E9F",
"(  c #C537A5",
")  c #C73CA0",
"_  c #C93FA0",
"`  c #C534A9",
"'  c #C327B7",
"]  c #C223BB",
"[  c #C225B9",
"{  c #CF5C82",
"}  c #CE5688",
"|  c #CF538E",
" . c #CF558C",
".. c #D35E83",
"X. c #D35E84",
"o. c #D1578A",
"O. c #D0558C",
"+. c #D15888",
"@. c #D45B88",
"#. c #CA4797",
"$. c #CD4E92",
"%. c #CA4994",
"&. c #CC4B95",
"*. c #CF4C97",
"=. c #CB459A",
"-. c #CA439C",
";. c #CA449C",
":. c #CE4899",
">. c #CF5190",
",. c #D36081",
"<. c #D66382",
"1. c #D56084",
"2. c #CB41A0",
"3. c #B90BCF",
"4. c #B90ECD",
"5. c #BD17C5",
"6. c #BA11CA",
"7. c #B703D7",
"8. c #B705D5",
"9. c #B806D4",
"0. c #B90BD1",
"q. c #B600DB",
/* pixels */
"M M M M M M M M M M M M M M M M M M M M M M M M M M M M M M M M M M M M M M M M ",
"M M M M M M M M M M M M M M M M M M M M M M M M M M M M M M M M M M M M M M M M ",
"M M M M M M M M M M M M M M M M M M M M M M M M M M M M M M M M M M M M M M M M ",
"M M M M M M M M M M M M M M M M M M M M M M M M M M M M M M M M M M M M M M M M ",
"M M M M M M M M M M M M M M M M M M M M M M M M M M M M M M M M M M M M M M M M ",
"M M M M M M M M M M M M M M M M M M M M M M M M M M M M M M M M M M M M M M M M ",
"M M M M M M M M M M M M M M M M M M M M M M M M M M M M M M M M M M M M M M M M ",
"M M M M M M M M M M M M M M M M M M M M M M M M M M M M M M M M M M M M M M M M ",
"M M M M M M M M M M M M M M M M M M M M M M M M M M M M M M M M M M M M M M M M ",
"M M M M M M M M m m m m m m m m m m m m m m m m m m m m m m m M M M M M M M M M ",
"M M M M M m m ' ] ] ] ] ] ] ] ] ] ] ] ] ] ] ] ] ] ] ] ] ] ] ] ] G m M M M M M M ",
"M M M M M m n q.q.q.q.q.q.q.q.q.q.q.q.q.q.q.q.q.q.q.q.q.q.q.q.q.Y m m M M M M M ",
"M M M M m n x q.q.q.q.q.q.q.q.q.q.q.q.q.q.q.q.q.q.q.q.q.q.q.q.q.U n m M M M M M ",
"M M M M m n 8 q.q.q.q.q.q.q.q.q.q.q.q.q.q.q.q.q.q.q.q.q.q.q.q.q.U n m M M M M M ",
"M M M M m n u q.q.q.q.q.q.q.q.q.q.q.q.q.q.q.q.q.q.q.q.q.q.q.q.q.I n n M M M M M ",
"M M M M m n p q.q.q.q.q.q.q.q.q.q.q.q.q.q.q.q.q.q.q.q.q.q.q.q.q.I n n m M M M M ",
"M M M M m n t q.q.q.q.q.q.q.q.q.q.q.q.q.q.q.q.q.q.q.q.q.q.q.q.q.I n n m M M M M ",
"M M M M m n E q.q.q.q.q.q.q.q.q.q.^ } } } } } } } } } } } } } } t n n m M M M M ",
"M M M M n n F q.q.q.q.q.q.q.q.q.q.%.d f g g g g g g g g g g g j v n n M M M M M ",
"M M M M n n P q.q.q.q.q.q.q.q.q.q.} g g h h h h h h h h h h j v b n m M M M M M ",
"M M M m n n I q.q.q.q.q.q.q.q.q.q.= j c v v v v v v v v v v v b n n m M M M M M ",
"M M M m n n J q.q.q.q.q.q.q.q.q.q.< v b b n n n n n n n n n n n n m m M M M M M ",
"M M M m n n ~ q.q.q.q.q.q.q.q.q.q.. v n n 9 L , @.<.+ Q n m m m m M M M M M M M ",
"M M M m n b . q.q.q.q.q.q.q.q.q.q.Z b s :.7.q.q.q.q.q.q.[ U m m M M M M M M M M ",
"M M M m n b O q.q.q.q.q.q.q.q.q.q.D I 0.q.q.q.q.q.q.q.q.q.q.<.m m M M M M M M M ",
"M M M m n b 1 q.q.q.q.q.q.q.q.q.q.C 9.q.q.q.q.q.q.q.q.q.q.q.q.+ m m M M M M M M ",
"M M M m n b : q.q.q.q.q.q.q.q.q.q.` q.q.q.q.q.q.q.q.q.q.q.q.q.0.a m M M M M M M ",
"M M M m n b ; q.q.q.q.q.q.q.q.q.q.q.q.q.q.q.q.q.q.q.q.q.q.q.q.q.1.n m M M M M M ",
"M M M m n b X.q.q.q.q.q.q.q.q.q.q.q.q.q.q.q.q.q.q.q.q.q.q.q.q.q.5.n m M M M M M ",
"M M M m n b o.q.q.q.q.q.q.q.q.q.q.q.q.q.q.q.q.q.q.q.q.q.q.q.q.q.q.r n m M M M M ",
"M M M m n b >.q.q.q.q.q.q.q.q.q.q.q.q.q.q.q.q.q.q.q.q.q.q.q.q.q.q.L n m M M M M ",
"M M M m n b &.q.q.q.q.q.q.q.q.q.q.q.} 6 5 { q.q.q.q.q.q.q.q.q.q.q.% n m M M M M ",
"M M M m n b ;.q.q.q.q.q.q.q.q.q.q.4.k g g k ^ q.q.q.q.q.q.q.q.q.q...n n m M M M ",
"M M M m n b e S A A A A A A A A A R g h h g %.q.q.q.q.q.q.q.q.q.q.o.b n m M M M ",
"M M M m n b v j g g g g g g g g g h c v c j | q.q.q.q.q.q.q.q.q.q.O.b n m M M M ",
"M M M m n n b v c c c c c c c c c v b b b v | q.q.q.q.q.q.q.q.q.q.O.b n m M M M ",
"M M M M m n n b b b b b b b b b b n n n n v | q.q.q.q.q.q.q.q.q.q. .b n m M M M ",
"M M M M m m n n n n n n n n n n n n m m n b | q.q.q.q.q.q.q.q.q.q. .b n m M M M ",
"M M M M M M m m m m m m m m m m m m m m n b | q.q.q.q.q.q.q.q.q.q. .b n m M M M ",
"M M M M M m 2 *.*.*.*.*.*.*.*.*.*.T m m n b | q.q.q.q.q.q.q.q.q.q. .b n m M M M ",
"M M M M m m 2.q.q.q.q.q.q.q.q.q.q.> m m n b | q.q.q.q.q.q.q.q.q.q. .b n m M M M ",
"M M M m m n 2.q.q.q.q.q.q.q.q.q.q.> n m n b | q.q.q.q.q.q.q.q.q.q. .b n m M M M ",
"M M M m n n 2.q.q.q.q.q.q.q.q.q.q.: n n n b | q.q.q.q.q.q.q.q.q.q. .b n m M M M ",
"M M M m n b 2.q.q.q.q.q.q.q.q.q.q.: b n n b | q.q.q.q.q.q.q.q.q.q. .b n m M M M ",
"M M M m n b 2.q.q.q.q.q.q.q.q.q.q.: b n n b | q.q.q.q.q.q.q.q.q.q.+.b n m M M M ",
"M M M m n b _ q.q.q.q.q.q.q.q.q.q.* b n n b | q.q.q.q.q.q.q.q.q.q.,.b n m M M M ",
"M M M m n b -.q.q.q.q.q.q.q.q.q.q.* b n n b | q.q.q.q.q.q.q.q.q.q.1 b n m M M M ",
"M M M m n b $.q.q.q.q.q.q.q.q.q.q.* b n n b | q.q.q.q.q.q.q.q.q.q.H b n m M M M ",
"M M M m n b ; q.q.q.q.q.q.q.q.q.q.; b n n b =.q.q.q.q.q.q.q.q.q.q.i b n m M M M ",
"M M M m n b K q.q.q.q.q.q.q.q.q.q.-.b n n x 5.q.q.q.q.q.q.q.q.q.^ c b n m M M M ",
"M M M m n b 7 8.q.q.q.q.q.q.q.q.q.q.; W ! -.q.q.q.q.q.q.q.q.q.q.- v n n m M M M ",
"M M M m n b c #.q.q.q.q.q.q.q.q.q.q.q.q.q.q.q.q.q.q.q.q.q.q.q.0.y v n m M M M M ",
"M M M m n n v w 8.q.q.q.q.q.q.q.q.q.q.q.q.q.q.q.q.q.q.q.q.q.q.& c b n m M M M M ",
"M M M M m n v j o q.q.q.q.q.q.q.q.q.q.q.q.q.q.q.q.q.q.q.q.q.( z v b n m M M M M ",
"M M M M m n b c g & q.q.q.q.q.q.q.q.q.q.q.q.q.q.q.q.q.q.q.) 4 j b n m M M M M M ",
"M M M M m m n b c g N ^ q.q.q.q.q.q.q.q.q.q.q.q.q.q.q.6.X g j v n n m M M M M M ",
"M M M M M m n n v j g l V / 3.q.q.q.q.q.q.q.q.q.0.(   3 g h v b n m M M M M M M ",
"M M M M M M m n b v c g g g k q B X $ @ # X B 0 k g g g j v b n n m M M M M M M ",
"M M M M M M m m n n b c j h g g g g g g g g g g g h j c v b n n m M M M M M M M ",
"M M M M M M M m m n n b v v c c j j j j j j j c c v v b n n m m M M M M M M M M ",
"M M M M M M M M M m m n n n b b b v v v v v b b b n n n n m m M M M M M M M M M ",
"M M M M M M M M M M m m m n n n n n n n n n n n n n m m m M M M M M M M M M M M ",
"M M M M M M M M M M M M M m m m m m m m m m m m m m M M M M M M M M M M M M M M ",
"M M M M M M M M M M M M M M M M M M M M M M M M M M M M M M M M M M M M M M M M ",
"M M M M M M M M M M M M M M M M M M M M M M M M M M M M M M M M M M M M M M M M ",
"M M M M M M M M M M M M M M M M M M M M M M M M M M M M M M M M M M M M M M M M ",
"M M M M M M M M M M M M M M M M M M M M M M M M M M M M M M M M M M M M M M M M ",
"M M M M M M M M M M M M M M M M M M M M M M M M M M M M M M M M M M M M M M M M ",
"M M M M M M M M M M M M M M M M M M M M M M M M M M M M M M M M M M M M M M M M ",
"M M M M M M M M M M M M M M M M M M M M M M M M M M M M M M M M M M M M M M M M "
};
