/* XPM */
static char *_[] = {
/* columns rows colors chars-per-pixel */
"40 70 132 2 ",
"   c #D87D62",
".  c #D97A66",
"X  c #DC7C67",
"o  c #D5736B",
"O  c #D5706F",
"+  c #DE7D69",
"@  c #D26776",
"#  c #D46E70",
"$  c #D36A74",
"%  c #D3657A",
"&  c #D4667B",
"*  c #D2637C",
"=  c #D4667C",
"-  c #D76A79",
";  c #DA7075",
":  c #E9BD24",
">  c #E9BC26",
",  c #EFBD2A",
"<  c #F0BB2E",
"1  c #E7AC36",
"2  c #E3A53C",
"3  c #E6A63E",
"4  c #EAB333",
"5  c #EDB533",
"6  c #EEB139",
"7  c #EEB03A",
"8  c #F2BA33",
"9  c #F4BD32",
"0  c #F3B836",
"q  c #F1B33A",
"w  c #F2B638",
"e  c #EAC21F",
"r  c #ECC41F",
"t  c #F0C71F",
"y  c #F2C81F",
"u  c #EBC022",
"i  c #ECC220",
"p  c #F0C522",
"a  c #F3C624",
"s  c #F2C820",
"d  c #F5CB20",
"f  c #F7CB23",
"g  c #F7CC20",
"h  c #FACF21",
"j  c #F1C02A",
"k  c #F6C32B",
"l  c #F7C629",
"z  c #F7C42B",
"x  c #F6C22D",
"c  c #FBD021",
"v  c #FCD121",
"b  c #DE944B",
"n  c #DF954B",
"m  c #DE924E",
"M  c #DD8C53",
"N  c #DB8956",
"B  c #DC8A55",
"V  c #DA8758",
"C  c #E09B45",
"Z  c #E69F46",
"A  c #E0964B",
"S  c #E0934F",
"D  c #E2984C",
"F  c #E69B4C",
"G  c #E28D59",
"H  c #E1895D",
"J  c #E48D5C",
"K  c #E29253",
"L  c #E39255",
"P  c #E89753",
"I  c #EAA446",
"U  c #EBA941",
"Y  c #EDAA41",
"T  c #EAA148",
"R  c #DB8062",
"E  c #DF8362",
"W  c #E28662",
"Q  c #E18167",
"!  c #BD1DBF",
"~  c #BF23B8",
"^  c #BE20BC",
"/  c #C01FBF",
"(  c #C435A7",
")  c #C63CA0",
"_  c #CA3DA3",
"`  c #C93BA5",
"'  c #C330AB",
"]  c #C433A9",
"[  c #C736A9",
"{  c #C735AB",
"}  c #C431AC",
"|  c #C42BB3",
" . c #C42CB3",
".. c #C328B6",
"X. c #C42AB4",
"o. c #C020BE",
"O. c #CF5A84",
"+. c #CE528D",
"@. c #CF558C",
"#. c #D15A87",
"$. c #D25C86",
"%. c #D45E85",
"&. c #D0568B",
"*. c #D0528F",
"=. c #D1548E",
"-. c #D05888",
";. c #D45B88",
":. c #D45C88",
">. c #C94796",
",. c #CF4F92",
"<. c #CC4B95",
"1. c #C8429B",
"2. c #CA4599",
"3. c #CC469B",
"4. c #CA429D",
"5. c #CC429F",
"6. c #CC4898",
"7. c #CF5092",
"8. c #D05092",
"9. c #D76480",
"0. c #C940A0",
"q. c #B90ECD",
"w. c #BB13C7",
"e. c #BD15C7",
"r. c #BE19C3",
"t. c #BE1AC3",
"y. c #BB11CA",
"u. c #B703D7",
"i. c #B705D5",
"p. c #B808D3",
"a. c #B702D8",
"s. c #B600DB",
/* pixels */
"v v v v v v v v v v v v v v v v v v v v v v v v v v v v v v v v v v v v v v v v ",
"v v v v v v v v v v v v v v v v v v v v v v v v v v v v v v v v v v v v v v v v ",
"v v v v v v v v v v v v v v v v v v v v v v v v v v v v v v v v v v v v v v v v ",
"v v v v v v v v v v v v v v v v v v v v v v v v v v v v v v v v v v v v v v v v ",
"v v v v v v v v v v v v v v v v v v v v v v v v v v v v v v v v v v v v v v v v ",
"v v v v v v v v v v v v v v v v v v v v v v v v v v v v v v v v v v v v v v v v ",
"v v v v v v v v v v v v v v v v v v v v v v v v v v v v v v v v v v v v v v v v ",
"v v v v v v v v v v v v v v v v v v v v v v v v v v v v v v v v v v v v v v v v ",
"v v v v v v v v v v v v v v v v v v c c c c v v v v v v v v v v v v v v v v v v ",
"v v v v v v v v v v v v v c x J 9.3.{ X.X.} 5.:.Q w c v v v v v v v v v v v v v ",
"v v v v v v v v v v v c P ` a.a.a.s.a.a.a.a.a.a.a.a.| W h c v v v v v v v v v v ",
"v v v v v v v v v c 9 _ a.a.a.a.a.a.a.a.a.a.a.a.a.a.a.a.} 0 h v v v v v v v v v ",
"v v v v v v v v h q r.s.a.a.a.a.a.a.a.a.a.a.s.s.a.a.a.a.a.e.q c v v v v v v v v ",
"v v v v v v v c x / a.s.a.a.a.a.a.a.a.a.a.a.a.s.a.a.a.a.a.a.o.l c v v v v v v v ",
"v v v v v v c h *.a.a.a.a.a.a.a.a.a.s.s.a.a.a.a.a.a.a.a.a.a.a.;.h c v v v v v v ",
"v v v v v c c q a.a.a.a.a.a.a.a.a.a.a.t.q.a.a.a.a.a.a.a.a.a.a.i.8 c c v v v v v ",
"v v v v v c h %.s.s.s.a.a.a.a.a.a.p.C e : ] a.a.a.a.a.a.a.s.s.s.; h c v v v v v ",
"v v v v v c h r.a.a.s.a.a.a.a.a.s.>.i i r M a.a.a.a.a.a.s.s.s.a.{ h c v v v v v ",
"v v v v c h 6 a.a.a.a.a.a.s.s.a.s.* i p r 1 a.a.a.a.a.a.a.a.a.a.y.g h c v v v v ",
"v v v v c h H a.a.a.a.s.a.a.a.a.s.& s s s 4 a.a.a.a.a.a.a.a.a.a.a.d h c v v v v ",
"v v v v c h - a.a.a.a.s.a.a.a.a.a.& d g d 5 a.a.a.a.a.a.a.a.a.a.a.j h c v v v v ",
"v v v c h h =.a.a.a.a.a.a.s.s.a.a.& g h g 5 a.a.a.a.a.a.a.a.a.a.a.j h c v v v v ",
"v v v c h g 6.a.a.a.s.a.a.a.a.a.a.& g h h a D A n n n n n n n A D d h c v v v v ",
"v v v c h g 4.a.s.s.s.a.a.a.a.a.a.& g h h g s t i i i r r r r t s g h c v v v v ",
"v v v c h g 0.a.a.a.a.a.s.s.s.a.a.& g h h h d s s y y y y y s s d h h c v v v v ",
"v v v c h g 0.a.a.a.a.a.a.a.s.a.a.& g h h h 6 L G F < d d g g g h h c c v v v v ",
"v v v c h g 0.a.a.a.a.a.a.a.a.a.a.& g h W o.a.a.a.a.a...+ d h h h c c v v v v v ",
"v v v c h g _ a.a.a.a.a.a.a.a.s.a.= d 7.s.s.s.a.a.a.a.a.a. .8 c c c v v v v v v ",
"v v v c h g _ a.a.a.a.a.a.a.a.s.a.& $.a.a.a.a.a.a.a.a.a.a.s.o.z c v v v v v v v ",
"v v v c h g _ a.a.a.a.a.s.s.a.a.a.} a.a.a.a.a.a.a.a.a.a.s.s.a.8.h c v v v v v v ",
"v v v c h g _ a.a.s.s.a.s.a.a.a.a.a.a.a.a.a.a.a.a.a.a.a.a.a.a.a.Y c c v v v v v ",
"v v v c h g _ a.a.a.a.a.s.a.a.a.a.a.a.a.a.a.s.a.a.a.a.a.a.a.a.a.*.h c v v v v v ",
"v v v c h g _ a.a.s.a.a.a.a.a.a.a.a.a.a.a.a.a.a.s.a.a.a.a.a.a.a.y.h h c v v v v ",
"v v v c h g _ a.a.s.s.a.s.a.a.a.a.a.a.a.a.a.a.a.s.a.a.a.a.a.a.a.a.U h c v v v v ",
"v v v c h g _ a.a.a.a.a.s.s.a.a.a.a.) N V ' a.a.a.a.a.a.a.s.s.s.a.E h c v v v v ",
"v v v c h g _ a.a.a.a.a.a.a.s.s.a.^ u i u : w.a.a.a.a.s.s.s.a.a.a.- h c v v v v ",
"v v v c h g _ a.a.s.s.s.a.a.a.s.a.O.i i i i >.a.a.a.a.s.a.a.a.a.a.$.h h c v v v ",
"v v v c h d _ a.a.a.a.a.a.a.a.a.a.% s s p p +.a.a.a.s.s.a.s.a.a.a.&.g h c v v v ",
"v v v c h d _ s.a.a.a.a.a.a.a.a.a.= s g g s +.a.a.a.s.a.s.s.a.a.a.=.g h c v v v ",
"v v v c h g _ s.s.a.a.a.s.s.s.a.a.= d h h d +.a.a.a.a.a.s.a.a.a.a.=.g h c v v v ",
"v v v c h g _ a.a.s.s.a.a.a.a.a.a.& g h h g +.a.a.a.a.s.s.a.a.a.a.@.g h c v v v ",
"v v v c h g _ a.a.a.s.a.a.a.a.a.a.& g h h g +.a.a.a.s.s.a.a.a.a.a.@.g h c v v v ",
"v v v c h g _ a.a.a.a.s.a.s.s.a.a.& g h h g +.a.a.a.s.a.a.a.a.s.a.@.g h c v v v ",
"v v v c h g 4.a.a.a.a.s.a.a.s.a.a.& g h h g +.a.a.a.s.a.a.a.a.s.a.@.g h c v v v ",
"v v v c h g <.a.a.a.a.s.a.a.a.a.a.& g h h g +.a.a.a.a.a.s.a.a.a.a.#.g h c v v v ",
"v v v c h g -.a.a.a.a.a.a.a.a.a.a.& g h h g +.a.a.s.a.a.s.a.a.a.a.= g h c v v v ",
"v v v c h g # a.a.a.a.a.a.a.a.a.a.& g h h g +.a.s.s.a.a.a.a.a.a.a.X g h c v v v ",
"v v v c h g K a.s.s.s.a.a.a.a.a.a.& g h h g +.a.s.a.a.a.a.a.a.a.a.Z g h c v v v ",
"v v v c h g , u.a.a.a.a.a.a.a.a.a.%.g h h g <.a.a.a.a.a.a.a.a.a.p.p g h c v v v ",
"v v v c h g s ] a.a.a.a.a.a.a.a.a...d h h d r.a.a.a.a.a.a.a.a.a.2.d h h c v v v ",
"v v v c h h d R a.a.a.a.a.a.a.a.a.a.,.I T 3.a.a.a.a.a.a.a.a.a.a.A d h c v v v v ",
"v v v v c h d p ! a.a.a.a.a.s.s.a.s.s.a.a.a.a.a.a.a.a.a.a.a.a.] y d h c v v v v ",
"v v v v c h g s K a.a.a.a.a.a.a.a.a.a.a.a.a.a.a.a.a.a.a.a.a.i.3 s g h c v v v v ",
"v v v v c h h d p % a.s.a.a.s.s.a.s.a.a.a.a.a.a.a.a.a.a.a.a.. p d h h c v v v v ",
"v v v v v c h g s r $ a.a.a.s.a.s.s.a.a.a.a.a.a.a.s.s.a.a.O i p g h c v v v v v ",
"v v v v v c h h d y i n ~ a.a.a.a.a.a.a.a.a.a.a.a.s.s.r.m i s g h h c v v v v v ",
"v v v v v v c h g d y r i B 1.q.a.a.a.a.a.a.a.a.i.(   u r y d h h c v v v v v v ",
"v v v v v v c c h g d s t r r u 2 V o $ @ #   C : r r r s d g h c v v v v v v v ",
"v v v v v v v c c h h g s y t r r r r r r r r i r t y s g h h c c v v v v v v v ",
"v v v v v v v v c c h h g g d s s y y y y y s s s d d g h h c c v v v v v v v v ",
"v v v v v v v v v v c c h h h g g g d d d d g g g h h h c c v v v v v v v v v v ",
"v v v v v v v v v v v c c c h h h h h h h h h h h h c c c v v v v v v v v v v v ",
"v v v v v v v v v v v v v v c c c c c c c c c c c c v v v v v v v v v v v v v v ",
"v v v v v v v v v v v v v v v v v v v v v v v v v v v v v v v v v v v v v v v v ",
"v v v v v v v v v v v v v v v v v v v v v v v v v v v v v v v v v v v v v v v v ",
"v v v v v v v v v v v v v v v v v v v v v v v v v v v v v v v v v v v v v v v v ",
"v v v v v v v v v v v v v v v v v v v v v v v v v v v v v v v v v v v v v v v v ",
"v v v v v v v v v v v v v v v v v v v v v v v v v v v v v v v v v v v v v v v v ",
"v v v v v v v v v v v v v v v v v v v v v v v v v v v v v v v v v v v v v v v v ",
"v v v v v v v v v v v v v v v v v v v v v v v v v v v v v v v v v v v v v v v v "
};
