/* XPM */
static char *_[] = {
/* columns rows colors chars-per-pixel */
"40 70 75 1 ",
"  c #CF5E7F",
". c #D87F60",
"X c #DB7C66",
"o c #D9766C",
"O c #DD7B69",
"+ c #DD7D68",
"@ c #D46F70",
"# c #D66C75",
"$ c #D4667B",
"% c #D0617D",
"& c #D6677C",
"* c #D6687B",
"= c #D87171",
"- c #EEBB2D",
"; c #F0BF28",
": c #F0BD2D",
"> c #E9AB3B",
", c #EDB730",
"< c #EBB136",
"1 c #EEB337",
"2 c #EEB138",
"3 c #F0B931",
"4 c #EEC51F",
"5 c #F0C71F",
"6 c #F1C81F",
"7 c #F1C325",
"8 c #F4C526",
"9 c #F3C920",
"0 c #F5CB20",
"q c #F7CD20",
"w c #FACF21",
"e c #FBD021",
"r c #FCD121",
"t c #DE865E",
"y c #E3964F",
"u c #E49B4A",
"i c #E79D4B",
"p c #E0865F",
"a c #E08C58",
"s c #E0885E",
"d c #E39353",
"f c #E49155",
"g c #E6A145",
"h c #EAA642",
"j c #EAA841",
"k c #D98060",
"l c #BE1CBF",
"z c #C637A7",
"x c #C73BA3",
"c c #C83CA3",
"v c #C83BA4",
"b c #C531AD",
"n c #C127B6",
"m c #C22CB1",
"M c #C328B6",
"N c #C42AB5",
"B c #C223BB",
"V c #C125B8",
"C c #CF5789",
"Z c #CD518F",
"A c #D35D85",
"S c #CC4B94",
"D c #C94698",
"F c #CC469A",
"G c #C9419D",
"H c #CF5091",
"J c #D36180",
"K c #BA0DCE",
"L c #BC17C5",
"P c #BE1BC1",
"I c #BB12C9",
"U c #B703D7",
"Y c #B807D4",
"T c #B909D2",
"R c #B600DB",
/* pixels */
"rrrrrrrrrrrrrrrrrrrrrrrrrrrrrrrrrrrrrrrr",
"rrrrrrrrrrrrrrrrrrrrrrrrrrrrrrrrrrrrrrrr",
"rrrrrrrrrrrrrrrrrrrrrrrrrrrrrrrrrrrrrrrr",
"rrrrrrrrrrrrrrrrrrrrrrrrrrrrrrrrrrrrrrrr",
"rrrrrrrrrrrrrrrrrrrrrrrrrrrrrrrrrrrrrrrr",
"rrrrrrrrrrrrrrrrrrrrrrrrrrrrrrrrrrrrrrrr",
"rrrrrrrrrrrrrrrrrrrrrrrrrrrrrrrrrrrrrrrr",
"rrrrrrrrrrrrrrrrrrrrrrrrrrrrrrrrrrrrrrrr",
"rrrrrrrrrrrrrrrrrrrrrrrrrrrrrrrrrrrrrrrr",
"rrrrrrrrrreeeeeeeeeeeeeeeeeeeerrrrrrrrrr",
"rrrrrrreeNBBBBBBBBBBBBBBBBBBBBMeerrrrrrr",
"rrrrrrrewYRRRRRRRRRRRRRRRRRRRRYwerrrrrrr",
"rrrrrrewwYRRRRRRRRRRRRRRRRRRRRYwwerrrrrr",
"rrrrrrewqYRRRRRRRRRRRRRRRRRRRRYqwerrrrrr",
"rrrrrrewqYRRRRRRRRRRRRRRRRRRRRYqwerrrrrr",
"rrrrrrew0YRRRRRRRRRRRRRRRRRRRRY0werrrrrr",
"rrrrrrew0YRRRRRRRRRRRRRRRRRRRRY0werrrrrr",
"rrrrrrew0YRRRRRRRRRRRRRRRRRRRRY0werrrrrr",
"rrrrrrew0tkk....... RRRRRRRRRRY0werrrrrr",
"rrrrrrewq9544444444@RRRRRRRRRRY0werrrrrr",
"rrrrrreww0966666654DRRRRRRRRRRT0werrrrrr",
"rrrrrreewwqq0000099lRRRRRRRRRRn0werrrrrr",
"rrrrrrreewwwwwwwwq:RRRRRRRRRRRS0werrrrrr",
"rrrrrrrreeeeeeeewwdRRRRRRRRRRR=0werrrrrr",
"rrrrrrrrrrrrrrreew*RRRRRRRRRRRyqwerrrrrr",
"rrrrrrrrrrrrrrrewwcRRRRRRRRRRR-qwerrrrrr",
"rrrrrrrrrrrrrrrewqIRRRRRRRRRRL9qwerrrrrr",
"rrrrrrrrrrrrrrrew1RRRRRRRRRRRx0wwerrrrrr",
"rrrrrrrrrrrrrrrewsRRRRRRRRRRRJ0werrrrrrr",
"rrrrrrrrrrrrrrrewARRRRRRRRRRRt0werrrrrrr",
"rrrrrrrrrrrrrrewqbRRRRRRRRRRR>qwerrrrrrr",
"rrrrrrrrrrrrrrew0TRRRRRRRRRRT9qwerrrrrrr",
"rrrrrrrrrrrrrrewjRRRRRRRRRRRm9qwerrrrrrr",
"rrrrrrrrrrrrrrew+RRRRRRRRRRRZ0werrrrrrrr",
"rrrrrrrrrrrrrrwwZRRRRRRRRRRRo0werrrrrrrr",
"rrrrrrrrrrrrrewqnRRRRRRRRRRRuqwerrrrrrrr",
"rrrrrrrrrrrrrew8URRRRRRRRRRR;qwerrrrrrrr",
"rrrrrrrrrrrrrewiRRRRRRRRRRRl9qwerrrrrrrr",
"rrrrrrrrrrrrrew=RRRRRRRRRRRG0wwerrrrrrrr",
"rrrrrrrrrrrrewwFRRRRRRRRRRR$0werrrrrrrrr",
"rrrrrrrrrrrrewqPRRRRRRRRRRRaqwerrrrrrrrr",
"rrrrrrrrrrrrew:RRRRRRRRRRRR<qwerrrrrrrrr",
"rrrrrrrrrrrrewfRRRRRRRRRRRK9qwerrrrrrrrr",
"rrrrrrrrrrrrew&RRRRRRRRRRRb0wwerrrrrrrrr",
"rrrrrrrrrrrewwvRRRRRRRRRRRC0werrrrrrrrrr",
"rrrrrrrrrrrewqIRRRRRRRRRRRX0werrrrrrrrrr",
"rrrrrrrrrrrew2RRRRRRRRRRRRgqwerrrrrrrrrr",
"rrrrrrrrrrrewpRRRRRRRRRRRU7qwerrrrrrrrrr",
"rrrrrrrrrrrewARRRRRRRRRRRB9qwerrrrrrrrrr",
"rrrrrrrrrrewqbRRRRRRRRRRRD0wwrrrrrrrrrrr",
"rrrrrrrrrrew0TRRRRRRRRRRR#0werrrrrrrrrrr",
"rrrrrrrrrrewhRRRRRRRRRRRRdqwerrrrrrrrrrr",
"rrrrrrrrrrewORRRRRRRRRRRR,qwerrrrrrrrrrr",
"rrrrrrrrrrwwHRRRRRRRRRRRI9qwerrrrrrrrrrr",
"rrrrrrrrrewqVRRRRRRRRRRRz0wwerrrrrrrrrrr",
"rrrrrrrrrew8RRRRRRRRRRRRA0werrrrrrrrrrrr",
"rrrrrrrrrew3&%%%%%%%%%%%g0werrrrrrrrrrrr",
"rrrrrrrrrewq9544444444459qwerrrrrrrrrrrr",
"rrrrrrrrreww096555555569qwwerrrrrrrrrrrr",
"rrrrrrrrrewwqq000000000qwwerrrrrrrrrrrrr",
"rrrrrrrrrrewwwwwwwwwwwwwweerrrrrrrrrrrrr",
"rrrrrrrrrrreeeeeeeeeeeeeerrrrrrrrrrrrrrr",
"rrrrrrrrrrrrrrrrrrrrrrrrrrrrrrrrrrrrrrrr",
"rrrrrrrrrrrrrrrrrrrrrrrrrrrrrrrrrrrrrrrr",
"rrrrrrrrrrrrrrrrrrrrrrrrrrrrrrrrrrrrrrrr",
"rrrrrrrrrrrrrrrrrrrrrrrrrrrrrrrrrrrrrrrr",
"rrrrrrrrrrrrrrrrrrrrrrrrrrrrrrrrrrrrrrrr",
"rrrrrrrrrrrrrrrrrrrrrrrrrrrrrrrrrrrrrrrr",
"rrrrrrrrrrrrrrrrrrrrrrrrrrrrrrrrrrrrrrrr",
"rrrrrrrrrrrrrrrrrrrrrrrrrrrrrrrrrrrrrrrr"
};
