/* XPM */
static char *_[] = {
/* columns rows colors chars-per-pixel */
"40 70 130 2 ",
"   c #D87F5F",
".  c #D67A64",
"X  c #D87E61",
"o  c #DB7C66",
"O  c #DE7F66",
"+  c #DB7A69",
"@  c #DE7A6D",
"#  c #D26776",
"$  c #D46E70",
"%  c #D26876",
"&  c #D0607E",
"*  c #D6667C",
"=  c #D86A7A",
"-  c #D86C78",
";  c #D77170",
":  c #D87172",
">  c #DC7572",
",  c #E07F69",
"<  c #EABE24",
"1  c #E7B52C",
"2  c #E8B62C",
"3  c #EEBA2E",
"4  c #F1BE2B",
"5  c #F0BA2F",
"6  c #F1BC2E",
"7  c #E6AF32",
"8  c #E5A73B",
"9  c #E2A23F",
"0  c #E3A53C",
"q  c #E8A73F",
"w  c #E5A938",
"e  c #E7AC38",
"r  c #ECAF39",
"t  c #EBAB3D",
"y  c #EFAE3E",
"u  c #E7B032",
"i  c #EFB535",
"p  c #EFB13B",
"a  c #F1B737",
"s  c #F1BA30",
"d  c #F1B33B",
"f  c #F0B03D",
"g  c #EAC21F",
"h  c #ECC31F",
"j  c #EFC71F",
"k  c #F0C61F",
"l  c #F1C81F",
"z  c #EAC120",
"x  c #EFC126",
"c  c #F1C721",
"v  c #F3C525",
"b  c #F4C725",
"n  c #F3C920",
"m  c #F5CA20",
"M  c #F7CD20",
"N  c #FACF21",
"B  c #F9CB26",
"V  c #F2C228",
"C  c #F4C12C",
"Z  c #F8C828",
"A  c #FBD021",
"S  c #FCD121",
"D  c #DE944B",
"F  c #DC845F",
"G  c #E19F41",
"H  c #E29D45",
"J  c #E1954D",
"K  c #E19849",
"L  c #E69C4B",
"P  c #E99D4D",
"I  c #E08E56",
"U  c #E49057",
"Y  c #E89A50",
"T  c #E69159",
"R  c #E3A141",
"E  c #E5A341",
"W  c #EAA740",
"Q  c #EAA247",
"!  c #EDA645",
"~  c #EBA04B",
"^  c #E08167",
"/  c #BD1DBF",
"(  c #BF21BA",
")  c #BE20BC",
"_  c #C436A6",
"`  c #C83EA0",
"'  c #C83AA5",
"]  c #C735A9",
"[  c #C632AD",
"{  c #C12AB2",
"}  c #C42BB4",
"|  c #C023B9",
" . c #C225BA",
".. c #C020BE",
"X. c #CE5B83",
"o. c #CF5D81",
"O. c #CC5589",
"+. c #CC518C",
"@. c #CF558C",
"#. c #D25F83",
"$. c #D25B87",
"%. c #D15C85",
"&. c #D0578A",
"*. c #D0558C",
"=. c #D05889",
"-. c #D45B89",
";. c #D55C88",
":. c #CD4F90",
">. c #CA4A94",
",. c #CD4A97",
"<. c #C84399",
"1. c #CB459A",
"2. c #CC469B",
"3. c #C9409F",
"4. c #CC439E",
"5. c #CD4998",
"6. c #CE5090",
"7. c #C940A0",
"8. c #BA0DCE",
"9. c #BB13C7",
"0. c #BC16C5",
"q. c #BF1BC2",
"w. c #BD18C4",
"e. c #BB11CA",
"r. c #B703D7",
"t. c #B705D5",
"y. c #B807D3",
"u. c #B808D3",
"i. c #B808D4",
"p. c #B600DB",
/* pixels */
"S S S S S S S S S S S S S S S S S S S S S S S S S S S S S S S S S S S S S S S S ",
"S S S S S S S S S S S S S S S S S S S S S S S S S S S S S S S S S S S S S S S S ",
"S S S S S S S S S S S S S S S S S S S S S S S S S S S S S S S S S S S S S S S S ",
"S S S S S S S S S S S S S S S S S S S S S S S S S S S S S S S S S S S S S S S S ",
"S S S S S S S S S S S S S S S S S S S S S S S S S S S S S S S S S S S S S S S S ",
"S S S S S S S S S S S S S S S S S S S S S S S S S S S S S S S S S S S S S S S S ",
"S S S S S S S S S S S S S S S S S S S S S S S S S S S S S S S S S S S S S S S S ",
"S S S S S S S S S S S S S S S S S S S S S S S S S S S S S S S S S S S S S S S S ",
"S S S S S S S S S S S S S S S S S S A A A A S S S S S S S S S S S S S S S S S S ",
"S S S S S S S S S S S S S A d ^ ;.4.[ } } [ 4.-., f A S S S S S S S S S S S S S ",
"S S S S S S S S S S A B @  .p.p.p.p.p.p.p.p.p.p.p.p...> Z A S S S S S S S S S S ",
"S S S S S S S S S A ! ..p.p.p.p.p.p.p.p.p.p.p.p.p.p.p.p.q.~ A S S S S S S S S S ",
"S S S S S S S S A Y i.p.p.p.p.p.p.p.p.p.p.p.p.p.p.p.p.p.p.t.T A S S S S S S S S ",
"S S S S S S S A a 8.p.p.p.p.p.p.p.p.p.p.p.p.p.p.p.p.p.p.p.p.u.y A S S S S S S S ",
"S S S S S S A N 4.p.p.p.p.p.p.p.p.p.p.p.p.p.p.p.p.p.p.p.p.p.p.] N A S S S S S S ",
"S S S S S A A p p.p.p.p.p.p.p.p.p.p.p.0.9.p.p.p.p.p.p.p.p.p.p.p.~ N A S S S S S ",
"S S S S S A N = p.p.p.p.p.p.p.p.p.p.# g z O.p.p.p.p.p.p.p.p.p.p.=.N A S S S S S ",
"S S S S S A N ] p.p.p.p.p.p.p.p.p.t.< j j 7 p.p.p.p.p.p.p.p.p.p. .N N A S S S S ",
"S S S S A N M e.p.p.p.p.p.p.p.p.p.0.j k j j p.p.p.p.p.p.p.p.p.p.p.m N A S S S S ",
"S S S S A N b p.p.p.p.p.p.p.p.p.p.w.l n n l t.p.p.p.p.p.p.p.p.p.p.i N A S S S S ",
"S S S S A N 6 p.p.p.p.p.p.p.p.p.p.w.n m m n t.p.p.p.p.p.p.p.p.p.p.t N A S S S S ",
"S S S S A N 5 p.p.p.p.p.p.p.p.p.p.w.m M M m t.p.p.p.p.p.p.p.p.p.p.W N A S S S S ",
"S S S S A N V p.p.p.p.p.p.p.p.p.p.w.m M M m t.p.p.p.p.p.p.p.p.p.p.r N A S S S S ",
"S S S S A N m u.p.p.p.p.p.p.p.p.p.w.m N M m t.p.p.p.p.p.p.p.p.p.p.V N A S S S S ",
"S S S S A N m | p.p.p.p.p.p.p.p.p.0.m M M m p.p.p.p.p.p.p.p.p.p.e.m N A S S S S ",
"S S S S A N m 6.p.p.p.p.p.p.p.p.p.p.4 M M t p.p.p.p.p.p.p.p.p.p.` m N A S S S S ",
"S S S S A N m I p.p.p.p.p.p.p.p.p.p.,.s i ' p.p.p.p.p.p.p.p.p.p.o m N A S S S S ",
"S S S S A N M c | p.p.p.p.p.p.p.p.p.p.p.p.p.p.p.p.p.p.p.p.p.p.0.x M N A S S S S ",
"S S S S A N M n E 8.p.p.p.p.p.p.p.p.p.p.p.p.p.p.p.p.p.p.p.p.y.J n M N A S S S S ",
"S S S S A N N m l 8 _ p.p.p.p.p.p.p.p.p.p.p.p.p.p.p.p.p.p.{ H k m N N A S S S S ",
"S S S S S A N M n j u & u.p.p.p.p.p.p.p.p.p.p.p.p.p.p.t.+.w j n M N A S S S S S ",
"S S S S S A N N b =.r.p.p.p.p.p.p.p.p.p.p.p.p.p.p.p.p.p.p.p.:.v N N A S S S S S ",
"S S S S S S A N 2.p.p.p.p.p.p.p.p.p.p.p.p.p.p.p.p.p.p.p.p.p.p.5.N A S S S S S S ",
"S S S S S A A U p.p.p.p.p.p.p.p.p.p.p.p.p.p.p.p.p.p.p.p.p.p.p.p.P A A S S S S S ",
"S S S S S A N ' p.p.p.p.p.p.p.p.p.p.p.p.p.p.p.p.p.p.p.p.p.p.p.p.,.N A S S S S S ",
"S S S S A N C p.p.p.p.p.p.p.p.p.p.p./ .   ( p.p.p.p.p.p.p.p.p.p.u.m N A S S S S ",
"S S S S A N U p.p.p.p.p.p.p.p.p.p.p.G g g 9 p.p.p.p.p.p.p.p.p.p.p.Q N A S S S S ",
"S S S S A N - p.p.p.p.p.p.p.p.p.p.8.j j j j p.p.p.p.p.p.p.p.p.p.p.O N A S S S S ",
"S S S A N N 6.p.p.p.p.p.p.p.p.p.p.w.k n n k t.p.p.p.p.p.p.p.p.p.p.* N A S S S S ",
"S S S A N M 1.p.p.p.p.p.p.p.p.p.p.w.n m m n t.p.p.p.p.p.p.p.p.p.p.$.N N A S S S ",
"S S S A N M 3.p.p.p.p.p.p.p.p.p.p.w.m M M n t.p.p.p.p.p.p.p.p.p.p.*.M N A S S S ",
"S S S A N M 7.p.p.p.p.p.p.p.p.p.p.w.m M M m t.p.p.p.p.p.p.p.p.p.p.*.M N A S S S ",
"S S S A N M 7.p.p.p.p.p.p.p.p.p.p.w.m M M m t.p.p.p.p.p.p.p.p.p.p.*.M N A S S S ",
"S S S A N M 7.p.p.p.p.p.p.p.p.p.p.w.m N M m t.p.p.p.p.p.p.p.p.p.p.@.M N A S S S ",
"S S S A N M ` p.p.p.p.p.p.p.p.p.p.w.m N M m t.p.p.p.p.p.p.p.p.p.p.@.M N A S S S ",
"S S S A N M 3.p.p.p.p.p.p.p.p.p.p.w.m N M m t.p.p.p.p.p.p.p.p.p.p.&.M N A S S S ",
"S S S A N M ,.p.p.p.p.p.p.p.p.p.p.w.m N M m t.p.p.p.p.p.p.p.p.p.p.#.M N A S S S ",
"S S S A N M %.p.p.p.p.p.p.p.p.p.p.w.m N M m r.p.p.p.p.p.p.p.p.p.p.: M N A S S S ",
"S S S A N M + p.p.p.p.p.p.p.p.p.p.u.m M M V p.p.p.p.p.p.p.p.p.p.p.I M N A S S S ",
"S S S A N M q p.p.p.p.p.p.p.p.p.p.p.L M M F p.p.p.p.p.p.p.p.p.p.p.3 M N A S S S ",
"S S S A N M n / p.p.p.p.p.p.p.p.p.p.8.*.6.u.p.p.p.p.p.p.p.p.p.p.[ n M N A S S S ",
"S S S A N N m ; p.p.p.p.p.p.p.p.p.p.p.p.p.p.p.p.p.p.p.p.p.p.p.p.F m N N A S S S ",
"S S S S A N m x / p.p.p.p.p.p.p.p.p.p.p.p.p.p.p.p.p.p.p.p.p.p.{ c m N A S S S S ",
"S S S S A N M n E u.p.p.p.p.p.p.p.p.p.p.p.p.p.p.p.p.p.p.p.p.8.e n M N A S S S S ",
"S S S S A N N m k K e.p.p.p.p.p.p.p.p.p.p.p.p.p.p.p.p.p.p.0.R l m N N A S S S S ",
"S S S S S A N M n j u <.p.p.p.p.p.p.p.p.p.p.p.p.p.p.p.p.>.2 j n M N A S S S S S ",
"S S S S S A N N M n j j 0 X.) p.p.p.p.p.p.p.p.p.p.( o.w j j n M N N A S S S S S ",
"S S S S S S A N N M n k j j h 1 D X $ % % $ X D 2 h j j k n M N N A S S S S S S ",
"S S S S S S S A N N M m n k j j j j j j j j j j j j k n m M N N A S S S S S S S ",
"S S S S S S S S A N N N M m n n n l l l l l l n n n m M N N N A S S S S S S S S ",
"S S S S S S S S S A A N N N M M M m m m m m m M M M N N N A A S S S S S S S S S ",
"S S S S S S S S S S S A A A N N N N N N N N N N N N A A A S S S S S S S S S S S ",
"S S S S S S S S S S S S S S A A A A A A A A A A A A S S S S S S S S S S S S S S ",
"S S S S S S S S S S S S S S S S S S S S S S S S S S S S S S S S S S S S S S S S ",
"S S S S S S S S S S S S S S S S S S S S S S S S S S S S S S S S S S S S S S S S ",
"S S S S S S S S S S S S S S S S S S S S S S S S S S S S S S S S S S S S S S S S ",
"S S S S S S S S S S S S S S S S S S S S S S S S S S S S S S S S S S S S S S S S ",
"S S S S S S S S S S S S S S S S S S S S S S S S S S S S S S S S S S S S S S S S ",
"S S S S S S S S S S S S S S S S S S S S S S S S S S S S S S S S S S S S S S S S ",
"S S S S S S S S S S S S S S S S S S S S S S S S S S S S S S S S S S S S S S S S "
};
