/* XPM */
static char *_0[] = {
/* columns rows colors chars-per-pixel */
"40 70 123 2 ",
"   c #D05F7F",
".  c #D77D62",
"X  c #D97F60",
"o  c #DE7F66",
"O  c #D5726C",
"+  c #D8736F",
"@  c #DA776C",
"#  c #DF7E68",
"$  c #D26777",
"%  c #D36D71",
"&  c #D36A74",
"*  c #D26678",
"=  c #D4667A",
"-  c #D2637C",
";  c #D7677D",
":  c #D6687B",
">  c #D96C7A",
",  c #D87073",
"<  c #DA7076",
"1  c #EBBF23",
"2  c #ECBF25",
"3  c #E7B32F",
"4  c #E9B72A",
"5  c #EEBD2A",
"6  c #E5AA37",
"7  c #E9AE37",
"8  c #E2A13F",
"9  c #ECAB3E",
"0  c #EDAC3E",
"q  c #EEB436",
"w  c #F2B737",
"e  c #F1B931",
"r  c #F5BC32",
"t  c #EAC21F",
"y  c #EFC61F",
"u  c #F0C71F",
"i  c #F1C81F",
"p  c #F2C81F",
"a  c #EAC022",
"s  c #EDC222",
"d  c #EFC520",
"f  c #F2C722",
"g  c #F2C920",
"h  c #F4CA20",
"j  c #F7CC20",
"k  c #F7C827",
"l  c #FACD23",
"z  c #F9CA26",
"x  c #FACC24",
"c  c #F2C129",
"v  c #F7C62A",
"b  c #F6C22D",
"n  c #FBD021",
"m  c #FCD121",
"M  c #DF9A45",
"N  c #DE964A",
"B  c #DE934D",
"V  c #DE8E54",
"C  c #DA855A",
"Z  c #DE865E",
"A  c #DE895B",
"S  c #E69F46",
"D  c #E79E4B",
"F  c #E6984F",
"G  c #EA9D4E",
"H  c #E39155",
"J  c #E99A51",
"K  c #E8A740",
"L  c #EAA445",
"P  c #E28663",
"I  c #E18364",
"U  c #BE1DBE",
"Y  c #C73E9F",
"T  c #C22EAE",
"R  c #C53AA3",
"E  c #C73CA1",
"W  c #C93FA0",
"Q  c #C939A7",
"!  c #C533AB",
"~  c #C736AA",
"^  c #C631AF",
"/  c #C939A8",
"(  c #C025B7",
")  c #C22CB0",
"_  c #C52EB1",
"`  c #C328B6",
"'  c #C42AB5",
"]  c #C020BD",
"[  c #CC4E8F",
"{  c #CE5886",
"}  c #CF558A",
"|  c #CB508D",
" . c #CD518D",
".. c #CF558C",
"X. c #D15B86",
"o. c #D25C85",
"O. c #D0568B",
"+. c #D0558C",
"@. c #D3588B",
"#. c #D45C88",
"$. c #CD4B95",
"%. c #C94499",
"&. c #CA429D",
"*. c #CE4999",
"=. c #D04F94",
"-. c #CE5090",
";. c #D36082",
":. c #D46083",
">. c #C940A0",
",. c #BA0FCB",
"<. c #B90CCF",
"1. c #BC16C5",
"2. c #BC18C3",
"3. c #BE1AC2",
"4. c #BB13C8",
"5. c #BC15C8",
"6. c #B703D7",
"7. c #B705D5",
"8. c #B806D5",
"9. c #B808D3",
"0. c #B90AD2",
"q. c #B601D9",
"w. c #B600DB",
/* pixels */
"m m m m m m m m m m m m m m m m m m m m m m m m m m m m m m m m m m m m m m m m ",
"m m m m m m m m m m m m m m m m m m m m m m m m m m m m m m m m m m m m m m m m ",
"m m m m m m m m m m m m m m m m m m m m m m m m m m m m m m m m m m m m m m m m ",
"m m m m m m m m m m m m m m m m m m m m m m m m m m m m m m m m m m m m m m m m ",
"m m m m m m m m m m m m m m m m m m m m m m m m m m m m m m m m m m m m m m m m ",
"m m m m m m m m m m m m m m m m m m m m m m m m m m m m m m m m m m m m m m m m ",
"m m m m m m m m m m m m m m m m m m m m m m m m m m m m m m m m m m m m m m m m ",
"m m m m m m m m m m m m m m m m m m m m m m m m m m m m m m m m m m m m m m m m ",
"m m m m m m m m m m m m m m m m m m n n n m m m m m m m m m m m m m m m m m m m ",
"m m m m m m m m m m m m m n r P #.>.^ ' _ / =.< G x n m m m m m m m m m m m m m ",
"m m m m m m m m m m m n J / q.q.q.q.q.q.q.q.q.q.q.<.@.w n m m m m m m m m m m m ",
"m m m m m m m m m n v *.q.q.q.q.q.q.q.q.q.q.q.q.q.q.q.8.> l n m m m m m m m m m ",
"m m m m m m m m n b ` q.q.q.q.q.q.q.q.q.q.q.q.q.q.q.q.q.q.&.z n m m m m m m m m ",
"m m m m m m m n x ~ q.q.q.q.q.q.q.q.q.q.q.q.q.q.q.q.q.q.q.q.$.l n m m m m m m m ",
"m m m m m m n x < q.q.q.q.q.q.q.q.q.q.q.q.q.q.q.q.q.q.q.q.q.q.I n n m m m m m m ",
"m m m m m m n r 0.q.q.q.q.q.q.q.q.q.q.3.1.q.q.q.q.q.q.q.q.q.w.5.k n m m m m m m ",
"m m m m m n l ; q.q.q.q.q.q.q.q.q.7.N t t . q.q.q.q.q.q.q.q.q.q.# l n m m m m m ",
"m m m m m n l 3.w.q.q.q.q.q.q.q.q.%.d d y y T q.q.w.q.q.q.q.q.q.~ l n m m m m m ",
"m m m m n l 0 q.q.q.q.q.q.q.q.q.w.- d f u y [ q.q.q.q.q.q.q.q.q.7.v l n m m m m ",
"m m m m n l o q.q.q.q.q.q.q.q.q.q.= g h h g  .q.q.q.q.q.q.q.q.q.q.D l n m m m m ",
"m m m m n l :.q.q.q.q.q.q.q.q.q.q.= h j j h  .q.q.q.q.q.q.q.q.q.q.o l n m m m m ",
"m m m n l l $.q.q.q.q.q.q.q.q.q.q.= j l l h  .q.q.q.q.q.q.q.q.q.q.: l l m m m m ",
"m m m n l j &.q.q.q.q.q.q.q.q.q.q.= j l l j  .q.q.q.q.q.q.w.q.q.q.o.j l n m m m ",
"m m m n l j >.q.q.q.q.q.q.w.q.q.q.= j l l j  .q.q.q.q.q.q.q.q.q.q.O.j l n m m m ",
"m m m n l j >.q.q.q.q.q.q.q.q.q.q.= j l l j  .q.q.q.q.q.q.q.q.q.q.+.j l n m m m ",
"m m m n l j >.q.q.q.q.q.q.q.q.q.q.= j l l j  .q.q.q.q.q.q.q.q.q.q.+.j l n m m m ",
"m m m n l j W q.q.q.q.q.q.q.q.q.q.= j l l j  .q.q.q.q.q.q.q.w.q.q...j l n m m m ",
"m m m n l j W q.q.q.q.q.q.q.w.q.q.= j l l j  .q.q.q.q.q.q.q.q.q.q...j l n m m m ",
"m m m n l j W q.q.q.q.q.q.q.q.q.q.= j l l j  .q.q.q.q.q.q.q.q.q.q...j l n m m m ",
"m m m n l j &.q.q.q.q.q.q.q.q.q.q.= j l l j  .q.q.q.q.q.q.q.q.q.q...j l n m m m ",
"m m m n l j $.q.q.q.q.q.q.q.q.q.q.-.j l l j W q.q.q.q.q.q.q.q.q.q...j l n m m m ",
"m m m n l j X.q.q.q.q.q.q.q.q.q.q.<.q l l 9 7.q.q.q.q.q.q.q.q.q.q...j l n m m m ",
"m m m n l j @ q.q.q.q.q.q.q.q.q.q.q.<.$.*.0.q.q.q.q.q.q.q.q.q.q.q...j l n m m m ",
"m m m n l j S q.q.q.q.q.q.q.q.q.q.q.q.q.q.q.q.q.q.q.q.q.w.q.q.q.q...j l n m m m ",
"m m m n l j f 4.q.q.q.q.q.q.q.q.q.q.q.q.q.q.q.q.q.q.q.q.q.q.q.q.q...j l n m m m ",
"m m m n l j g } q.q.q.q.q.q.q.q.q.q.q.q.q.q.q.q.q.q.q.q.q.q.q.q.q...j l n m m m ",
"m m m m n l h 7 7.q.q.q.q.q.q.q.q.q.q.q.q.q.q.q.q.q.q.q.q.q.q.q.q...j l n m m m ",
"m m m m n l j i - q.q.w.q.q.q.q.q.q.q.q.q.3.%.q.q.q.q.w.q.q.q.q.q...j l n m m m ",
"m m m m n l j g d E q.q.q.q.q.q.q.q.q.q.0.M | q.q.q.q.q.q.q.q.q.q...j l n m m m ",
"m m m m n n l j i s { q.q.q.q.q.q.q.q.4.N a  .q.q.q.q.q.q.q.q.w.q...j l n m m m ",
"m m m m m n l l h i y 6   ) ,.7.0.` * 4 y y  .q.q.q.q.q.q.q.q.q.q...j l n m m m ",
"m m m m m m n l j h i y y y t t t y y y u u  .q.q.q.q.q.q.q.q.q.q...j l n m m m ",
"m m m m m m n n l j h g i u y y d f g g h g  .q.q.q.q.q.q.q.q.q.q...j l n m m m ",
"m m m m m m m n n l l j h h g g g h h j j h  .q.w.q.q.q.q.q.q.q.q.@.j l n m m m ",
"m m m m m m r @.@.@.@.@.O.O.O.O.O.O.l l l h  .q.q.q.q.q.q.q.q.q.q.;.j l n m m m ",
"m m m m m n 0 q.q.q.q.q.q.q.q.q.q.q.l l l j  .q.q.q.q.q.q.q.q.q.q., j l n m m m ",
"m m m m n l 0 q.q.q.q.q.q.q.q.q.q.q.l l l j  .q.q.q.q.q.q.q.q.q.q.Z j l n m m m ",
"m m m m n l e q.q.q.q.q.q.q.q.q.q.q.j l l j  .q.q.q.q.q.q.q.q.q.q.K j l n m m m ",
"m m m m n l h 0.q.q.q.q.q.q.q.q.q.q.c l l j $.q.q.q.q.q.q.q.q.q.<.f j l n m m m ",
"m m m m n i h ! q.q.q.q.q.q.q.q.q.q.H l l h ] q.q.q.q.q.q.q.q.q.&.h l l n m m m ",
"m m m m n l h + q.q.q.q.q.q.q.q.q.q.] F L -.q.q.q.q.q.q.q.q.q.q.A h l n m m m m ",
"m m m m n l h 5 <.q.q.q.q.q.q.q.q.q.q.q.q.q.q.q.q.q.q.q.q.q.q.U f h l n m m m m ",
"m m m m n l j g O q.q.q.q.q.q.q.q.q.q.q.q.q.q.q.q.q.q.q.q.q.q.V g j l n m m m m ",
"m m m m n l l h f Y q.q.q.q.q.q.q.q.q.q.q.q.q.q.q.q.q.q.q.q.{ f h l l n m m m m ",
"m m m m m n l j g 2 R q.q.q.q.q.q.q.q.q.q.q.q.q.q.q.q.q.q.{ d g j l n m m m m m ",
"m m m m m n l l h i s * 0.q.q.q.q.q.q.q.q.q.q.q.q.q.q.3.C d g h l l n m m m m m ",
"m m m m m m n l j h u y 3 * ( q.q.q.q.q.q.q.q.q.0.R X 1 y i h j l n m m m m m m ",
"m m m m m m n n x j h i y y y 4 B . % $ & O C 8 a y y y i h j l n n m m m m m m ",
"m m m m m m m n x l j h g i y y y y y y y y y y y u i g j l l n n m m m m m m m ",
"m m m m m m m m n n l l j h g g g i i i i i i g g h h j l l n n m m m m m m m m ",
"m m m m m m m m m n n l l l j j j h h h h h j j j l l l n n m m m m m m m m m m ",
"m m m m m m m m m m m n n n l l l l l l l l l l l l n n n m m m m m m m m m m m ",
"m m m m m m m m m m m m m m n n n n n n n n n n n n m m m m m m m m m m m m m m ",
"m m m m m m m m m m m m m m m m m m m m m m m m m m m m m m m m m m m m m m m m ",
"m m m m m m m m m m m m m m m m m m m m m m m m m m m m m m m m m m m m m m m m ",
"m m m m m m m m m m m m m m m m m m m m m m m m m m m m m m m m m m m m m m m m ",
"m m m m m m m m m m m m m m m m m m m m m m m m m m m m m m m m m m m m m m m m ",
"m m m m m m m m m m m m m m m m m m m m m m m m m m m m m m m m m m m m m m m m ",
"m m m m m m m m m m m m m m m m m m m m m m m m m m m m m m m m m m m m m m m m ",
"m m m m m m m m m m m m m m m m m m m m m m m m m m m m m m m m m m m m m m m m "
};
