/* XPM */
static char *result[] = {
/* columns rows colors chars-per-pixel */
"64 64 248 2 ",
"   c #372E11",
".  c #531A08",
"X  c #681409",
"o  c #57350E",
"O  c #73290C",
"+  c #6A3014",
"@  c #7B3917",
"#  c #58460F",
"$  c #594814",
"%  c #5A571B",
"&  c #6F490B",
"*  c #6B4215",
"=  c #754516",
"-  c #635718",
";  c #775618",
":  c #5A680A",
">  c #587C0D",
",  c #496B1A",
"<  c #526C14",
"1  c #586918",
"2  c #5A6B1B",
"3  c #477916",
"4  c #4B741B",
"5  c #4C7A1D",
"6  c #597717",
"7  c #547D14",
"8  c #5C7A1B",
"9  c #6C780D",
"0  c #656719",
"q  c #677619",
"w  c #767918",
"e  c #554C28",
"r  c #575A23",
"t  c #684E2D",
"y  c #6C5825",
"u  c #715625",
"i  c #775B35",
"p  c #4A6728",
"a  c #5C6324",
"s  c #576925",
"d  c #4B7524",
"f  c #537B23",
"g  c #597925",
"h  c #5E7435",
"j  c #666726",
"k  c #776A25",
"l  c #6B7727",
"z  c #777926",
"x  c #756834",
"c  c #777235",
"v  c #755345",
"b  c #76704C",
"n  c #797779",
"m  c #901104",
"M  c #86250F",
"N  c #8B3415",
"B  c #874D14",
"V  c #877818",
"C  c #977213",
"Z  c #A57C1C",
"A  c #825C29",
"S  c #8C7727",
"D  c #957C29",
"F  c #896D31",
"G  c #A57834",
"H  c #897546",
"J  c #94764A",
"K  c #887F6F",
"L  c #5D830A",
"P  c #49801E",
"I  c #5C8315",
"U  c #708A0C",
"Y  c #74920C",
"T  c #7B960A",
"R  c #688517",
"E  c #748318",
"W  c #779516",
"Q  c #588326",
"!  c #658B28",
"~  c #798729",
"^  c #6A932B",
"/  c #7A9A29",
"(  c #7A8931",
")  c #6B9037",
"_  c #789B33",
"`  c #7DA136",
"'  c #839A07",
"]  c #8E8B10",
"[  c #9A8816",
"{  c #869815",
"}  c #AA900D",
"|  c #83A507",
" . c #8EA71A",
".. c #96B81C",
"X. c #B9A41B",
"o. c #B4BC17",
"O. c #86872B",
"+. c #86972A",
"@. c #979827",
"#. c #8D8B32",
"$. c #969A35",
"%. c #AA8D25",
"&. c #B79D2B",
"*. c #A99534",
"=. c #B89C38",
"-. c #89A727",
";. c #96A82C",
":. c #95B42A",
">. c #89A834",
",. c #94A635",
"<. c #9EB536",
"1. c #B6A629",
"2. c #BAA63B",
"3. c #A9B132",
"4. c #BAB935",
"5. c #C1931D",
"6. c #C7AA1B",
"7. c #D4B016",
"8. c #E7BC05",
"9. c #C5A424",
"0. c #CAAC22",
"q. c #C8B927",
"w. c #D7B623",
"e. c #DCBA23",
"r. c #C4AE3B",
"t. c #C7B532",
"y. c #D3B736",
"u. c #E4BD2B",
"i. c #AEC434",
"p. c #C9C11F",
"a. c #F3C605",
"s. c #FDCB04",
"d. c #F7CF0D",
"f. c #FBCD0B",
"g. c #E9C215",
"h. c #F4CA17",
"j. c #FBCE13",
"k. c #FBCE1A",
"l. c #FAD115",
"z. c #F7D218",
"x. c #FBD11D",
"c. c #D8C43C",
"v. c #D4DF38",
"b. c #EAC425",
"n. c #F3CC25",
"m. c #FACF25",
"M. c #F5CD2A",
"N. c #FDD325",
"B. c #F6D22A",
"V. c #FCD42B",
"C. c #E8C939",
"Z. c #F3CE31",
"A. c #E5D53E",
"S. c #F7D633",
"D. c #FBD633",
"F. c #F7D936",
"G. c #FAD835",
"H. c #F6D63B",
"J. c #FBD63B",
"K. c #FAD93C",
"L. c #E2ED3E",
"P. c #93914D",
"I. c #9B9756",
"U. c #A8914F",
"Y. c #8BA549",
"T. c #97A445",
"R. c #98B042",
"E. c #BEAA48",
"W. c #AAB24C",
"Q. c #B6BB48",
"!. c #BAB652",
"~. c #A79966",
"^. c #94AE6D",
"/. c #A8A565",
"(. c #BAB971",
"). c #C6AB4E",
"_. c #CBB949",
"`. c #D5BB46",
"'. c #C9B554",
"]. c #C09D71",
"[. c #CABD7C",
"{. c #A7C146",
"}. c #B7C746",
"|. c #B3C756",
" X c #B5CA69",
".X c #DDC445",
"XX c #D0CE4F",
"oX c #DDC95A",
"OX c #CBD656",
"+X c #DAD657",
"@X c #E7C946",
"#X c #ECD249",
"$X c #F6D745",
"%X c #FBD743",
"&X c #FBDA44",
"*X c #F3D34C",
"=X c #F7DB4C",
"-X c #FCDC4C",
";X c #E5CC56",
":X c #E8D45C",
">X c #F2D656",
",X c #F7DD54",
"<X c #FCDC53",
"1X c #F6DC59",
"2X c #FBDE5B",
"3X c #E2E555",
"4X c #F8E058",
"5X c #FAE05D",
"6X c #C4C76D",
"7X c #D7C767",
"8X c #C7DB64",
"9X c #DACF7F",
"0X c #EAD866",
"qX c #F5DD66",
"wX c #FBDF62",
"eX c #F5DF70",
"rX c #CDE26D",
"tX c #D8E67A",
"yX c #F7E264",
"uX c #FAE163",
"iX c #F7E36C",
"pX c #FAE26C",
"aX c #F7E471",
"sX c #F9E372",
"dX c #F1E67F",
"fX c #979896",
"gX c #AEA88E",
"hX c #B7BCAC",
"jX c #D7D98F",
"kX c #E1D786",
"lX c #DCE987",
"zX c #D7E795",
"xX c #EBE486",
"cX c #E7EC96",
"vX c #C8CEB2",
"bX c #EDD3A7",
"nX c #DEE8A4",
"mX c #DFE3B0",
"MX c #E8E8A7",
"NX c #F2EEB4",
"BX c #EEF1B4",
"VX c #D5D6CD",
"CX c #F0EFCC",
"ZX c #F7F3C8",
"AX c #E0DFE0",
"SX c #E7E5E4",
"DX c #F0F3EA",
"FX c #F9F8F6",
/* pixels */
"N.N.V.N.&XsXpXwX<XuXuX&X-X-XF.&X-X=XpXaXpXuX<X2XsXsXpXD.N.N.N.N.N.N.V.,XG.K.G.J.K.V.K.-XN.N.V.V.N.G.G.N.-XuXsX&XN.&XpX1XsXiXsXsX",
"S.V.J.,XuXsXyXuX,X2XV.N.N.N.V.N.V.-XpXuX<X<X-X<XuXsXpXD.N.N.N.N.N.N.V.uX<XD.K.N.V.V.V.V.N.V.V.V.G.uXK.N.N.V.D.N.V.<XpXwXuXJ.2XaX",
"z.V.-X-XD.K.&X&X&XV.N.N.V.N.F.,XuXuX<X-X<X-X<X<XwXuXiX<XS.N.N.N.N.V.V.&X=X-XyXG.uXF.V.N.K.K.K.V.N.N.N.N.N.D.-XV.V.,X&X5X-XV.pX$X",
"N.G.V.N.N.N.N.N.V.N.N.V.N.-XiXpX5X<X<X<X<X<X-X<X<XuXsXiXuX<XN.N.N.N.%XK.-X-XK.V.K.K.V.N.V.N.D.N.N.N.N.N.N.V.D.N.D.wX,XD.N.V.uX=X",
"B.K.N.S.-XG.D.D.<XK.N.V.K.uXpX2X<X<X-X-X<X-X-X5X5X2X-X2XyX$XD.N.V.N.V.-XD.V.N.N.N.N.V.V.D.V.N.N.V.D.V.N.N.N.N.N.N.J.S.J.V.N.uXiX",
"-XG.N.N.-X&X-XK.iX<X,X5X2X2X<X-X<X-X2X5XwX<XV.-XD.N.N.%X2X&XK.N.N.N.V.V.N.N.N.N.N.N.V.N.V.N.N.N.N.N.V.N.V.V.N.N.N.N.G.-X<X1XpXiX",
"V.N.N.N.&X=X5XK.pXuX<X<X-X<X<X2X2X5X5XF.V.%XG.K.N.N.V.-X<X<XK.N.N.N.D.K.N.N.N.N.N.N.V.N.N.N.N.V.N.N.N.V.N.V.J.V.V.D.2XsXpX5X<XpX",
"N.N.N.N.-X,XiX4X<X<X-X2XuX2XpXpX-XD.N.N.N.V.&XV.N.V.N.<XF.%XV.V.N.N.D.D.N.N.V.N.N.N.N.N.N.N.N.V.N.N.N.N.-XwXpX2X,X,XuXiXsX2X2XpX",
"V.N.V.&XwXwX2X<X2XuX5XpXpXsXsXuX4XG.N.N.V.N.V.N.N.N.N.&XV.N.N.N.N.N.N.N.N.V.N.N.N.V.N.N.N.V.N.N.N.V.D.-X-X2X&X$X1XuX5XsXsXpXpXsX",
"V.D.2XpX2X<X-X-X5XsXpX2XpXsXuXsXpXpXpXuX,XN.N.V.N.N.N.N.N.N.V.N.N.N.N.N.V.V.N.N.N.N.V.N.N.V.&XJ.%XuXiX2X&X-Xl.s.V.5XwXiXsXsXuX%X",
",XuX2X-X-X<X<X<X2XsXiXpXuX1X1XpXpXpXiX-XN.N.N.N.N.N.N.N.N.N.N.N.N.V.N.V.D.V.N.N.N.N.N.N.D.,X,XiXpX5XF.N.S.-XV.f.f.-X5XuX<X5X&XN.",
"<X<X<X<X2X2X&X-XuXsXpXK.J.V.V.V.&XF.D.N.N.N.V.N.N.V.N.V.%XV.N.N.N.N.N.N.N.N.N.N.D.V.V.V.<X-X-X5X-X5X2XD.N.K.J.s.s.V.-XuXpXsX1XV.",
"2X-X2X1XD.V.V.V.N.-XK.N.D.V.N.N.N.N.N.N.V.N.N.N.N.N.N.V.-XN.V.N.N.N.N.N.V.N.N.D.2XV.N.N.1X&X2Xj.s.s.S.,X-X-X1Xs.s.f.-XD.-X,X2XuX",
"pXJ.J.V.N.N.V.N.V.N.V.N.N.N.N.N.N.V.K.K.V.N.N.V.N.N.N.N.N.K.K.N.V.&XD.K.V.N.N.K.<X-XJ.V.J.,X-Xf.s.s.s.f.j.l.D.N.s.s.K.k.s.s.f.K.",
"pXpX-XN.N.V.N.N.N.N.N.N.N.N.N.N.N.N.G.V.N.N.N.N.N.V.G.V.N.-XpXD.G.-XuX-XV.K.V.V.-X-XJ.B.z.j.s.k.N.f.s.s.s.s.j.G.f.s.D.J.N.x.J.<X",
"pXpXuX-XN.V.N.N.N.N.N.N.N.N.N.V.N.N.N.N.N.N.N.V.N.N.V.K.5X2XK.F.K.N.K.<XD.K.-XV.-X<XN.x.D.D.J.<X-XJ.V.D.J.&X-X-XN.s.D.,X-X-XwX<X",
"sXsXiX,XV.V.N.V.N.N.N.N.N.N.N.N.N.V.N.N.V.N.V.-X<XK.D.V.<X<XD.V.5XS.V.-X-XD.-X&XV.<X-X-XuXwX5X<X-X-X-X-X<X<X<X2X-Xf.x.-X-X-XuX4X",
"pXpXsX5XD.J.V.N.N.N.N.N.V.N.N.N.N.D.&X-X,X-X2X<X1X<X<XD.D.4X-XN.-X4XV.D.4X-XD.-XK.G.2X-X1X5XpX,X,X,X<X2X<XuX2XwX<XD.f.J.<X%XV.V.",
"pXpXsXwXV.V.V.J.D.N.V.N.N.F.<X-X2X-XpXpXuX<XuX2XwX2XwX,XV.%X4X&XV.5X<XV.K.4X&XK.4XD.&X<X<X<X2X-XK.K.%X<XuX4XwX4X<X-Xl.x.-X-XG.V.",
"1XpXsXpX&XV.N.J.-XV.N.N.J.-X<X<XJ.V.&XuXsX5X,XuXsXuXwXpX-XN.4X5XK.%X5X&XN.-X4X&X&X-XV.<X4X1XD.G.-XuXsXuX2XF.-XwX<X-Xx.s.x.-X2XK.",
"wX2X2XsXsX2XS.J.%X<X%XV.%XN.D.&XV.S.<X=X&X&XF.5X<XJ.2XuX5X-XV.uX4XV.G.<XK.D.<X<XJ.-X&XV.1X5X5X5X&XK.&X<X<XD.%X&X-XN.x.s.s.V.,X,X",
"pX2XuXsXpX5X2X<X-X<X<X%XJ.V.B.V.N.V.V.V.5XuXK.pX-XV.-X1X<X<XG.K.pX2XV.%X4XJ.K.%XJ.G.,X%XV.&XuXG.N.N.V.K.5X4X<X2X<X5X5Xx.s.f.-X5X",
"pXpXiXsX1X%XS.2X-X-X-X;Xc.@X#X*XG.V.S.-X2X-XV.,X1XuXaX2X-X<XpXF.&X<X4XV.-X4XV.%XG.F.-X4XV.V.D.J.&X,X,X<X<X-X<XuX-X2X<X%Xf.s.V.2X",
"sXpX2XK.N.N.-XpXeX2X;X(.gXx ~.!.;X2X2X5X&XJ.wX,XF.<XuXpX,X-XuX5XuX4X<X&XN.4X,XV.-XB.&XuX<X<X5XpX5X-XK.G.N.N.J.<XN.x.K.4XV.s.j.K.",
"2X&XN.N.V.N.2XyX,XqX[.AXDXfXAXVXI._.<X<X2X2X2X<X&XF.&X2XK.K.4X-X<XpX2X<XK.D.-XD.D.<XS.-X<X2X-XF.D.V.N.V.K.%X5X4X,Xj.&XpX,XV.s.V.",
"-X<X&X%XV.J.pX&XJ.;XgXFXFXFXFXFXhX$ 2.-X<X-XN.f.j.k.N.D.K.-X-X<X<X5XwX<X&XJ.-XB.K.&X-X<X<X<X4X-X-X4X&X%X2X<XwX4X-X<X&X&X4X2Xl.N.",
"wX5XuX<X-X4XsX4XqXoXb fXSXVXAXFXVXh r 2.<X<X%XV.f.s.s.s.f.l.x.N.N.l.V.2X-X4X,X,X2X2XwX<XwX-X&X<X<X2X<XuXpXuX-XK.5X1XV.V.K.2XG.s.",
"sXpXiX,X5XpXaXsXsX:XF n AXfXn FXvXh p O.*X-X<X<X&XD.f.s.s.s.s.s.s.s.j.D.-XuXuXpX5X,XuX-X%X4XuXuXuXpX5XwX<X<XK.=XyXyXwX&Xx.4X,Xs.",
"sXsXiXsXsXsXwX2XpX;XP.vXmXhXvXDX^.h p h ;X<X<X-X-XN.j.f.j.x.N.V.G.K.&X<X<X-X<XuXuXD.D.D.s.j.K.-X-X2XpXwXuXK.f.f.&X<X4XV.N.,X-Xs.",
"sXsXsXsXiX5X-X@X=.T.R.Y.Y.Y. X^.) f d p r.-Xk.V.-X<X-X-X-X<X4X-X-X4XuXpXuX<X-X-X<X-XN.<XJ.x.j.x.z.V.<X1X-Xf.s.s.x.V.-X1X-XH.F.s.",
"sXsXsXsXsX0X'.$.+.>.>.` ` _ ^ ! Q Q d p #.<X,X<X<X<X<XuXpXsXpX5X-X<XpXpXpXqX2X<X<X-X<X-X<X<X-X<X-X-X-X-Xf.s.s.k.x.V.<XK.D.&XN.s.",
"sXsXsXiX0X@.W :.:.:.:.>.` _ ^ ^ Q Q d p l qXeXpXuXuXpXpXsXiXsXpXwX<XpXpXpX<X-X2XpXpXpX2X2XpXuX<X<X<X<XN.s.f.G.-X<X5XuX,X4X,Xs.s.",
"sXsXeXsX). .:.:.;.-.>.>._ _ ^ ^ ! f f d s oXqXH.V.V.2XyX2X<X<X<XwX5XuXsXpXJ.N.$XiXsXsXpX2XuXpX4X&XV.K.f.s.J.2X<X-X<X-XN.V.F.j.x.",
"pXsXqXqX'.T.,.<./ / ;.>.` _ ) ! Q Q f 4 , c 0X1XD.N.N.N.D.V.N.N.N.-XpXsX5XD.wXsXiXsXpXsXpX5XpXuX-Xf.s.s.s.&XJ.V.k.V.N.s.k.-X-X<X",
"2X2X2X2X_.~.b x T.Q.@.O.l 2 8 g Q f 5 5 4 s E.eXpX-XD.N.N.N.N.V.N.V.uX,XV.V.S.F.-X2X5XwXpXsXpXuX<XV.s.x.-X-X-XJ.D.%X&XN.j.D.-X-X",
"G.D.D.D.1.H K t P.I.r r r s g f Q f d d d s c eXsXsXwX,X-X&X&X&X-X&X2X-X<X5X2XwX2XD.D.-XG.5X1XG.V.K.j.s.%X-X<X-X<X<X<X-Xj.D.<X<X",
"V.V.N.m.9.t v v H I.a j l q 0 2 < d h 1 % * @ ).wXuX5X,X<X<X<X<X<X%XV.x.N.-XJ.D.<X<X2X2XV.j.V.D.f.z.j.s.j.-X<X<X&XG.V.N.k.-X&X-X",
"V.D.Z.D J A v i i b z 0.e.e.w.w.0.1.(.~.* O + Z H.&X-X,XuX<X<X-X&X5XwX2X<X<X<X,X2X<X4X,X-Xj.d.J.V.s.k.N.s.m.<X&Xl.s.s.s.x.V.j.N.",
"2XwX2X*.i J U.`.@X&.b.V.N.V.V.V.V.@XkXjXk 1 - S H.-XK.K.,X4X-X&X%X4XwX2X1XwXuXpXuX-X*X&X$XJ.j.N.&Xx.x.-XN.s.J.-Xf.f.s.l.x.f.f.j.",
"J.2X2X1Xu.Z.%X<X<XD.D.&X-X<X2X2X5XqXxX6Xl 4 4 l #X<X%Xx.N.&X<X2XD.f.x.N.f.D.eXpX<X-XD.d.-XD.&Xj.J.-Xx.D.-XN.f.%XK.K.G.-X-X-X-X&X",
"J.2X2X4XK.-X-X-X<X-XuX<X<X2XeXuX4XiXlXW.Q < 4 l #X-X<X<XV.h.V.#Xg.8.8.8.b.d.S.,XH.-X2X$XS.N.-XD.j.%X-Xx.%X-Xx.x.-X<X<X<X-X-X-X<X",
"%X%X-X,X&X<X-X-X<X<X,X<X<X<X<X<X<XdXlX>.4 7 p O.*X<X-X-XC.9.} z 6 : : w 2.=.} X.@XS.D.D.N.V.uX1XN.N.<XJ.N.-X-Xk.D.<X-X<X<X<X<X<X",
"s.j.J.5X<X-X<X<XD.D.-X<X-X-X<X-X2XlX8X|.{._ s *.-X-X@X=.C * o % 3 3 3 3 XXE.p , 2 *.C.N.N.D.yXiX-XV.V.,XD.V.&X&Xl.%X<X<X-X-X&X<X",
"J.2X2X-X<X<X-X<XJ.j.j.%X<X<X-X<XxXtX>. .i.tXI.).*X).j a l ; O # > 7 3 < 4..Xf d d r S u.N.&XsX<XV.-XG.&X-XN.%X<XK.x.-X-X<X<XN.%X",
"wXpX<X<X<X<X-X<X<X-X-X<X-X-X-X1XlX{.R R ! T.U.@X2.k a 2 q - O o < 3 P P XXQ.3 3 d y M C M.2X2XV.N.V.&XS.-X<Xl.-X-XD.N.<X-X%XV.-X",
"pXsX2X<X-X<X<X<X-X-X-X<X<X<X<XcX X/ I I g 0 =.`.U.<.,.( q 1 o o 6 P P { oX~ P 3 s M m @ &.2XJ.N.N.N.D.&XJ.-X%XD.-X-XV.D.<X-X<X<X",
"2X2X-X&X<X<X-X<X2X2X2XwX2XwXxXMX|.! I I g %.#X_.+X3X3X3X>.6 # # V ] } 6.)./.) , o m m ; #.#Xm.V.V.N.N.,X-X<X<X-X<X-X<XD.D.-X-X<X",
"-X<X2X2X&X<XeX2X<X-X1X5X2XeXNXjXO.0 q 8 w u.D._.+.] @.1.i.z &.u.g.a.a.d.C.9XnXP.# o + j j e.N.-XD.D.&X&X2X-X<X-X<X<X-X<XV.J.<X<X",
"N.V.G.K.V.&X,Xx.f.s.j.V.J.>XZX].X X @ ; } s.d.q.q 7 > 9 E #.*X<XD.l.D.F.K.H.9XzX( , < 1 s w.N.D.V.J.pX5X2X4X-X<X-X<X-X<X%XD.<X&X",
"D.G.%X&X%XV.j.s.s.s.s.s.j.xXCXU.= O O B u.-X,X_.Q 7 6 > : #.$X&X&X-XV.N.N.N.@XlX>.8 < 1 2 e.N.N.V.-XsXpXuXpX<XV.<X-XJ.-X-X<X-XK.",
"<XuXpX5XF.V.N.x.N.V.D.-X%XZXZXT.~ w ; Z Z.%XiXoX~ 6 - - # - `.B.<XG.V.N.N.N.A.lX|.}.;.;.O.b.N.N.-XuXsXpXuXpXqXD.D.<X&X-X-X-XN.f.",
"5X,XK.<XuX<X-X4X5X<X&X2X%XZXBX-.W Y q &.J.V.-XZ.O.@ O X . . D N.G.N.N.N.N.N.=XtXQ.OX3XOX%.n.m.J.uXsXiXaX-X%XuX-Xj.J.<X%XD.S.s.N.",
"V.-X4X&XuX5XK.uXpXV.N.K.%XZXMX+.W W E E.wX*X<XZ.G N B = = t k n.N.N.N.N.N.N.0XrX+.q E w 6.N.N.-XpXiXsXpXS.f.wXpX%Xs.H.$Xx.f.n.z.",
"x.f.N.&XJ.D.J.F.&XV.V.V.-XZXcX{ T { $.=.-X-X<X-X=.k q 6 6 2 2 w.N.N.N.N.N.F.tX X( 1 0 w b.N.J.pXpXeXpX,Xj.f.<XZ.y.%.S 2.k.N.D.k.",
"D.f.s.x.J.F.-X-X<X5X2X2XeXCXMX-.| 3.!.%.k.&XJ.%X%.q I 7 I 7 < 6.N.N.N.N.N.@XcX(.j j y %.N.V.pXsXpXJ.-XV.V.S.u.%.H * e # 7.J.l.K.",
"f.s.s.s.s.s.s.m.F.<XuXuXwXCXNXp.q.A.r.[ a.&Xm.m.[ R L L L > < 6.N.N.V.N.x.oXBX/.y y ; 6.V.D.aXwX2XV.-XK.&X>XC U.bXJ   & b.f.V.%X",
"N.x.x.x.N.V.&X4XuX%XG.-XM.MXNXc.p.o.| ] w.S.m.n.4.{.i.;.U > 6 w.N.N.N.N.V.7XZX/.y u u 0.V.<X-XD.-XD.wXeX1XE.A F G J * w.V.l.J.V.",
"J.J.-X<XuXpX,XN.N.4X1X-X1XkXCX}. .T ' ] S 5.w.1.,.4.+X0X4.U w b.N.N.N.V.B.7XZX/.y k k w.J.-Xm.%XJ.,XpXsX'.i u & u F 9.H.h.G.-X-X",
"V.N.G.uXiXsXsX2XJ.4XpXpXpX7XmX8X .| | { C M C ] W W ] 4.+X$.[ n.V.N.N.N.n.;XcX XO.;.i.E.b.s.D.<XJ.n.;X'.O.% #   o &.*X%Xk.-X-X-X",
"N.D.K.2X1X<XK.-XuXpX5X-X-X$XkXzXi.| | ' Z N B ' Y Y U ' 4.$.w.N.N.N.N.N.N.M.tXOXL.3Xv.$.V 7.#X#X7.[ z  X<.:     } V.D.J.D.<X-X<X",
"<XuX5X5X4X&XG.K.K.D.V.D.D.J.;XjXrX..| | } N & Y Y Y Y Y @.6.m.N.V.N.N.V.N.N.A.8Xi.3.W 8 s j S V % a s ,.<.q $ C a.s.f.&X<X-X<X-X",
"V.V.V.V.V.V.D.D.K.-X<X,XwXpXwX_.(.8X:.| [ M & Y Y Y U E X.N.N.N.K.V.V.N.N.N.N.c.|.>.3 d p a % - j 1 1 w $.t.g.s.s.s.l.G.&X<X-X<X",
"G.K.%X-X,X4XuXuX5X<X-XJ.D.D.J.B.e.2.W.<.D X & R 9 U ] X.n.V.N.N.D.V.N.N.N.V.N.n.y.Q.#.h j a r % % j w &..Xn.s.s.s.s.f.f.D.D.&X<X",
"pXuXuX5XuX-XV.N.V.N.N.N.V.V.D.&X<X:X7X`.).=.9.X.X.w.b.V.N.N.N.N.N.V.N.N.N.N.N.N.N.S.+X.Xe.`.y.w.e.C.C.1X%Xs.f.j.s.s.s.s.s.f.%X<X"
};
