/* XPM */
static char *result[] = {
/* columns rows colors chars-per-pixel */
"64 64 233 2 ",
"   c #372808",
".  c #352A0E",
"X  c #423B0E",
"o  c #502F11",
"O  c #45381A",
"+  c #68250A",
"@  c #722E0E",
"#  c #683918",
"$  c #52372F",
"%  c #56352C",
"&  c #385A1D",
"*  c #3B7D12",
"=  c #584C0F",
"-  c #4D4C11",
";  c #5A4A1B",
":  c #535D1A",
">  c #595919",
",  c #6B5208",
"<  c #684819",
"1  c #744D14",
"2  c #6A5A19",
"3  c #75551C",
"4  c #52640C",
"5  c #57790D",
"6  c #476B1A",
"7  c #57671B",
"8  c #4D7412",
"9  c #49771A",
"0  c #5C7512",
"q  c #587616",
"w  c #51791D",
"e  c #64750C",
"r  c #62681C",
"t  c #77691B",
"y  c #6C7414",
"u  c #637914",
"i  c #7B7819",
"p  c #554E2B",
"a  c #555925",
"s  c #734524",
"d  c #685A26",
"f  c #795A26",
"g  c #7A5B33",
"h  c #4D6B21",
"j  c #456B2E",
"k  c #596525",
"l  c #4E782A",
"z  c #587A23",
"x  c #526D35",
"c  c #676B24",
"v  c #786C24",
"b  c #617528",
"n  c #797923",
"m  c #687935",
"M  c #785049",
"N  c #64645A",
"B  c #767253",
"V  c #832618",
"C  c #895C1F",
"Z  c #89761C",
"A  c #927416",
"S  c #895C2A",
"D  c #856726",
"F  c #897422",
"G  c #8C792C",
"H  c #95732E",
"J  c #846632",
"K  c #8B7A3A",
"L  c #A17923",
"P  c #917743",
"I  c #3C810F",
"U  c #4C8109",
"Y  c #598216",
"T  c #698307",
"R  c #768D0B",
"E  c #779305",
"W  c #668B18",
"Q  c #7B8719",
"!  c #789212",
"~  c #5E8427",
"^  c #668A26",
"/  c #6D9625",
"(  c #779827",
")  c #789230",
"_  c #7FA334",
"`  c #7A8F47",
"'  c #88910A",
"]  c #879C09",
"[  c #868815",
"{  c #9A861B",
"}  c #8B9619",
"|  c #A28E1D",
" . c #AA961D",
".. c #B79B1E",
"X. c #8CA308",
"o. c #97A617",
"O. c #A5AD16",
"+. c #878B26",
"@. c #859928",
"#. c #92922A",
"$. c #968D35",
"%. c #87933B",
"&. c #A68C26",
"*. c #A8962A",
"=. c #B39A26",
"-. c #A89838",
";. c #B09939",
":. c #8BA82A",
">. c #95AF2F",
",. c #8AA536",
"<. c #97A936",
"1. c #A8B828",
"2. c #A6A93E",
"3. c #B8A636",
"4. c #A7B938",
"5. c #BCB837",
"6. c #D7B008",
"7. c #CAA718",
"8. c #E6B90B",
"9. c #DDBB25",
"0. c #CBAF34",
"q. c #C9B33A",
"w. c #E2BF26",
"e. c #B3C22A",
"r. c #BCC838",
"t. c #F1C306",
"y. c #FDCB04",
"u. c #F7CE0D",
"i. c #FBCD0C",
"p. c #F6CD16",
"a. c #FBCE13",
"s. c #FBCE1A",
"d. c #FAD115",
"f. c #F7D218",
"g. c #FBD11C",
"h. c #DFC33A",
"j. c #D4D339",
"k. c #EAC528",
"l. c #F6CD25",
"z. c #FACF25",
"x. c #F5CD29",
"c. c #FDD325",
"v. c #FCD42B",
"b. c #EBCA36",
"n. c #F1CE35",
"m. c #F7D535",
"M. c #FBD633",
"N. c #F7D936",
"B. c #FAD835",
"V. c #FBD63B",
"C. c #F7DA3B",
"Z. c #FBD93C",
"A. c #918B4F",
"S. c #989847",
"D. c #AF984B",
"F. c #92B045",
"G. c #9CA557",
"H. c #B9AC47",
"J. c #AEB04E",
"K. c #A8B848",
"L. c #B7AA5A",
"P. c #908C64",
"I. c #BD9C6E",
"U. c #B3B16E",
"Y. c #C09F46",
"T. c #C0AD46",
"R. c #C9B443",
"E. c #D6BD44",
"W. c #D8BE47",
"Q. c #C8B85A",
"!. c #DFBF62",
"~. c #B4CB4E",
"^. c #DBC345",
"/. c #CCD24C",
"(. c #C7CE5E",
"). c #D4C154",
"_. c #CED856",
"`. c #E4C74B",
"'. c #EFD049",
"]. c #FCD743",
"[. c #F6D845",
"{. c #FBDA44",
"}. c #F3D44C",
"|. c #F7DC4C",
" X c #FCDC4C",
".X c #E8CB53",
"XX c #E9D257",
"oX c #F4D554",
"OX c #F7DE53",
"+X c #FCDC53",
"@X c #F6DD5A",
"#X c #FBDE5B",
"$X c #D8E34E",
"%X c #EDF049",
"&X c #FAE056",
"*X c #F7E05A",
"=X c #FAE05D",
"-X c #DBC968",
";X c #CAD76E",
":X c #C8D973",
">X c #E2CE67",
",X c #EDD867",
"<X c #F6DE63",
"1X c #FBDF62",
"2X c #F6DD6D",
"3X c #ECDB74",
"4X c #CCE675",
"5X c #F7E264",
"6X c #FAE163",
"7X c #F7E36C",
"8X c #FAE26C",
"9X c #F7E471",
"0X c #F9E372",
"qX c #9DA48E",
"wX c #AABE87",
"eX c #BDBDB3",
"rX c #C1AF94",
"tX c #BECC97",
"yX c #CFD48C",
"uX c #E5DD83",
"iX c #DAE493",
"pX c #E2E892",
"aX c #F4E394",
"sX c #CDD6B5",
"dX c #E3DCA8",
"fX c #F7ECB1",
"gX c #EBF0BF",
"hX c #CBCBC5",
"jX c #D9DAD7",
"kX c #F2F6C7",
"lX c #F7F7D6",
"zX c #EAEDE6",
"xX c #F9F9F7",
/* pixels */
"c.c.v.z.[.0X6X1X+X8X6XZ.+X XB.{. X X6X9X8X5X+X#X0X0X8XB.c.c.c.c.c.c.v.+XM.{.M.B.Z.c.Z. Xc.c.v.v.c.B.B.c.{.6X0X].z.{.5X1X8X8X0X0X",
"M.v.N.&X1X0X5X5XOX#Xv.c.c.c.c.c.v. X0X6X+X+X X+X6X0X8XM.c.c.c.c.c.c.v.1X#Xv.C.c.v.v.v.v.c.v.v.v.B.6XZ.c.c.v.B.v.v.+X8X1X1XC.#X0X",
"f.M. X XM.C.{.{.{.v.c.v.v.c.N.+X5X6X+X X+X X+X+X1X6X8X+XM.v.c.c.c.c.M.{. XOX5XB.6XC.c.c.Z.C.Z.v.c.c.c.c.c.B. Xv.M.#X{.*X|.v.6X|.",
"c.B.v.c.v.c.c.c.c.c.c.v.c. X7X0X=X+X+X+X+X+X X+X+X6X0X8X1X+Xc.v.c.c.{.N. X{.{.v.{.N.v.c.v.c.M.c.c.c.c.c.c.v.M.c.v.1XOXB.c.v.1X|.",
"v.N.c.M.|.M.M.M.+XV.c.v.Z.6X8X#X+X+X X X+XOX X#X=X#X X#X1X{.v.c.c.c.M.{.M.v.c.c.c.c.v.v.B.v.c.c.v.M.v.c.v.z.c.c.c.V.M.C.M.c.<X8X",
" XB.c.c.{.|. X{.0XOXOX#X#X#X+X X X X#X=X#X+Xc.+XM.v.v.[.#X{.V.c.c.c.v.v.c.c.c.c.c.v.v.c.v.c.c.c.c.v.v.c.c.v.c.v.c.z.B.|.+X+X1X9X",
"v.c.c.c.{. X=XZ.5X6X+X+X X+X+X#X#X6X+XZ.v.].M.Z.c.c.v.{.+X#XV.c.c.c.B.V.c.c.c.c.c.c.c.c.c.c.c.c.c.c.c.c.v.v.V.v.v.B.#X0X8X=X#X8X",
"c.c.c.c. XOX7X+X#X+X+X#X6X5X6X6X XM.v.c.c.v.{.v.c.c.c.+XN.{.v.v.c.c.M.M.v.c.c.c.c.c.c.c.v.c.c.v.c.c.c.c.].1X6X1X+X+X5X8X0X#X6X6X",
"v.c.v.{.1X1X#X X+X6X#X6X0X0X0X6XOXB.v.c.M.c.v.c.c.c.c.{.v.c.c.c.v.c.c.c.c.v.c.c.c.v.c.c.c.v.c.c.c.v.M.|.OX#X{.].@X5X=X9X0X6X0X0X",
"v.M.#X8X#X+X X+X=X0X8X=X6X0X6X0X8X8X5X5X Xc.c.v.c.c.c.c.c.c.v.c.c.c.c.c.M.v.c.c.c.c.v.c.c.v.{.Z.{.1X8X#X{.{.s.y.M.+X6X8X0X0X1X].",
"+X5X#X X X+X X+X1X0X8X8X1X#X@X8X8X8X8X Xv.c.c.c.c.c.c.c.c.c.c.c.c.c.c.v.v.v.c.c.c.c.c.c.M.+XOX7X6X6XV.c.M. Xc.i.i. X#X=XOX=X{.c.",
"+X+X+X+X#X#X X X6X0X8XZ.Z.c.v.M.{.N.M.c.c.c.v.c.c.v.c.v.{.v.c.c.c.c.c.c.c.c.c.c.M.v.v.v.+X X|.=X|.=X#XB.c.N.V.y.y.v. X8X6X9X#Xv.",
"#X X#X#XM.v.v.v.c. XZ.c.M.v.c.c.c.c.c.c.c.v.c.c.c.c.c.v. Xc.v.c.c.c.c.c.v.c.c.B.#Xc.v.c.#X{.1Xa.y.y.m.+X{.|.#Xi.y.i. XB.|.#X#X1X",
"8XV.V.v.c.c.v.c.v.c.c.v.c.c.c.c.c.v.{.B.v.c.c.c.c.c.c.c.c.{.Z.c.v.{.v.{.v.c.c.V.#X XZ.v.V.+X].i.y.y.y.i.a.a.M.c.y.y.V.a.y.y.u.Z.",
"0X6X{.v.c.c.c.c.c.v.c.c.c.c.v.c.c.c.B.v.c.c.c.c.c.v.B.v.c. X6XB.B. X6X Xv.Z.v.v. X+XC.c.p.i.i.s.c.i.y.y.y.y.a.B.i.y.C.V.c.c.V.+X",
"0X8X5X Xc.v.c.c.c.c.c.c.z.c.c.c.c.c.c.c.c.c.c.v.c.v.v.V.#X#XC.B.Z.c.]. XB.N.+Xv.].+Xz.g.M.M.Z.+X|.].c.M.Z.]. X+Xc.y.M.+X{. X1X+X",
"0X0X7X+Xv.v.c.v.c.c.c.c.c.c.c.c.c.v.c.c.v.c.v. X X{.B.c.+X+XM.v.=Xv.v. XOXv.OX{.M.+X X X6X6X=X+X{. X X+X X+X+X#X Xi.c. X X X6X&X",
"6X8X8X6XM.Z.v.c.c.c.v.c.v.c.c.c.c.B.{.OX+X X#X+X#X+X+XM.M.OX Xc. X=Xv.B.+X XM.+XV.B.#X X#X6X6XOX+X@X X#X#X6X#X1X XM.i.Z.+XZ.M.v.",
"8X8X0X6Xv.v.v.V.M.c.c.c.c.Z.OX X#X{.8X8X6X+X6X=X1X#X6X+Xv.Z.=X Xv.=XOXv.Z.+X XN.+XM.{.+X+X+X#X|.Z.Z.{.+X6X*X1X#X+X Xd.g. X XM.v.",
"#X8X0X2X{.v.c.V.{.v.v.v.Z.{.+X+XV.v.{.6X0X6X+X=X0X5X1X2X Xv.+X*XV.{.=X{.v. X+X{.{. Xv.OX+X#XM.M.{.6X0X5X+XN. X1X+X Xg.y.s. X#XC.",
"1X#X#X0X0X#Xm.N. X X{.v.Z.c.M.].v.M.+XOX{.{.M.=X|.C.#X1X=X XM.#X*Xv.B.+X{.v.+X+XZ. X{.M.#X+X=X6X|.Z.{. X+XM.].{. Xc.g.y.y.v.+X+X",
"8X#X1X9X6X1X#X+X X X+XZ.V.v.v.v.c.c.v.v.*X5X[.6X|.v. X#X+X+XB.Z.8X#Xv.{.+XC.Z.{.B.M.+XZ.v.{.5XN.c.v.v.Z.6X+X+X#X+X#X#Xg.y.i. X#X",
"8X8X7X0X#X].M.1X+X X+X XZ. X+X XN.v.M.{.=X Xv.#X#X6X9X#X{.#X8XN.{.+X+Xv. X&Xv.{.M.N.|.@Xv.v.M.V.{. X&X#X+X X+X6X|.#X+X{.y.y.m.+X",
"0X8X#XZ.v.c.|.6X8X1X+X+X{. X+X+X+X6X#X=X{.V.5X|.Z. X5X8XOX X6X6X6X&X+X Xv.&X+Xv. Xv.[.6X+X+X=X8X#X XZ.B.c.c.C.+Xc.g.Z.&XM.i.a.Z.",
"#X Xc.c.c.v.*X6X+X#X7X+X+X+X+X X+X X+X+X#X#X1X+X{.B.{.#XZ.Z.+X X+X8X#X+XZ.M.{.m.M.+XM. X+X#X+XN.C.v.c.c.Z.{.6X+XOXa.[.8XOXv.y.v.",
" X+X].Z.v.Z.8X{.Z.6X7X+X1X2X X X X+X+X+X X Xz.i.a.s.c.M.Z. X+X+X+X#X1X+X{.].|.v.Z.Z. X+X+X+XOX+X X+X{.{.#XOX1X#X{.+X{.{.*X=Xd.g.",
"1X=X1X+X X*X0X&X8X#X=X5X,X0X].}.+XZ.{. X+X+X{.c.i.y.y.y.y.d.g.c.c.d.v.#X|.OXOXOX#X#X1X+X1X X{.+X+X1X+X5X8X1X XZ.5X#Xv.v.Z.#XB.i.",
"0X0X8XOX=X8X9X8X0X1X}.L.P.B P.Q.'.d.{.+X X+X+X+X{.M.i.y.y.y.y.y.y.i.i.M.+X6X6X8X=X+X8X X{.+X5X5X6X5X#X1X+X+XN. X1X5X1X{.g.&X+Xy.",
"0X0X0X9X0X8X6X=X8X5X).sXxXeXjXhXA.w.@X|.+X+X X X{.c.a.i.a.g.c.v.B.Z.{.+X+X X+X6X6XB.M.B.i.a.Z. X X#X6X8X6XN.y.a.{.+X+Xv.c.OX|.i.",
"0X0X0X0X8X6X+X X#X0X-XhXxXxXxXxXqXp Q.#X X].g.v. X+X X X X+X&X+X+X+X6X8X6X+X X X+X{.z.+XV.g.a.s.s.c.+X#X Xi.y.y.g.M. X+X|.C.B.y.",
"0X9X0X7X9X0X8X8X1X8X-XN hXjXeXxXtXx a XX+X+X+X+X+X+X+X6X8X0X8X=X X+X8X8X8X8X#X+X+X+X X+X+X+X+X X X X X Xa.y.y.s.g.v.OX{.M.{.c.y.",
"0X0X8X0X8X9X8X0X0X0X-XP jXhXN zXtXj j L.2X6X0X8X5X6X0X8X0X8X9X7X#X+X8X8X8X+X{.#X8X8X8X=X+X8X1X+X+X+X+Xc.y.i.B. X+X=X5X+XOX+Xy.y.",
"9X0X8X8X0X0X0X2X7X;XK.U.tXwXsXsX` l j A.9X9X6XM.v.v.#X5X#X+X+X+X1X=X8X0X8XC.c.{.7X0X9X8X#X6X8X&X Xv.Z.i.y.V.+X+X X+X Xc.M.C.i.g.",
"8X9X8X1X9X9X7X3XQ.A.,.:._ _ _ ) ~ l j x -X0X8X#Xm.c.c.c.M.v.c.c.c.+X8X0X#XM.1X0X0X0X0X0X8X=X8X6X{.i.y.y.i.{.Z.v.s.v.s.i.s. X X+X",
"#X#X#X#X+X Xq.#.:.>.>._ _ ) / / ~ ~ l & Q.7X0X0X8X XM.c.c.c.c.c.c.M.=XOXc.z.M.C.{.#X=X1X5X0X8X6XOXv.y.g. X+X XZ.M. X].c.a.B. X+X",
"C.M.M.M.M.q.<.:.>.:.:.,._ ( / / ~ l l & -.#X7X9X0X9X1X+X+X{.{. X XZ.#X X+X#X#X1X#XM.M. XN.#X#XB.v.Z.a.i.Z. X+X X+X X+X].a.M.+X X",
"c.v.c.c.c.{ %.<.>.R @.,.,.) / ^ ~ ~ 9 6 k `.*X6X1X6X#X+X+X+X+X X+X{.c.c.c.[.].M.+X+X#X1Xv.a.v.M.i.s.i.y.a. X+X+X XB.v.c.s. X X{.",
"v.M.M.V.].&.P.a n S.D.+.n c q z ~ z w 9 h +.x.V.C.{.|.OX6X+X+X X{.=X@X#X#X+X+XOX#X+X+X+X{.a.i.Z.c.y.s.z.y.c.+X].a.y.y.y.s.v.a.c.",
"+X8X#X+X#X-.B p p P %.; a k c z z l w 9 h a q. X{.{.Z.Z.+X@X X{.{.+X1X#X#X1X6X8X1X X{.{.[.].s.z. Xg.s.+Xc.i.B. Xi.i.y.d.g.i.i.a.",
"Z.#X+X#X X;.$ O $ P.m a a : 7 k k m b r = # H  X+X+X{.g.c.{.+X+XB.i.g.c.i.M.0X6X+XOXM.u. XM.Z.a.B. Xg.M. Xz.i.{.Z.Z.B. X X X{. X",
"V.#X#XoXW.J % J D.S.d H.q.R.Q.^.E.H.tXK + @ J }. X+X+X+Xv.a.v.OXc.y.y.i.s.d.M.+X{.|.#X{.N.c.OXM.a.{.{.g.{. Xa.g. X+X+X+X X X X+X",
"].oX!.D.J $ S !.+X.X^.+X+X+X#X+X+X@XdXG.4 7 c ^. X+X X XZ.v.i.c.B.i.y.i.g.v.y.g. XB.M.M.c.c.1X#Xc.c.+X].c. X Xs.M. X X+X+X+X+X+X",
"8.C % M J P !.oXB.v.].+X X+X X X|.@XiXF.8 6 : H.+X+X+X{.a.i.i.y.M. X].{.{.Z.d.M.{.Z.{.g.c.M.5X7X+Xc.M.|.M.v. X].d.{. X+X+X X X X",
"C.`.J g Y.oX+XoXZ.a.s. X+X+X X+X+X3X4X^ 8 8 7 R. X X+X{.y.y.y.y.y.v. X X+XOXOX5XZ.v.Z.v.c.{.0X+Xv.{.M.{. Xc.].+X{.s. X X+X Xc.].",
"1X2X.XoXoXoX+X+X X X+X+X+X X{.{.+XuX;X,.( e r `.+X X+XZ.y.y.y.y.y.y.d.{. X&XM. Xv.c.c.v.c.+X#Xv.v.v.{.v. X+Xa.{. Xv.z. X X].v. X",
"5X0X#X+XoXoX+X+X+X X X X X+X+X+X3X4X<.2.(.S.G OX X+X XZ.y.y.y.y.y.y.y.y.v.+X{.c.c.c.c.c.B.=XV.c.v.c.M.|.Z. X XM.+X+Xv.V.+X X+X+X",
"#X#X X].+X+X X+X+X#X#X6X#X1X7X,XpX>.W u @.G.^. X+X X X+XV.z.y.y.y.y.y.y.y.M.{.m.c.c.c.c. X Xc.v.v.c.c.OX X X X X+X X+XM.B.+X X X",
" X+X#X#X].+X2X1X+X X#X=X=X8X7XuX:X/ Y 5 0 &.n. X X+X+X]. X XM.M.i.y.y.a.C.#X+Xc.v.v.c.c.V.v.c.|.B.M.{.].#X+X+X X+X+X X Xv.Z.+X+X",
"c.v.B.Z.v.{.+Xc.i.y.a.v.Z.v.'.pXG.W Y 5 y 8.i.V. X X X{. X#X+X+Xm.p.n.b.h.h.`.XXb.M.c.c.c.c.c.B.c.].8X6X#X+X X+X X+X X+X{.V. X X",
"M.B.{.{.].v.a.y.y.y.y.y.i.c.aXsXf < t r *.{. X#X+X Xv.Z.].#X{.[.q.G < 2 4 k <.r : i =.k.z.v.c.c.v.{.0X6X6X8X+Xv.+X XM.+X X+X XV.",
"+X6X8X=XN.v.c.g.g.v.M.].{.2XlXrX+ + V C w.C.8X8X#X+X X5X1X|.E.n h d + ; h z r.@.9 6 h 2 ..z.v.c.{.1X0X9X5X0X1XM.M. X{. X X Xz.i.",
"#X+X{. X5X+X X#X#X+X{.6Xv.1XlXU.D 1 @ L ].m.OXv.c.c.M.#X#X3.c 6 8 2 + - 7 w ~.:.* * z s # &.z.Z.5X9X7X0X X].6X Xs.B.+X{.B.M.y.g.",
"v. X+X{.5X1XZ.6X5Xc.c.V.c.0XlXJ.Q Q y T.1X X+XB.Z.M.V. XW.J.4.:.0 2 + X 8 Y /.( * I r V < k =.{.8X0X9X8XM.i.5X8X].a.Z. Xg.i.c.s.",
"g.i.c.{.C.M.B.M.{.v.v.v.B.aXkX,.R R u .X X X+X X+X+X+XR.G.K.r.$X4.v + X 6 ^ H.0 * U < V 2 h c >X2X0X8X+Xa.i.&Xm.Z.v.a.[.s.c.M.s.",
"B.i.i.g.C.C.]. X+X=X#X#X+XfXgX:.! ! #.[.s.{.Z.Z.{.{.+X+.u 0 u :./.v Z { | =... .Q ^ G v 8 9 7 L.8XN. Xv.v.v.c.i.a. Xs.y.i.C.a.Z.",
"y.y.y.y.y.y.i.z.N.#X6X5X#XfXgX:.' >.5.y.i.{.c.c.c.c.n.n 0 q 5 T Q | l.c.c.c.z.z.k.Z %.F.W W z D.#Xv. X].[.*Xg.i.c.1XM.y.c.i.v.{.",
"c.g.g.g.c.v.{.#X6X].M. Xc.aXkX5.j.$X3.t.v.M.c.g.c.c.k.t e e 5 5 4 =.c.c.c.c.c.c.l.{ ) ~.~.4XG.=.|.v.5X2X#X8X X+X5X6Xf.z.v.u.Z.M.",
"Z.V. X+X6X8XOXc.c.&X#XOX@X3XlX/.e.O.'  .`.v.c.c.c.g.k., 1 , 4 5 z i z.c.c.c.c.v.l.Q K.@.u i r q.V.+X8X0X8X+X+X{.@X.X9.q.7.b.{. X",
"c.c.Z.1X8X9X0X#XV.&X8X6X6X3XlX_.X.] ] Q t 0.k.w.k.h.#.Z 1 V + X k > l.c.c.v.c.c.k.Q K.J v d G oXV.c.#X8X+X X+Xn.&.P P.$ O G  X+X",
"v.M.N.#X#X+XZ. X6X8X=X X+X{.dXyXo.] ] } t , [ [ } _.~.Q i t 2 o % 2 l.c.c.c.c.c.9.@.5.S S f H '.a.c.+XOXp.`.*.v J I.I.p O d }. X",
"+X6X=X#X+X{.Z.B.N.M.v.M.B.].>XiXe.X.X.! A , ' R R O.%Xo.T T 0 -   , c.c.c.c.v.c.9.( 1.Z D D $.L 6.k.W.&.F G.2 ; 1 S H . ; `.+X X",
"v.v.v.v.v.v.M.B.{. X+X+X#X6X<XQ.;Xe.X.X.D , E E E O.%Xe.T T T : . Z v.c.c.c.c.c.z.#.4.@.n H._.%.a a a a ) U.: X . 3 L 0.}.+X X+X",
"B.N.{. XOX*X=X6X#X+X XZ.M.B.].k.3.U.K.#.; < Q R T o.j.} e e e : t k.c.c.c.c.c.c.c.9.#.<.K.~.@.7 a p a : z Q =   C 6.i.u.M.M.].+X",
"6X6X5X=X6X{.M.v.v.c.c.c.c.v.V.{.|.Q.L.$.G ;.=.| {  . ... . ...7.z.v.v.c.c.c.v.c.c.v.XX3...2.#.*.{ $.$.-.*.6.6.7.y.y.y.y.y.i.].+X"
};
