/* XPM */
static char *result[] = {
/* columns rows colors chars-per-pixel */
"64 64 235 2 ",
"   c #4C0F06",
".  c #7A1D08",
"X  c #512A0C",
"o  c #473817",
"O  c #5A3914",
"+  c #68290A",
"@  c #74260A",
"#  c #64390D",
"$  c #6E2D13",
"%  c #683B15",
"&  c #3E5D1F",
"*  c #5A4D0C",
"=  c #4A4F14",
"-  c #4A4B18",
";  c #5A4619",
":  c #5A5A1A",
">  c #6F4F0A",
",  c #674A16",
"<  c #764A18",
"1  c #695A18",
"2  c #765919",
"3  c #586817",
"4  c #556C1B",
"5  c #4C7413",
"6  c #4D7D16",
"7  c #547617",
"8  c #70750A",
"9  c #727D0F",
"0  c #666212",
"q  c #7A6817",
"w  c #687A18",
"e  c #7A7617",
"r  c #4D5027",
"t  c #5D5420",
"y  c #665C24",
"u  c #785C2A",
"i  c #4C6A23",
"p  c #5C6E2E",
"a  c #4C7623",
"s  c #557726",
"d  c #5A7D23",
"f  c #696528",
"g  c #776626",
"h  c #667925",
"j  c #727E23",
"k  c #79742B",
"l  c #79683A",
"z  c #717237",
"x  c #757258",
"c  c #646560",
"v  c #841F07",
"b  c #8C3618",
"n  c #8A5214",
"m  c #8F720F",
"M  c #8A7713",
"N  c #98781A",
"B  c #8D782A",
"V  c #987426",
"C  c #5C840D",
"Z  c #57880B",
"A  c #6D8509",
"S  c #768B0E",
"D  c #749403",
"F  c #799807",
"G  c #638615",
"H  c #768816",
"J  c #7E9518",
"K  c #568221",
"L  c #5A8325",
"P  c #6D8227",
"I  c #628D25",
"U  c #78842A",
"Y  c #6B942A",
"T  c #75982A",
"R  c #73943A",
"E  c #7DA32B",
"W  c #849B07",
"Q  c #859D0A",
"!  c #8A8919",
"~  c #98851B",
"^  c #869918",
"/  c #94971B",
"(  c #B19618",
")  c #8BA30D",
"_  c #90AA12",
"`  c #92AC19",
"'  c #ACBC1A",
"]  c #95882B",
"[  c #86982A",
"{  c #949827",
"}  c #828934",
"|  c #918937",
" . c #8F9331",
".. c #AA9A26",
"X. c #B89E29",
"o. c #AD8F3C",
"O. c #B48938",
"+. c #A59E36",
"@. c #B79C3F",
"#. c #88AA28",
"$. c #93A929",
"%. c #99B72A",
"&. c #89A938",
"*. c #9DB435",
"=. c #B8A427",
"-. c #AAB62F",
";. c #A5A538",
":. c #B5A634",
">. c #A7B635",
",. c #C79D1C",
"<. c #C7A71D",
"1. c #DBB51A",
"2. c #E2B80F",
"3. c #C4AA26",
"4. c #D7AF20",
"5. c #C8B322",
"6. c #D9B829",
"7. c #CCB539",
"8. c #D5B637",
"9. c #B2C41C",
"0. c #B1C528",
"q. c #B6C637",
"w. c #F1C405",
"e. c #FDCB04",
"r. c #F7CF0D",
"t. c #FBCD0C",
"y. c #F7CF11",
"u. c #FBCE13",
"i. c #FBCE1A",
"p. c #FAD115",
"a. c #F7D118",
"s. c #FBD11C",
"d. c #CECC35",
"f. c #ECC626",
"g. c #F5CB24",
"h. c #F6CC26",
"j. c #F7D324",
"k. c #FDD325",
"l. c #FCD42B",
"z. c #EAC833",
"x. c #F6D633",
"c. c #FBD633",
"v. c #FAD835",
"b. c #F6D73A",
"n. c #FBD63B",
"m. c #FBD93C",
"M. c #DEE431",
"N. c #929049",
"B. c #979756",
"V. c #A89656",
"C. c #8EA643",
"Z. c #93A74F",
"A. c #A6A949",
"S. c #B3A948",
"D. c #B5AF4E",
"F. c #8A8D72",
"G. c #84A569",
"H. c #B0AD69",
"J. c #B3AD7A",
"K. c #CFB04C",
"L. c #C7B658",
"P. c #D2B957",
"I. c #CDBC6A",
"U. c #D1BA64",
"Y. c #C8B878",
"T. c #BBC745",
"R. c #ACC856",
"E. c #BAC558",
"W. c #CCC94A",
"Q. c #C8D146",
"!. c #D5DB43",
"~. c #C9C35A",
"^. c #DBC859",
"/. c #DADD52",
"(. c #E6CC49",
"). c #EAD349",
"_. c #F6D746",
"`. c #FCD743",
"'. c #FBDA44",
"]. c #F6D64C",
"[. c #F6DB4C",
"{. c #FCDC4C",
"}. c #E7CD59",
"|. c #EAD35B",
" X c #F2D555",
".X c #F7DE53",
"XX c #FCDC53",
"oX c #F5DD5B",
"OX c #FBDE5B",
"+X c #F2E941",
"@X c #FAE056",
"#X c #F7E05A",
"$X c #FAE05D",
"%X c #D7CE6B",
"&X c #E3CD65",
"*X c #EBD868",
"=X c #F4DD61",
"-X c #FBDF62",
";X c #F5DD6C",
":X c #EBD872",
">X c #D0E078",
",X c #F7E264",
"<X c #FAE163",
"1X c #F7E36D",
"2X c #FAE26C",
"3X c #F7E471",
"4X c #F9E372",
"5X c #7E8482",
"6X c #818986",
"7X c #AF9B84",
"8X c #98AB85",
"9X c #AFB48F",
"0X c #ABB1AA",
"qX c #AFB6B3",
"wX c #B5CA90",
"eX c #D1C78C",
"rX c #C2D189",
"tX c #D3D696",
"yX c #E3D88F",
"uX c #DBE28C",
"iX c #D8E393",
"pX c #E4EB98",
"aX c #D1CFB1",
"sX c #EFDEA0",
"dX c #DCE5A3",
"fX c #E5E7A7",
"gX c #E8F0B4",
"hX c #DCDBCB",
"jX c #D9DDD6",
"kX c #EAEFC4",
"lX c #EAE9D8",
"zX c #F3F4D6",
"xX c #E8ECE8",
"cX c #F4F4EC",
"vX c #F7F9F7",
/* pixels */
"k.k.l.j._.4X2X<XXX2X,X'.{.[.n.'.{..X2X4X2X<XXX-X2X4X2Xc.k.k.k.k.k.k.l..Xv.m.v.n.n.k.m.{.k.k.l.k.k.m.v.k.{.-X4X{.k.`.,X-X2X4X4X4X",
"x.l.n.XX-X4X$X,X.XOXl.k.k.k.k.k.l.'.2X<XXXXX{.XX<X4X2Xc.k.k.k.k.k.k.l.<XOXl.m.k.x.k.k.k.k.c.l.l.v.<Xv.k.l.l.c.k.j..X2X-X-Xn.OX1X",
"a.c.{.{.v.n.'.'.'.l.k.k.k.k.m.{.,X<XOX{.XX{.XXXX-X<X1XXXc.k.k.k.k.k.c.'.[.{.,Xv.<Xm.k.k.m.m.m.l.k.l.k.k.k.c.'.l.l.XX[.#X.Xl.2X{.",
"j.v.l.k.k.k.k.k.k.k.k.l.k.[.4X1X$X{.XXXXXXXX{.XXXX<X4X1X,XXXk.k.k.k.`.m.{.{.m.l.m.m.c.k.l.k.v.k.k.k.k.k.k.l.c.k.c.-XXXv.k.k.,X_.",
"l.m.k.c.{.v.c.c.XXn.k.k.m.<X2XOXXXXX{.{.XX.X{.OX$XOX{.OX<X'.c.k.k.k.l.{.c.k.k.k.k.k.l.k.c.l.l.k.l.c.c.k.k.k.k.l.k.n.x.n.l.j.-X2X",
"'.v.k.k.'.[.{.'.4X.X.X$X$X$X@X{.XX{.OX$XOXXXk.XXc.k.j.`.OX{.n.k.k.k.l.l.k.k.k.k.k.k.l.k.l.k.k.k.k.l.k.k.k.l.k.l.k.k.v.{.XXOX2X1X",
"l.k.k.k.'.{.$Xm.2X<XXXXX{.{.XXOXOX$XOXm.l.`.n.m.k.k.l.{.{.OXn.k.k.k.n.m.k.k.k.k.k.k.l.k.k.k.k.k.k.k.k.k.l.l.n.l.k.n.OX4X2X$XXX2X",
"k.k.k.k.{..X1X@XXXXXXXOX<X-X<X2X[.c.k.k.k.l.'.l.k.l.k.XXx.'.k.l.k.k.c.v.k.k.l.k.k.k.k.k.k.k.k.l.k.k.k.k.{.OX-X-X.XOX<X1X4XOXOX2X",
"l.k.l.'.<X-XOX{.$X$XOX2X2X4X4X,X@Xv.l.k.v.k.l.k.k.k.k.'.l.k.k.k.l.k.k.k.k.k.k.k.k.k.k.l.k.l.k.k.k.l.c.{.[.OX'.`..X,X<X4X4X2X2X4X",
"l.c.OX2XOXXX{.XX$X4X2X<X2X4X,X4X2X2X,X,X@Xs.k.k.k.l.k.k.k.k.k.k.k.k.k.k.c.l.k.k.k.k.k.l.k.k.'.m.`.<X1X$X'.{.p.e.c.XX<X2X4X4X-Xm.",
"OX-XOX{.{.XX{.XX-X4X1X<X-XOXOX-X3X2X2X{.l.k.k.k.k.k.k.k.k.k.k.k.k.l.k.k.c.k.k.k.k.k.k.l.x.XX.X1X2X$Xx.k.x.{.l.t.t.{.$X$X.XOX{.k.",
"XX{.XXXXOXOX{.{.<X4X2Xm.n.k.l.c.m.v.v.k.k.k.k.k.l.k.k.k.`.l.k.k.k.k.k.k.k.k.k.k.c.l.l.l.XX.X{.OX{.$X$Xc.k.n.n.e.e.l.[.<X2X1XOXl.",
"$X{.OXOXn.k.l.l.k.{.n.k.c.l.k.k.l.k.k.k.l.k.k.k.k.l.k.l.'.l.k.k.k.k.k.k.k.k.k.c.OXl.k.j.OX'.OXu.e.e.v.OX{.].OXe.e.t.{.v.{.XXOX-X",
"2Xn.n.l.l.k.l.k.l.k.l.l.k.k.k.k.k.k.'.v.k.k.k.l.k.k.k.k.k.'.'.k.l.'.c.m.l.k.k.v.XX{.n.l.n.XX{.t.e.e.e.e.u.u.c.k.e.e.n.u.e.e.r.'.",
"2X2X{.j.k.k.k.k.k.k.k.k.k.k.l.k.k.k.v.l.l.k.k.k.k.l.v.l.k.{.2Xc.v.{.<X{.l.n.l.c.{.{.n.l.a.u.t.i.k.t.e.e.e.e.u.c.t.e.n.m.j.k.n.{.",
"2X2X,X{.k.k.k.k.k.k.k.k.k.k.k.k.k.k.k.k.k.k.k.l.k.k.l.n.#XOXv.m.`.k.m.XXv.m..Xk.{.XXj.s.c.c.n.{.{.m.l.x.m.'.{.XXk.e.c.XX'.{.-XXX",
"4X4X3XOXk.l.l.l.k.k.k.k.k.k.k.k.k.k.k.k.l.k.l.XX[.m.c.k.XX$Xc.k.OXx.l.{.{.x.{.'.l.XX{.{.-X-X$XXX{.{.{.XXXXXXXXOX{.t.k.{.{.{.<XOX",
"4X-X4X,Xl.m.l.k.k.k.k.k.l.k.k.k.k.m.'..X{.{.OXXXOXOXXXc.v.{..Xk.{.#Xl.v..X{.v.{.m.c.OX[.OX#X1X.XXX.XXXXXXX<X$X-X{.c.t.m.XXm.l.l.",
"2X2X4X-Xl.l.l.n.x.k.k.k.k.m.{.'.OX[.2X<X<XOX<XOX-X$X-XOXk.`.#X'.k.<XXXk.m.@X{.n.XXc._.OXXXXXOX[.n.n.`.XX$X#X-X$XXX{.p.s.{.{.v.l.",
"OX2X4X-X'.l.k.n.{.l.l.l.m.{.$X.Xn.k.{.,X1XOXOX$X;X|.}.}.(.f. X#Xm.`.$X'.l.{..X'.'.XXf.(.(. Xz.z.(.=X3X,XOXm.'.<XXX{.s.e.a.{.OXn.",
"-XOXOX4X4XOXx.n.'.{.'.k.m.k.c.'.l.v.XX.X`.'.v.$X.Xb.OX-X-X'.c.<X#Xl.v.XX'.l.XXXXn.{.'.l.OXoX$X$X_.b.'..XXXv.`.'.{.k.s.e.e.l.OX.X",
"2XOX<X4X2XOXOXXXXX{.XXm.n.l.l.l.k.k.k.k.#X,Xb.2X{.l.{.oXXX.Xc.v.2XOXk.`.@Xm.m.'.v.b..X`.l.'.<Xv.k.k.k.v.<XXXXXOXXX$XOXs.e.t.{.OX",
"2X2X1X4XOX`.x.OXXX{.XX{.n.{.XX{.n.k.c.[.OX{.l.OXOX$X1X-X{.XX2Xv.'.XX@Xl.XX@Xl.`.x.x.[..Xk.l.x.n.'.XXOXOXXX[.XX<X{.OXXX`.t.e.l.OX",
"4X2XOXm.j.k.{.2X2X-XXX{.{.{.{.XX@X<X$X$X_.n.,X{.n.XX,X2XXX[.,X<X<X@XXX[.l.{.@Xl.{.l.'.2XXXXX$X2X$X{.m.c.k.k.n.XXj.j.m.@Xl.e.p.n.",
"XX{.k.k.h.l.OX;X|.}.;X].{.XXXXXXXX{.XXXXOXOX-XXX`.v.'.OXm.m.XXXXXX2XOXXXm.c.{.v.c.{.x.{.XXOX{.m.n.l.k.k.m.`.$X@XXXu.'.2X.Xk.t.l.",
"XXXX'.m.l.n.;XsXaXx aXyXoX<X{.{.{.XXXX{.{.XXk.t.u.i.k.x.m.{.{.XXXX$X-XXX{.n.{.h.m.'.{.XXXXXX@XXXXX{.{.`.OXXX-X#X{.XX'.'.#X$Xp.s.",
"-XOX-XXX].oXeXcXvXjXvXcXJ.&Xb.{.XXn.'.XXXXXX`.l.t.e.e.e.t.p.s.k.k.p.l.XX{.#X.X.XXXOX-XXX-X{.'.XXXXOXXX,X2X<X[.m.oXOXl.l.m.OXc.t.",
"4X4X2X.XOX=X9XxXvXvXvXvX0XN.%XOX`.a.`.XX{.{.XXXX'.c.t.e.e.e.e.e.e.t.u.c.{.<X<X2XOXOX2X{.`.@X,X,X<X2X$X-XXXXXm.{.,X,X-X`.s.@X@Xe.",
"4X4X4X4X4X;XB.c xXqXqXvX8Xp C. X{.{.OXXXXX{.{.{.{.j.u.t.u.s.k.l.n.m.'.{.{.{.XX,X<Xc.c.c.t.u.m.{.[.OX,X2X<Xm.e.t.'.XXXXl.j..X{.e.",
"4X4X3X3X4X|.N.0XxX6X5XcXG.K p D.XX<X2XOX{.{.a.l.{.XX{.{.{.XX@X{.XXXX<X2X<XXX{.{.XX'.l.XXn.s.u.s.a.l.XXXX{.t.e.e.s.c.{.OX{.n.m.e.",
"4X4X4X1X*XL.B.wXwX9XjXhXR a a z |.2X-XXXXXXXXXXXXXXXXX<X2X4X2X$X{.XX2X4X2X-XOXXXXXXX{.XXXXXXXX{.XX{.{.{.u.e.e.i.s.l..Xm.c.'.j.e.",
"3X*X&XS.} T #.#. .R Z.R K a a & ^.3X4X2X-X2X4X2X<X,X2X2X4X1X4X2X$XXX2X2X4XXX{.OX2X2X2X$XXX2X-X{.XXXX{.l.e.u.c.{.{.$X<X@X.X.Xe.e.",
"L.g P [ #.%.#.#.E E Y I K K a & N.4X4X1X4X4X<Xn.l.c.OX-XOXXXXXXX-X$X<X4X2Xn.k._.1X4X3X2XXX<X2X@X{.l.n.t.e.n.XXXX{.XX].k.l.n.u.s.",
"A.j ` %.%.` #.#.E E Y I K K K a h *X2X4X1X2X2X@Xc.j.k.k.c.l.k.k.k.{.2X4XOXn.$X4X4X4X1X4X2X<X2X$X'.t.e.e.t.`.m.l.i.l.k.e.i.{.{.{.",
"S.*.' *.J T &.&.E Y Y I L K K a i S.4X4X4X1X4X1X2X{.v.j.k.k.k.l.k.l.,X.Xk.l.x.n.{.OXOX-X,X4X2X2X.Xk.e.s.{.XX{.m.c.`.'.k.u.v.{.XX",
"d.+.T [ &.C.&.&.T Y Y L L K 6 a i } *X2X<XOX2X4X4X2X$XOX{.'.'.'.{.'.OX{.{.$XOX<XOXc.c.{.m.OXOXx.x.m.u.t.n.{.XX{.XXXXXX{.u.c.XX{.",
"k.4.x r F.H.h P I d h L L L d a s p 7.v.`.[.$X2X-X<XOXOXXX{.XXXXXX`.l.k.k.{.n.c.XXXXOX-Xl.u.k.c.t.u.t.e.u.{.XXXX{.v.l.k.i.{.{.'.",
"k.X.c F.F.J.X.5.:.+.../ P s 6 4 y t N b.m.k.l.m.m.'.{.{.<X@XXX{.'.$XOXOXOX.XXXXXOXXXXX.X{.a.t.n.k.e.i.k.e.k.XX{.p.e.e.e.i.l.u.k.",
"OX}.K.P.H.P.'.{.{.n.j.h.f.A.H.z + v b L.-XOX{.'.`.'.m.m.XX#X'.`.'.@X-XOXOX-X,X2X-X{.{.'.b.`.i.k.{.s.s.{.l.e.n.'.t.t.e.p.s.t.t.u.",
"n.OX.X,X7.X.XX{.XXc.v.{.{.^.iXV.% $ < o.OXXXXX{..XOX'.s.k.{.XXOXv.t.s.i.t.n.4X-XXX{.c.r.{.v.`.u.c.XXs.c.{.k.t.'.n.n.v.{.{.{.'.{.",
"n.OXXX#Xb._.{.{.XX].-XXXXX&XpXZ.3 i 3 ] ].XXXX{.{.{.XX{.l.u.l.XXs.e.e.t.s.t.c.@X'.{.OX'.x.j.XXc.u.`.{.s.'.{.i.s.{.XXXXXX{.{.{.XX",
"'.'.{.#X'.XX{.XXXXXXXXXX{.:XpX&.5 7 7 ] ].XXXXXXXXXXXX{.n.c.t.j.n.t.e.t.a.c.e.s.{.v.x.c.k.l.<XXXk.j.{.`.k.{.'.i.l.XX{.XXXXXXXXXX",
"e.u.n.#XXX{.XXXXv.c.{.{.].yXpXH 5 5 3 @.{.XX{.XXXX{.{.{.t.t.t.e.c.{.'.'.'.m.u.c.'.v.`.k.k.c.1X1XXXk.c.XXc.l.{.'.a.'.{.XX{.{.{.{.",
"m.OXOX{.XXXX{.XXm.u.u.`.&XfX>X;.[ w 3 7.XX{.XX{.XX{.XXm.e.e.e.e.e.k.{.{.XXXXXX,Xn.l.m.k.j.'.2XXXk.{.c.'.{.j.`.{.`.s.{.{.XXXXk.`.",
"-X2XXXXXXXXX{.XXXX{.XX}.eXuXS.-./.~.B (.XXXX{.XXXX{.XXn.e.e.e.e.e.e.p.'.{.@Xv.{.k.k.k.l.k.$X-Xl.l.k.{.l.{.XXp.{.{.x.k.XX{.`.l.{.",
"2X4XOXXX{.XXXXXX{.{.].U.dXR.H A ^ D.S.{.{.XXXXXX{.{.XXm.e.e.e.e.e.e.e.e.l.XX[.j.k.l.k.k.v.$Xm.k.l.k.v.'.n.{.'.c.{.XXk.c.XXXXXX{.",
"OXOX'.{.XXXX{.XXXXoX^.tXwXT G Z C U P.'.{.{.{.{.XXXX{.XXn.k.e.e.e.e.e.e.e.v.'.k.k.k.k.k.'.{.k.k.l.j.k..X{.XX{.{.XX{.XXc.c.{.{.XX",
"{.XXOXOX`.OX;XOX.X].eXdX*.G C C 7 +.].'.l.l.n.{.{.XXXX`.{.{.c.c.t.e.e.p.v.OXOXl.l.l.k.k.m.l.k.{.c.v.'.'.OXXXXX{.XXXXXXXXk.m.XXXX",
"k.k.m.m.j.'.XXs.t.6.fXtXU h w G e 1.u.t.e.t.t.c.XX{.'.`.XXOXXXXXv.u.c.m.'.v.@X-Xm.c.k.k.k.k.k.x.l.n.2XOXOXOX{.{.{.XX{.XX'.c.XX'.",
"l.n.m.[.`.c.u.e.w.I.zXV.O @ n u 3.`.n.n.`.{.XXOXXX{.l.`.'.XX'.'.'.[.l.k.k.k.m.<Xk.l.k.k.k.k.k.k.l.{.4X2X-X2XXXl.XX{.n.{.{.XX{.m.",
"XX<X2X$Xm.k.j.s.6.aXzXN.+ . . n f.l.l.l.c.`.1X2X@X@X{.,X-XXX{.l.XXv.k.k.k.l.l.c.l.m.l.'.k.k.k.k.{.-X4X2X,X2X-Xc.c.{.'.{.{.{.k.t.",
"$XXXm.XX<XXX{.oX&XhXgXN.e q q ,.k.l.l.'.c.l.XXl.k.k.v.$XOX{.].k.c.k.k.k.k.k.k.k.k.c.k.c.k.l.k.n.-X3X1X4X{.'.<X{.i.n.XX'.c.c.e.k.",
"l.{.#X'.<X$Xb.-X%XlXfX[ H A ! f.k.l.x.<X-X{.XXc.m.c.v.{.{.XXc.l.k.k.k.k.k.k.k.k.k.k.k.k.k.k.k.{.1X4X1X2Xc.t.<X2X`.u.`.{.i.t.j.i.",
"s.t.k.'.n.c.n.b.I.lXdX^ H A ! z.n.'.m.XX{.{.XX{.XXXXXX{.OX{.k.k.k.k.k.k.k.k.k.k.k.l.k.k.k.l.n.2X;X2X2XOXy.t.XXv.n.l.u.m.i.l.x.i.",
"c.t.e.s.n.m.'._.Y.zXiXJ S S /  XOX2X1X'.i.`.n.`.`.'.XX@XXXc.k.k.k.k.k.k.k.k.k.k.k.l.l.k.k.l.-X4X2Xm.{.l.l.c.j.t.u.{.u.t.t.n.t.'.",
"t.e.e.e.e.e.t.g.U.lXiX^ F _ q.|.<X1X{.t.t.`.k.k.k.k.v.n.k.k.k.k.k.j.g.g.h.l.k.k.k.k.k.k.l.n.4X=X$Xl.{.m.`.oXs.t.k.<Xx.e.k.u.l.m.",
"k.s.i.s.j.l.'.OXI.lXpXq.0.M.T.f.l.XXa.e.c.v.k.k.l.k.l.k.j.f.f.=.~ M 2 > < q ~ 3.f.k.k.k.l.XX.Xc.{.c.,X2XOX2X{.{.<X2Xi.i.l.y.m.x.",
"m.n.{.XX<X3X{.j.K.hXgXd.0.9._ 5.].j.t.k..Xl.k.l.k.k.g.<.~ $.%XA.s 4 3 # + 1 h E.+.( i.l.m.].k.`.c.XX2X4X-XXXXX'.OXOXl.`.u.n.'.{.",
"l.k.v.,X1X4X4XOX(.qXgX0.) ) W ! X.1.6.7.8.d.4.3.X.N 2 q 3 G ` !.T 5 5 ,   : 3 q.Q.0 ] 8.h.t.c.XXm.k.OX2XXXXXXXb.c.'.{.`.u.{.XX{.",
"k.c.m.OXOXXXm.[.|.J.kXW.) W F Q e n ] H H ;.~.+.H w 0 , 3 6 D d.*.6 6 ,   1 3 q.!.q 2 , N 2._.{.u.j.XX.Xi..Xb.s.e.l.x.z.4.@.o.K.",
"XX<X$XOX@X'.n.m.c.7.9X>X` F ) W N @ V S D ^ /.M.J Z 9 # : 6 8 1.-.6 5 ;   f 7 q.7.8 1 ; , B | M m V B N ~ ] ] M m ~ N g l l 7X9X",
"l.l.l.k.l.k.c.c.m.{.S.rXQ.) ) ) V @ ! D D D d.+X` Z 9 # - L 7 d. .5 3 ; X * Z.Q.[ 0 ; ; 1 [ R.- ; O O * A.} : : 1 | H.y u u V.L.",
"x.m.'.{..X$X<X<X-XXX).S.rXT._ W V + ! D D D d.M.` Z 9 , - I 3 ~ ..5.1.6.1.<...B : = - : h -.R.7 2 # , e Q.$.: t : } N., r o < O.",
"<X<X,X<X<X[.l.l.k.k.l.l.6.^.>.{ y % ! A S S =.5.S G 8 , 1 M ( f.k.k.k.k.l.k.j.g.=.q f k ;.T.U : * # 2 { >.0 0 0 0 M B < o o n V "
};
