/* XPM */
static char *result[] = {
/* columns rows colors chars-per-pixel */
"64 64 232 2 ",
"   c #2E0B3A",
".  c #510705",
"X  c #660905",
"o  c #6B0901",
"O  c #740B00",
"+  c #790C00",
"@  c #691905",
"#  c #781705",
"$  c #6A2609",
"%  c #76300E",
"&  c #42183C",
"*  c #5D353E",
"=  c #6F282A",
"-  c #7B4D2A",
";  c #191357",
":  c #260F4F",
">  c #29165E",
",  c #1F215B",
"<  c #352C54",
"1  c #372D56",
"2  c #11176D",
"3  c #121A79",
"4  c #1A2174",
"5  c #302F6F",
"6  c #543444",
"7  c #423570",
"8  c #5D5051",
"9  c #6E554A",
"0  c #554B6B",
"q  c #6E6E73",
"w  c #6B7374",
"e  c #820E00",
"r  c #861502",
"t  c #891300",
"y  c #8D1901",
"u  c #921F00",
"i  c #952501",
"p  c #972905",
"a  c #9A2C01",
"s  c #992C07",
"d  c #8B310D",
"f  c #9E3303",
"g  c #9D360A",
"h  c #983A16",
"j  c #A13600",
"k  c #A53C01",
"l  c #A53B05",
"z  c #955417",
"x  c #A94100",
"c  c #A94508",
"v  c #B24700",
"b  c #B44A00",
"n  c #B84D00",
"m  c #BE5100",
"M  c #B75609",
"N  c #A94C14",
"B  c #B45B18",
"V  c #9F6814",
"C  c #BC6514",
"Z  c #B77116",
"A  c #995128",
"S  c #985829",
"D  c #965430",
"F  c #A75B25",
"G  c #A25D2D",
"H  c #95712D",
"J  c #A9672A",
"K  c #B96927",
"L  c #BB7527",
"P  c #AB6833",
"I  c #B56D35",
"U  c #B77639",
"Y  c #C35600",
"T  c #C45B06",
"R  c #CC5D00",
"E  c #D06000",
"W  c #D1660A",
"Q  c #C56613",
"!  c #D27412",
"~  c #D7731B",
"^  c #C47832",
"/  c #8B734E",
"(  c #BA7843",
")  c #887A65",
"_  c #C27E41",
"`  c #BC8618",
"'  c #AF8C39",
"]  c #BBA33D",
"[  c #D58C15",
"{  c #D19419",
"}  c #E29614",
"|  c #D3A21D",
" . c #EBB50F",
".. c #E6AC19",
"X. c #D79A28",
"o. c #CE8F31",
"O. c #C9943C",
"+. c #D9A828",
"@. c #DBB629",
"#. c #D4A43A",
"$. c #D4B03D",
"%. c #E9B726",
"&. c #ECBC22",
"*. c #EAB42D",
"=. c #E6B634",
"-. c #FDCC04",
";. c #F7CF0D",
":. c #FBCD0B",
">. c #F7CF11",
",. c #FBCE13",
"<. c #FBCE1A",
"1. c #FAD115",
"2. c #F7D218",
"3. c #FBD11C",
"4. c #F5C826",
"5. c #FDD325",
"6. c #FCD42B",
"7. c #EDC530",
"8. c #FBD633",
"9. c #F7D937",
"0. c #FAD835",
"q. c #FBD63B",
"w. c #FAD93C",
"e. c #998453",
"r. c #BBA454",
"t. c #8F836B",
"y. c #AD946B",
"u. c #9BA26A",
"i. c #AEA96D",
"p. c #CC8946",
"a. c #CE9447",
"s. c #D9934E",
"d. c #DD9751",
"f. c #E1954B",
"g. c #E59C54",
"h. c #D7A443",
"j. c #D0B14F",
"k. c #E4BB47",
"l. c #E0BA57",
"z. c #C2A96D",
"x. c #D9C151",
"c. c #E7C548",
"v. c #F3CD4B",
"b. c #F5D547",
"n. c #FBD743",
"m. c #FBDA44",
"M. c #FCDC4C",
"N. c #EBC859",
"B. c #F5D352",
"V. c #F6DB56",
"C. c #FCDC53",
"Z. c #FBDE5B",
"A. c #F9E058",
"S. c #FAE05D",
"D. c #D2C96A",
"F. c #F4D864",
"G. c #FBDF62",
"H. c #E9D470",
"J. c #F7E264",
"K. c #FAE163",
"L. c #F7E46C",
"P. c #FAE26C",
"I. c #F7E472",
"U. c #F9E372",
"Y. c #101D85",
"T. c #152987",
"R. c #153287",
"E. c #112693",
"W. c #102B9B",
"Q. c #15329B",
"!. c #29378B",
"~. c #102DA2",
"^. c #1133A5",
"/. c #1034AB",
"(. c #1036B1",
"). c #113BB4",
"_. c #103EBC",
"`. c #1A4392",
"'. c #2F4F96",
"]. c #1D55AA",
"[. c #1644BA",
"{. c #294EB0",
"}. c #226AB7",
"|. c #3B6CB8",
" X c #42488A",
".X c #4F7398",
"XX c #6D798F",
"oX c #4B73B1",
"OX c #1142C3",
"+X c #1146C9",
"@X c #134ACE",
"#X c #134DD4",
"$X c #184FD1",
"%X c #1452DA",
"&X c #1954D8",
"*X c #2256CA",
"=X c #3172CE",
"-X c #1658E4",
";X c #175DEB",
":X c #185FEF",
">X c #1960EE",
",X c #1860F0",
"<X c #2669E7",
"1X c #4278D0",
"2X c #6A8995",
"3X c #588CB3",
"4X c #679AA7",
"5X c #6C99BB",
"6X c #7699B5",
"7X c #79A2B0",
"8X c #3882C2",
"9X c #4886C5",
"0X c #5589C8",
"qX c #5C8CC9",
"wX c #4D93C6",
"eX c #5B95C9",
"rX c #4F85D3",
"tX c #6B99C7",
"yX c #6394CA",
"uX c #6697CD",
"iX c #6A9ACB",
"pX c #74A4CD",
"aX c #7CACCF",
"sX c #76A9D2",
"dX c #94AA8B",
"fX c #9FA491",
"gX c #819DA4",
"hX c #96B2AF",
"jX c #8AA9B4",
"kX c #D6D084",
"lX c #85B1C9",
"zX c #80B0D0",
/* pixels */
"5.5.6.5.m.U.P.G.C.K.J.w.M.M.9.m.M.M.P.I.P.K.C.Z.U.U.P.8.5.5.5.5.5.5.6.V.9.w.0.q.w.5.m.M.5.5.6.6.5.0.0.5.m.P.U.m.5.m.L.Z.I.I.U.U.",
"8.6.9.V.K.U.J.K.C.Z.6.5.5.5.6.5.6.M.P.K.C.C.M.C.K.U.P.8.5.5.5.6.5.5.6.Z.C.8.w.5.6.6.6.5.5.6.6.6.0.K.w.5.5.6.8.5.5.V.J.G.G.9.Z.I.",
"2.6.M.M.0.9.m.m.m.6.5.6.6.5.9.C.K.J.Z.M.C.M.C.Z.K.K.P.M.8.6.5.5.5.5.8.n.M.M.K.0.K.9.6.3.w.w.w.6.5.5.5.5.5.8.M.6.6.C.M.S.M.6.G.M.",
"5.0.6.5.5.5.5.5.6.5.5.6.5.M.P.P.Z.M.C.C.C.C.M.M.C.K.I.P.G.C.5.5.5.5.n.w.M.M.w.6.w.w.6.5.6.5.8.5.5.5.5.5.5.6.0.5.8.G.C.8.5.6.J.b.",
"6.w.5.8.M.0.0.8.C.w.5.6.w.K.P.Z.C.C.M.M.C.C.M.Z.K.C.M.Z.J.n.8.5.6.5.8.b.8.6.5.5.5.5.6.6.8.6.5.5.6.8.8.5.5.5.5.5.5.q.8.0.8.6.J.L.",
"m.9.5.5.M.b.M.w.I.C.M.Z.S.Z.C.M.M.M.Z.S.Z.B.6.M.8.6.6.M.C.M.q.6.5.5.5.6.5.5.5.6.5.5.8.5.6.5.5.5.5.6.5.5.5.6.5.5.5.5.0.C.C.C.G.L.",
"6.5.5.5.m.M.S.9.L.J.C.C.M.M.C.Z.Z.J.A.w.6.n.8.w.5.5.4.=.k.k.*.......*.*.&.5.5.5.5.5.6.5.5.5.5.6.5.5.5.6.5.6.q.6.6.0.Z.U.P.S.V.U.",
"5.5.5.6.M.V.L.A.C.C.C.Z.K.K.K.P.M.8.5.5.5.6.n.6.4.&.[ s p p p i p s p a Q &.4.5.5.5.5.5.5.5.5.6.5.5.5.5.M.G.P.Z.C.V.K.P.P.Z.Z.P.",
"5.6.6.m.G.G.Z.C.Z.K.Z.P.P.U.U.K.V.q.6.5.8.5.5.5.C j j j j k j k j j j j j g c &.6.6.5.5.5.6.5.5.5.6.8.M.V.Z.m.n.V.J.S.U.U.P.P.U.",
"6.8.C.P.Z.C.M.C.S.U.P.S.P.U.K.U.P.K.J.K.M.5.4.C l a j x k x k k x x x k j f j M ..6.6.5.5.5.m.w.m.G.P.Z.m.m.<.-.8.A.J.P.U.U.G.n.",
"Z.J.Z.M.M.M.C.C.Z.U.P.P.J.Z.V.P.P.P.P.M.6.5.&.a f k k k k x k k x x b n v x k y { 5.5.5.8.C.C.P.P.S.9.6.6.M.6.:.:.M.Z.S.V.S.m.5.",
"C.M.C.Z.Z.Z.m.C.K.U.P.w.q.6.6.6.m.0.8.6.5.5.%.f k v v b b b v v v v R E Y x k u X.6.6.6.V.M.C.S.M.Z.Z.0.5.9.0.:.-.6.M.K.P.I.Z.6.",
"Z.M.Z.Z.0.6.5.5.5.M.w.5.8.6.5.5.5.5.6.5.5.5.&.f v R R R R R R R R R E E R Y x f #.5.5.5.Z.b.Z.,.-.-.8.V.m.M.Z.-.-.:.M.0.m.C.Z.K.",
"P.q.q.6.5.5.6.5.6.5.6.5.5.5.5.5.5.6.w.8.5.5.&.g j Y E E E E E E E E E E E Y n X.B.M.w.6.q.V.n.,.-.-.-.;.,.,.0.5.-.-.q.,.-.-.;.m.",
"P.L.m.6.5.6.5.5.5.5.5.5.5.5.5.5.5.5.8.6.6.5.4.} M Y E E E E E E E E E E E R M &.M.C.q.6.1.,.:.<.5.:.-.-.-.-.,.8.:.-.q.w.5.5.8.C.",
"P.P.K.M.5.6.5.5.5.5.6.5.5.5.5.5.5.5.5.5.5.5.3.4.C n E E E E E E E E E E E Y c %.n.C.5.<.6.0.w.M.M.w.5.8.w.n.M.C.5.-.8.C.m.M.G.C.",
"U.U.I.C.6.6.6.5.5.5.5.5.5.5.5.5.5.6.5.5.6.6.6.b.B v R E E E E E E E E E R v g =.6.A.M.M.G.G.S.M.m.M.M.C.M.C.C.Z.M.:.3.M.M.M.J.A.",
"U.G.U.J.6.w.8.5.5.5.5.5.6.5.5.6.5.0.m.b.C.b.k.k.N p b E E E E E E E E E Y j s a.=.7.S.M.V.S.L.V.V.C.C.Z.Z.S.S.G.C.8.:.q.C.m.6.6.",
"P.P.U.K.6.6.5.q.8.5.5.5.5.0.A.m.S.b.F.F.H.h.% @ # p b E E E E E E E E E Y f r $ $ Z b.b.V.C.V.M.w.w.m.M.S.S.G.S.C.M.1.3.M.M.8.6.",
"Z.P.U.G.m.6.5.q.M.6.6.5.w.M.A.M.q.4.z - - % O O h g b E E E E E E E E E m l h # O % % S c.Z.9.9.m.G.I.J.A.w.b.G.C.M.3.-.3.M.Z.q.",
"G.Z.Z.P.U.Z.8.q.m.M.m.6.w.3.6.$.V z # o o O e t A F B M E E E E E E E M B B A r e + o # K J j.S.M.w.m.C.C.8.n.m.M.5.3.-.-.6.C.C.",
"P.Z.G.I.L.Z.Z.C.M.M.A.w.9.6.| z . X + t t u u i h P U I ~ ~ ~ ~ ~ ~ ~ ^ I I N u u y t e e o A +.5.6.6.w.J.C.C.Z.C.Z.Z.3.-.:.M.S.",
"P.P.L.I.S.n.8.Z.A.M.M.M.w.M.S . . e t y a k k k l B ^ f.g.g.g.g.g.g.g.f.O.^ c k k a t y t t O z b.C.C.C.C.m.Z.K.M.Z.C.m.:.-.6.S.",
"U.P.Z.w.6.5.b.L.P.S.A.A.M.M.S X t t j k k k x x v c M ~ ^ f.g.f.g.g._ ~ W T v x x k k k j y e F V.M.w.0.5.5.q.C.5.5.w.A.6.-.,.w.",
"Z.M.5.5.5.6.S.J.C.Z.L.C.C.C.k.L j j k x l l l k Y Y R E Q ~ ~ ~ ~ ~ W R E R T Y v k x x k k u N q.6.5.5.w.m.J.C.M.2.m.P.C.6.-.6.",
"M.C.m.w.6.q.P.m.w.S.I.C.G.G.m.X.k x k x l Y R Y R E E E E E E E E E E E E E E E Y Y b x x k j C B.C.m.w.Z.C.G.Z.b.M.m.m.S.Z.1.2.",
"G.Z.G.C.M.S.P.A.P.Z.S.J.G.P.w.=.Q Y n n Y E E R E E E E E E E E E E E E E E E E E E R n n n T X.M.Z.A.J.P.G.M.w.J.V.6.6.9.Z.0.:.",
"U.U.L.C.S.L.U.P.U.Z.M.G.G.P.U.C.7.! ! W R E E R E E E E E E E E E E E E E E E E E E R R E ! k.G.P.G.Z.G.C.C.9.M.J.J.G.m.3.A.C.:.",
"I.U.U.U.I.P.K.S.P.K.C.K.P.P.P.A.M.c.N.[ B C B Q E E E E E E E E E E E E E E E Q Q B Q C C  .w.M.M.V.L.P.K.w.:.;.m.C.C.6.5.V.M.-.",
"U.U.I.I.P.K.M.A.Z.P.P.P.P.P.U.J.D.4X6X3X.X.X|.|.G E R R E E R R E E E E E E Q .X|.oX.X.X2X$.1.3.<.6.M.C.M.:.-.-.3.6.M.Z.M.w.9.-.",
"U.U.U.L.U.P.P.P.P.P.U.P.S.L.P.D.4X9X0X9X9X9X=X1XXXq q w 0 * 8 q q * 0 q w w XX|.<X<X8X3X8X7XdXfXV.M.C.M.:.-.-.<.3.6.M.w.8.m.5.-.",
"I.U.P.U.P.U.U.P.U.P.U.I.U.I.kXgX9XtXtXtXqX0XqXqXuXyXeXrX=XT.{.}.`.3 [.8XwX0X0X1X=XrXuXyXtXtXwX4Xz.V.C.5.-.:.0.M.C.S.J.A.A.V.-.-.",
"U.U.P.P.U.U.U.U.P.U.P.U.U.H.hXtXtXzXzXzXiX0X9X0XpXzXzXaX0X*X&X_.3 [.}.eXzXzXaXeX0XiXsXzXzXzXtXqX6Xj.q.:.-.q.C.C.M.M.M.5.8.q.,.3.",
"P.U.P.K.U.I.P.U.U.U.K.U.I.hXgXhXhXlXzXaXiX9X8XwXpXzXzXpX1X<X;X%X).[.}.eXzXzXaXeXwX0XyXpXaXaXzXpXqXgX@.-.:.m.w.6.<.6.<.:.<.M.M.M.",
"Z.Z.S.Z.C.C.C.M.q.Z.U.U.H.5XjXhXhXlXtXyXyX0X8X3XpXzXaX0X<X*X+X$X@X2 2 '.eXzXaXeX8X8X8XqXyXaXzXzX6X/ ..<.M.C.M.w.q.M.m.5.,.0.M.C.",
"8.0.8.8.8.0.M.G.G.G.G.I.H.) / fXhXhXjX6XgXdX'.8XqXyXoX!.OX~.{.1X=X[.Q.R.'.wXeX8X*X}.8X0X7XlXlXjXy.U Z ..w.M.C.M.C.M.C.n.,.8.C.M.",
"5.6.6.5.5.5.6.w.G.V.Z.B.a.U ^ z.fXhXgX5XdXr.4 }.|.|.'.Q.~.{.oXiXuX<X&X^.`.].8X'.Q..X7X3X7X5X6Xy.p._ G { 1.m.C.C.M.0.6.5.<.M.M.m.",
"6.8.8.q.w.q.6.8.C.M.9.%.J _ d.d.z.fXXX.Xu.] , ].}.`.T.[.'.oXpXzXaXuX=X&X^.4 ].2 2 ) D.4X3X.X) s.g.p.G X.-.5.C.m.,.-.-.-.<.6.,.5.",
"C.P.A.C.C.m.m.M.C.0.5.%.J p.g.g.p.G D D a.r.1 T./.[.~.4 1XiXsXsXsXiX9X<X#X[.[.3 , / B.j.2X9 ( g.g.d.I $.5.-.9.M.:.:.-.1.3.:.:.,.",
"w.S.C.Z.m.8.C.M.C.8.8.c.P _ d.s._ D ( G a.V.r.5 /.OX+X&X>X<X>X<X<X<X>X;X%X[.[., e.x.=.J / D P s.g.p.%.7.M.5.:.m.q.q.0.M.M.M.m.M.",
"q.Z.C.S.w.M.M.M.C.M.G.B.k.P ( U D G I G p.M.B.r. X/.+X#X;X:X,X,X,X,X,X-X+X).!.e.x.M.k.S P G S I O.I c.3.m.M.<.3.M.C.C.C.M.M.M.C.",
"m.m.M.A.m.C.M.M.C.C.C.C.B.P G G A A P A p.C.C.B.0 ~.[.+X;X:X,X,X,X,X,X%XOX(.5 $.m.9.@.G U G A S G J k.m.3.M.M.<.6.C.M.C.C.C.C.C.",
"-.<.q.S.C.M.C.C.8.8.n.C.v.I A A A A A A O.M.B.r.5 ~.OX#X;X:X,X,X,X,X,X%X+X(.4 e.c.q.k.S P S A A A G =.M.8.6.M.m.2.m.M.C.C.M.M.M.",
"q.C.A.M.C.C.M.C.w.,.<.M.M.' F A A A A A O.M.l.1 3 ~.#X;X:X:X,X,X,X,X,X,X%X(.3 ; ' 6.=.A A A A A A I =.m.M.5.n.M.m.3.M.M.C.M.5.m.",
"G.P.C.C.C.C.M.C.M.M.C.C.M.v.' A A A A S O.B.j.1 3 ~.+X;X,X,X,X,X,X,X>X>X#X(.Y.; ' 7.@.J A A A A J %.b.6.M.C.<.M.M.6.5.M.M.n.6.M.",
"P.U.Z.C.M.C.C.C.C.M.M.M.C.B.o.S A A A O.v.j.0 3 ~.).OX#X>X,X,X,X,X,X>X%X+X[.^.Y.7 e.4.+.F A A A J 4.8.m.w.M.n.8.C.C.6.q.C.M.C.C.",
"Z.Z.m.M.C.C.M.C.C.Z.G.G.C.G.l.a.a.h.h.c.A.r.T.~.).(.^.OX@X#X#X#X#X#X#X+X(.~._.~.T./ 3.5.#.O.| o.+.4.5.M.M.M.M.M.C.M.C.8.8.C.M.M.",
"C.M.Z.Z.n.Z.P.Z.C.C.C.Z.G.P.K.C.Z.J.M.M.6.a.Q.+XOX/.W./.^.W.W.W.W.W.W.^.~.~._._.~.q 5.5.0.6.6.M.8.0.m.b.Z.C.C.M.C.C.M.M.6.w.C.C.",
"5.6.9.w.5.m.C.5.:.-.1.5.w.6.3.,.,.,.,.:.-.] [.>X#XOX/.E.3 1 1 1 < < ; 2 W.OX+X+X+Xt.5.5.5.5.5.8.5.w.L.K.Z.A.M.C.M.C.M.C.m.8.C.m.",
"6.q.m.m.b.6.:.-.-.-.-.-.:.<.6.0.m.w.q.q.v.i.[.-X>X#X[./.T.y.c.c.c.j.< 2 ~.@X-X-X@Xw 7.5.5.6.5.5.6.b.U.P.K.P.M.6.C.M.q.M.M.C.M.w.",
"C.K.P.S.q.5.5.5.5.6.8.b.m.C.C.6.6.6.6.6.' 5 [.+X-X;X%X(., j.M.6.m.7.7 W.+X-X>X@XOX!.9 9.5.5.5.5.m.K.U.L.K.P.G.8.8.C.m.M.M.M.5.:.",
"S.M.m.M.J.C.M.Z.S.C.m.S.6.6.6.5.6.6.6.m./ 2 [.#X;X,X%X(.2 j.m.5.9.@.1 W.#X,X>X%X+XT.8 7.5.5.6.q.K.I.L.U.M.b.J.M.<.8.C.m.0.8.:.<.",
"6.M.Z.m.J.S.9.K.K.6.5.q.5.5.5.5.5.5.8.K.) Y._.;X,X,X-X{.9 x.8.5.3.4.H '.#X>X>X>X@XE.8 7.6.5.5.M.P.U.L.P.8.:.K.P.n.,.w.M.<.:.5.<.",
"3.;.5.m.w.6.q.9.m.6.6.6.8.8.8.8.n.M.n.B.) E.OX;X,X,X-X'.D.C.5.5.5.5.6.w +X>X>X>X@X~.0 7.5.6.w.G.P.P.P.V.,.:.C.9.w.6.,.w.<.6.8.<.",
"8.:.-.3.w.q.m.m.A.S.S.C.C.A.Z.B.N.N.N.7./ E.OX-X:X,X[.1 x.8.5.5.5.5.6.9 W.>X,X;X@X~.0 @.%.&.N.F.P.w.m.6.6.8.5.:.,.C.<.-.:.q.>.w.",
":.-.-.-.-.-.:.5.0.A.K.P.C.A.C.a.h h % @ & E._.@X-X:X[.< =.5.6.5.5.5.5.9 W.,X;X@X[.W.; $ $ p h ^ V.6.C.m.m.V.3.:.6.G.0.-.5.,.6.w.",
"5.3.1.3.5.6.m.A.S.m.9.M.6.5.[ c i t + O & E.%X&X>X&X^.< %.5.5.6.5.5.5.9 3 %X;X-X+X~.> X + e u l K 4.J.P.Z.P.M.M.G.J.<.<.6.>.w.6.",
"w.q.M.Z.J.L.V.5.5.C.C.C.C.9.B i k a i i = 7 $X%X&X[.E., H &.5.5.6.2.` 6 3 ).#X#X+X!.= u s u j a j c.P.U.P.C.C.m.C.Z.6.m.<.0.M.M.",
"6.5.q.K.P.I.U.Z.w.A.P.P.P.Z.F i l n v v k A  X X'.5 > : . | 5.5.5.&.$   > 5 '.'. X9 v v v v l p g &.Z.L.C.C.C.9.q.m.C.n.<.M.M.M.",
"5.8.9.S.C.C.w.M.K.P.S.M.M.n.L f l Y R E E E T T c u X . @ | 5.5.5.7.$ . X y g m T T R R Y l f s c &.C.C.<.M.9.3.-.6.8.8.8.C.M.C.",
"C.K.S.Z.C.m.q.w.9.8.6.8.q.w.v.^ a v b Y R R R R b i e + @ | 5.5.5.7.$ X + y x R E R Y v v s Z  . .6.M.5.2.m.0.-.-.-.:.n.C.C.M.C.",
"6.6.6.6.6.5.8.8.m.M.C.C.G.K.G.c.#.+.h.B k b n T b p + # ` 4.5.5.9.6.| d o t k R n v k l o.X.%.<.5.w.q.:.9.b.<.-.-.-.1.q.n.C.C.M.",
"8.w.m.M.C.S.S.J.S.A.m.n.8.0.q.6.5.6.C.O.o.o.[ } [ [ Z Z 4.5.5.5.6.6.5.{ V ! [ } [ [ [ O.7.0.6.m.m.V.<.8.m.5.-.-.-.-.:.:.8.8.n.M.",
"K.K.K.S.J.m.8.6.5.5.5.5.5.5.q.n.C.G.U.Z.m.M.6.5.5.5.5.5.5.5.5.5.5.6.5.5.5.5.5.5.6.6.G.M.5.M.m.6.5.m.q.Z.m.-.:.,.-.-.-.-.-.:.m.C."
};
