/* XPM */
static char *result[] = {
/* columns rows colors chars-per-pixel */
"64 64 237 2 ",
"   c #490101",
".  c #4E0804",
"X  c #560601",
"o  c #5A1406",
"O  c #4C0E15",
"+  c #730C03",
"@  c #7B0C00",
"#  c #6E120B",
"$  c #762F0E",
"%  c #532736",
"&  c #702D2C",
"*  c #69422A",
"=  c #1D1054",
"-  c #29114F",
";  c #32224F",
":  c #141869",
">  c #121B76",
",  c #271965",
"<  c #182171",
"1  c #262B78",
"2  c #2D337B",
"3  c #323471",
"4  c #441340",
"5  c #533048",
"6  c #4A3866",
"7  c #6B575B",
"8  c #7D705A",
"9  c #4F4C6B",
"0  c #635960",
"q  c #5E6B73",
"w  c #77726D",
"e  c #820E00",
"r  c #891100",
"t  c #891803",
"y  c #911E00",
"u  c #962500",
"i  c #962704",
"p  c #9A2C01",
"a  c #8A320C",
"s  c #9C3303",
"d  c #A23704",
"f  c #A53C00",
"g  c #8D4A13",
"h  c #AB4200",
"j  c #A54309",
"k  c #AB4A0C",
"l  c #B24700",
"z  c #B24A01",
"x  c #B94C03",
"c  c #A6560C",
"v  c #BE5100",
"b  c #B4580A",
"n  c #A94D18",
"m  c #A7531C",
"M  c #B35816",
"N  c #9E671A",
"B  c #BA630F",
"V  c #BC6916",
"C  c #AF7B1B",
"Z  c #975432",
"A  c #A45826",
"S  c #AC5C26",
"D  c #A45D2D",
"F  c #966933",
"G  c #AC692C",
"H  c #B86828",
"J  c #B37729",
"K  c #A96634",
"L  c #AC6A32",
"P  c #B26D37",
"I  c #B77538",
"U  c #BC7B3D",
"Y  c #C45701",
"T  c #CC5D00",
"R  c #C9630A",
"E  c #D06000",
"W  c #D46A0E",
"Q  c #C16E12",
"!  c #C67715",
"~  c #C87832",
"^  c #8C6A51",
"/  c #B67C44",
"(  c #8C776B",
")  c #C27D41",
"_  c #BC8719",
"`  c #998037",
"'  c #B28F35",
"]  c #D38D18",
"[  c #CB981D",
"{  c #DBAA1E",
"}  c #EAB50B",
"|  c #E8B11D",
" . c #CB9528",
".. c #D1942B",
"X. c #C78E39",
"o. c #DE8533",
"O. c #C8943D",
"+. c #D3AD39",
"@. c #EBB822",
"#. c #E6B839",
"$. c #FDCC04",
"%. c #F4C70B",
"&. c #FBCD0B",
"*. c #E6C01E",
"=. c #FBCE13",
"-. c #FBCE1A",
";. c #FAD115",
":. c #F7D218",
">. c #FBD11C",
",. c #EEC729",
"<. c #F5C623",
"1. c #F7CB24",
"2. c #FACD25",
"3. c #F6CB2A",
"4. c #FDD325",
"5. c #F8D429",
"6. c #FCD42B",
"7. c #EEC835",
"8. c #F3CB38",
"9. c #FBD633",
"0. c #FBD836",
"q. c #F6D639",
"w. c #FBD63B",
"e. c #FAD93C",
"r. c #968755",
"t. c #BD8444",
"y. c #B08B56",
"u. c #918A70",
"i. c #ACA860",
"p. c #B0B274",
"a. c #C48242",
"s. c #CA8546",
"d. c #CC8948",
"f. c #D68A44",
"g. c #D48E4B",
"h. c #CB9746",
"j. c #D7934C",
"k. c #DB9651",
"l. c #DE9952",
"z. c #E4964A",
"x. c #E39C55",
"c. c #E79F58",
"v. c #D9AA47",
"b. c #D9B644",
"n. c #CFB351",
"m. c #E5BA46",
"M. c #E3B64B",
"N. c #E8A058",
"B. c #CEBD6F",
"V. c #DBC657",
"C. c #EAC546",
"Z. c #F3CE4B",
"A. c #FBD743",
"S. c #FBDA44",
"D. c #F6D648",
"F. c #FCDC4C",
"G. c #E8C957",
"H. c #F1CE54",
"J. c #FCDC53",
"K. c #F4D858",
"L. c #FBDE5B",
"P. c #F9E058",
"I. c #FAE05D",
"U. c #D6CC70",
"Y. c #E7D16B",
"T. c #F3D666",
"R. c #FBDF62",
"E. c #F7E264",
"W. c #FAE163",
"Q. c #F7E36C",
"!. c #FAE26C",
"~. c #F7E472",
"^. c #F9E372",
"/. c #16268B",
"(. c #122896",
"). c #163197",
"_. c #293888",
"`. c #323D83",
"'. c #243994",
"]. c #102FA5",
"[. c #1234A8",
"{. c #1339B3",
"}. c #113EBC",
"|. c #305095",
" X c #1F55A1",
".X c #1241BE",
"XX c #1B46B9",
"oX c #2C4EAD",
"OX c #214CB8",
"+X c #3672B2",
"@X c #4A609A",
"#X c #506590",
"$X c #707488",
"%X c #4D72AC",
"&X c #1143C3",
"*X c #1B4EC6",
"=X c #1247CA",
"-X c #1249CD",
";X c #134DD3",
":X c #1852D3",
">X c #1552DA",
",X c #336ED2",
"<X c #1759E4",
"1X c #1659E5",
"2X c #175DEC",
"3X c #1860F0",
"4X c #4C7ECA",
"5X c #3786BD",
"6X c #55819B",
"7X c #738F99",
"8X c #7CA28E",
"9X c #4B88BB",
"0X c #528CB5",
"qX c #6984A8",
"wX c #6786B3",
"eX c #6A96B9",
"rX c #78A5A2",
"tX c #79A6BA",
"yX c #2D81C0",
"uX c #3A85C2",
"iX c #4A89C4",
"pX c #568AC6",
"aX c #5A90CB",
"sX c #6797C7",
"dX c #6495CB",
"fX c #70A6CD",
"gX c #78A9CC",
"hX c #87878B",
"jX c #949390",
"kX c #94AD8F",
"lX c #ADB68D",
"zX c #8E9DA0",
"xX c #8BAAB4",
"cX c #D2CE82",
"vX c #83ACC4",
"bX c #85B2CA",
"nX c #80B0D0",
/* pixels */
"4.4.5.4.S.^.E.R.J.R.W.S.F.F.0.S.F.J.!.^.!.R.J.L.^.^.!.9.4.4.6.4.4.4.6.J.e.e.9.e.e.4.e.F.4.4.4.6.4.0.0.4.S.!.^.S.2.A.!.L.^.R.^.^.",
"9.6.e.J.R.^.E.E.J.R.6.4.4.4.6.4.6.S.!.E.J.J.F.J.W.^.Q.9.4.2.4.4.4.4.5.W.J.9.e.4.6.6.6.6.5.6.6.6.0.W.e.4.6.6.9.4.6.J.E.R.E.e.R.~.",
":.9.F.F.q.e.S.S.S.6.4.4.6.4.e.F.E.W.J.J.J.F.F.L.R.R.!.F.9.6.6.6.4.6.6.S.F.J.E.0.W.e.4.4.e.e.e.9.4.4.4.4.4.9.S.6.6.I.S.I.J.5.!.F.",
"4.0.5.4.4.4.4.4.4.5.4.6.4.F.Q.Q.I.J.J.F.J.J.F.Z.Z.T.T.T.H.H.-.<.<.<.8.8.Z.S.e.6.e.e.6.4.6.4.6.4.4.4.4.4.6.6.9.4.5.W.P.9.4.6.I.D.",
"5.e.4.9.F.0.q.9.J.e.4.6.e.W.!.L.J.J.F.J.F.F.#.m n S n n n n k k k k k n M | 4.4.4.4.6.6.9.6.4.4.6.9.9.4.4.4.6.4.4.q.9.e.6.5.I.!.",
"S.9.4.4.S.F.F.e.~.J.J.I.I.L.P.F.F.J.L.L.R.M.M p u u u u i i u u u u u u p B | 6.4.4.6.4.6.4.4.4.4.6.4.4.4.6.4.6.4.4.q.F.J.L.!.Q.",
"5.4.4.4.S.F.I.e.E.E.J.J.F.J.F.L.L.W.J.e.6.Q y f l l l l l l l l l l l l l u B | 4.4.6.4.4.4.4.6.4.4.4.6.4.6.e.6.6.9.L.^.!.I.J.!.",
"4.6.4.4.F.J.Q.P.L.J.F.L.W.R.W.!.S.9.6.6.6.Q y h Y T T T E E T T T T T T T h p b 1.4.4.4.6.4.4.4.4.4.4.4.S.R.R.R.J.J.W.Q.^.L.L.!.",
"6.4.6.S.W.W.L.J.J.W.I.W.^.^.^.!.P.e.4.6.6.Q y h T E E E E E E E E E E E T l u k <.4.4.4.4.4.6.4.4.6.9.F.F.L.S.A.L.E.W.~.^.!.^.^.",
"6.9.L.!.L.J.F.J.L.^.W.W.!.^.E.^.!.W.E.W.P.V y h T E E E E E E E E E E E T l u k <.4.4.6.4.4.S.e.A.I.Q.I.S.F.;.$.9.J.R.Q.^.!.R.w.",
"J.E.L.F.S.J.J.J.R.^.!.W.R.L.L.R.!.Q.!.F.4.Q u f Y E E E E E E E E E E E T l h ! 2.2.4.4.q.J.J.!.W.W.q.4.9.F.6.&.&.F.I.I.J.I.S.4.",
"J.J.J.J.L.L.S.F.W.^.!.e.e.4.6.9.S.0.9.6.4.Q y h Y E E E E E E E E E E E T f ] 1.9.6.4.9.J.J.F.I.F.I.I.q.4.q.w.$.$.6.F.E.Q.~.L.6.",
"I.J.L.L.0.6.6.6.6.F.e.4.9.6.4.4.4.4.6.4.6.Q y f f Y E E E E E E E E E E T p ! 9.L.6.4.4.L.S.R.=.$.$.q.J.S.F.L.$.$.&.A.q.F.J.L.R.",
"R.e.w.6.4.4.4.4.6.4.4.4.4.4.4.4.4.4.e.0.6.Q y f f Y E E E E E E E E E T l y ! q.J.F.e.6.q.J.S.&.$.$.$.&.=.;.q.4.$.$.e.=.$.$.%.S.",
"!.!.S.6.4.6.4.4.4.4.4.4.4.4.6.4.4.4.0.6.6.! s f d x E E E E E E E E E Y h s ] 6.F.J.e.6.:.=.$.-.4.$.$.$.$.$.=.0.&.$.e.w.4.4.e.F.",
"!.!.!.S.4.6.4.4.4.4.6.4.2.4.4.4.4.4.4.4.4...A d i x W W W W W W W W W R k S h.6.S.J.2.>.6.q.w.J.F.e.6.9.w.S.F.J.4.$.9.J.S.F.W.J.",
"~.^.~.J.6.6.4.6.4.4.4.4.6.4.5.1.1.1.1.,.3. .A A P f.z.z.z.z.z.z.z.z.z.f.~ K O.A.6.J.F.F.E.E.P.J.F.F.F.J.J.J.J.L.S.=.4.S.J.F.W.P.",
"^.R.^.E.9.w.6.4.4.6.4.4.4.4.@.c g g g g g g m P U g.x.c.c.c.c.c.N.N.N.x.U g a G 8.0.L.F.L.I.E.P.J.J.J.L.J.I.I.R.F.9.&.e.J.e.9.6.",
"!.^.^.W.6.6.6.w.9.4.4.2.[ _ F o         X t c H H ~ ~ o.o.o.o.o.o.o.~ ~ S i + $ J C +.P.J.J.P.F.e.e.S.F.W.I.W.I.J.F.;.>.F.F.9.6.",
"L.W.^.R.S.6.4.w.S.6.6.6.N o         . X @ p f f f h Y E E E E E E E Y h f u r @ X . N b.b.b.,.q.F.R.~.E.P.0.F.W.J.F.>.$.>.F.J.w.",
"R.L.L.!.^.L.9.e.S.F.S.6.7.C o . + @ e e t p f h h x T E E E E E E E E Y h f u r @ X X o o o t.K.D.e.D.P.P.5.e.S.F.4.>.$.$.5.L.J.",
"!.L.R.~.Q.L.L.J.J.F.J.e.q.*. .[ s r r r p f h h v T E E E E E E E E E T h h u r r @ + +     $ ' 4.5.5.q.I.P.P.P.J.I.L.>.$.&.F.L.",
"^.W.~.~.L.A.5.R.J.F.J.F.e.F.F.D...j t p s h h h Y E E E E E E E E E E T v h p y r r e @ o . % q p.kXp.B.P.F.P.E.F.L.J.A.&.$.5.I.",
"^.!.J.A.4.4.F.Q.!.R.J.J.S.F.F.P.U.y.& Z n k k j R R Y E E E E E E E T Y R M n n & & & & & % |.5X5X0X6Xi.5.:.e.J.4.>.e.J.9.$.=.e.",
"L.S.4.4.4.5.I.W.J.L.Q.J.P.P.J.V.7X9XwXqX^ K I D I K M R R R R T T T n S ) ) / ( %X+X+X%X0XwX5XeXkXlX/ ' 8.A.L.P.J.:.F.E.J.5.&.6.",
"J.J.S.A.6.e.W.F.e.I.~.J.I.E.V.rX9XdXgXfXwX( a.g.) ~ U ~ ~ ~ H A A A n Z g.) u.%XiXiXiXaXvXtXxXxXlXy./ I h.D.W.I.F.F.S.S.L.L.;.>.",
"R.I.R.J.F.I.^.P.!.L.I.E.Q.cX8X0XdXgXbXgXpXqXhXhX7 Z I g.g.s.) ) ) D D / d.u.qXiXpXaXsXgXbXbXbXbXxXy.d.a.I h.C.q.R.L.5.5.e.L.0.&.",
"^.~.Q.J.I.Q.^.!.^.L.F.R.U.zXuXiXfXnXgXgXiXpXsX4X/.5 P x.k.) ) k.g.A Z ( ^ qXsXaXiXpXfXgXnXgXgXxXjXs.k.k.a.L #.F.E.E.L.S.:.P.J.$.",
"^.^.^.^.~.!.W.I.!.E.P.U.xX0XaX5XfXgXgXgXdXfXfX4X*X9 K g.) K P ) / Z 6 [., 7XxXtXyXiXdXfXsXaXtXjXZ ) l.c.g.G } &.S.J.P.5.2.J.F.&.",
"^.^.^.^.!.W.F.J.L.^.U.rXtXxXbXgXgXgXgXdXaXsXfX,X<X_.5 D Z / / / %X%X@X[.: zXtXpXyX5X5XuXiXwXdX$XD / l.c.g.G } $.>.6.F.P.F.e.q.$.",
"^.Q.^.Q.^.!.!.!.W.!.U.0XeXtXxXnXbXfXiX5XuXiXaX<X[.|.#X$XhXjXzXzXsXaX,X&X> zXtXiX5Xp.lXp.lXp.lXy.D d.x.c.g.H } >.>.6.J.e.q.S.4.$.",
"^.^.^.^.Q.^.^.Q.^.^.Y.7X$X7XkXnXgXsX5X X+XyX,X[.: 3 @XsXgXnXnXnXnXdX+X).: $XsX+X+XU.E.I.P.!.G.a.P x.c.x.X.G #.F.F.I.E.P.J.J.$.$.",
"^.^.^.!.^.^.^.^.^.^.Y.K Z / y.zXwXeXqX9  X+X X> : : |.sXsXeXeXeXsXpXoX: < %X+XoX2 B.~.!.J.G.t.P s.x.N.j.I G M.J.F.P.F.4.6.e.=.>.",
"!.^.!.E.^.~.!.^.^.^.G.K K s.x.y.^ w zXp.6 < [.;X>X>X*XOX'.1 < 1 OXOX*X>X:X*X(.: 2 B.!.^.Y.U U s.x.c.c.j.U G #.6.=.6.4.$.>.S.F.J.",
"L.L.I.L.J.J.L.F.w.L.T.a.~ d.l.) G y.cXY.9 (.&X2X3X3X2X>X*X&X.X&X>X1X1X3X2X=X(.> 2 B.I.M.' U s.x.N.c.c.x.s.G m.e.9.S.S.4.=.q.S.J.",
"9.9.9.9.9.9.S.W.W.W.Y.d.s.k.k.X.K h.~.Y.r.|.{.>X3X3X3X3X3X3X3X3X3X3X3X2X>X[.(.1 w C.0.#.P s.s.s.k.c.N.c.j.P m.J.J.J.J.F.&.9.J.J.",
"4.6.6.4.4.4.6.w.E.J.H.d.k.N.l.a.G X.9.9.w.r.`.{.<X<X2X3X3X3X3X2X1X1X1X>X}.(.1 7 H.J.L.G.O.j.P P d.x.c.x.s.~ m.J.S.0.6.4.-.F.S.F.",
"6.9.9.w.w.w.6.9.F.F.8.h.k.N.x.a.K  .3.w.9.#.y.'.{.&X-X2X2X2X2X1X=X=X&X}.{.(.w V.L.J.I.K.C.J I s.x.x.x.) J @.L.S.;.$.$.$.>.6.=.4.",
"J.W.P.J.J.S.A.J.J.9.<.O.k.N.x.k.a.I O.T.!.R.i.oX}.].].=X-X-X-X=X&X}.].(.(.].`.8 K.F.F.A.A.#.J I s.s.I G J %.w.A.&.&.$.;.>.&.&.=.",
"w.L.L.L.S.9.J.F.J.9.7.U g.N.N.N.d.I U h.H.H.B.OX}.}.&X:X>X;X>X>X>X>X=X{.].{.].`.( G.9.&.F.9.+.[ +.v.....+.2.&.A.e.e.0.F.F.F.S.F.",
"w.L.J.I.e.S.J.F.J.F.G.L s.N.N.x.g.' P G m.G.u.&X=X>X3X3X3X3X3X3X3X3X3X1X;X-X&X{.|.n.L.A.0.4.J.9.=.S.F.>.S.F.=.4.J.J.F.J.F.J.F.F.",
"S.S.F.P.S.J.F.F.J.J.H.L s.x.N.N.c.) D K m.( '.&X1X3X3X3X3X3X3X3X3X3X3X3X1X3X;X.X Xi.7.9.4.4.R.L.4.4.F.A.4.J.S.-.9.F.J.J.J.J.J.J.",
"$.>.w.I.J.F.J.J.0.6.C.L U g.x.N.c.x.) P m.hX{.&X1X3X3X3X3X3X3X3X3X2X3X3X3X3X>X.XOX`.y.4.4.q.E.Q.F.6.6.J.9.6.S.S.;.A.F.F.F.F.S.J.",
"e.J.J.J.J.J.F.J.e.&.@.G P g.N.N.c.x.) Z ^ |.=X>X2X3X3X1X.X{..X;X;X}.{.&X1X3X1X:X.X[.u.4.4.S.!.J.6.F.q.S.F.4.A.J.A.>.F.J.J.J.4.S.",
"!.W.L.J.J.J.F.J.J.F.Z.O.I a.k.k.z.s./ Z 2 ].;X2X3X3X1X.X/.9 0 $X#X0 3 (.>X2X3X>X.X.Xq +.6.P.L.6.4.6.S.9.F.J.;.S.F.6.4.F.F.A.6.S.",
"E.^.L.J.F.J.J.J.F.F.F.F.O.P U I / / P F |.&X;X2X3X2X&X/.3 ` %.%.%.} ` _..X1X3X<X.X.X(.0 q.P.e.4.4.4.9.D.e.F.F.9.J.J.6.w.J.J.J.J.",
"L.L.S.S.J.J.F.J.J.L.I.I.H.h.K D D D I n.@X;X2X3X3X>X{.2 y.*.$.$.$.$.} ' OX<X3X<X&X.X(.0 D.F.5.4.4.5.4.F.S.J.F.F.J.F.J.9.9.J.F.J.",
"J.J.L.L.A.L.!.I.P.F.P.I.I.Y.v.j.v.v.v.G.@X>X3X3X3X;X[.3 V.J.6.9.&.$.$.+.OX<X3X2X>X&X].0 8.9.5.F.9.9.S.F.L.J.J.F.J.J.F.F.6.w.J.J.",
"4.4.e.e.5.S.J.4.&.$.=.6.w.6.>.=.=.=.=.@.@X>X3X3X3X;X[.2 n.W.P.P.9.-.b.w OX1X3X3X2X&X).0 3.4.4.9.4.e.Q.L.L.I.F.J.F.J.S.J.S.9.J.A.",
"6.e.e.S.A.6.&.$.$.$.$.&.&.;.4.w.e.e.8.n.|.>X3X3X2X-X[.`.M.J.S.S.D.F.r./.}.1X3X2X1X}.|.8 3.4.6.4.6.F.^.!.E.W.J.6.J.F.e.J.J.J.J.e.",
"J.W.^.I.e.4.4.>.>.6.9.A.A.J.J.6.6.6.b.3 XX>X3X2X=X&X.XoXU.A.F.6.F.8.^ (.}.1X3X1X=X}.u.C.4.4.4.4.F.R.^.Q.E.!.R.9.9.J.S.S.J.F.2.&.",
"I.J.A.F.E.J.F.L.E.J.S.L.6.6.6.4.4.5.n. X.X>X3X<X=X;X&X|.B.J.F.4.q.F 3 {.&X1X3X2X1X&Xu.q.4.4.6.w.E.~.!.~.F.A.W.J.-.9.J.S.9.9.$.>.",
"5.F.L.e.E.I.e.R.W.5.4.e.4.6.4.4.4.6.n._.&X<X3X2X>X>X}.1 F M.9.2.,.* = ).].;X1X2X;X).r.>.4.4.4.S.!.^.~.!.9.&.W.W.A.=.A.S.>.&.:.>.",
">.&.4.S.e.9.e.q.S.6.6.6.9.9.9.0.e.S.+.; XX<X3X3X1X&X].= O ' 4.6.,.$ O = , ).}.&X].= F @.4.4.A.E.^.R.!.J.=.&.J.q.e.6.=.A.>.4.9.-.",
"9.&.$.>.e.e.S.F.J.I.I.L.P.I.L.L.I.!.n.O , {.<X<X&X(.- O X _ 2.2.*.g     # - = : - # y B 2.9.E.!.!.q.S.5.9.5.5.&.=.J.=.$.=.w.=.S.",
"&.$.$.$.$.$.$.4.e.P.W.W.J.J.J.I.W.^.M.t $ 5 > < : 4 # + X _ 6.4.<.j + + e # # # a p t b 2.0.^.W.R.6.J.e.A.L.>.&.6.W.9.$.4.=.5.e.",
"4.-.-.>.4.5.F.J.I.S.9.F.5.4.5.4.4.+.b d l j & & & # y @ X _ 4.6.2.] k r r u u p f f d h ! Z.F.q.F.0.!.W.I.W.S.F.W.E.;.>.6.;.w.6.",
"A.w.F.J.W.~.F.4.4.J.L.J.J.q.9.5.M.V p l T T T T h p @ @ $ { 4.4.4.4.! r y f h z l l l p f m.4.S.w.J.W.^.!.L.J.S.L.J.6.A.=.e.F.S.",
"6.4.0.E.Q.~.^.L.e.J.!.!.!.I.I.T.M p l T T E E T h u # $ { 4.4.4.4.4.] p f h v T E T v f b } 0.J.w.4.L.Q.J.J.J.q.w.A.F.A.-.F.J.J.",
"4.6.e.L.L.J.e.F.W.Q.I.F.F.e.P.T.n i l T T E Y l h # a { 4.4.4.4.4.4.<.] z Y T E E E T x v } F.F.=.4.J.J.>.F.q.>.$.6.9.0.9.J.J.F.",
"P.W.I.I.P.S.0.e.e.9.6.9.9.A.L.J.....o.f l x l f s c [ <.4.4.4.6.6.6.2.| d l x v E E E x j #.e.=.$.5.F.4.:.A.0.&.$.$.&.S.J.F.J.F.",
"6.6.6.6.5.6.9.0.e.J.F.J.W.W.R.J.F.F.G.H Q ! ! ! B { 4.4.4.4.4.4.w.6.6.@.B Q z d l Y x x H 7.5.-.5.S.e.&.e.q.;.$.$.$.;.0.A.J.F.J.",
"0.0.A.F.J.P.W.W.I.P.S.A.9.q.e.6.4.6.L.K.T.K.q.3.1.4.4.4.6.6.4.4.6.6.4.4.2.2.! s d z f ~ 3.e.6.S.S.J.=.q.F.5.$.$.$.$.&.&.9.9.S.J.",
"W.W.W.I.W.F.6.4.4.4.4.4.4.4.e.A.J.R.!.J.F.F.9.4.4.4.4.4.4.4.4.4.4.6.2.4.4.4.<.@.| @.G.C.2.S.F.5.4.A.e.L.A.$.&.=.$.$.$.$.$.&.A.J."
};
