/* XPM */
static char *_[] = {
/* columns rows colors chars-per-pixel */
"40 70 97 2 ",
"   c #D77B64",
".  c #DB7D67",
"X  c #D5726C",
"o  c #DD786E",
"O  c #D26975",
"+  c #D76F74",
"@  c #D1617E",
"#  c #D6687C",
"$  c #D9697D",
"%  c #DA7371",
"&  c #EABF23",
"*  c #EABE24",
"=  c #EDBE26",
"-  c #EBBC28",
";  c #E4A838",
":  c #E7A83D",
">  c #EBAC3C",
",  c #EFAE3F",
"<  c #EBB135",
"1  c #F0B636",
"2  c #F3BB34",
"3  c #F0B13C",
"4  c #EBC31F",
"5  c #ECC41F",
"6  c #F0C71F",
"7  c #F1C81F",
"8  c #EBC022",
"9  c #EDC123",
"0  c #EEC421",
"q  c #F0C127",
"w  c #F5C625",
"e  c #F1C820",
"r  c #F4CB20",
"t  c #F7CD20",
"y  c #FACF21",
"u  c #F8CB25",
"i  c #F4C328",
"p  c #F7C22D",
"a  c #F8C828",
"s  c #FBD021",
"d  c #FCD121",
"f  c #DF964A",
"g  c #DC8E51",
"h  c #D9835B",
"j  c #D9845A",
"k  c #D9815E",
"l  c #E19E42",
"z  c #E1875F",
"x  c #E38C5D",
"c  c #E48D5D",
"v  c #E29253",
"b  c #E69456",
"n  c #E99951",
"m  c #E2A040",
"M  c #E9A641",
"N  c #EAA347",
"B  c #ECA546",
"V  c #C73F9D",
"C  c #C83F9E",
"Z  c #C22EAF",
"A  c #C436A7",
"S  c #C53AA3",
"D  c #C93DA3",
"F  c #CA3EA2",
"G  c #C432AB",
"H  c #C736AA",
"J  c #C837A9",
"K  c #C129B2",
"L  c #C42CB3",
"P  c #C227B8",
"I  c #CC4E8F",
"U  c #CF528F",
"Y  c #CF558C",
"T  c #D25A87",
"R  c #D25D84",
"E  c #D0558C",
"W  c #D05988",
"Q  c #CB4995",
"!  c #CB449B",
"~  c #CB469B",
"^  c #CD469C",
"/  c #CE4A98",
"(  c #D04E94",
")  c #D76580",
"_  c #C940A0",
"`  c #BB0FCD",
"'  c #BE1BC2",
"]  c #BF1EC0",
"[  c #BD18C5",
"{  c #BA11CA",
"}  c #BC14C9",
"|  c #B703D7",
" . c #B704D7",
".. c #B806D5",
"X. c #B808D2",
"o. c #B702D8",
"O. c #B600DB",
/* pixels */
"d d d d d d d d d d d d d d d d d d d d d d d d d d d d d d d d d d d d d d d d ",
"d d d d d d d d d d d d d d d d d d d d d d d d d d d d d d d d d d d d d d d d ",
"d d d d d d d d d d d d d d d d d d d d d d d d d d d d d d d d d d d d d d d d ",
"d d d d d d d d d d d d d d d d d d d d d d d d d d d d d d d d d d d d d d d d ",
"d d d d d d d d d d d d d d d d d d d d d d d d d d d d d d d d d d d d d d d d ",
"d d d d d d d d d d d d d d d d d d d d d d d d d d d d d d d d d d d d d d d d ",
"d d d d d d d d d d d d d d d d d d d d d d d d d d d d d d d d d d d d d d d d ",
"d d d d d d d d d d d d d d d d d d d d d d d d d d d d d d d d d d d d d d d d ",
"d d d d d d d d d d d d d d d d d d s s s d d d d d d d d d d d d d d d d d d d ",
"d d d d d d d d d d d d d s p c ) ^ H L L J / $ b a s d d d d d d d d d d d d d ",
"d d d d d d d d d d d s n F o.o.o.o.o.o.o.o.o.o.o.../ B s d d d d d d d d d d d ",
"d d d d d d d d d s 2 F o.o.o.o.o.o.o.o.o.o.o.o.o.o.o.o.( p s d d d d d d d d d ",
"d d d d d d d d y B } o.o.o.o.o.o.o.o.O.o.o.O.o.o.o.o.o.o.] 3 s d d d d d d d d ",
"d d d d d d d s M ` o.O.o.o.o.o.o.o.o.O.o.o.O.o.o.o.o.o.o.o.[ 2 s d d d d d d d ",
"d d d d d d s u P o.o.O.o.o.o.o.o.o.O.O.o.o.o.o.o.o.o.o.o.o.o.H y s d d d d d d ",
"d d d d d s y o o.o.o.o.o.o.o.o.o.O.O.o.o.o.o.o.o.o.o.o.o.O.O.o.x y s d d d d d ",
"d d d d d s y ' o.O.O.o.o.o.o.o.o.o.K g j ' o.o.O.O.O.o.o.o.o.o.L y s d d d d d ",
"d d d d s y N o.o.o.O.O.o.o.o.o.O.o.; 8 4 f o.o.o.o.o.o.o.o.o.o.o.1 y s d d d d ",
"d d d d s y % o.o.o.o.O.o.o.O.o.O.{ 0 0 5 5 o.o.o.o.o.o.o.O.O.o.o.z y s d d d d ",
"d d d d s y U o.o.o.o.O.o.o.O.o.O.[ e e e 6  .o.o.o.o.O.o.O.o.o.o.# y s d d d d ",
"d d d s y t ! o.o.o.o.o.o.O.o.o.o.[ e r r e  .o.o.o.o.O.o.o.O.o.o.T y y s d d d ",
"d d d s y t _ o.o.o.o.o.o.O.o.o.o.[ r t t e  .o.o.o.o.O.o.O.O.o.o.E t y s d d d ",
"d d d s y t _ o.O.o.o.o.o.o.o.o.o.[ r t t r  .o.o.o.O.o.o.o.o.o.o.E t y s d d d ",
"d d d s y t _ o.O.O.O.o.o.o.o.o.o.[ r t t r  .o.o.O.O.o.o.o.o.o.o.E t y s d d d ",
"d d d s y t _ o.o.o.o.o.o.O.O.o.o.[ r y t r  .o.o.o.o.o.O.O.O.o.o.Y t y s d d d ",
"d d d s y t F o.o.o.o.o.o.o.O.O.o.[ r y t r  .o.o.o.o.o.o.o.o.o.o.Y t y s d d d ",
"d d d s y t F o.o.o.o.o.o.o.o.O.o.[ r y t r  .o.o.o.o.o.o.o.o.o.o.Y t y s d d d ",
"d d d s y t F o.o.o.o.o.o.o.o.O.o.[ r y t r  .o.o.o.o.o.o.o.o.O.o.Y t y s d d d ",
"d d d s y t F o.o.o.o.o.o.o.o.o.o.[ r y t r  .o.o.o.o.o.o.o.O.O.o.Y t y s d d d ",
"d d d s y t F o.o.o.o.o.O.o.o.o.o.[ r y t r  .o.o.o.o.o.O.O.o.o.o.Y t y s d d d ",
"d d d s y t F o.o.o.O.o.O.o.o.o.o.[ r y t r  .o.o.O.O.o.O.o.o.o.o.Y t y s d d d ",
"d d d s y t F o.o.o.O.o.O.O.o.o.o.[ r y t r  .o.o.O.o.o.o.o.o.o.o.Y t y s d d d ",
"d d d s y t F o.O.O.o.o.o.o.o.o.o.[ r y t r  .o.o.O.o.o.o.o.o.o.o.Y t y s d d d ",
"d d d s y t F o.O.O.o.o.o.o.o.o.o.[ r y t r  .o.o.O.O.o.O.o.o.o.o.Y t y s d d d ",
"d d d s y t F o.o.o.o.o.o.O.O.O.o.[ r y t r  .o.o.o.o.o.O.O.o.o.o.Y t y s d d d ",
"d d d s y t F o.o.o.o.o.o.O.O.O.o.[ r y t r  .o.o.o.o.o.o.o.O.O.o.Y t y s d d d ",
"d d d s y t F o.o.o.o.O.o.o.o.o.o.[ r y t r  .o.o.O.O.O.o.o.o.O.o.Y t y s d d d ",
"d d d s y r F o.o.o.o.O.o.o.o.o.o.[ r y t r  .o.o.o.o.o.o.o.o.o.o.Y t y s d d d ",
"d d d s y r F O.o.o.o.o.O.o.o.o.o.[ r y t r  .O.o.o.o.o.o.o.o.o.o.Y t y s d d d ",
"d d d s y t F O.o.o.o.o.O.o.o.o.o.[ r y t r  .O.O.o.o.o.O.O.O.o.o.Y t y s d d d ",
"d d d s y t F o.o.o.o.o.o.o.o.o.o.[ r y t r  .o.o.O.O.o.o.o.o.o.o.Y t y s d d d ",
"d d d s y t F o.o.o.O.O.o.o.o.o.o.[ r y t r  .o.o.o.O.o.o.o.o.o.o.Y t y s d d d ",
"d d d s y t F o.o.o.O.O.o.o.O.O.o.[ r y t r  .o.o.o.o.O.o.O.O.o.o.Y t y s d d d ",
"d d d s y t F o.o.o.O.O.o.o.O.O.o.[ r y t r  .o.o.o.o.O.o.o.O.o.o.Y t y s d d d ",
"d d d s y t F o.o.o.o.o.o.o.o.o.o.[ r y t r  .o.o.o.o.O.o.O.o.o.o.Y t y s d d d ",
"d d d s y t C o.o.o.o.o.o.o.o.o.o.[ r y t r  .o.o.o.o.o.o.O.O.o.o.Y t y s d d d ",
"d d d s y t ! o.O.o.o.o.o.o.o.o.o.[ r y t r  .o.o.o.o.o.o.o.o.o.o.R t y s d d d ",
"d d d s y t W o.O.o.o.o.o.o.o.o.o.` r t t r o.o.O.O.O.o.o.o.o.o.o.+ t y s d d d ",
"d d d s y t . o.o.o.o.o.o.o.o.o.o.o.> t t M o.o.o.o.o.o.o.o.o.o.o.v t y s d d d ",
"d d d s y t < o.o.o.o.o.o.o.o.o.o.o.! w i F o.o.o.o.o.o.o.o.o.o.X.q t y s d d d ",
"d d d s y t e G o.o.o.o.o.o.O.O.O.o.o.o. .o.o.o.O.O.o.o.o.o.o.o.Q e t y s d d d ",
"d d d s y y r v o.o.o.o.o.o.o.o.O.o.o.o.o.o.o.o.o.O.o.o.o.o.o.o.: r y y d d d d ",
"d d d d s y r 7 Q o.o.o.o.O.O.O.O.o.o.o.o.o.o.o.o.o.o.o.o.o.o.@ 7 r y s d d d d ",
"d d d d s y t e = L o.o.o.o.o.O.O.O.o.o.o.o.o.o.o.o.o.o.o.o.C 0 e t y s d d d d ",
"d d d d s y y r e - V o.o.o.o.o.o.o.o.o.o.o.o.o.o.o.O.o.O.Q 9 e r y s s d d d d ",
"d d d d d s y t r 6 0 . { o.o.o.o.o.o.o.o.o.o.o.o.o.O.[ j 0 e r t y s d d d d d ",
"d d d d d s s y t e 6 5 *   A ..o.o.o.o.o.o.o.o.X.S k 8 5 7 r t y s s d d d d d ",
"d d d d d d s y y t r 7 5 5 5 * l k X O O X h m & 5 5 5 7 r t y s s d d d d d d ",
"d d d d d d d s y y t r e 7 6 5 5 5 5 5 5 5 5 0 5 6 7 e t t y s s d d d d d d d ",
"d d d d d d d d s s y y t r r e e 7 7 7 7 7 e e e r r t y y s s d d d d d d d d ",
"d d d d d d d d d s s y y y y t t t r r r r t t t y y y y s d d d d d d d d d d ",
"d d d d d d d d d d d s s s y y y y y y y y y y y y s s s d d d d d d d d d d d ",
"d d d d d d d d d d d d d d s s s s s s s s s s s s d d d d d d d d d d d d d d ",
"d d d d d d d d d d d d d d d d d d d d d d d d d d d d d d d d d d d d d d d d ",
"d d d d d d d d d d d d d d d d d d d d d d d d d d d d d d d d d d d d d d d d ",
"d d d d d d d d d d d d d d d d d d d d d d d d d d d d d d d d d d d d d d d d ",
"d d d d d d d d d d d d d d d d d d d d d d d d d d d d d d d d d d d d d d d d ",
"d d d d d d d d d d d d d d d d d d d d d d d d d d d d d d d d d d d d d d d d ",
"d d d d d d d d d d d d d d d d d d d d d d d d d d d d d d d d d d d d d d d d ",
"d d d d d d d d d d d d d d d d d d d d d d d d d d d d d d d d d d d d d d d d "
};
