/* XPM */
static char *_[] = {
/* columns rows colors chars-per-pixel */
"40 70 45 1 ",
"  c #D5736B",
". c #D6746B",
"X c #D5726C",
"o c #D9776B",
"O c #D97969",
"+ c #D26776",
"@ c #D2647B",
"# c #D2627D",
"$ c #F2B736",
"% c #F3B837",
"& c #EBC31F",
"* c #ECC31F",
"= c #EEC51F",
"- c #F0C71F",
"; c #F1C81F",
": c #F3CA20",
"> c #F4CA20",
", c #F7CC20",
"< c #F9CF21",
"1 c #F7C62A",
"2 c #F8C728",
"3 c #FBD021",
"4 c #FCD121",
"5 c #DE934D",
"6 c #DE875D",
"7 c #E89753",
"8 c #E9A541",
"9 c #EDA745",
"0 c #DD8163",
"q c #E18465",
"w c #C436A6",
"e c #C836AB",
"r c #C126B7",
"t c #C228B5",
"y c #C223BB",
"u c #C225BA",
"i c #D2558E",
"p c #CF4D95",
"a c #C7409C",
"s c #CD469C",
"d c #CB41A0",
"f c #BB10CC",
"g c #B703D7",
"h c #B704D6",
"j c #B600DB",
/* pixels */
"4444444444444444444444444444444444444444",
"4444444444444444444444444444444444444444",
"4444444444444444444444444444444444444444",
"4444444444444444444444444444444444444444",
"4444444444444444444444444444444444444444",
"4444444444444444444444444444444444444444",
"4444444444444444444444444444444444444444",
"4444444444444444444444444444444444444444",
"4444444444444444444444444444444444444444",
"4444444444444444444444443333344444444444",
"44444444444444444444431eyyyyys3444444444",
"444444444444444444443<djjjjjjt<344444444",
"44444444444444444443<pjjjjjjjr<<34444444",
"44444444444444444432sjjjjjjjjr,<34444444",
"4444444444444444439ujjjjjjjjjr,<34444444",
"4444444444444443$ijjjjjjjjjjjr,<34444444",
"4444444444443<7shjjjjjjjjjjjjr,<34444444",
"4444444443%qpfjjjjjjjjjjjjjjjr,<34444444",
"4444444433tjjjjjjjjjjjjjjjjjjr,<34444444",
"444444443<tjjjjjjjjjjjjjjjjjjr,<34444444",
"44444443<<tjjjjjjjjjjjjjjjjjjr,<34444444",
"44444443<,tjjjjjjjjjjjjjjjjjjr,<34444444",
"44444443<,tjjjjjjjjjjjjjjjjjjr,<34444444",
"44444443<,6.. X+agjjjjjjjjjjjr,<34444444",
"44444443<,:-===*&5jjjjjjjjjjjr,<34444444",
"44444443<<,:;;--==wjjjjjjjjjjr,<34444444",
"444444433<<,>>>>:-@jjjjjjjjjjr,<34444444",
"4444444433<<<<<,,:Ojjjjjjjjjjr,<34444444",
"444444444333333<<>0jjjjjjjjjjr,<34444444",
"4444444444444443<,0jjjjjjjjjjr,<34444444",
"4444444444444443<,0jjjjjjjjjjr,<34444444",
"4444444444444443<,0jjjjjjjjjjr,<34444444",
"4444444444444443<,0jjjjjjjjjjr,<34444444",
"4444444444444443<,0jjjjjjjjjjr,<34444444",
"4444444444444443<,0jjjjjjjjjjr,<34444444",
"4444444444444443<,0jjjjjjjjjjr,<34444444",
"4444444444444443<,0jjjjjjjjjjr,<34444444",
"4444444444444443<,0jjjjjjjjjjr,<34444444",
"4444444444444443<,0jjjjjjjjjjr,<34444444",
"4444444444444443<,0jjjjjjjjjjr,<34444444",
"4444444444444443<,0jjjjjjjjjjr,<34444444",
"4444444444444443<,0jjjjjjjjjjr,<34444444",
"4444444444444443<,0jjjjjjjjjjr,<34444444",
"4444444444444443<,0jjjjjjjjjjr,<34444444",
"4444444444444443<,0jjjjjjjjjjr,<34444444",
"4444444444444443<,0jjjjjjjjjjr,<34444444",
"4444444444444443<,0jjjjjjjjjjr,<34444444",
"4444444444444443<,0jjjjjjjjjjr,<34444444",
"4444444444444443<,0jjjjjjjjjjr,<34444444",
"4444444444444443<,0jjjjjjjjjjr,<34444444",
"4444444444444443<,0jjjjjjjjjjr,<34444444",
"4444444444444443<,0jjjjjjjjjjr,<34444444",
"4444444444444443<,0jjjjjjjjjjr,<34444444",
"4444444444444443<,0jjjjjjjjjjr,<34444444",
"4444444444444443<,0jjjjjjjjjjr,<34444444",
"4444444444444443<,0jjjjjjjjjjr,<34444444",
"4444444444444443<,8##########o,<34444444",
"4444444444444443<<>;========-:,<34444444",
"44444444444444443<,>;;-----;:><<34444444",
"44444444444444443<<,>>>>>>>>,<<334444444",
"444444444444444433<<<<<<<<<<<<3344444444",
"4444444444444444443333333333333444444444",
"4444444444444444444444444444444444444444",
"4444444444444444444444444444444444444444",
"4444444444444444444444444444444444444444",
"4444444444444444444444444444444444444444",
"4444444444444444444444444444444444444444",
"4444444444444444444444444444444444444444",
"4444444444444444444444444444444444444444",
"4444444444444444444444444444444444444444"
};
