/* XPM */
static char *_[] = {
/* columns rows colors chars-per-pixel */
"40 70 119 2 ",
"   c #D6716E",
".  c #D87769",
"X  c #DB776D",
"o  c #DC776F",
"O  c #D46C74",
"+  c #D26678",
"@  c #D2627D",
"#  c #D6677C",
"$  c #D6687A",
"%  c #D96B7B",
"&  c #DA7371",
"*  c #DA7075",
"=  c #E07F67",
"-  c #E9BE23",
";  c #E9BC26",
":  c #E9B52E",
">  c #EBB82C",
",  c #EEB92F",
"<  c #E8AF34",
"1  c #E6A53E",
"2  c #E7AB38",
"3  c #E9AD39",
"4  c #E5B030",
"5  c #E9B233",
"6  c #ECB531",
"7  c #EAB134",
"8  c #EEB03B",
"9  c #F1B736",
"0  c #F3BB33",
"q  c #F4BB33",
"w  c #F5BE31",
"e  c #F3B836",
"r  c #F0B438",
"t  c #F0B13C",
"y  c #ECC41F",
"u  c #EEC51F",
"i  c #F0C71F",
"p  c #F1C81F",
"a  c #EEC223",
"s  c #EFC520",
"d  c #F2C327",
"f  c #F6C727",
"g  c #F3C920",
"h  c #F4CB20",
"j  c #F7CD20",
"k  c #F7C926",
"l  c #FACF21",
"z  c #F8CA24",
"x  c #F9CC24",
"c  c #F8C729",
"v  c #FBD021",
"b  c #FCD121",
"n  c #D9835B",
"m  c #DC865B",
"M  c #DF9150",
"N  c #E29F43",
"B  c #E29B47",
"V  c #E1974B",
"C  c #E79B4D",
"Z  c #E89C4E",
"A  c #E18D57",
"S  c #E08B5A",
"D  c #E38D5A",
"F  c #E58F5A",
"G  c #E69652",
"H  c #E39056",
"J  c #E59257",
"K  c #E79655",
"L  c #E79851",
"P  c #EEAB41",
"I  c #EEA943",
"U  c #ECA24A",
"Y  c #DF8461",
"T  c #E08660",
"R  c #E28564",
"E  c #BF1EBF",
"W  c #BF20BC",
"Q  c #C83F9E",
"!  c #C63CA1",
"~  c #CA3EA3",
"^  c #C93BA4",
"/  c #C733AD",
"(  c #C835AB",
")  c #C22AB3",
"_  c #C32CB2",
"`  c #C52DB2",
"'  c #C32AB4",
"]  c #C42AB5",
"[  c #C021BB",
"{  c #C024B8",
"}  c #C021BD",
"|  c #CD518D",
" . c #D55D87",
".. c #D0538E",
"X. c #CA4697",
"o. c #CB4C92",
"O. c #CD4D93",
"+. c #CF4B97",
"@. c #CD4D94",
"#. c #C8429A",
"$. c #C94499",
"%. c #CB439D",
"&. c #CC459D",
"*. c #CD4899",
"=. c #D36083",
"-. c #D56281",
";. c #CA40A1",
":. c #BA0FCB",
">. c #BA0FCC",
",. c #BE1AC2",
"<. c #BF1DC1",
"1. c #BD18C5",
"2. c #BC14C9",
"3. c #B703D7",
"4. c #B706D5",
"5. c #B807D4",
"6. c #B808D3",
"7. c #B600DA",
"8. c #B600DB",
/* pixels */
"b b b b b b b b b b b b b b b b b b b b b b b b b b b b b b b b b b b b b b b b ",
"b b b b b b b b b b b b b b b b b b b b b b b b b b b b b b b b b b b b b b b b ",
"b b b b b b b b b b b b b b b b b b b b b b b b b b b b b b b b b b b b b b b b ",
"b b b b b b b b b b b b b b b b b b b b b b b b b b b b b b b b b b b b b b b b ",
"b b b b b b b b b b b b b b b b b b b b b b b b b b b b b b b b b b b b b b b b ",
"b b b b b b b b b b b b b b b b b b b b b b b b b b b b b b b b b b b b b b b b ",
"b b b b b b b b b b b b b b b b b b b b b b b b b b b b b b b b b b b b b b b b ",
"b b b b b b b b b b b b b b b b b b b b b b b b b b b b b b b b b b b b b b b b ",
"b b b b b b b b b b b b b b b b b b v v v b b b b b b b b b b b b b b b b b b b ",
"b b b b b b b b b b b b b v q R  .;./ ] ` ( +.% K c v b b b b b b b b b b b b b ",
"b b b b b b b b b b v v F / 7.7.7.7.7.7.7.7.7.7.7.5.&.U v b b b b b b b b b b b ",
"b b b b b b b b b v e ( 7.7.7.7.7.7.7.7.7.7.7.7.7.7.7.7.&.w v b b b b b b b b b ",
"b b b b b b b b v P 2.7.7.7.7.7.7.7.7.7.7.7.7.7.7.7.7.7.7.2.P v b b b b b b b b ",
"b b b b b b b v 0 2.7.7.7.7.7.7.7.7.7.7.7.7.7.7.7.7.7.7.7.7.>.t v b b b b b b b ",
"b b b b b b v l ~ 7.7.7.7.7.7.7.7.7.7.7.7.7.7.7.7.7.7.7.7.7.7.' x v b b b b b b ",
"b b b b b v l Z 7.7.7.7.7.7.7.7.7.7.7.7.7.7.7.7.7.7.7.7.7.7.7.7.= l v b b b b b ",
"b b b b b v l %.7.7.7.7.7.7.7.7.7.7.7.7.7.7.7.7.7.7.7.7.7.7.7.7.' l v b b b b b ",
"b b b b v l f 6.7.7.7.7.7.7.7.7.7.6.n - 4 #.7.7.7.7.7.7.7.7.7.7.7.e l v b b b b ",
"b b b b v l C 7.7.7.7.7.7.7.7.7.7.+ u u u ; :.7.7.7.7.7.7.7.7.7.7.D l v b b b b ",
"b b b b v l X 7.7.7.7.7.7.7.7.7.7.N u i u u ! 7.7.7.7.7.7.7.7.7.7.& l v b b b b ",
"b b b b l l =.7.7.7.7.7.7.7.7.7.7.5 g h g p Q 7.7.7.7.7.7.7.7.7.7.# l l v b b b ",
"b b b v l j ..7.7.7.7.7.7.7.7.7.7.6 h j j g ) 7.7.7.7.7.7.7.7.7.7.$ j l v b b b ",
"b b b v l j O.7.7.7.7.7.7.7.7.7.7.6 j l l d 4.7.7.7.7.7.7.7.7.7.7.X j l v b b b ",
"b b b v l j @.7.7.7.7.7.7.7.7.7.7.6 j l l Y 7.7.7.7.7.7.7.7.7.7.7.A j l v b b b ",
"b b b v l j @.7.7.7.7.7.7.7.7.7.7.6 l l l _ 7.7.7.7.7.7.7.7.7.7.7.6 j l v b b b ",
"b b b v l j @.7.7.7.7.7.7.7.7.7.7.6 j l G 7.7.7.7.7.7.7.7.7.7.7.[ g j l v b b b ",
"b b b v l j , 2 2 2 2 2 2 2 2 2 3 h j l ' 7.7.7.7.7.7.7.7.7.7.7.# h l l v b b b ",
"b b b v l j h p u u u u u u u i g j j T 7.7.7.7.7.7.7.7.7.7.7.3.7 h l v b b b b ",
"b b b v v l j h g g g g g g g g h j f 1.7.7.7.7.7.7.7.7.7.7.7.$.g j l v b b b b ",
"b b b b v l l j j j j j j j j j j l -.7.7.7.7.7.7.7.7.7.7.7.7.1 g j l v b b b b ",
"b b b b b v v l l l l l l l l l l 8 4.7.7.7.7.7.7.7.7.7.7.7.| p h l v b b b b b ",
"b b b b b b v v v v v v v v v v l ^ 7.7.7.7.7.7.7.7.7.7.7.>.> g j l v b b b b b ",
"b b b b b b b b b b b b b b v l F 7.7.7.7.7.7.7.7.7.7.7.7.. p h l l v b b b b b ",
"b b b b b b b b b b b b b b v k ,.7.7.7.7.7.7.7.7.7.7.7.' s g j l v b b b b b b ",
"b b b b b b b b b b b b b v l # 7.7.7.7.7.7.7.7.7.7.7.7.B p j l v v b b b b b b ",
"b b b b b b b b b b b b v v r 5.7.7.7.7.7.7.7.7.7.7.7.o.i h j l v b b b b b b b ",
"b b b b b b b b b b b b v l ;.7.7.7.7.7.7.7.7.7.7.7.>.: g j l v b b b b b b b b ",
"b b b b b b b b b b b v l J 7.7.7.7.7.7.7.7.7.7.7.7.  p h l l v b b b b b b b b ",
"b b b b b b b b b b b v k E 7.7.7.7.7.7.7.7.7.7.7.{ s g j l v b b b b b b b b b ",
"b b b b b b b b b b v l % 7.7.7.7.7.7.7.7.7.7.7.7.V p h l l v b b b b b b b b b ",
"b b b b b b b b b v v 9 6.7.7.7.7.7.7.7.7.7.7.7.X.i h j l v b b b b b b b b b b ",
"b b b b b b b b b v l &.7.7.7.7.7.7.7.7.7.7.7.6.5 g j l v b b b b b b b b b b b ",
"b b b b b b b b v l L 7.7.7.7.7.7.7.7.7.7.7.7.O i h l l v b b b b b b b b b b b ",
"b b b b b b b b v z } 7.7.7.7.7.7.7.7.7.7.7.W a g j l v b b b b b b b b b b b b ",
"b b b b b b b v l * 7.7.7.7.7.7.7.7.7.7.7.7.M p h l l v b b b b b b b b b b b b ",
"b b b b b b b v 0 6.7.7.7.7.7.7.7.7.7.7.7.%.i h j l v b b b b b b b b b b b b b ",
"b b b b b b v l *.7.7.7.7.7.7.7.7.7.7.7.6.< g j l v b b b b b b b b b b b b b b ",
"b b b b b v l Z 7.7.7.7.7.7.7.7.7.7.7.7.+ i h l l v b b b b b b b b b b b b b b ",
"b b b b b v z { 7.7.7.7.7.7.7.7.7.7.7.6.m A H J J J J J J J J J Z v b b b b b b ",
"b b b b v l o 7.7.7.7.7.7.7.7.7.7.7.7.7.7.7.7.7.7.7.7.7.7.7.7.7.<.v v b b b b b ",
"b b b b v l @.7.7.7.7.7.7.7.7.7.7.7.7.7.7.7.7.7.7.7.7.7.7.7.7.7.<.l v v b b b b ",
"b b b v l l @.7.7.7.7.7.7.7.7.7.7.7.7.7.7.7.7.7.7.7.7.7.7.7.7.7.<.l l v b b b b ",
"b b b v l j @.7.7.7.7.7.7.7.7.7.7.7.7.7.7.7.7.7.7.7.7.7.7.7.7.7.<.j l v b b b b ",
"b b b v l j @.7.7.7.7.7.7.7.7.7.7.7.7.7.7.7.7.7.7.7.7.7.7.7.7.7.<.j l v b b b b ",
"b b b v l j @.7.7.7.7.7.7.7.7.7.7.7.7.7.7.7.7.7.7.7.7.7.7.7.7.7.<.h l v b b b b ",
"b b b v l j @.7.7.7.7.7.7.7.7.7.7.7.7.7.7.7.7.7.7.7.7.7.7.7.7.7.<.h l v b b b b ",
"b b b v l j S @ @ @ @ @ @ @ @ @ @ @ @ @ @ @ @ @ @ @ @ @ @ @ @ @ & j l v b b b b ",
"b b b v l j g i u u u u u u u u u u u u u u u u u u u u u u u u g j l v b b b b ",
"b b b v l l j g p i i i u u i i i i i i i u u u i i i i i i p g h l l v b b b b ",
"b b b b v l l j h h h h h h h h h h h h h h h h h h h h h h h j l l v v b b b b ",
"b b b b v v l l l l l l j l l l l l l l l l l l l j j j l l l l l v v b b b b b ",
"b b b b b v v v v v v v v v v v v v v v v v v v v v v v v v v v v v b b b b b b ",
"b b b b b b b b b b b b b b b b b b b b b b b b b b b b b b b b b b b b b b b b ",
"b b b b b b b b b b b b b b b b b b b b b b b b b b b b b b b b b b b b b b b b ",
"b b b b b b b b b b b b b b b b b b b b b b b b b b b b b b b b b b b b b b b b ",
"b b b b b b b b b b b b b b b b b b b b b b b b b b b b b b b b b b b b b b b b ",
"b b b b b b b b b b b b b b b b b b b b b b b b b b b b b b b b b b b b b b b b ",
"b b b b b b b b b b b b b b b b b b b b b b b b b b b b b b b b b b b b b b b b ",
"b b b b b b b b b b b b b b b b b b b b b b b b b b b b b b b b b b b b b b b b ",
"b b b b b b b b b b b b b b b b b b b b b b b b b b b b b b b b b b b b b b b b "
};
