/* XPM */
static char *_[] = {
/* columns rows colors chars-per-pixel */
"40 70 66 1 ",
"  c #DB7E64",
". c #D9776B",
"X c #D26875",
"o c #D46A76",
"O c #D76C76",
"+ c #D86D76",
"@ c #D1637B",
"# c #D2637D",
"$ c #DA7272",
"% c #DB7470",
"& c #DB7175",
"* c #EBBE25",
"= c #E7B62B",
"- c #E8B62B",
"; c #EAB82B",
": c #ECBB2A",
"> c #E7A73E",
", c #EAAE38",
"< c #ECB631",
"1 c #EFB832",
"2 c #F0B537",
"3 c #F3BB33",
"4 c #F2B638",
"5 c #EEC61F",
"6 c #F0C71F",
"7 c #F1C81F",
"8 c #F1C820",
"9 c #F4CA20",
"0 c #F7CD20",
"q c #FACF21",
"w c #F6C22E",
"e c #FBD121",
"r c #FCD121",
"t c #DF924E",
"y c #DF944D",
"u c #DC8F50",
"i c #DF8C55",
"p c #DD855D",
"a c #E0954D",
"s c #E59B4B",
"d c #E4984E",
"f c #E8A345",
"g c #EAA445",
"h c #DD8262",
"j c #E08068",
"k c #BF1EBF",
"l c #C42FAF",
"z c #C435A7",
"x c #C53AA2",
"c c #C73BA4",
"v c #C839A7",
"b c #C433A9",
"n c #C125B7",
"m c #C32AB3",
"M c #C32CB2",
"N c #C42CB2",
"B c #C223BB",
"V c #CF558A",
"C c #D05D82",
"Z c #CC4D91",
"A c #CA4698",
"S c #BC16C5",
"D c #B706D4",
"F c #B808D2",
"G c #B600DA",
"H c #B600DB",
/* pixels */
"rrrrrrrrrrrrrrrrrrrrrrrrrrrrrrrrrrrrrrrr",
"rrrrrrrrrrrrrrrrrrrrrrrrrrrrrrrrrrrrrrrr",
"rrrrrrrrrrrrrrrrrrrrrrrrrrrrrrrrrrrrrrrr",
"rrrrrrrrrrrrrrrrrrrrrrrrrrrrrrrrrrrrrrrr",
"rrrrrrrrrrrrrrrrrrrrrrrrrrrrrrrrrrrrrrrr",
"rrrrrrrrrrrrrrrrrrrrrrrrrrrrrrrrrrrrrrrr",
"rrrrrrrrrrrrrrrrrrrrrrrrrrrrrrrrrrrrrrrr",
"rrrrrrrrrrrrrrrrrrrrrrrrrrrrrrrrrrrrrrrr",
"rrrrrrrrrrrrrrrrrrrrrrrrrrrrrrrrrrrrrrrr",
"rrrrrrrrrrrrrrrrreeeeeeeeeeeerrrrrrrrrrr",
"rrrrrrrrrrrrrre4BBBBBBBBBBBBBBjerrrrrrrr",
"rrrrrrrrrrrrree&GGGGGGGGGGGGGG+eerrrrrrr",
"rrrrrrrrrrrrreqNGGGGGGGGGGGGGG+qerrrrrrr",
"rrrrrrrrrrrreq2GGGGGGGGGGGGGGG+qqerrrrrr",
"rrrrrrrrrrrreq&GGGGGGGGGGGGGGG+0qerrrrrr",
"rrrrrrrrrrrreqMGGGGGGGGGGGGGGGO0qerrrrrr",
"rrrrrrrrrrreq2GGGGGDGGGGGGGGGGO0qerrrrrr",
"rrrrrrrrrrreq$GGGGGxGGGGGGGGGGO0qerrrrrr",
"rrrrrrrrrrreqNGGGGGXGGGGGGGGGGO0qerrrrrr",
"rrrrrrrrrreq2GGGGGFuGGGGGGGGGGO0qerrrrrr",
"rrrrrrrrrreq&GGGGGbtGGGGGGGGGGO0qerrrrrr",
"rrrrrrrrrreqNGGGGG@yGGGGGGGGGGO0qerrrrrr",
"rrrrrrrrreq2GGGGGGtyGGGGGGGGGGO0qerrrrrr",
"rrrrrrrrreq$GGGGGD*aGGGGGGGGGGO0qerrrrrr",
"rrrrrrrrreqNGGGGGM5aGGGGGGGGGGO0qerrrrrr",
"rrrrrrrreq2GGGGGGC5aGGGGGGGGGGO0qerrrrrr",
"rrrrrrrreq$GGGGGGi8aGGGGGGGGGGO0qerrrrrr",
"rrrrrrrreqNGGGGGG:8aGGGGGGGGGGO0qerrrrrr",
"rrrrrrreq2GGGGGGn78aGGGGGGGGGGO0qerrrrrr",
"rrrrrrreq$GGGGGGV88aGGGGGGGGGGO0qerrrrrr",
"rrrrrrreqNGGGGGGp89dGGGGGGGGGGO0qerrrrrr",
"rrrrrreq2GGGGGGG<99dGGGGGGGGGGO0qerrrrrr",
"rrrrrreq$GGGGGGk899dGGGGGGGGGGO0qerrrrrr",
"rrrrrreqNGGGGGGZ800dGGGGGGGGGGO0qerrrrrr",
"rrrrreq2GGGGGGG 900dGGGGGGGGGGO0qerrrrrr",
"rrrrreq$GGGGGGG,900dGGGGGGGGGGO0qerrrrrr",
"rrrrreqlGGGGGGS80q0dGGGGGGGGGGO0qerrrrrr",
"rrrreq2GGGGGGGA80q0dGGGGGGGGGGO0qerrrrrr",
"rrrreq%GGGGGGG.9qq0dGGGGGGGGGGO0qerrrrrr",
"rrrreqlGGGGGGG>9qq0dGGGGGGGGGGO0qerrrrrr",
"rrreq3GGGGGGGGzcvvvmGGGGGGGGGGkcvvwerrrr",
"rrreqgGGGGGGGGGGGGGGGGGGGGGGGGGGGG3errrr",
"rrreqfGGGGGGGGGGGGGGGGGGGGGGGGGGGG3qerrr",
"rrreqfGGGGGGGGGGGGGGGGGGGGGGGGGGGG3qerrr",
"rrrqqfGGGGGGGGGGGGGGGGGGGGGGGGGGGG1qerrr",
"rrrqqfGGGGGGGGGGGGGGGGGGGGGGGGGGGG<qerrr",
"rrrqqfGGGGGGGGGGGGGGGGGGGGGGGGGGGG<qerrr",
"rrrqqfGGGGGGGGGGGGGGGGGGGGGGGGGGGG<qerrr",
"rrreq9:;---------==zGGGGGGGGGG#-;:9qerrr",
"rrreq08655555555555xGGGGGGGGGGX5680qerrr",
"rrreqq0888888888865xGGGGGGGGGGo680qqerrr",
"rrreeqq000000000098xGGGGGGGGGGo80qqeerrr",
"rrrreeqqqqqqqqqqq09cGGGGGGGGGGO9qqeerrrr",
"rrrrrreeeeeeeeeeqq9cGGGGGGGGGGO0qerrrrrr",
"rrrrrrrrrrrrrrrreq0vGGGGGGGGGGO0qerrrrrr",
"rrrrrrrrrrrrrrrreq0vGGGGGGGGGGO0qerrrrrr",
"rrrrrrrrrrrrrrrreq0h##########s0qerrrrrr",
"rrrrrrrrrrrrrrrreq0865555555579qqerrrrrr",
"rrrrrrrrrrrrrrrreqq087666666780qeerrrrrr",
"rrrrrrrrrrrrrrrrreqq0999999990qqerrrrrrr",
"rrrrrrrrrrrrrrrrreeqqqqqqq00qqqeerrrrrrr",
"rrrrrrrrrrrrrrrrrreeeeeeeeeqeeerrrrrrrrr",
"rrrrrrrrrrrrrrrrrrrrrrrrrrrrrrrrrrrrrrrr",
"rrrrrrrrrrrrrrrrrrrrrrrrrrrrrrrrrrrrrrrr",
"rrrrrrrrrrrrrrrrrrrrrrrrrrrrrrrrrrrrrrrr",
"rrrrrrrrrrrrrrrrrrrrrrrrrrrrrrrrrrrrrrrr",
"rrrrrrrrrrrrrrrrrrrrrrrrrrrrrrrrrrrrrrrr",
"rrrrrrrrrrrrrrrrrrrrrrrrrrrrrrrrrrrrrrrr",
"rrrrrrrrrrrrrrrrrrrrrrrrrrrrrrrrrrrrrrrr",
"rrrrrrrrrrrrrrrrrrrrrrrrrrrrrrrrrrrrrrrr"
};
