/* XPM */
static char *result[] = {
/* columns rows colors chars-per-pixel */
"64 64 226 2 ",
"   c #25006A",
".  c #280073",
"X  c #2A007C",
"o  c #35017B",
"O  c #510D79",
"+  c #97695B",
"@  c #9A6875",
"#  c #EE5F5F",
"$  c #EF6757",
"%  c #EF635B",
"&  c #F06A56",
"*  c #E37A5F",
"=  c #DC467C",
"-  c #ED5B64",
";  c #EC546C",
":  c #ED596A",
">  c #F05867",
",  c #EB4D74",
"<  c #EA467D",
"1  c #E64A79",
"2  c #EA4979",
"3  c #EB5575",
"4  c #D37375",
"5  c #EE6865",
"6  c #EB6577",
"7  c #EF7B70",
"8  c #F8BB16",
"9  c #E59D39",
"0  c #F1AF36",
"q  c #FDCB05",
"w  c #F7C90C",
"e  c #FCCC0B",
"r  c #FACE13",
"t  c #FACC18",
"y  c #F8D317",
"u  c #FBD11C",
"i  c #FBCB2A",
"p  c #FDD325",
"a  c #FCD42B",
"s  c #F9C234",
"d  c #FBD634",
"f  c #FAD837",
"g  c #FBD63B",
"h  c #FAD93C",
"j  c #DA9454",
"k  c #EF924A",
"l  c #F39759",
"z  c #F3AF52",
"x  c #D98E70",
"c  c #F19869",
"v  c #EC8B71",
"b  c #F29576",
"n  c #F1AE6D",
"m  c #FAD644",
"M  c #FBDA44",
"N  c #FCDB4C",
"B  c #F9CB57",
"V  c #FCDC53",
"C  c #F9D854",
"Z  c #FBDE5B",
"A  c #F8E05A",
"S  c #FAE05C",
"D  c #F7DF60",
"F  c #FBDE62",
"G  c #F5CC71",
"H  c #FAE164",
"J  c #F6E369",
"K  c #FAE26C",
"L  c #F7E471",
"P  c #F9E372",
"I  c #2B0083",
"U  c #2E008C",
"Y  c #3C0186",
"T  c #2F0093",
"R  c #320094",
"E  c #33009C",
"W  c #3D019A",
"Q  c #3500A4",
"!  c #3B00A2",
"~  c #3700AA",
"^  c #3900AC",
"/  c #3600B5",
"(  c #3B00B4",
")  c #3D00BC",
"_  c #4A0689",
"`  c #45009A",
"'  c #56049C",
"]  c #690D95",
"[  c #791496",
"{  c #4900A7",
"}  c #5703A8",
"|  c #4700B7",
" . c #5701B8",
".. c #6D07A6",
"X. c #6600B4",
"o. c #3E00C2",
"O. c #4100C5",
"+. c #4A00C5",
"@. c #4300CB",
"#. c #4B00CC",
"$. c #5900CA",
"%. c #4500D4",
"&. c #4B00D4",
"*. c #4600DA",
"=. c #4A00DC",
"-. c #5400D3",
";. c #5D00D4",
":. c #5400DC",
">. c #5B00DB",
",. c #6700C9",
"<. c #7600C8",
"1. c #6700D4",
"2. c #6300DD",
"3. c #6A00DB",
"4. c #7300D5",
"5. c #7B00D4",
"6. c #7300DC",
"7. c #7B00DC",
"8. c #4B00E3",
"9. c #4D00EC",
"0. c #5300E4",
"q. c #5B00E4",
"w. c #5400EC",
"e. c #5B00ED",
"r. c #4F00F1",
"t. c #5400F3",
"y. c #5B00F4",
"u. c #5500F9",
"i. c #5B00F8",
"p. c #6400E3",
"a. c #6D00E3",
"s. c #6300EC",
"d. c #6C00ED",
"f. c #7300E4",
"g. c #7B00E4",
"h. c #7400ED",
"j. c #7C00ED",
"k. c #6400F4",
"l. c #6C00F3",
"z. c #6100F8",
"x. c #7300F2",
"c. c #7A00F1",
"v. c #881A92",
"b. c #97238D",
"n. c #8C0FB2",
"m. c #B418B2",
"M. c #932AAC",
"N. c #B528B5",
"B. c #DB349A",
"V. c #E83E86",
"C. c #E73B89",
"Z. c #E6398C",
"A. c #E42D9B",
"S. c #E53393",
"D. c #E43698",
"F. c #DD1EAE",
"G. c #CA17B8",
"H. c #DC1BB2",
"J. c #D816B9",
"K. c #DB13BC",
"L. c #E11EAC",
"P. c #C928AA",
"I. c #DA25A7",
"U. c #CC30AB",
"Y. c #E326A4",
"T. c #E224A6",
"R. c #B25D8B",
"E. c #B85A97",
"W. c #A76599",
"Q. c #B26691",
"!. c #AF4AA1",
"~. c #B368AD",
"^. c #D6508C",
"/. c #C65A93",
"(. c #E74785",
"). c #E94282",
"_. c #E5558D",
"`. c #CC708A",
"'. c #EA6F8E",
"]. c #C95CAB",
"[. c #8600C9",
"{. c #9505C9",
"}. c #8200DD",
"|. c #8802D8",
" X c #9605DA",
".X c #9C01DB",
"XX c #9112D9",
"oX c #B709CC",
"OX c #A311CF",
"+X c #B914C8",
"@X c #A707D5",
"#X c #A301DC",
"$X c #AC02DE",
"%X c #BC04D5",
"&X c #B60BD2",
"*X c #B301DD",
"=X c #BB00DB",
"-X c #9B27CD",
";X c #8200E5",
":X c #8B01E5",
">X c #8300ED",
",X c #8B00EB",
"<X c #9400E5",
"1X c #9C00E5",
"2X c #9200E9",
"3X c #9A00E8",
"4X c #8300F4",
"5X c #A300E3",
"6X c #AA00E1",
"7X c #A000E8",
"8X c #B200E0",
"9X c #B900E0",
"0X c #C90ACB",
"qX c #D40DC4",
"wX c #DB0AC5",
"eX c #D405CD",
"rX c #D30AC9",
"tX c #C915C4",
"yX c #D110C2",
"uX c #C303D6",
"iX c #C405D4",
"pX c #CA04D3",
"aX c #D202D2",
"sX c #D58785",
"dX c #D18D8E",
"fX c #EB8F89",
/* pixels */
"p p a p M P J D V H H M N N f M N N J L K H A S K P K d p a s s s s s B g M d g h p h N p p p a p f f p N H P M p M J D P J P P ",
"d a h V D P H H V D a p p p p p a N K H A V N N H P J d l 3 (.(.3 : 6 6 7 z l 0 s a a a p a a a f H f p a a d p p Z H F F g D L ",
"y a N N f h M M M a a a a p h A H H S N N V C n b 7 '.7 S.C.< < (.).).(.I.3 > > 6 6 l i h f h d p a p p p d M a a A M A N a K N ",
"p f a p p p p p p p p p p M K J S N V N Z z '.(.(.< A.wXV.> - Z.qX0XiXiXtX: & & ; D.J.U.z p a p p p p p p a d p a H V f p a H M ",
"a h p d N f f d V h p a h H K Z Z C C B z D.A.V.3 , A.qXD.# - I.*X2X,X,XP.5 & - S.H.eX=X(.6 v s a d d p p p p a a f d g a p D J ",
"M f p p N M N h L V V S S Z A N C z 7 : (.S.< , ).Y.wXuXtX, ; H.6X>Xj.>XC.% & V.rXuX*XoXA.).F.U.z a p a p a p a p p f N V Z F L ",
"a p p a M N A h J H V V N N V B c 5 - : T.Z.# : D.eXuX6X$XA.Z.qX5Xc.c.XX, % $ < K.=X*XI.Z.< L.uX+Xj a a a a g a a f Z L K S Z L ",
"p a p p M V L A V V N Z H S G 7 & % : 2 T.J.- # S.eXuX9X$X%XqXpX5X>X>XXX2 # $ - 2 J.H.S.(.2 I.uX5XOXj d M F F F C V H L P Z Z H ",
"a p a M H H Z V S S F K P G fX% % , Y.K.aX*XI.< S.K.eX=X[.{ X.n.5.<.,.} m.B.1 : 2 wXZ.2 2 Z.wX*X1X2XN.B A S M M A H H L P H P P ",
"a d V K Z V N N S P F F n ].Z.> - A.eXuX*X6X#X+XG.iX{.} T E ) / U T Q ~ T ' n.m.G.m.; > A.rX6X2X>Xj.N.(.l M y q a Z H K P P F M ",
"Z H Z N N N V V H P K n 3 D.0XZ.; A.pX*X$X$X$X' _ o ) ( o.*.w.9.( o.o.8.( ( ( W ' _ = ; H.$X,Xx.k.N.1 1 _.b a e e N A S C A M p ",
"V N V Z Z Z M N H P n _.3 1 I.iXA.A.aX=X=X*XX.Q Q E t.8.9.w.x.l.+.t.r.y.=.8.=.~ ) X ] F.pX5X>Xx.OX(.- : C.tXx e q a M J J L Z a ",
"S N Z Z f a a a p n _.; ; ; , I.0XL.K.pXoX` E @.@.| x.y.k.l.>X2X>.l.k.c.e.y.q.| %.E I _ [.3X>X XZ.2 : : ).rXOXj q e m f N Z Z H ",
"K f g a p p p a a 6 T.A.Z.(.< Z.qXuXoX{.{ ~ O.=.q.-.:Xc.>Xj.3X5Xa.,Xj.,Xx.l.f.-.e.o.E I I { ,.G.J.I.T.F.yX=X2XM.w e h r q q e h ",
"K J N p p a p p i B.K.pX0XwXL.T.eX%X` Q @.%.8.s.d.p.5X>X,X>X1X$Xd.,X;X3X>Xh.;X1.l.*.) Q R . o m.*X*X6X8X6X2Xc.M.8 q g g p p f V ",
"P P H M p a p s 7 +X%X6X,X8XpXaXuX{.R @.8.=.e.h.h.d.1X>X2X>X3X5Xk.,X4X<X2Xc. X1.>X0.*.) ( U   ' 5X>X,X,X>Xc.1XB.^.8 d N N N Z V ",
"P P L Z p a a * A.*Xh.:X>X2X$X=X{.o ( 8.s.e.k.h.j.p.1X>X2X>X3X$Xd.2X4X,X1Xx.:X6.,Xe.8.%.@.E     ' j.x.x.j.m.)., T.* u N N N A A ",
"K H P H d g z 3 ).0X<Xk.x.2X6X.X` I @.u.d.k.x.h.;X1.1X>X,X,X<X$Xf.5Xj.>X5Xx.7.f.3Xk.r.*.=./ . . . | s.g.P.V.> - D.B.8 f V M a d ",
"K P P H a a k > 2 K.8X2Xl.s. .Y R U =.k.l.k.x.x.:X4.3X>X,X,X3X$Xa.7X>X>X5Xx.7.3.1Xl.t.9.w.) U I X   ' I.C.; - 2 T.tXz t N m f a ",
"Z H P F M s % $ < rX*X5X2X>X{ I | ~ >.x.k.k.x.x.:X6.<X,X,X>X3X5Xf.2Xj.4X5Xj.6.1.3Xl.k.w.p.o.R T R I b.3 5 - ).H.uX8Xx q u N Z f ",
"H S S K P n 5 % S.pX=X=X%X0X} R o.| 1.c.y.x.>Xh.h.g.<X3X>X>X3X#Xf.3X,X4X5Xc.6.6.3Xx.k.k.p.@.^ Q E X b.# % 2 yX5X2X,X`.q q a V C ",
"K Z H L K n > > Y.uX=XuXwXm.R / 8.&.f.k.y.>Xx.2Xh.6.3X1X>X>X<X#X6.5X,X;X5Xj.3.4.3Xh.y.h.e.*.) ^ E U [ , , L.*X,X,X,X`.p q r N A ",
"K K L L A z (.(.T.eXaXeXL.[ U | w.0.3.y.x.x.y.>Xh.3.<X3X>X>X2X#X|.,X>X,X5Xc.3.6.<Xj.y.j.t.%.o./ ! R Y I.Y.qX8X#X&X&XsXM q q d A ",
"K K A M a _.&X@X&X0XtXG.b.o I @.y.:.p.y.h.z.y.h.g.1.3X3X,X4X2X#X3.3X3X2X5Xh.4.5.2Xh.h.h.t.0.%.) ~ R X n.eXqXF.C.2 D.G.n d q r h ",
"V M p p 8 D.wXrX9X3X4Xd.R   U =.k.>.t.s.l.i.t.h.:X3.3X3X,X>X3X#X4.5X2X3X3Xc.6.5.2Xl.c.l.t.p.%.o.~ E X o P.A.< - > C.rXdXZ a e a ",
"V V M M z V.(.Z.T.pX5Xc.{ X E =.l.q.=.l.s.u.t.k.:X3.3X3X2Xj.,X#X[.3X2X3X<Xh.5.7.2Xc.>Xy.s.2.%.%.^ ! U ] Z., : : , Y.%XsXZ Z r u ",
"F Z F V n < : : < L.uX2X{ I ( &.x.;.:.h.t.u.i.k.,X1.3X1X2Xj.:X#X{.2X2X3X2Xj.|.5.2X,Xh.u.x.p.=.*.) Q R [ , # ; Z.K.iX*X4 h Z f e ",
"P L K V b Y.D.(.; ).H.6X .U o.%.h.$.w.l.u.i.t.k.:X1.3X1X2Xj.2X.Xn.3X,X7X,Xh.|.5.2X,Xl.i.x.p.=.*.) Q R [ # # V.qX=X5X1XsXu A V e ",
"L P K P fXpXiXA.: : ).iX} R %.8.l.>.q.s.u.i.i.l.:X2.1X1X2X4X,X#X{.6X>X5X,Xc.|.5.4Xc.k.i.c.q.8.8.o.Q Q [ ; ; F.$X,X,Xg.4 u V N e ",
"P P P P fXuX9XL.> # ; tX` E 8.9.k.;.2.y.u.z.u.l.,X1.3X1X,X>X,X#X{.9X3X6X,Xh.|.7.,Xx.x.i.j.q.8.9.@.~ ~ ] V.Z.pX:Xj.j.;XdXN h f q ",
"P L P L G B.0XH.2 , ).&XY Q 0.t.s.-.3.i.u.z.i.x.;X3.3X1X,X>X,X.X{.*X5X5X>X>X;Xg.,Xl.l.i.c.q.=.9.@./ ~ Y +XoX8X,Xj.;X-XB f M p q ",
"P P P K G _.D.Y.qX@X}.p.I ~ 8.k.s.-.a.i.u.z.l.l.;X1.3X1X>X>X2X<X{.*X5X6Xc.>Xg.g.c.l.z.i.j.q.w.9.@.) ~ Y N.I.I.U.G.tX_.C V V q q ",
"P P F P n T.C.V.rX5Xk.i.( %.8.9.w.w.i.u.u.l.k.>.j.1.1X1Xc.>X<X3X{.9X6X5X4X>Xg.g.x.y.l.k.h.y.t.t.9.*.=.} S.C.Z.S.K.%XtXs a h r y ",
"K P P F fXY.2 2 L.*Xl.u.| @.%.*.8.8.w.w.i.k.#.;.h.3.3X1Xj.,X3X X{.8X6X5X>X>Xf.;Xx.@.k.y.e.w.8.=.%.%.#.} A.S.S.A.K.$XXX0 u M N V ",
"Z Z Z Z b A.3 ; A.iXx.u.^   U ~ R R ~ ! Q +.@.a.h.3.3X<Xc.,X3X<X{.8X6X5X,Xj.g.j.j.&.:./ o.E R R I I X ] A.A.A.A.H.1X:Xz t f N V ",
"d d d d c (.).(.Y.pX2Xl.! I ~ 8.O.~ %.@.@.@.%.j.d.6.1X,Xc.2X1X:X X8X6X5X3Xh.h.;X,Xw.8.=.y.@.o.o.o.~ E ] H.qXK.L.H.1X:Xx e d V N ",
"a a a p k > Y.wXwXaXuX2X{ / @.l.e.$.p.q.e.t.y.,Xd.4.1X,Xc.2X5X:X<X8X*X1X5Xx.s.>X,Xl.z.s.c.>.8.r.u.o.Q ..&X<X$XH.Y.6X>Xj u N M M ",
"a d d d z 5 I.uXaXwXeX8X{ ) =.l.e.+.d.e.k.s.k.;Xh.4.1Xj.>X2X5X:X:X8X6X5X5X>X>.>X,Xl.l.d.c.2.8.y.i./ U X.6Xx.,XG.A.pX#Xk u d r p ",
"V H Z V B 5 T.pXaXaXaX6X| ) =.l.e.+.h.y.k.k.l.>Xf.5.5Xc.4X,X5X|.<X*X$X#X1X,X1.g.,Xx.s.d.>X2.:.k.q.( U ` 1Xh.>X%XrXrX&X0 u r e t ",
"g S Z Z m 7 A.0X$X1X3Xg.! ) 8.d.k.+.h.y.k.l.h.c.h.4.3X>Xc.,X6X;X|.$X3X3X1X,X2.>X,Xl.d.d.>Xp.q.l.w.( U o OXN.N.P.P.0XP.B N N M M ",
"g Z V A z A.A.rX6X2X>X:X{ o.0.d.e.+.h.y.l.l.>Xl.h.5.2Xa.s.7.6X|.;X#X7.6. X3Xq.>X:Xl.d.l.>X;.e.l.0.( E O V.> > : , Y.0Xn A V N V ",
"M M N Z v ).2 Y.eX*X1X3X` ) 8.a.e.+.x.k.k.k.>Xl.d.7.|.| | |  X[.>X,. .|  .3Xq.>X,Xl.k.h.>X;.s.k.:./ Q [ , # $ % - S.0Xx V V V V ",
"q u g S b , : , A.pX$X1X{ ) 8.a.s.+.l.l.z.c.x.x.l.}.X.,.:X,.4.|.g.{ .X.X{ :X>.;X,Xl.k.j.>X>.s.x.=.( E [ ; % & $ - A.iXdXV N M V ",
"h V V V v ; - - < qX6X3X{ ( 8.a.e.&.h.l.l.j.l.c.l.:X .X.4XX.$.[.f.W .X#XW :X,.:X>Xl.l.j.j.>.d.x.&.) R [ 1 - - : C.yX$XdXV N p M ",
"F K Z V b > $ $ , yX5X<X' ) 8.a.e.#.x.x.z.4Xk.x.h.7.<.E | W 4.{.}.( ` { | :X,.|.j.l.l.j.>X>.f.d.*.) E [ D.C.Z.Y.yX*X:XdXN m a M ",
"H P Z V n > $ $ ; yX<X2X{ / 8.a.e.+.h.c.l.j.d.x.h.g.1Xp.>.a.5X[..Xj.f.6..X1X<.2Xc.d.l.>Xh.>.g.s.*.) ^ ..J.eXiX6X2X:X:Xx V V V V ",
"S F M M z , % % 3 tX3X2X{ / =.a.e.#.h.x.x.j.k.h.d.7.1X>X,X,X5X[.#X;X1X5X5X5X4.|.x.x.k.;Xj.:.c.e.*.) ^ } 0X6X,Xl.l.x.XXz d V N V ",
"N V Z F N 7 ).Z.Z.rX8X|.` ( =.a.e.%.h.x.h.j.k.x.l.7.3X>X>X>X6X5.#X:X3X5X1X1X,.<Xh.x.l.>X>X-.f.w.*.) ( W {.OX@X@X X:XE.C a g V V ",
"p a f h 0 (.D.I.H.tX*X|.W ) %.a.e.&.x.c.c.h.z.x.h.6.1X>X,X>X6X[.@X,X,X#X1X1X,. Xh.l.l.>Xj.-.h.w.*.o.Q ..S.C.Y.eXuX=XN.F N g N M ",
"d d M M c Z.; % - C.K.=X{ | %.e.r.:.l.l.x.k.z.x.h.g.1X>X>X,X5X[.#X3X,X3X1X3X<.:Xj.k.k.j.c.>.a.t.*.o.Q v.V., A.0X$X#X Xn N V N h ",
"V H K Z c C.3 - ; Z.K.=X$.0.8.9.w.u.u.r.r.s.l.l.d.6.3X>X>X,X6X[.#X$X,X,X5X1X1.<Xh.l.l.k.k.i.t.r.8.*.o.M., - V.0X6X1X.XsXV M p e ",
"S V h V fXA.A.S.A.H.aX=X .E ( @.O.@.*.*.&.#.l.l.l.f.1X>X>X2X7X<. X*X,X>X5X5X,.:Xc.x.#.%.9.r.w.0.8.*.o.M.: $ , H.iX*X6XsXg d q p ",
"a N Z h fX0X%X*X*X$X6X5X{ . X ) ~ R %.) %.q.z.l.k.g.1X>X4X1X1X5.:X*X3X>X3X1X,. Xx.l.+.) O.( o.^ T I . v.% & % > < F.uXsXu e p u ",
"u e a M v =X2Xc.x.c.>X2X} R ~ r.=.O.y.q.e.y.i.l.k.g.1X>X;X5X1X5.;X6X1Xj.3X1X3.<Xx.l.y.*.:.| 0.@.) ~ I [ - & $ # , L.uXx t p d t ",
"g e q u c iX.X,X>X,X,X3X{ R o.t.9.&.x.c.>Xl.z.l.k.g.1X>Xj.6X1X|.:X5X5X>X,X5X3.<Xh.x.l.e.>X$.h.t.8.o.~ ] Z.< V.I.qXiX#X9 r g r M ",
"q q q q 8 3 tX%X=X=X8X XY U o.9.w.0.x.c.,Xl.l.l.d.;X1Xj.j.6X1X5.:X5X5X>X,X#X1.2Xc.x.x.k.;X$.h.e.9.o.~ { .X&X0X&X$X1X!.w p e a h ",
"p u u u 0 P.G.I.A.I.tX*XY X o.*.e.>.c.j.,Xk.k.l.s.;X3Xj.>X6X1Xg.;X5X5X,X,X1X3.<Xh.c.x.k.j.;.k.q.9.o./ } P.A.Z.Y.qXiXU.i a y h a ",
"g g N V fXA.V.; - ; A.aX..I o.%.d.:.x.4X,Xs.s.l.x.g.1X4X,X5X7Xg.>X5X5X,X>X1Xa.<Xh.c.x.l.j.1.k.k.*.@.) v.L.Z., Y.=X$X3Xx y f M N ",
"a p f K '.S.V.< 2 C.L.aX..I ) =.y.-.x.>X,Xk.k.l.j.g.1Xc.1X1X5Xh.,X1X5X,X;X1Xp.<Xx.x.x.l.j.,.y.k.9.8.) n.A.V.- Y.6X2X:Xx u N V N ",
"p d h H 7 < Z.H.K.qXaXuX..I ~ 0.k.:.c.>X>Xz.z.x.;Xf.1Xc.1X1X5Xf.,X1X5X,X>X1X2.<Xh.x.x.k.j.,.y.k.t.8.{ n.Z.2 > I.6X2X:XsXd V V N ",
"V H S S v - A.uX6X5X5X5XX.I Q t.k.-.c.>X,Xz.k.k.;Xg.1Xx.1X<X6Xf.,X1X5X2Xj.1X1.2Xc.l.x.k.g.,.k.z.u.=.Q M.; ; 1 K.5X1X1XsXV N V N ",
"a a a a l % A.#X,X>X;X2X... ^ t.k.&.c.4X,Xk.k.d.g.g.5Xx.5X<X6Xf.,X<X5X<Xc.:X4.,Xj.l.c.k.:X,.z.k.i.#.R v.% - Z.0X6X$X%Xv m V N V ",
"d h M M n 1 H.6X,X,X:X<X} X ) w.s.&.j.,X:Xx.e.d.g.;X3Xh.5X:X6X6.<X,X6X3X>Xj.6.;Xc.x.h.d.>X$.e.s.y.o.! [ 1 Z.yX=X5X@XG.8 d d M N ",
"H H H H C n './.E.E./.`.@ + @ W.W.W.~.~.Q.~.Q.R.Q.R./.Q.E././.R./.E././.E.R.R.E.Q.Q.~.W.Q.W.W.W.Q.@ @ @ `.: /./.@ 4 9 q e e M V "
};
