/* XPM */
static char *result[] = {
/* columns rows colors chars-per-pixel */
"64 64 226 2 ",
"   c #343432",
".  c #3B3A32",
"X  c #383834",
"o  c #3B3B39",
"O  c #413E2F",
"+  c #403F3D",
"@  c #42402E",
"#  c #49452E",
"$  c #544C2D",
"%  c #5C542D",
"&  c #494737",
"*  c #42433D",
"=  c #514B34",
"-  c #514D39",
";  c #5C5636",
":  c #63592E",
">  c #685D2F",
",  c #665D33",
"<  c #645D38",
"1  c #6F632C",
"2  c #74662D",
"3  c #796B2A",
"4  c #7E6E2C",
"5  c #6C6235",
"6  c #766B37",
"7  c #464642",
"8  c #4B4B44",
"9  c #4F4E4B",
"0  c #504D46",
"q  c #535246",
"w  c #57564C",
"e  c #565753",
"r  c #5C5C53",
"t  c #615F56",
"y  c #6D6949",
"u  c #776E41",
"i  c #7C764A",
"p  c #636255",
"a  c #66655A",
"s  c #6B6A58",
"d  c #6C6B5B",
"f  c #716F5E",
"g  c #7C775C",
"h  c #6B6964",
"j  c #737362",
"k  c #7A7867",
"l  c #7C7C6C",
"z  c #787874",
"x  c #86762C",
"c  c #867A38",
"v  c #917E32",
"b  c #837942",
"n  c #B09313",
"m  c #9C8528",
"M  c #96853C",
"N  c #A38B29",
"B  c #AE9524",
"V  c #AD932A",
"C  c #B2962A",
"Z  c #A18E36",
"A  c #AC9635",
"S  c #B9A23A",
"D  c #C9A714",
"F  c #D9B518",
"G  c #E2B60A",
"H  c #E4BE1A",
"J  c #C1A52A",
"K  c #C8A928",
"L  c #D5B526",
"P  c #D9B729",
"I  c #C4A832",
"U  c #CDB439",
"Y  c #D4B634",
"T  c #E2BE2C",
"R  c #FDCC04",
"E  c #F7CF0D",
"W  c #FBCD0B",
"Q  c #F5CC17",
"!  c #FBCE13",
"~  c #FBCE1A",
"^  c #F7D117",
"/  c #FAD115",
"(  c #F7D51A",
")  c #FBD11D",
"_  c #ECC526",
"`  c #E6C22A",
"'  c #EECA2C",
"]  c #F3CB25",
"[  c #FACF25",
"{  c #F3CB2A",
"}  c #FDD325",
"|  c #FCD42B",
" . c #E5C532",
".. c #F6D535",
"X. c #FBD633",
"o. c #F7D936",
"O. c #FAD836",
"+. c #F5D338",
"@. c #FBD63B",
"#. c #F7DA3B",
"$. c #FAD93C",
"%. c #998A45",
"&. c #9C9159",
"*. c #AA9743",
"=. c #AB9A4D",
"-. c #B29E49",
";. c #AA9B56",
":. c #B5A557",
">. c #878267",
",. c #86846B",
"<. c #958D64",
"1. c #878776",
"2. c #918E71",
"3. c #949172",
"4. c #9A9678",
"5. c #A79C69",
"6. c #A29B79",
"7. c #BBAB66",
"8. c #B0A877",
"9. c #C5AD4B",
"0. c #CCB448",
"q. c #D3BC49",
"w. c #C8B763",
"e. c #DAC456",
"r. c #E8CB48",
"t. c #F6D747",
"y. c #FCD743",
"u. c #FBDA44",
"i. c #F7DC4D",
"p. c #FCDC4C",
"a. c #E8CF5F",
"s. c #F7DC54",
"d. c #F6DC57",
"f. c #FCDD53",
"g. c #FBDE5B",
"h. c #F9E056",
"j. c #F7E05A",
"k. c #FAE05D",
"l. c #D9C567",
"z. c #D6C379",
"x. c #E9D56B",
"c. c #F6DE64",
"v. c #FBDF62",
"b. c #F3DE6C",
"n. c #FADD6D",
"m. c #F7E264",
"M. c #FAE163",
"N. c #F7E46C",
"B. c #FAE26C",
"V. c #F7E472",
"C. c #F9E371",
"Z. c #868682",
"A. c #908F80",
"S. c #959586",
"D. c #9A9783",
"F. c #93938A",
"G. c #9C9C8A",
"H. c #9B9994",
"J. c #9D9C9A",
"K. c #A09E8E",
"L. c #A5A387",
"P. c #A2A38D",
"I. c #B4AC84",
"U. c #B9B78F",
"Y. c #A6A596",
"T. c #ABAA94",
"R. c #ACAC9A",
"E. c #B1AE98",
"W. c #BAB496",
"Q. c #B2B29D",
"!. c #A9A8A5",
"~. c #B4B4A5",
"^. c #BBBAA3",
"/. c #B5B3AA",
"(. c #BDBCAC",
"). c #BABAB5",
"_. c #BCBBB9",
"`. c #C0BFA9",
"'. c #BFC0AA",
"]. c #CEC491",
"[. c #E5D882",
"{. c #E6D79A",
"}. c #FBE689",
"|. c #F7E494",
" X c #C5C5AC",
".X c #D7CEA2",
"XX c #C3C2B2",
"oX c #CCCBB2",
"OX c #C2C1BC",
"+X c #CCCDBA",
"@X c #CED0BB",
"#X c #D4D4BB",
"$X c #D6D5BA",
"%X c #D9D7BB",
"&X c #E5DFBC",
"*X c #F5E9B7",
"=X c #C8C8C6",
"-X c #D4D4C4",
";X c #D9D7C5",
":X c #DDDCC3",
">X c #D6D6CB",
",X c #D9D9D7",
"<X c #E0DFC2",
"1X c #E0DCC8",
"2X c #DFE0C5",
"3X c #E1E1C5",
"4X c #E4E4CC",
"5X c #E9E4CA",
"6X c #F3EAC3",
"7X c #E5E5D1",
"8X c #E9E9D3",
"9X c #E3E3DC",
"0X c #E8E8D8",
"qX c #EBEBDC",
"wX c #F9F3D8",
"eX c #EEEEE2",
"rX c #EAEAE7",
"tX c #F0EFE2",
"yX c #EFF0E3",
"uX c #F0F1E4",
"iX c #FCF8E5",
"pX c #F3F3EB",
"aX c #F4F5F1",
"sX c #FAFAF5",
"dX c #F8F8F6",
"fX c #FDFDFD",
/* pixels */
"} } | [ u.C.B.v.f.v.M.u.p.p.o.u.p.p.N.C.B.v.f.g.B.C.B.X.} } } } } } | s.O.#.X.$.#.| $.p.} } | | } O.O.} p.m.C.u.[ y.m.v.B.B.C.C.",
"X.| o.h.v.C.m.m.s.v.| } } } | } | p.B.m.f.f.p.f.M.C.B.X.} } } } } } | M.f.X.#.} | | | | } | | | O.M.$.} | | X.} | f.B.v.v.@.g.V.",
"( X.p.p.O.o.y.p.u.| } } | } o.s.M.M.f.p.f.p.f.g.v.M.N.f.| | } } } | | u.p.p.m.O.M.O.} } #.#.$.| } } } } } X.u.| | h.u.k.p.| B.t.",
") O.| } } } } } } } } | } p.N.B.k.f.f.f.f.f.p.p.f.M.C.N.M.f.} | } } y.#.p.p.$.| u.o.| } | } X.} } } } } } | O.} X.M.s.O.} | M.i.",
"| #.} X.i.X.X.X.f.$.} | $.M.B.f.f.f.p.p.p.s.p.k.M.f.p.k.M.t.| | | } X.p.X.| | } } } | | X.| } } | X.| } } } } } | O.X.X.| | M.N.",
"p.O.} } p.t.p.$.C.s.s.g.k.g.h.f.f.p.g.g.v.f.} f.X.| } t.f.u.@.} } } } | } } } } } } | } | } } } } | | } | | } } } } $.s.d.f.m.N.",
"| } } } u.p.k.$.M.M.f.f.p.p.f.f.k.k.f.#.| y.O.$.} } } u.f.g.@.} } } X.$.} } } } } } | } | } } } } } } } } | @.| | X.g.C.B.k.f.C.",
"} } } } p.s.N.h.f.h.p.g.M.v.B.B.p.X.| } } | u.| } | | f.o.u.| | } } X.X.} } } } } } } } } } } | } } } } p.v.n.g.d.s.M.N.B.g.g.B.",
"| } | u.v.v.g.f.k.M.k.B.B.C.C.m.h.$.} | X.} | } } } } u.| } } } } } } } } } } } } | } } } | | } } | O.p.p.g.u.t.d.M.M.C.B.B.C.C.",
"| X.g.B.g.f.p.p.g.C.B.g.B.C.m.C.B.M.M.M.p.} } } } } | } | } } } } } } } X.| } } } } | } } } y.$.y.M.B.g.u.p.! R | h.v.N.C.C.v.$.",
"d.M.g.p.p.f.f.f.M.C.B.B.M.g.g.n.C.N.C.p.| } } } } } } } } } } } } } } | | | } | } } } } O.f.s.B.B.k...} X.p.| E W f.k.k.i.k.p.} ",
"f.p.f.f.g.g.u.p.k.C.B.$.o.} | | #.O.O.} } } } | } } } } u.| } } } } } } } } } } X.| | | f.p.i.k.i.k.v.X.} o.O.R R | u.B.B.B.g.| ",
"g.p.g.g.O.| | | | p.#.} X.| } } } } | } | } } } } } } } u.| | } } } } | } } } X.g.| | } g.t.g.! R R X.d.p.p.g.W R R p.X.i.f.v.v.",
"B.@.@.| } } | } | } } } } } } } } } $.O.} } } } } | } } } y.$.} | u.| u.| } } $.g.p.@.| O.s.p.W R R W R ! / | } R R $.~ R R E #.",
"B.B.p.} } } } } } } } } } } | [ } } O.| | } } } } | O.| } p.B.X.O.p.M.u.| $.| | p.p.O.| ^ ! W ~ } R R R R R ! @.W R X.@.[ } @.f.",
"B.B.m.p.} | } } } } | } } } } } } } } } } } } | } | | $.k.g.O.O.$.} y.f.O.o.f.| u.f.} ) X.X.@.p.s.@.| X.@.u.p.f.} R X.f.u.p.v.f.",
"C.C.N.d.| | | | } } } } } } } } } | } } | } | p.p.y.X.| f.f.X.| k.| | p.p.X.p.u.| f.p.p.M.v.k.i.p.p.p.p.f.p.g.f.p.! } p.p.p.v.k.",
"B.n.C.k.| $.| } } | } } | } } | } O.u.p.f.p.g.f.g.f.f.X.X.h.s.} p.k.| X.s.p.X.s.$.O.g.p.g.k.B.s.f.s.p.g.g.k.g.v.f.| W $.f.#.| | ",
"B.B.B.M.| | | @.X.} } } } o.f.u.g.p.B.B.M.f.M.g.v.g.v.f.| $.k.u.| k.f.| $.h.p.O.h.X.u.f.f.f.g.p.$.$.u.f.k.k.v.g.f.p.! ) p.p.X.| ",
"g.B.C.B.u.| } @.u.| | | $.u.k.f.$.} u.m.C.k.d.M.C.m.v.B.p.| f.k.o.y.k.u.| p.h.u.y.f.| s.s.g.O.O.p.M.C.m.g.#.p.g.f.p.) R ) p.g.@.",
"v.g.g.B.C.g...O.u.f.u.| $.} X.y.| X.f.i.y.u.o.k.i.@.g.m.M.u.X.g.k.X.X.f.y.| f.f.$.p.p.| g.k.k.k.p.o.y.p.h.X.y.p.p.} ) R R | f.d.",
"B.g.v.V.B.g.g.f.p.f.f.@.$.| | | } | } | k.M.u.M.p.| p.g.f.h.X.$.B.k.| $.k.O.$.u.X.o.d.@.} u.M.O.} } | $.k.h.f.f.f.k.k.) R E p.g.",
"C.B.N.V.g.y.X.g.f.p.f.p.$.p.f.p.O.| X.p.k.s.| d.d.M.B.k.u.g.B.o.u.f.f.| p.h.| u.X.O.u.j.| | X.O.y.f.h.g.f.p.f.B.i.g.f.y.R R | k.",
"B.B.g.@.| } p.N.B.k.f.f.u.p.f.p.f.M.g.k.u.O.m.p.$.f.m.B.s.p.M.M.M.h.f.p.| h.s.} p.| u.B.f.f.k.B.k.p.$.X.} } O.f.| ) $.f.X.R ! $.",
"g.u.} } } | k.m.s.g.N.f.f.f.f.f.f.p.h.f.g.g.v.f.y.O.u.g.$.$.f.p.f.B.g.f.@.X.p.X.X.f.X.p.f.g.s.$.@.| } } $.y.M.f.s.! u.B.s.| R | ",
"f.f.u.y.| #.B.u.$.k.C.f.g.n.u.f.p.p.f.f.p.p.[ W ! ) } X.$.p.f.f.f.k.v.f.u.y.i.[ @.y.i.f.f.f.f.f.p.h.u.y.g.f.v.g.p.p.u.u.h.k./ ) ",
"v.k.g.f.p.k.C.h.B.g.k.M.v.B.$.p.f.@.u.p.f.f.u.} E R R R R / ) } } / | g.s.h.s.s.g.g.v.g.v.i.y.f.f.g.f.m.B.M.p.#.M.d.| | #.g.O.R ",
"C.C.N.s.k.B.C.B.C.g.p.M.k.B.C.g.y./ u.f.p.f.f.f.u.X.W R R R R R R R ! X.p.k.M.N.g.s.c.g.t.q.e.m.m.B.k.v.f.f.#.p.M.M.M.u.[ h.f.W ",
"C.C.C.C.C.N.k.k.B.M.f.M.B.N.B.f.p.p.k.p.f.f.p.p.p.} ! W ! ) } | O.$.p.p.h.p.f.M.B.|.6.I.5.D.3.=.r.v.B.B.M.#.R W p.f.f.| ) d.p.R ",
"C.C.C.C.B.M.f.f.g.B.B.B.B.B.C.g.p.n.B.g.p.y.) | p.f.p.p.p.f.h.f.p.f.M.B.k.f.p.p.q.-X_.aX_.aXdX=X5.I p.f.f.R R R ) | p.g.p.#.o.R ",
"C.C.C.N.C.B.B.B.B.B.C.B.k.B.B.k.M.B.M.h.f.f.f.f.f.f.p.M.B.B.B.k.p.f.B.C.n.n.g.l.E.qXaXpXpXpXaXfXrX6.f.p./ R R ~ ) | p.#.X.p.} R ",
"C.C.C.C.N.C.C.B.C.N.C.C.C.C.C.N.B.C.B.B.B.M.C.B.M.m.B.C.N.C.C.B.M.f.M.N.B.g.t.w.,XqXtXqXeXtXtXuX9X>.p.} R W X.p.p.k.M.h.h.s.R R ",
"C.C.B.C.C.C.C.C.B.C.B.C.C.C.B.C.N.C.C.C.V.V.v.@.| | g.g.g.d.f.s.g.g.b.b.b.@.[ 0.).8X@X7X4X:X%X@X;X<.O.E R @.g.p.p.f.p.} X.O.W ) ",
"B.C.B.m.C.V.B.C.C.C.m.C.V.V.C.C.C.C.N.V.B.B.B.s...} } } X.| } } P b - - - > =.l.5.1.Q.:X+Xa ,.l =.D D m Z b u =.Y { } R ) p.p.f.",
"g.g.g.g.f.f.f.p.@.g.B.B.B.V.B.C.C.B.C.C.n.C.V.V.b.q.Y L ] } } L i s * q w q * & 6 s j e e a l 2.y < y * 8 t f j s *.y.} ! O.p.p.",
"X.O.X.X.X.X.p.M.k.n.C.C.V.C.B.g.M.B.N.w.=.=.:.w.;.E./.Y.I.9.-.%.a q 8 7 o + 7 q * 8 a H.a * a F.t = < < = + - 0 t &.f.u.! X.f.f.",
"} | | } } } | @.v.f.v.p.p.@.| | } X.S S {.5X&XE.6XfXfXfXfXOX;XwXJ.z Z.J.=X,X,X;Xj p J.,X!.e =XOX(.D H G F U 9.:.=.r.| } ~ p.u.p.",
"| X.X.@.$.@.| X.p.i.O.} | } } | | P S *XfXfXfXdXfXfXfXsXfXfXfXfXfXdXfXfXfXfXfXaX1.2.Z.>X!.e ,X=XP.n ~ [ R } f.p.E R R R ~ | ! } ",
"g.M.h.f.f.u.u.p.f.@.} | | | | | T S *XfXfXfXfXfXfXfXsXwXfXfXfXfXfXfXfXfXfXfXfXaX1.^.j h r e e e d B ) p.[ W X.u.W W R / ) W W ! ",
"@.g.g.g.u.X.f.p.f.X.X.r.r.C.}.x.=.|.sXfXfXfXfXfX>XuXuXsXfXfXfXfXfXfXfXfXfXfXfXrXl L.j a t t j ,.U.*.) X.p.[ ! u.@.@.O.p.p.p.p.u.",
"X.g.f.k.#.p.p.p.g.i.a.g /.=X_.!..XiXfXfXfXfXfXeX!.yXyXuXyXpXyXyXeXpXdXrX9XpXyX0Xe p j j r 9 p j l A p.) y.p.~ ) f.f.f.f.p.p.p.f.",
"u.u.p.h.u.f.f.n.l.{.:X,XfXfXaX_.=XfXfXfXfXfXpXtXqXyXuXuXqXuXyXeXyXuXeX9XqXyXyX9Xe k 7   o * * q g J p.y.} p.p.~ | f.p.f.f.f.f.f.",
"R ! @.k.f.p.}./.-XdXfXfXfXfXsXJ.J.dXfXaXuXuXeXeXyXyXqX8X8X0XqXeXqXeXeXeX0XqXyXqXj 4.d 8 X     X & P | s.X.| p.u.^ y.f.f.f.p.u.f.",
"$.g.g.p.f.f.{._.fXfXdXaXpXsXqXJ.9XaXfXpXuXuX0X8X8X8X2X<X4X XXX;X8X8XqX7X4X8XeXyX!.j 0 o         $ r.X.u.p.} y.p.y.) u.f.f.p.} y.",
"v.n.f.f.f.f.].!.dXpXeXeXuXqX>X/.pX9XeXqXqXuX7X+X;X<X2X X@XD.R.@X4X4X4X4X4X8XyXeX7Xj ,.+   o q # J | u.| f.f.! p.p.| } p.p.y.| p.",
"B.C.g.f.p.f.;.j eXyXeXeX0X3X%XF.9X+X4X8X~.0X`.G.(.2X<X:X%X$X%X<X3X:X$X3X4X4X8X4X7X'.h a r r q C } } O.t.@.p.u.X.f.f.| @.f.p.f.f.",
"g.g.p.y.g.t.6.OX-X;X;X3X5X~.3XD.R.0X7X4X+X:XXX-X-X2X$X2X2X2X%X#X<X@XD.@X3X<X4X4X2X@X;X>X'.T.x ' | } } s.p.p.p.p.f.p.f.X.X.f.p.p.",
"p.f.g.g.y.g.W.A.Y.S.oXT.'.G.1X1.c I.`.;XY.L.oX;X^.'.,.%X%XoXR.^.oXE.l G.<X#X^.^.~.!.~.yXrX4.J p.X.X.u.u.g.f.f.p.f.f.p.p.| @.f.f.",
"} | o.$.} t.7.^.R.S.P.l Y.4.,.N Q ~ -.h (.h T.P.#XR.1.oX`.D.W.Y.$X XY.G.oX^.l 8 h S.A.T.&.K } X.} #.N.g.g.f.p.p.p.f.p.f.u.@.f.y.",
"X.X.$.p.y.X.H M 4.3.L.8.i 9.Y o.@.y.U & 2.2.T.Q.%X2X#X@XY. X#X~.3X$XK.Y.Q.~.Q.k X r z.r.{ [ | } | p.C.B.M.B.f.X.f.p.O.p.p.f.p.@.",
"f.M.B.g.#.| } Q ` r.:.;.e.g.f.X.| |  .> Z r.[.4.3.I.4.2.E.W.6.6.6.5.w.|.}.e.I I x   V y.| } } } p.k.C.N.m.B.v.X.X.f.u.p.f.p.} E ",
"k.p.y.f.v.f.i.g.g.s.i.v.X.| | } | | { ; v | t.< A '  .a.C.M.r.H  .} } } } } } } K   3 +.} | } @.m.V.C.C.p.y.M.p.~ X.f.u.X.X.R ) ",
"X.p.g.u.m.k.#.M.M.} } O.} | } } } | X.u 6 t.s., M | O.p.p.f.X.[ } } } } | } } [ K   % ] } } } p.B.C.C.B.| E v.B.y.! @.i.~ R } ) ",
") R } u.#.| O.o.u.X.| | | O.X.X.$.u.#.6 y t.s.< 6 i.f.p.g.p.} } } } } } } } } [ m   : [ } | #.M.B.n.B.d.! W k.o.$.| ! y.~ | X.~ ",
"X.W R } @.@.p.p.f.k.k.g.h.f.g.g.k.B.x.% 4 u.+.5 6 t.h.h.f.X.} } } } } } [ K N 1     m } } | B.C.B.O.i.| X.| [ R ! f.! R ! @.E u.",
"R R R R R R W [ o.h.M.M.g.s.g.g.k.N.0.O N #.[ 2 > ] X.O.} } | } } } | } V O O .   # ] } | X.C.v.k.| p.y.u.g.) E | M.X.R } W | u.",
"} ~ ) ) } | u.h.M.y.X.p.| } } } } s.x $ U | [ 4 2 | } | } } } } } } } } m # @ $ # 2 } } | f.i.X.p.X.m.B.g.B.u.p.M.m./ ) | / y.| ",
"$.@.p.f.M.N.s.} } d.g.p.s.o.X.X.p.S # x r.| } 4 : ] } } } } | } } } | } [ S J P : 2 [ | #.p.[ u.X.f.B.C.B.f.f.p.d.g.| y.! O.p.p.",
"| } O.M.N.C.C.g.$.h.B.B.B.k.k.M.q.$   %.t.u.} x % ` } } } } } } | } } } } } ) ] $ 2 [ o.| W X.f.@.} g.N.f.p.f...X.u.f.y.! p.p.f.",
"| | $.g.g.s.u.p.M.B.k.p.i.u.g.B.4 . . 9.u.s.} x # L } } } } } | } } } } } } } _ # 2 } u.~ W p.p.! } f.s.! f.#.) R | | @.X.f.f.p.",
"f.M.k.k.h.u.O.o.o.X.| X.X.@.g.g.A = %.d.p.k.h.%.X K } } } } } } | } | } } } } ` O 3 } @.X.y.u.! R | p.} ~ y.O.W R R R y.f.p.f.f.",
"| | | | | | X.X.y.p.f.f.M.m.k.d.i.i.n.n.u.O.p.6   C } } } } } } $.| | } } } } V   x [ s.s.@.| ~ | u.o.E #.#.! R R R / @.p.p.p.p.",
"X.#.u.p.p.k.M.M.M.h.p.$.X.X.@.| } | h.k.M.h.@.v   C } } | | } } | | } } | } } N   N @.m.O.O.| u.u.f.~ X.i.} R R R R W / X.X.y.f.",
"M.M.M.k.M.p.| } } } } } } | O.y.p.M.B.h.p.f.X._ V ] } } } } } } } | } } } } } _ C ' M.p.} i.p.| } t.O.g.u.R W ! R R R R R R y.f."
};
