/* XPM */
static char *result[] = {
/* columns rows colors chars-per-pixel */
"64 64 253 2 ",
"   c #352B0C",
".  c #781907",
"X  c #701D0C",
"o  c #4D2807",
"O  c #4A3612",
"+  c #67250D",
"@  c #762408",
"#  c #722F13",
"$  c #3C721B",
"%  c #49450C",
"&  c #475A17",
"*  c #565111",
"=  c #575E1A",
"-  c #794515",
";  c #66561A",
":  c #715011",
">  c #7C5617",
",  c #587A0E",
"<  c #4B6917",
"1  c #54651B",
"2  c #586A19",
"3  c #487517",
"4  c #4C7A1C",
"5  c #5B7D13",
"6  c #55741C",
"7  c #57781A",
"8  c #68690A",
"9  c #766F0D",
"0  c #697C0D",
"q  c #65681A",
"w  c #766518",
"e  c #657A18",
"r  c #787718",
"t  c #5C5027",
"y  c #694B24",
"u  c #795A27",
"i  c #6D5430",
"p  c #4A6A25",
"a  c #5B6726",
"s  c #497622",
"d  c #557924",
"f  c #686B27",
"g  c #7B6A26",
"h  c #6A7623",
"j  c #7A7725",
"k  c #6C6C38",
"l  c #6C5C5C",
"z  c #747343",
"x  c #841508",
"c  c #832C10",
"v  c #834515",
"b  c #915A14",
"n  c #86770C",
"m  c #8A6315",
"M  c #976614",
"N  c #867A17",
"B  c #997C18",
"V  c #85592C",
"C  c #887A29",
"Z  c #967926",
"A  c #846838",
"S  c #8E7431",
"D  c #A47833",
"F  c #855D50",
"G  c #88724D",
"H  c #5C8216",
"J  c #78890A",
"K  c #6C9404",
"L  c #74920F",
"P  c #799509",
"I  c #698517",
"U  c #758616",
"Y  c #5A8424",
"T  c #678C28",
"R  c #738D26",
"E  c #74942A",
"W  c #6B8832",
"Q  c #7A8533",
"!  c #799836",
"~  c #7FA12D",
"^  c #71934E",
"/  c #8E900B",
"(  c #889C08",
")  c #8A8617",
"_  c #968917",
"`  c #87951B",
"'  c #98961A",
"]  c #AF930F",
"[  c #AA9514",
"{  c #88A308",
"}  c #94A316",
"|  c #92AC10",
" . c #B5A31C",
".. c #A5B215",
"X. c #878626",
"o. c #958329",
"O. c #869A26",
"+. c #989726",
"@. c #878736",
"#. c #9B8A3C",
"$. c #8A9632",
"%. c #979A35",
"&. c #A88824",
"*. c #B68F24",
"=. c #A7982C",
"-. c #B89B29",
";. c #A79636",
":. c #B79E38",
">. c #88A82A",
",. c #92AC2D",
"<. c #94B126",
"1. c #88A534",
"2. c #96A535",
"3. c #A5A42A",
"4. c #B9A52A",
"5. c #A5B524",
"6. c #A8A439",
"7. c #B7A837",
"8. c #AFB635",
"9. c #C6A505",
"0. c #C9A91B",
"q. c #D1AF13",
"w. c #D9B118",
"e. c #E5B808",
"r. c #C49D2F",
"t. c #C6A926",
"y. c #CAB227",
"u. c #D7B527",
"i. c #CCAE34",
"p. c #C9B137",
"a. c #D5B837",
"s. c #E1BD2C",
"d. c #94C11D",
"f. c #B6C419",
"g. c #ADCB30",
"h. c #F3C606",
"j. c #FCCB04",
"k. c #F7CD0D",
"l. c #FBCD0B",
"z. c #F3C816",
"x. c #FBCE13",
"c. c #FBCE1A",
"v. c #FAD115",
"b. c #F7D119",
"n. c #FBD11C",
"m. c #C2CA2C",
"M. c #D9D034",
"N. c #EAC526",
"B. c #F3CA24",
"V. c #F7CD27",
"C. c #FDD325",
"Z. c #F4D02F",
"A. c #FCD42B",
"S. c #E8C738",
"D. c #F4CF32",
"F. c #F6D434",
"G. c #FBD633",
"H. c #FAD835",
"J. c #F7D739",
"K. c #FBD63B",
"L. c #FAD93C",
"P. c #C7E439",
"I. c #8F9247",
"U. c #9A8653",
"Y. c #A59648",
"T. c #B09653",
"R. c #9BAC51",
"E. c #A8A544",
"W. c #B6A944",
"Q. c #ABA852",
"!. c #B3B054",
"~. c #9C956A",
"^. c #AB9566",
"/. c #9CAE68",
"(. c #B8B76B",
"). c #B2B175",
"_. c #C8B24F",
"`. c #C8B84A",
"'. c #D9BB43",
"]. c #CBBA5A",
"[. c #C5B96C",
"{. c #C3B579",
"}. c #B6C94B",
"|. c #B4C654",
" X c #A6C262",
".X c #C8C649",
"XX c #DDC446",
"oX c #C7C856",
"OX c #D9C656",
"+X c #D0D455",
"@X c #E7CA48",
"#X c #F0CF4C",
"$X c #F3D344",
"%X c #FCD743",
"&X c #FBDA44",
"*X c #F4D54D",
"=X c #F7DA49",
"-X c #FCDB4C",
";X c #E6CB56",
":X c #EBD25B",
">X c #F6DC53",
",X c #FCDD53",
"<X c #F4D759",
"1X c #FBDE5B",
"2X c #C5E144",
"3X c #D7E54B",
"4X c #E6E652",
"5X c #F9E058",
"6X c #FAE05D",
"7X c #D9CA64",
"8X c #D6D76B",
"9X c #C7C677",
"0X c #CBD675",
"qX c #D3D876",
"wX c #E2CE63",
"eX c #EBD667",
"rX c #F6DD62",
"tX c #FBDF62",
"yX c #D1E17D",
"uX c #E8E46A",
"iX c #F7E264",
"pX c #FAE163",
"aX c #F7E36D",
"sX c #FAE26B",
"dX c #F1E868",
"fX c #F7E471",
"gX c #F9E372",
"hX c #8E968F",
"jX c #B9B389",
"kX c #B3B092",
"lX c #B6B6B5",
"zX c #C1BFBD",
"xX c #BCCAAA",
"cX c #CECE8A",
"vX c #D9DC9A",
"bX c #ECDB97",
"nX c #D1E389",
"mX c #DCE598",
"MX c #E4EE88",
"NX c #E8EC99",
"BX c #CED2AE",
"VX c #E8DDB7",
"CX c #DBE6A3",
"ZX c #DEF0B0",
"AX c #E5EAA8",
"SX c #EEF1AC",
"DX c #BEC7C0",
"FX c #D3D6CB",
"GX c #DFE2D4",
"HX c #EBEDD4",
"JX c #E9EAE8",
"KX c #EEF4EA",
"LX c #F7F8F8",
/* pixels */
"C.C.A.C.&XgXsXtX,XtXiX&X-X-XK.&X-X-XsXaXsXpX1X1XsXgXsXG.C.C.C.C.C.C.A.1XG.L.G.K.L.C.L.-XC.C.C.A.C.H.H.C.-XpXfX&XC.&XsX1XfXsXgXgX",
"F.A.K.>XpXgXiXiX,X1XA.C.C.C.C.C.A.&XsXsX1X>X&X1XpXgXsXG.A.C.C.C.C.C.A.6X1XA.L.C.G.C.A.A.C.A.A.A.H.pXL.C.C.A.G.C.A.,XsXtXpXJ.1XfX",
"b.G.-X-XH.L.&X&X&XA.C.C.C.C.J.5XsXpX1X-X-X-X,X,XpXpXsX,XA.C.C.A.C.C.F.&X=X-XiXH.pXK.C.C.L.J.&XA.C.C.C.C.C.G.&XA.F.5X&X6X-XA.sX=X",
"n.H.A.C.C.C.C.C.A.C.C.A.C.&XaXaX6X-X,X-X,X-X,X-X,XpXgXsXpX,XC.C.C.C.&XL.-X-X&XC.L.K.G.C.A.C.G.C.C.C.C.C.A.C.K.C.A.tX,XG.C.A.iX&X",
"A.L.C.G.-XH.H.G.1XK.C.C.L.pXsX1X1X-X-X-X,X-X&X6XpX1X-X1XpX&XG.C.C.C.G.&XH.C.C.C.C.C.H.C.G.A.C.C.C.H.G.C.C.C.C.C.C.K.F.K.A.V.pXaX",
"-XH.C.C.&X=X-XL.sX5X>X1XpX1X5X-X,X-X1X6X1X1XA.,XG.C.A.&X,X-XG.A.C.C.C.G.C.C.C.C.C.C.A.C.C.C.C.C.C.C.G.C.C.C.C.A.C.C.H.-X,X1XpXaX",
"A.C.C.C.&X=X6XK.iXpX1X-X-X,X-X1X1X6X1XL.A.&XH.L.C.C.A.&X,X,XK.C.C.C.G.L.C.C.C.C.C.C.C.C.C.C.C.C.C.C.C.C.A.A.K.A.A.G.6XgXsX6X1XsX",
"C.C.C.C.-X5XaX5X1X,X-X1XtXpXpXsX-XG.C.C.C.A.&XA.C.C.C.>XJ.&XA.A.C.C.A.H.G.C.C.C.C.C.C.C.A.C.C.A.C.C.C.C.&XtXsX1X>X,XpXsXgX1X1XsX",
"A.C.A.&XpXtX1X-X5X6X1XsXsXgXgXpX-XK.A.A.G.C.A.C.C.C.C.&XA.C.C.C.C.C.C.C.C.C.C.C.C.C.A.A.C.C.C.C.C.C.G.-X-X1X&X%X6XiXpXfXgXsXsXfX",
"A.G.1XpX1X,X-X,X1XgXsX6XsXgXpXgXaXaXiXiX5Xn.C.C.C.C.C.C.C.C.C.C.C.C.C.C.G.A.C.C.C.C.C.C.C.C.&XK.&XiXsX6X&X-Xv.j.G.,XpXsXgXgXtXL.",
",XpX1X-X-X,X,X,XpXgXsXsXrX1X1XaXsXsXsX-XC.C.C.C.C.C.C.C.C.C.C.C.C.C.C.A.A.A.C.C.C.C.C.A.H.1X5XsXsXpXH.C.F.-XA.l.l.-X6X6X>X6X&XC.",
",X,X1X,X1X1X&X-XpXgXsXL.L.C.A.A.&XH.H.C.C.C.C.A.C.A.C.C.&XA.C.C.A.C.C.C.C.C.C.C.G.A.A.A.>X=X-X6X-X6X6XF.C.K.K.j.j.A.-XpXsXfX1XA.",
"1X-X1X1XK.C.A.A.A.-XK.C.G.A.C.C.A.C.C.A.A.C.C.C.C.C.A.A.&XA.A.C.C.C.C.C.C.C.A.G.1XA.C.V.1X&XtXx.j.j.F.>X&X,X1Xj.j.l.&XG.-X,XtXtX",
"sXK.K.A.A.C.A.C.C.C.C.A.C.C.C.C.C.C.L.H.A.C.C.C.C.C.C.C.C.&X&XC.A.&XA.&XG.C.C.H.,X-XK.A.L.,X&Xl.j.j.j.l.x.v.F.C.j.j.L.c.j.j.k.L.",
"sXaX-XC.C.C.C.C.C.A.C.C.C.C.A.C.C.C.H.A.C.C.C.C.C.G.K.A.C.&XsXH.H.-XpX&XC.L.A.G.-X,XK.A.b.x.l.c.C.l.j.j.j.j.x.H.l.j.K.K.C.n.K.,X",
"sXsXpX-XC.C.C.C.C.C.C.C.C.C.C.C.C.C.C.C.C.C.C.A.C.C.A.H.6X6XH.K.&XC.L.,XH.L.>XC.&X,XC.n.A.G.K.>X-XK.A.G.K.&X-X,XC.j.G.-X-X-XtX,X",
"fXgXfX,XA.C.C.C.C.C.C.C.C.C.C.C.C.A.A.C.A.C.A.,X-X&XG.A.,X1XG.C.6XG.A.-X-XF.-X&XC.1X-X-XpXtX6X>X&X-X,X,X-X>X1X1X&Xx.C.-X-X-XpX5X",
"fXtXgXpXF.L.G.A.C.A.C.C.C.C.C.C.C.G.&X=X-X-X1X1X1X,X,XF.G.-X>XC.-X6XA.G.5X-XH.-XK.H.1X-X1X6XaX>X,X,X-X1X1X6X5XtX,XA.l.K.,XL.G.A.",
"sXsXgXpXA.A.C.K.G.C.A.C.C.H.,X&X1X&XtXsXpX,XpX1X1X1XtX,XC.&X6X&XA.6X,XC.L.5X-XK.5XG.&X5X-X1X1X-XL.L.&X>XpX6XtX6X,X-Xv.n.-X-XG.C.",
"1XsXgXtX&XA.C.K.&XA.C.V.@XXXOX;XK.A.-XaXfX6X>X6XgXaXtXiX-XC.>X6XK.&X6X&XC.-X-X&X&X-XC.>X,X1XG.H.&XpXfXpX,XK.-XtX1X&Xn.j.n.&X6XK.",
"tX1X1XsXgX1XF.K.%X,X:XbXkXk kXjXt.D.,X,X&X&XG.6X=XL.1XiXpX&XA.pX6XA.H.1XL.G.,X1XK.-X&XA.6X5X6X6X-XL.&X>X5XA.%X&X-XC.n.j.j.A.,X>X",
"sX1XpXgXaX1X1X,X-X:XVXLXJXlXJXGXU.=.B.A.6XpXL.sX,XC.,X1X1X5XH.H.iX6XC.L.5XK.H.&XG.K.>X&XA.&XpXH.C.C.C.H.pX5X,X1X,X1X1Xn.j.v.-X1X",
"gXsXaXfX6X%XF.1X1X;XFXLXLXJXLXLXlXk +.$X6X-XA.,X1XpXgX6X&X1XsXK.&X,X1XC.>X5XA.&XA.J.&X6XC.C.F.K.&X,X5X1X,X&X1XpX-X1X,X&Xl.j.A.6X",
"fXsX1X&XC.C.&XsXtXwX^.zXJXFXJXLXFXz a E.$XK.iX>XL.-XpXsX>X&XpX6XpX5X,X-XA.-X5XA.-XA.&XsX1X,X6XsX6X-XK.H.C.C.K.,XA.n.L.5XA.j.v.K.",
"1X&XC.C.C.C.6X6X5X:XU.kXKX^ hXLXDXd p d OX1XtX,X&XH.&X1XL.L.5X-X>XsX1X,XK.G.-XG.G.,XA.-X,X1X-XK.K.A.C.C.L.&X6X5X>Xx.&XaX>XA.j.A.",
"-X,X&X%XA.L.aX=XJ.OXkXGXJXhXDXJXxXY p & p.,XC.k.x.c.C.F.L.-X-X,X1X6XtX,X&XK.=XA.L.&X>X,X-X1X,X5X,X>X&X&X1X,XpX6X-X,X&X&X6X1Xv.n.",
"pX6XtX,X&X5XfXXX!.E.R./. X/.xXxX^ d s & ;.*X&XV.l.j.j.j.l.v.n.C.C.v.A.1X-X5X>X,X1X1X1X1X1X-X&X,X,X1X,XpXsXtX-XL.6X1XA.A.L.1XH.l.",
"gXfXsX*XOXwX!.@.$.,.>.>.~ ! ! ! W d s p j *X,X,X&XF.l.j.j.j.j.j.j.j.l.G.>XpXpXaX6X,XpX,X&X5XpXpXpXsX1X1X,X1XL.-XiXiX1X&Xb.5X,Xj.",
"fXgXeXY.f j >.<.<.<.>.~ ~ ~ E T Y Y s s a XX-X-X-XC.v.l.x.n.A.A.H.K.&X-X-X&X1XpXpXG.A.G.j.c.L.-X-X1XiXsXpXL.j.l.&X1X>XA.C.>X>Xj.",
"gXfX].z h I g.d.<.>.>.1.~ ! E T Y Y Y s p 6.n.A.-X>X-X-X-X,X5X-X,X5XpXsXpX1X&X&X1X&XC.,XK.n.x.n.b.A.&X1X-Xl.j.j.n.A.-X1X-XJ.K.j.",
"gXgX].I.2.5.g.L K 1.>.1.R.! E T Y Y Y s p @.*X,X,X,X,XpXsXsXsX6X-X1XsXgXpXsXtX,X,X,X-X-X1X-X,X-X,X-X,X&Xl.j.j.n.n.C.-XL.H.&XC.j.",
"fXfXeX@.!.>.<.2.h 2.,.1.! E T T Y Y 4 4 d Q OXsXpXpXsXsXsXfXfXsX1X-XsXsXsX1X&XtXsXsXsX1X1XsXtX-X,X,X,XA.j.l.G.-X,X6XpX5X5X>Xj.j.",
"gXgXtXY.).k i G 9XI.Q e & & 6 d 4 Y 4 4 s s %.S.A.A.1XiX1X1X,X1XtX6XpXgXsXK.C.=XaXgXfXsX1XpXaX5X&XC.K.l.j.K.,X,X-X-X-XC.A.K.l.n.",
"gXgXtXY.~.^.z i jXa = & 1 2 7 7 7 7 4 7 s d W .XF.C.C.C.A.C.C.C.C.-XsXgX6XG.tXgXgXfXsXgXsX6XsX6X-Xl.j.j.l.&X%XA.c.A.C.j.n.-X-X>X",
"1X<XrXT.t F A i jXk f a 2 2 6 6 d d d d q : - D eX-XG.C.C.C.C.A.C.A.pX>XA.A.F.H.-X1X1XtXpXfXsXaX,XC.j.n.&X,X-XK.G.%X&XC.c.G.-X,X",
"D.*.D V y l i i U.S #.I.Y.E.W.6.6.Q /.Q.v . @ # ].fXpX,X-X&X&X&X-X&X6X-X-X6X1XtX1XG.G.-XK.6X1XG.F.L.v.l.%X-X,X-X,X,X1X&Xl.G.,X-X",
"B.*.i l F V &.'.!.@XrX>X-XK.A.A.A.-.(.NXI.# : y ;.tX1X,X,X,X1X1X,X&XA.C.C.%XK.K.,X,X1XtXA.x.A.G.l.v.l.j.c.&X,X,X&XH.A.C.n.-X&X-X",
"A.D.-.b :.s.D.G.=X>XG.C.A.C.A.A.C.u.9XNXI.$ $ $ j $X-X>XpX>X&X&X&X6X1X1X1X,X,X>X1X,X,X>X-Xx.l.L.C.j.c.C.j.A.1X&Xv.j.j.j.n.A.x.C.",
"1XtX<X#X,X&X&X,X,XK.C.C.C.A.A.A.F.XXqXMXW $ $ $ e $XK.K.,X1X-X%X$X5X1X,X6XpXpXsXtX-X-X&X$XK.x.C.&Xn.n.,XC.j.K.&Xl.l.j.v.v.x.l.v.",
"K.1X1XtX&XG.-X-X,XG.G.-X-X,X1XtX6X7XmX8XW $ s $ f #X%XC.C.&X,X<Xu.9.0.0.q.a.wXOX#X-XG.k.-XH.&Xl.K.,Xn.A.-XC.l.%XK.L.H.-X,X-X&X&X",
"K.1X1X5XK.-X-X-X,X-XtX1X-X1XtXtX@X0XNXoX! Y s $ q *X,X,XB.w.[ w u r 2 q 8 U [.!.o.%.7.@XA.C.>XG.c.&X-Xn.&X-Xc.C.-X,X,X,X-X-X-X,X",
"%X%X-X>X&X-X-X,X-X,X,X1X,X-X,X<X].nX8X!.+XoX$.p o.*X-Xp.C f ; + # _ / / H Y !.8XQ d 2 r -.B.tX6XA.c.,XL.C.-X&Xc.G.,X-X,X,X,X,X,X",
"j.c.K.6X1X-X,X-XG.G.&X,X-X-X-XXXcXnX,.U +..X7Xj `.#X'.7.U r w @ @ o.+.3.T H !.eX+.+.` U f Z 7XrX-XA.F.,XG.C.&X&Xv.&X,X,X-X-X&X,X",
"K.1X1X-X-X,X-X,X%Xx.c.%X,X,X*X[.CX/.I 5 I ` R.S '.'.p.4.] J 9 c + n E I H H .X+X4.y.t. .v # D *XA.&XH.&X-XC.%X1XL.n.&X,X,X,XC.%X",
"pXsX1X,X,X,X-X,X,X-X-X,X,X&X`.BXnX! H 7 0 8 q Z ;.W._.8.} H 8 - o * , 3 3 T OX7. . .[ M c c V 0.C.A.&XA.-X,Xv.&X-XG.C.,X-X%XA.-X",
"sXgX1X,X-X,X,X,X,X-X-X,X,X;X9XZX XI H 5 , 2 o.C Y.uXuXdX4X5.8 *   * < < , $.oX6.3.' 9 @ x b &.B B.A.G.=XK.-X%XG.,X-XA.G.,X-X,X,X",
"1X1X&X&X,X,X-X,X,X1X1XtX<XQ.vXmX^ h I 5 7 = ;.g I.%.$.%.8.M.+.8 ] ] 9.9.9.t.6.).vX(.- @ c r. .r u.A.C.>X&X,X,X-X,X-X,XG.G.-X&X,X",
",X-X1X1X%X1XsX6X,X-X1X1X].).HXjX+ @ - > ; B y.o.@.7 5 I U <.R u.h.j.j.x.H.1X#Xp.).HXU.v &.y.[ h t.G.&X&X1X,X,X-X-X,X-X,XA.%X,X,X",
"C.C.K.L.C.&X>XC.l.j.x.A.'.BXZX^.. x . + b e.e.-.%.I I U R e =.>XG.x.G.K.&XG.,XrX'.vXcXX.8 J U 6 0.L.aXpX1X5X-X-X-X,X-X,X&XK.-X&X",
"A.K.&X&X&XF.l.j.j.j.j.j.a.VXSXT.> b > - i.&X,X`.X.I U U N C 4.-X&X-XA.C.C.C.&X1XZ.8X0X5.` U H h u.-XfXsXpXsX,XA.,X-XG.,X-X,X,XK.",
",XpXsX6XL.C.C.n.n.C.G.#X[.HXAX1.I U r N s.&XsX:X;.=.Z # # + - r.,XG.A.C.C.C.A.F.a.vXyX3X4X4X|.X.$XpXfXsXiXgXpXG.G.-X&X&X,X-XC.l.",
"6X5X&X-XpX-X-X6X6X1X&X:X{.HXCX` J U I q s.A.>XA.u.D c c X + o 8 S.C.C.C.C.C.C.B.%.nX!.>.8.}.E.-.rXgXsXfX-X%X6X,Xb.K.1X&XG.G.j.c.",
"A.&X1XL.pXpXJ.pXpXA.C.@X{.HXNX` J J J f OX-X,XG.a.c - > w q 2 q q.A.C.C.C.C.C.N.Q.mXR.7 p 1 9 @XaXfXgXsXA.l.pXpX%Xx.K.-Xn.z.0.[ ",
"n.l.C.&XK.F.H.J.&XA.C.N.{.KXCX` J P J w XX-X,X-X;Xm q e , , , 2 ' B.C.C.C.C.C.u.cXNXI.a a h 7.tXtXsXaX>Xx.l.5XH.K.A.x.K.w.M y O ",
"H.l.j.n.K.K.&X-X1X6X1X:XjXKXAX` { ..5.N w.%XK.%XS.r h , 5 , , 7 ) B.C.C.C.C.C.i.vXNXk ; u m OXgXfXJ.-XF.G.A.V.l.x.,Xz.w.T.F O   ",
"l.j.j.j.j.j.l.C.H.1XtX:X).JXAX..f.M.m.n q.%XC.C.N.) T I H H , , ) B.A.C.C.C.C.'.SXnXg v V Z wXtXtXA.-XK.&X1Xn.l.C.eX&.^.VXjXt O ",
"C.n.n.b.C.A.&X6X1X&XF.=X_.FXSXm.f.f.{ P  .F.C.C.N.6.}.}.>.e e , ' V.C.C.A.C.C.@XSXcXg i V #.#XA.-XF.aXsX1XsX&X-X<XY.u U.G U.O &.",
"L.K.-X1XpXsX>XC.C.>X1X-X].xXHXm.{ { P P ) 0.0.[ ' 5.3XuXuX8.U 2 [ C.C.C.C.C.C.@XAX0Xj f k g u.=XK.-XsXgXsX,X,X$Xr.i A - y G o.$X",
"A.C.H.pXsXgXgX1XL.>XgXsXwX~.VXoX| { { P ` w c M L K J ' .X4X6.e 0.C.A.C.C.C.C.i.VXyXO.I ) 2.p.*XK.C.<XsX,X=X@X-.g t %   O V XX,X",
"C.A.K.1X1X,XL.-XpXsX6X-X,XY.kXmX..| P { ( n @ M J K K K P m..X_ V.C.C.C.C.C.C.u.cXMXg.g.P.3X%.M.k.C.,X>Xq.;.%.(.Q = %   w XX,X-X",
"1XpXpX6X5X&XH.H.K.F.A.G.G.S.^.BXoX| P { / n x b L K K K J 3.7.w.A.C.C.C.A.C.C.V.W.0X2XP.g.>.5 9 ] t.7.C q 1 R 0XE.* % ; a.-X,X,X",
"C.A.C.C.A.C.G.H.L.-X,X,XtXsX.X~.mX}.| { { n . b ( K K K J ) 0.C.K.A.A.C.C.C.C.C.u.E.}.O.e , 3 3 < a a a 6 < , O.X.8 [ S.&X,X-X-X",
"G.K.&X-X>X6XpXpXpX5X&X%XG.G.G.y.Y.cX}.} ' 9 o b P K L U _ 0.A.C.G.C.C.C.C.C.C.C.V.y.!.[.Q 3 3 < 1 p = = 1 1 1 e [ e.l.l.G.G.&X,X",
"iXpXiXpXpX-XA.C.C.C.C.C.C.A.G.%XXX].8Xp.=.M v B _ U ' 0.N.C.C.C.C.A.A.C.C.C.C.A.C.V.OX`.7.+.X.) r h g C o./ ] 9.h.j.j.j.j.l.&X,X"
};
