/* XPM */
static char *result[] = {
/* columns rows colors chars-per-pixel */
"64 64 249 2 ",
"   c #241C0A",
".  c #302D10",
"X  c #34372E",
"o  c #691609",
"O  c #5A270D",
"+  c #4E3312",
"@  c #6A290D",
"#  c #762B0C",
"$  c #6E340D",
"%  c #763608",
"&  c #683A15",
"*  c #793316",
"=  c #3A4C17",
"-  c #3C5721",
";  c #424710",
":  c #584519",
">  c #475615",
",  c #575C1A",
"<  c #6F510E",
"1  c #674818",
"2  c #774919",
"3  c #665A1A",
"4  c #77591C",
"5  c #526E0E",
"6  c #4B6917",
"7  c #58681A",
"8  c #4A7814",
"9  c #4C751C",
"0  c #4C791C",
"q  c #527414",
"w  c #5B7B15",
"e  c #53741B",
"r  c #587719",
"t  c #5B7C1A",
"y  c #667A0E",
"u  c #676718",
"i  c #76681C",
"p  c #677B18",
"a  c #797717",
"s  c #5C4A27",
"d  c #4D502B",
"f  c #595B27",
"g  c #6C4F2D",
"h  c #685A25",
"j  c #775A26",
"k  c #486726",
"l  c #596825",
"z  c #4B7527",
"x  c #587526",
"c  c #537C25",
"v  c #516231",
"b  c #646626",
"n  c #766826",
"m  c #667527",
"M  c #777627",
"N  c #776835",
"B  c #697137",
"V  c #6B7833",
"C  c #71724C",
"Z  c #676960",
"A  c #8E170F",
"S  c #8D2E0E",
"D  c #97560E",
"F  c #937F0D",
"G  c #867719",
"H  c #947D1A",
"J  c #837728",
"K  c #997D2D",
"L  c #8A7C37",
"P  c #8A754D",
"I  c #5E8118",
"U  c #768A0B",
"Y  c #6F940F",
"T  c #75960A",
"R  c #688519",
"E  c #778717",
"W  c #7A9319",
"Q  c #5B8625",
"!  c #678624",
"~  c #748729",
"^  c #6B9527",
"/  c #749929",
"(  c #6B8D38",
")  c #798734",
"_  c #7C9837",
"`  c #79A32B",
"'  c #7FA830",
"]  c #7A934E",
"[  c #849B09",
"{  c #8C8716",
"}  c #958611",
"|  c #849317",
" . c #969816",
".. c #A79608",
"X. c #AC900F",
"o. c #B5981A",
"O. c #87A307",
"+. c #97AF11",
"@. c #99AA17",
"#. c #AFAE16",
"$. c #BBA61B",
"%. c #868828",
"&. c #958828",
"*. c #869C2A",
"=. c #8F8C3C",
"-. c #9B8837",
";. c #849536",
":. c #A98D2B",
">. c #A79526",
",. c #A99738",
"<. c #87A62B",
"1. c #87AB36",
"2. c #95AD31",
"3. c #99B438",
"4. c #B9A229",
"5. c #A7AB3A",
"6. c #B8A53A",
"7. c #A5B935",
"8. c #B6B938",
"9. c #C7A81C",
"0. c #D1AC11",
"q. c #D4AB14",
"w. c #D6B21F",
"e. c #C8AA25",
"r. c #CDB02C",
"t. c #D9B625",
"y. c #C5AC38",
"u. c #CCB23B",
"i. c #D7BB35",
"p. c #E2BE2B",
"a. c #B9C52C",
"s. c #B2C534",
"d. c #C9D51B",
"f. c #FDCC04",
"g. c #F7CD0C",
"h. c #FBCD0B",
"j. c #EBC417",
"k. c #F6CE16",
"l. c #FBCE13",
"z. c #FBCE1A",
"x. c #FAD015",
"c. c #F7D218",
"v. c #FBD11C",
"b. c #CBD52F",
"n. c #E9C426",
"m. c #F4CC25",
"M. c #FBCF24",
"N. c #F4CD2C",
"B. c #FDD325",
"V. c #F6D12A",
"C. c #FCD42A",
"Z. c #E3C63D",
"A. c #F4CE34",
"S. c #F6D334",
"D. c #FBD633",
"F. c #FAD836",
"G. c #FBD63B",
"H. c #F6D839",
"J. c #FAD93C",
"K. c #949346",
"L. c #958B52",
"P. c #8D9956",
"I. c #A79B49",
"U. c #A48E55",
"Y. c #94AA47",
"T. c #92AE4B",
"R. c #ABA344",
"E. c #B8A547",
"W. c #B4B34F",
"Q. c #92966E",
"!. c #A79766",
"~. c #9DB171",
"^. c #AFB272",
"/. c #C2AC4A",
"(. c #C9B746",
"). c #D3B946",
"_. c #C7B858",
"`. c #CFBD6C",
"'. c #C3B673",
"]. c #BACB48",
"[. c #BAD047",
"{. c #B0C950",
"}. c #B9CA55",
"|. c #B8CA65",
" X c #B7CC6F",
".X c #CBCD4F",
"XX c #DBC34A",
"oX c #CCD843",
"OX c #D7DD4C",
"+X c #DDC759",
"@X c #CBD95C",
"#X c #E6C949",
"$X c #EFD148",
"%X c #FCD643",
"&X c #FBDA44",
"*X c #F5D749",
"=X c #FCDC4C",
"-X c #E7CD56",
";X c #EED459",
":X c #F4D554",
">X c #F6DC53",
",X c #FCDC53",
"<X c #F5DB5B",
"1X c #FBDE5B",
"2X c #E3E25F",
"3X c #F8E058",
"4X c #FAE05D",
"5X c #D7C367",
"6X c #C5D769",
"7X c #D9D663",
"8X c #C8CE7A",
"9X c #CAD779",
"0X c #D0DC7F",
"qX c #EBD468",
"wX c #F6DD63",
"eX c #FBDF62",
"rX c #F3DD6C",
"tX c #E8D877",
"yX c #F7E264",
"uX c #FAE163",
"iX c #F7E36C",
"pX c #FAE26C",
"aX c #F7E471",
"sX c #F9E372",
"dX c #8E9186",
"fX c #BCBB84",
"gX c #A4A596",
"hX c #AFAEAD",
"jX c #CBB384",
"kX c #B1C68A",
"lX c #CBC88E",
"zX c #D6D985",
"xX c #DAD398",
"cX c #E3DA8B",
"vX c #E5DA95",
"bX c #DAE589",
"nX c #DBE897",
"mX c #E6EA95",
"MX c #E6F098",
"NX c #D9E5A6",
"BX c #DAE7B5",
"VX c #E9EDB1",
"CX c #E7E8B9",
"ZX c #D2D3CB",
"AX c #D5D6D3",
"SX c #ECEFCF",
"DX c #F7F6D9",
"FX c #EEEDEA",
"GX c #F7F8F3",
/* pixels */
"B.B.C.M.&XsXpXeX,XeXuXJ.,X=XF.&X=X=XiXaXpXuX,X1XsXsXpXD.B.B.B.B.B.B.C.>XF.J.F.G.J.B.&X=XB.B.B.C.B.F.F.B.=XuXaX&XB.&XyXyXpXiXsXsX",
"D.C.F.3XuXsXyXyX>XeXC.B.B.B.B.B.C.=XpXuX,X,X=X,XuXsXpXD.B.B.B.B.C.B.C.uX,XD.J.B.C.C.C.B.B.C.C.B.F.uXJ.B.C.C.D.B.B.1XpXeXeXG.1XaX",
"c.D.=X=XF.F.&X&X&XC.B.C.C.B.F.3XuXuX1X=X,X=X,X1XeXuXiX=XC.C.B.C.B.B.C.&X=X=XuXF.uXF.C.B.J.H.J.D.B.B.B.B.B.D.&XC.C.1X&X4X=XC.pX*X",
"M.F.C.B.C.B.B.B.B.B.B.C.B.=XiXiX4X=X,X=X,X,X=X=X,XuXsXaXuX,XB.C.B.B.&XJ.>X=XJ.C.J.J.C.B.C.C.D.B.B.B.B.B.C.C.D.B.C.uX>XD.B.C.4X=X",
"C.J.B.D.=XF.F.D.,XJ.B.C.J.uXpX1X,X,X=X,X,X,X&X3X4X1X=X1XyX&XC.B.C.B.D.&XD.B.B.B.B.B.C.C.D.C.B.B.C.D.D.B.B.B.B.B.B.G.D.G.D.M.4XiX",
"&XF.B.B.&X*X=XJ.aX,X>X1X1X1X3X=X=X=X1X4X1X1XC.,XD.B.B.%X1X=XG.B.B.B.C.C.B.B.B.B.B.B.C.B.C.B.B.B.B.C.B.B.B.C.B.C.B.B.F.=X,X1XpXiX",
"C.B.B.C.&X=X4XF.yXuX,X,X=X,X=X1X1XuX,XJ.C.%XF.J.B.B.C.=X=X1XG.B.B.B.F.J.B.B.B.B.B.B.C.B.B.B.B.C.B.B.B.C.C.C.G.C.C.F.1XaXpX4X1XpX",
"B.B.B.B.=X3XiX3X1X,X=X1XuX1XpXpX=XD.C.B.B.C.&XC.B.C.B.,XH.J.C.C.B.B.D.D.B.B.C.B.B.B.B.B.C.B.B.B.B.B.B.B.&XuXpX1X1X>XuXiXsX1X4XuX",
"B.B.C.&XeXeX1X,X3XuX3XpXpXsXsXuX3XJ.B.C.C.B.C.B.B.B.B.&XC.B.B.B.B.B.B.B.B.C.B.B.B.C.B.B.B.C.C.B.B.C.D.=X=X1X&X%X>XuXuXsXsXpXpXsX",
"C.D.1XpX1X,X=X,X1XsXpX1XpXsXuXsXpXyXyXyX3XB.B.B.B.B.C.B.B.B.B.B.B.B.B.B.D.C.B.B.B.B.C.B.B.B.&XJ.&XuXpX1X&X=Xc.f.C.1XeXiXaXsXeXJ.",
"1XuX1X=X=X=X,X,XuXpXiXpXeX1X1XpXaXpXpX=XB.B.B.B.B.B.B.B.B.B.B.B.B.C.B.C.C.C.B.B.B.B.B.B.F.,X1XpXpX4XH.B.D.=XC.h.h.=X4X4X>X4X&XB.",
",X=X,X1X1X1X&X=XuXsXpXJ.G.C.C.C.J.F.F.B.B.B.B.C.B.B.B.C.&XC.B.B.B.B.B.B.B.B.B.B.D.C.C.C.>X=X*X4X=X3X<XD.B.H.G.f.f.C.=XyXpXsX1XC.",
"1X=X1X1XF.C.B.C.B.=XJ.B.D.C.B.B.C.B.B.B.C.B.C.B.B.B.B.C.&XC.C.B.B.B.B.B.B.C.B.F.1XC.B.B.1X&XeXl.f.f.F.>X&X,X1Xf.f.h.=XF.=X,X1XeX",
"pXG.G.C.B.B.C.B.C.B.B.C.B.B.B.B.B.B.&XF.B.B.B.B.B.C.B.B.B.&X&XB.C.&XD.J.C.B.B.J.1X=XG.C.H.>X&Xh.f.f.f.h.l.x.D.B.f.f.G.l.f.f.g.&X",
"pXiX=XB.B.C.B.B.B.C.B.B.B.B.C.B.B.B.F.C.C.B.B.B.B.C.F.C.B.=XpXD.F.=XuX=XC.J.C.C.=X,XF.C.c.l.f.z.B.h.f.f.f.f.l.D.h.f.G.G.B.v.G.,X",
"pXpXpX&XB.C.B.B.B.B.B.B.B.B.B.B.B.B.B.B.B.B.B.C.B.B.C.J.3X1XF.F.J.B.&X=XD.J.=XC.&X,XB.v.D.D.G.,X=XG.C.D.%X&X&X,XB.f.F.=X=X=XeX,X",
"aXsXiX1XB.C.B.B.B.B.B.B.B.B.B.B.B.B.B.B.C.B.C.,X=X&XD.B.,X,XD.C.3XD.C.=X>XC.=X=XC.3X=X=XuXuX4X=X=X&X=X,X,X,X,X1X&Xl.v.=X=X=X4X3X",
"pXeXsXyXD.G.D.B.B.C.B.B.C.B.B.C.C.F.&X=X>X=X3X,X1X,X,XD.D.3X>XC.=X3XC.D.3X=XD.,XG.F.1X=X1X4XiX>X>X1X,X,X,XuX1XeX,XD.h.G.,X&XC.D.",
"sXpXsXuXC.C.B.G.D.B.B.B.B.J.=X&X1X=XpXpXuX,XuX1XeX1XeX1XC.&X3X&XC.4X,XC.J.>X&XF.3XD.&X,X,X,X1X=XJ.J.&X,XuX3XeX3X,X=Xx.B.=X=XD.C.",
"1XpXsXeX&XC.B.G.&XC.C.C.J.=X3X,XG.B.&XuXaXuX,X4XsXyXeXyX=XB.,X3XJ.&X4X&XC.=X1X&X&X=XC.>X>X1XF.D.=XuXaXuX1XF.=XuX,X&Xv.f.v.&X1XJ.",
"eX1X1XpXsX1XS.F.=X=X&XC.G.m.i.#XN.S.>X>X&X&XF.4X>XF.1XuXuX&XD.1X3XC.F.,XJ.C.,X,XG.=X&XD.1X1X4X4X=XG.&X,X,XD.%X&X=XB.v.f.f.C.1X1X",
"pX1XuXaXiX1X1X,X=X=X,XJ.A./.Q.C n 6.t.N.3XpX&XuX=XC.=X<X,X3XD.F.pX1XC.&X3XJ.J.&XD.F.1XJ.C.&XuXH.B.B.C.J.4X3X,X1X,X1X1Xv.f.h.=X1X",
"sXpXiXaX1X%XD.eX,X=X,X,Xy.gXGXAXgXZXgX>.-X=XV.1X1XuXiXyX&X1XpXG.&X,X,XC.=X3XC.&XC.F.&X>XC.C.D.J.&X>X3X,X,X=X,XuX=X1X,X&Xh.f.C.1X",
"sXpX1XJ.B.B.=XiXrXeX,X,XU.AXGXGXGXGXSXC b r.wX=XG.,XuXpX=X=XuXuXuX3X,X=XB.3X3XC.=XC.*XpX,X,X4XpX3X=XJ.D.B.B.G.,XC.v.J.3XC.f.x.F.",
"1X&XB.B.C.B.1XyX1X1XiX#XP hXZXGXFXFXGXQ.v h +X=X&XF.&X1XJ.J.,X,X,XpX1X,XG.D.=XF.D.,XC.=X,X1X=XF.G.C.B.C.J.&X4X1X=Xk.&XpX>XC.h.B.",
"=X,X&X%XC.G.pX&XG.4XiX-Xf X dXAXZ gXGXQ.x k 4.h.x.v.B.D.J.=X=X,X,X3XeX,X=XG.=XV.J.&X,X,X,X,X>X3X,X,X&XJ.1X>XeX3X=X>X&X&X3X3Xx.B.",
"eX4XeX,X=X3XaX3XpX1X1XqXN dXFXAXZ hXFX] c - &.m.h.f.f.f.f.x.v.B.B.x.C.,X=X3X>X>X,X1XeX,XeX=X&X,X,X1X1XuXpXuX=XJ.4X<XC.C.F.1XD.f.",
"sXsXiX>X4XpXaXpXaX<XXX6.) ~.kX~.kXBXkX( z k , -X&XD.g.f.f.f.f.f.f.h.l.D.=X4XuXpX3X1XpX=X&X,XuXyXuXpX1X1X,X,XJ.=XuXyXuX&Xv.3X,Xh.",
"sXsXpXsXsXsXuX;X+XR.M ) 1.T.1.' ] T.^ Q z z - 5.=XB.l.h.l.z.B.C.J.J.&X=X,X=X,XuXeXD.D.D.h.l.J.=X=X3XuXpXuXJ.f.h.&X,X,XC.B.>X=Xh.",
"sXsXsXaXsX4X6.J u ) 2.1.1.1.' ` / ^ Q Q Q z k ) =X>X=X=X=X,X3X3X,X,XuXpXuX,X&X=X,X=XB.,XG.v.l.v.z.V.=X3X=Xh.f.f.v.C.=X3X=XH.F.f.",
"sXaXsXaXsXrX=.V *.3.s.3.3.1.' ` / ^ Q Q z z z v XX,X=XeXpXpXpX3X=X,XpXpXpXpXeX,X,X,X,X,X,X,X=X=X,X=X=X=Xx.f.f.v.v.C.,XJ.F.&XB.f.",
"sXaXsXpXiXiXI.;.3.7.<.Y ' ' ' ` ^ ^ ^ Q Q z z z R.wXiXiXaXaXsXpX1X,XpXpXpX1X&X1XpXuXpX4X,XpXeX,X,X,X=XC.f.h.D.=X=XuXuX>X3X>Xf.f.",
"sXsXsXpXsXaX/.V ;.T.Y./ 1.<.` / ^ ! Q Q Q 0 0 k 7 r.1XwX1X,X,X,XeX3XpXsXpXG.B.*XiXsXaXpX1XuXpX1X&XC.J.h.f.G.1X,X=X,X=XB.C.G.l.v.",
"pXsXpXuXaXaX_.C v . f ~.1.~ ! ! Q Q ! Q Q 0 0 z k H B.M.D.C.C.B.B.,XpXsX1XF.1XsXaXaXpXsXpX4XpX4X&Xg.f.f.h.&XG.C.z.C.B.f.v.=X=X=X",
"1X1X3X1X3X,X-X!.d Z X Q.B I.I.=.) m x x 0 0 0 e b h t.C.B.B.B.C.B.D.4X=XB.B.S.F.&X1X3XuXpXsXpXpX,XC.f.v.&X,X=XJ.D.%X&XC.l.F.=X,X",
"D.F.D.D.D.F.&X+XN Q.d gXL.rXeXwXwX+X/.Y.( ] x 1 * & -.,X=X&X&X%X$Xi./.R.,.E.+XwX1XG.D.=XF.3X1XF.C.J.l.h.G.=X,X,X,X,X,X&Xl.D.,X=X",
"B.C.C.B.B.B.C.G.+X-XE.Q.-.S.C.C.V.S.D.S.(.zX^.+ @ & n -X=X=X#X-.n 7 m ^.) 7 u n E.*X3X4XC.l.C.D.h.v.l.f.l.&X,X,X=XF.C.B.z.=X&X=X",
"C.D.D.G.G.G.C.D.:X,XA.9.e.B.C.C.C.B.C.%X#XbX9X3 3 b , ).qX,.n b m w w 3.[.~ z 6 > J ).<X=Xl.h.J.B.f.z.B.f.C.,X&Xx.f.f.f.z.C.l.B.",
",XpX3X,X1X%X%X=X,XG.M.M.B.C.C.C.C.&X<XiXrXMX Xp 6 e 6 4.J + 1 3 a R q ! OX*.0 8 8 k l u.H.%Xz.B.&Xv.v.=XM.h.D.&Xf.h.f.x.v.h.h.l.",
"G.3X1X1X%XD.,X=X,XD.G.=X=X,X1XeX4X1X4XuXcXMXY.e 9 z = ; u i 2 & 3 E w R OX` 8 I 8 r h < #XF.G.l.G.=Xv.D.=XM.l.&XJ.J.F.=X=X=X&X=X",
"G.1X,X4XJ.&X,X=X,X,XuX,X,X1XpX1X,X,X,X,XmX0X~ e 0 z = > U ..K 2 + y y W OX~ 0 I 8 i S + e.m.,XS.l.&X=Xv.&X=Xl.B.=X,X,X,X=X=X=X,X",
"&X&X=X3X&X,X=X,X,X,X>X,X,X=X1X,X,X,X=XrXmX6X{.{.R 5 . ~ | e.} j + 1 y 5.5.l c 8 6 S A & G B.eX1XB.B.=X%XB.,X&Xz.D.,X=X,X,X,X,X,X",
"f.z.G.4X,X=X,X=XF.C.&X,X=X,X=X=X=X=X:XbX6X2./ ].@Xl = %...0.#.G + : J J n ] kX] & A A g 3 V.yXpX=XV.D.=XD.C.=X&Xx.&X,X,X=X=X&X,X",
"J.,X1X=X,X,X=X,X%Xl.z.%X,X,X=X,X,X=X7XbXT.R w R }.v > E [ $.$. .+ < y.$X#XI.Q.NXU.* 1 h u Z.aX>XC.=XD.&X=XB.%X,XJ.v.&X,X,X,XB.%X",
"uXpX1X,X,X,X,X=X,X&X,X,X,X=X=X=X=X+XbX|./ I I t l . 7 3.s.oXb..Xu X.k.G.=X:X>. XzXV 6 6 > u.4XC.B.C.&XC.,X,Xl.&X=XC.B.=X=X%XC.=X",
"pXsX1X,X=X,X,X,X,X=X,X=X=X=X=X,X#XzXnX1.R I p r ; ; ) }.3./ E *.i 0.f.f.C.,X$X+X0X;.5 6 7 XXH.B.C.B.F.=XG.=X%XD.,X,XC.G.,X,X,X=X",
"1X1X&X&X,X,X=X,X,X1X1XeX1XeXuX<X5XBX X_ V x t , , n m ^ x 8 8 q 5 X.f.f.f.S.*X7X9X;.5 5 m $XB.C.B.B.B.=X=X,X#X$X,X=X,XD.D.,X=X,X",
"=X,X1X1X%X,XpXuX,X=X1X1XuXpXuX;XxXSXL.+ @ D 4 , 6.,., r e 9 0 e a } f.l.G.1X-XzX6X}.5.) G D.B.=XD.S.&X=X:X:.s : ).,X=X=XC.G.,X,X",
"B.C.J.J.B.&X>XB.h.f.l.C.J.C.v.N.CXVXn @ o A # :.$XXXJ 7 r 0 9 r { F A.G.%XD.(.NX6X}.@X|.>.B.B.F.C.G.iX1X/.1 s   :.:X=X,X%XG.=X%X",
"C.J.J.&X%XD.h.f.f.f.f.h.h.x.C.;XDXNX%.i < 1 j -X,X%Xo.m b b u , n 4 t.M.B.N._.VXW.R R p o.C.B.B.C.=XiX5XU.P g . 6.=XG.=X=X,X,XG.",
",XuXpX4XH.B.B.v.B.C.D.&X&X:X,XqXDXzX{ U E b I.wX1X,X#X=.J * o o O   o.M.B.m.cXVXT.0 6 > w.B.B.B.=X4XrXL.jXjXg 1 p.,X%X=X,X=XM.h.",
"4X,XJ.,XuX,X=X3X4X,X&X<XC.C.C.5XDX9XU U E u y.C.C.B.S.K & * $ $ $ O H B.M.A.VXNX] e e 7 n.B.B.G.uXaX_.g !.U.P K M.G.,X%XD.D.f.v.",
"C.=X1X&XuX4XJ.yXuXC.B.J.B.B.V.`.DXlXT W E 3 u.S.G.C.G.K h i u p u u X.m.C.$XCXxXM 3 h } m.B.B.=XiXiXI.s j j N /.%Xl.J.=Xv.h.M.v.",
"v.h.B.&XG.D.F.F.&XC.C.C.D.D.A.'.DX8X| U | J (.*X,X,X:X&.V t t w q R 9.B.N.qXDX'.n j 4 e.B.B.G.eXrXqXL s : + h n.J.C.l.J.z.B.D.z.",
"G.h.f.v.G.F.=X=X,X3X1X1X1X1X:X'.DXzXO.#.d.E.y.G.&X&X:X&.x Q t w w p e.B.M.tXDX!.b g j w.B.D.pXiXpXi.3 s +   G h.l.,Xx.h.g.G.g.&X",
"f.f.f.f.f.f.h.M.F.3XuXyX,X,X<X'.SXzXb.b.d. .H m.B.B.D.&.E Y R w I R w.B.N.cXDXP.f b h w.B.F.sXwX<X:.L b d . o.h.C.uXD.f.B.l.C.J.",
"B.v.z.v.B.C.&X3XuX%XD.=XB.B.M.).SXmXa.#.+.O.a q.B.M.p.8.OXoX8.| I y t.B.A.vXCXP.l l f t.C.3X,XA.6.R.qXK.d L $X=XeXuXz.v.C.c.G.C.",
"J.G.=X,XuXiX>XB.B.3X3X>X,XJ.S.Z.lXMX7.O.O.[ W F w.w. .2.8.W.2XOXW u 9.B.N.xXVXP.m ) =.e.H.=Xm.u., ~ <.1.7 ).,X=X1X1XC.&Xl.G.=X&X",
"C.B.F.uXiXsXaX1XG.3XpXpXiX4X1XqX!.BX}.O.T O.O.} S H [ Y U U @.b.8.u w.B.n.'.DX.Xs.OX@XJ o.q.w.L l q q x &.,X>XF.D.&X,XG.z.=X,X,X",
"B.D.J.1X1X,XJ.=XyXpX1X=X=XJ.1XrXe.kXbX+.O.O.T } S S [ T Y U U @.5.} z.B.n.!.CX@Xa.@.J b : n g b r q e = 0.=XH.v.f.C.C.G.D.,X,X=X",
",XuX4X4X3X&XF.J.F.D.C.C.F.G.1X1XH._.lX].+.O.[ } S S T T Y T T a G t.C.B.m.y.fX0X*.p w 7 b b b x 8 q 7 G j.&XF.f.f.h.f.%X=X,X=X,X",
"C.C.C.C.C.C.D.D.J.,X,X,X1XpX4X>X=X$XW.8X[.+.O.{ A % T T T T p a i.C.C.B.B.m.>.^.~.( e e e , , 6 q e G 0.&XH.x.f.f.f.x.J.&X,X,X=X",
"D.J.&X=X>X3XuXuXuX3X=X&XD.D.G.C.B.C.:XR.K.T.*.G O < U U y a o.n.D.C.B.B.B.B.n.>.K.P.V 6 , > > 6 m 6.j.C.=XM.f.f.f.f.h.h.D.D.%X=X",
"uXuXuX4XuX=XC.B.B.B.B.B.B.B.G.&X>XuXpX>XXXi.e.9.o.9.$.$.9.n.B.B.B.C.B.B.C.B.C.k.w.r.W.6.4.6.y.t.n.&XF.3X&Xf.h.l.f.f.f.f.f.h.&X,X"
};
