/* XPM */
static char *result[] = {
/* columns rows colors chars-per-pixel */
"64 64 232 2 ",
"   c #3B1E0C",
".  c #501B0B",
"X  c #70180D",
"o  c #413408",
"O  c #483412",
"+  c #5C3912",
"@  c #63230E",
"#  c #7B3B09",
"$  c #673815",
"%  c #4A460C",
"&  c #52460C",
"*  c #5E550F",
"=  c #554816",
"-  c #4F5315",
";  c #59571A",
":  c #6C590E",
">  c #624A19",
",  c #734512",
"<  c #635B17",
"1  c #61531C",
"2  c #7A5414",
"3  c #596D0B",
"4  c #58740D",
"5  c #496719",
"6  c #5B651C",
"7  c #596B19",
"8  c #4B771C",
"9  c #567619",
"0  c #756C0F",
"q  c #68681A",
"w  c #756719",
"e  c #657A17",
"r  c #78761A",
"t  c #737B1B",
"y  c #52502B",
"u  c #695B25",
"i  c #47662B",
"p  c #4D7224",
"a  c #527C2A",
"s  c #5B6932",
"d  c #4A7030",
"f  c #567632",
"g  c #6A6525",
"h  c #746827",
"j  c #657726",
"k  c #787426",
"l  c #6F6E37",
"z  c #7C783C",
"x  c #787459",
"c  c #812D0E",
"v  c #844D14",
"b  c #91681A",
"n  c #937C16",
"m  c #955F23",
"M  c #8C7026",
"N  c #857728",
"B  c #937748",
"V  c #5B8116",
"C  c #6C8D0B",
"Z  c #6D9906",
"A  c #7A930A",
"S  c #678618",
"D  c #708E10",
"F  c #778915",
"G  c #799318",
"H  c #7EA20E",
"J  c #5C8526",
"K  c #648725",
"L  c #7B8D2F",
"P  c #6A9324",
"I  c #769D28",
"U  c #789734",
"Y  c #7DA329",
"T  c #71904F",
"R  c #859C05",
"E  c #898716",
"W  c #9A8619",
"Q  c #879614",
"!  c #A98807",
"~  c #AE881B",
"^  c #AD9417",
"/  c #B8991D",
"(  c #88A30B",
")  c #8AA615",
"_  c #9AA618",
"`  c #A6B31D",
"'  c #878A29",
"]  c #978B26",
"[  c #839C27",
"{  c #999628",
"}  c #878437",
"|  c #988A35",
" . c #8A9C33",
".. c #AA9928",
"X. c #B19C26",
"o. c #A59535",
"O. c #88A82C",
"+. c #94AD2E",
"@. c #9AB328",
"#. c #88A936",
"$. c #98AC35",
"%. c #97B333",
"&. c #B7A226",
"*. c #B1B52C",
"=. c #ABA235",
"-. c #B6A83C",
";. c #A9BD36",
":. c #C5A81E",
">. c #D2AC1B",
",. c #D4AF20",
"<. c #CFB021",
"1. c #DAB723",
"2. c #C2A737",
"3. c #C9B738",
"4. c #D2B43A",
"5. c #ADC63B",
"6. c #F7C605",
"7. c #FDCB04",
"8. c #F7CF0D",
"9. c #FBCD0C",
"0. c #FBCE13",
"q. c #FBCE1A",
"w. c #FAD115",
"e. c #F7D118",
"r. c #FBD11C",
"t. c #C9CD2F",
"y. c #C5C839",
"u. c #ECC423",
"i. c #EBC52C",
"p. c #F5CC24",
"a. c #F8CE26",
"s. c #FDD325",
"d. c #F7D028",
"f. c #FCD42B",
"g. c #E8C738",
"h. c #F2CD33",
"j. c #F7D634",
"k. c #FBD633",
"l. c #F7D936",
"z. c #FAD835",
"x. c #F5D73C",
"c. c #FBD63B",
"v. c #FBD93C",
"b. c #DBE23B",
"n. c #8E944F",
"m. c #989949",
"M. c #A99552",
"N. c #8DA542",
"B. c #9DAB4F",
"V. c #96AD58",
"C. c #B3A84C",
"Z. c #B0A84F",
"A. c #A5B947",
"S. c #ABB655",
"D. c #9F9866",
"F. c #858670",
"G. c #AD9A66",
"H. c #9FB178",
"J. c #B6B669",
"K. c #C4AA4A",
"L. c #C7B24E",
"P. c #D8BE46",
"I. c #C7B856",
"U. c #D3BF65",
"Y. c #BCCD49",
"T. c #AAC863",
"R. c #BDD266",
"E. c #CACB4B",
"W. c #DAC448",
"Q. c #C5CE5A",
"!. c #DAC956",
"~. c #CADA5C",
"^. c #D2DB58",
"/. c #E6C847",
"(. c #ECCC4A",
"). c #EFD049",
"_. c #F6D647",
"`. c #FCD743",
"'. c #FBDA44",
"]. c #F7DB4D",
"[. c #FCDC4C",
"{. c #E4CA53",
"}. c #EDD355",
"|. c #F2D756",
" X c #F7DD53",
".X c #FCDC53",
"XX c #F6DD5A",
"oX c #FBDE5B",
"OX c #D0E253",
"+X c #F7E056",
"@X c #FAE056",
"#X c #F1EC51",
"$X c #F7E05C",
"%X c #FAE05D",
"&X c #D2D171",
"*X c #E8D468",
"=X c #F4DD61",
"-X c #FBDF62",
";X c #F5DE6F",
":X c #E5D575",
">X c #F5DF75",
",X c #F7E264",
"<X c #FAE163",
"1X c #F7E36C",
"2X c #FAE26C",
"3X c #E2E27D",
"4X c #F7E471",
"5X c #F9E372",
"6X c #999988",
"7X c #A3AF8D",
"8X c #A6B989",
"9X c #BBBBB3",
"0X c #D1BE82",
"qX c #B3C3A5",
"wX c #D3D18A",
"eX c #D2D896",
"rX c #E4D99F",
"tX c #D9E889",
"yX c #D8E59F",
"uX c #F5E78B",
"iX c #E2E792",
"pX c #C9D7AA",
"aX c #C9C7B8",
"sX c #E5DFB9",
"dX c #E6E9B3",
"fX c #F2EDB2",
"gX c #EAF3BC",
"hX c #D1CFCB",
"jX c #F2F9CD",
"kX c #E3E4DE",
"lX c #EDF0E7",
"zX c #FAFBF7",
/* pixels */
"s.s.f.s._.5X,X<X.X<X<Xv..X[.z.'.[. X2X5X1X<X.XoX5X5X2Xk.s.s.s.s.s.s.f. Xz.v.z.c.v.f.v.[.s.s.f.f.s.z.z.s.].<X5X[.s.`.2XoX4X2X5X5X",
"j.f.c. X-X5X,X,X X-Xf.s.s.s.s.s.f.'.2X<X.X.X[..X<X5X1Xk.s.s.s.s.f.s.f.<X.Xk.v.s.f.f.f.f.s.f.f.f.z.<Xv.s.s.f.k.s.s. X2X-X-Xx.oX4X",
"e.f.[.[.k.c.'.[.'.f.s.f.f.s.v.@X<X<XoX[..X[..X.X-X<X2X.Xf.f.s.f.s.s.f.'.[. X,Xz.<Xz.f.s.v.v.v.f.s.s.s.s.s.k.[.s.f..X'.$X].f.2X'.",
"s.z.f.s.s.s.s.s.s.s.s.f.s.'.1X1X%X[..X.X.X.X[..X.X<X5X1X<X.Xs.s.s.s.`.v.[.[.v.f.v.v.f.s.f.s.k.s.s.s.s.s.s.f.k.s.j.-X.Xz.s.f.<X].",
"f.v.s.j.[.z.k.k..Xv.s.f.v.<X2XoX.X.X[.[..X[.[.%X<X.X[.<X<X`.k.s.f.s.k.'.k.f.s.s.s.s.f.f.k.f.s.s.f.k.f.s.s.s.s.s.s.v.j.v.f.s.=X2X",
"[.l.s.s.[.'.[.v.4X X[.oXoXoX.X.X.X[.oX%X-X.Xf.[.k.f.s.`.oX'.z.s.s.s.s.k.s.s.s.s.s.s.f.s.f.s.s.s.s.f.f.s.f.f.s.f.s.s.k.[..XoX<X4X",
"f.s.s.s.'.].<Xv.1X<X.X.X[.[..XoX$X%X@Xv.f.`.z.v.s.s.s.'. XoXc.s.s.s.k.c.s.s.s.s.s.s.f.s.f.s.s.s.s.s.s.s.s.f.c.f.f.k.oX5X2X%X.X5X",
"s.s.s.s.'. X1X@X.X.X.XoX<X<X<X2X[.k.s.s.s.f.'.f.s.f.f. Xz.`.f.f.s.s.k.z.s.s.s.s.s.s.s.s.s.s.s.f.s.s.s.s.[.-X2XoX X.X<X1X5XoXoX2X",
"s.s.f.`.-X-XoX[.oX<X.X2X2X5X5X2X[.v.f.s.f.s.f.f.s.s.s.'.f.s.s.s.s.s.s.s.s.f.s.s.s.f.s.s.s.f.f.s.s.f.k.].[.oX'.`.XX<X<X5X5X2X1X5X",
"f.k.oX2XoX.X[..X%X5X2X<X2X5X<X5X1X2X,X2X[.s.s.s.s.s.s.s.s.s.f.s.s.s.s.s.k.f.s.s.s.s.f.s.s.s.`.v.`.<X2XoX'.[.e.7.k.@X-X1X5X5X-Xv.",
".X<XoX[..X[..X.X-X5X1X<X-XoX.X1X5X1X5X[.f.s.s.s.s.s.s.s.s.s.s.s.s.f.s.f.f.f.s.s.s.s.s.s.z..X X1X2X%Xl.s.j.[.f.9.9.[.oX%X XoX[.s.",
" X.X.XoXoXoX'.[.<X5X2Xv.c.f.f.f.v.z.z.s.s.s.f.s.s.f.s.f.`.f.s.s.s.s.s.s.s.s.s.s.k.f.f.f. X[.].%X].%XoXk.s.v.k.9.7.f.[.<X2X1XoXf.",
"%X[.oXoXk.f.f.f.s.[.v.s.j.f.s.s.s.s.f.s.s.s.s.s.s.s.s.s.'.f.f.s.s.s.s.s.s.s.f.k.oXf.s.s.oX'.-X0.7.7.k..X[.'.oX7.7.9.[.k.'..XoX-X",
"2Xc.c.f.s.s.f.s.f.s.f.s.s.s.s.s.s.s.v.z.f.s.f.s.s.f.s.s.s.'.v.s.f.'.z.v.f.s.s.z..X[.v.f.c.XX`.9.7.7.7.8.0.w.j.s.7.7.c.r.9.7.8.'.",
"2X1X[.s.s.f.s.s.s.s.s.s.s.s.s.s.s.s.z.s.s.s.s.s.s.f.z.f.s.[.2Xk.k.[.<X[.f.c.f.f.[. Xc.f.e.0.9.q.s.9.7.7.7.7.0.z.9.7.k.c.d.s.c.[.",
"2X2X2X'.s.f.s.s.s.s.s.s.s.s.s.f.s.s.f.s.s.f.s.f.s.f.f.c.%XoXz.z.v.s.'.[.z.v. Xf.'..Xs.q.f.k.c..X].c.f.k.v.`.[..Xs.7.k..X'.[.-X.X",
"5X5X4X.Xf.f.s.f.s.s.s.s.s.s.s.s.s.f.s.s.f.f.f.[..X`.k.s..X@Xk.f.%Xj.f.[.[.j.[.'.k..X[.[.<X-X<X X[.[.[..X[..X.XoX[.0.r.[..X[.<X@X",
"2X-X2X,Xj.c.f.s.s.s.f.s.f.s.s.f.s.z.'.[.[.[.oX.X.X.X.Xj.k.@X Xs.[.%Xf.f..X[.k. Xc.z.oX[..X$X2X X.X.X[.oXoX%XoX-X.Xf.9.c..Xv.f.k.",
"2X2X5X-Xf.f.f.c.z.s.s.s.s.v. X'.oX[.2X2X<X.X<X%X-X%X-XoXf.`.$X'.f.$X.Xf.v.@X'.v.@Xk.'..X.XoXoX'.v.v.'. X,X$X-X%X.X[.w.r.[.[.k.f.",
"oX2X5X2X'.f.s.c.'.f.f.f.v.'.@X.Xc.f.'.<X4X<X.X%X5X,X-X<X[.s..X$Xc.`.$X[.f.[. X'.'.[.f. X.XoXc.k.'.-X5X<X.Xv.[.oX.X[.r.7.e.[.oXc.",
"-XoXoX5X5XoXj.c.[.[.'.f.c.s.k.`.f.k..X X'.'.l.$X[.x.oX<X%X[.f.<X$Xk.k.@X'.f..X.Xc.[.'.f.oX@X%X%X[.v.'.[.@Xk.`.[.].s.r.7.7.f..X.X",
"2XoX-X4X2XoXoX.X[.[..Xc.c.f.f.f.s.f.f.f.$X<Xv.2X[.f.].oX.X.Xz.z.<X%Xf.v.@Xv.v.'.k.v. Xv.f.'.<Xl.s.f.f.c.<X.X.X.X.XoXoXr.7.9.[.<X",
"2X2X1X4X%X`.j.oX.X[..X[.v.[..X[.z.f.j.'.%X].f.oX$X<X1X=X[..X2Xv.'..X.Xf..X@Xf.'.f.z.[.XXf.f.j.c.'. X XoX.X[..X2X XoX.X'.9.7.f.oX",
"5X2XoXv.f.s.'.2X2X<X.X[.[.[..X.X.X%XoX%X'.c.-X].c..X<X2X X[.<X%X<X@X.X[.f..X Xf.[.f.'.1X.X.X%X2XoX[.v.z.s.s.v.[.s.r.v.@Xf.7.0.v.",
"oX'.s.s.f.f.oX<X XoX1X.X.XoX.X[..X[..X.XoXoXoX.X`.z.'.oXv.v..X.X.X2XoX.Xc.k.[.k.k..Xf.[..XoX[.x.c.f.s.f.v.`.oX@X Xq.'.1X Xf.7.s.",
"[..X[.`.f.v.2X_.v.%X1X@XoX-X'..X[..X.X@X.X[.s.9.q.q.s.j.v.[.[..X.XoX-X.X'.`.[.d.v._..X.X.X.X@X[.[..X'.v.oX.X<X$X[.].'.'.%X%Xw.s.",
"-XoXoX.X'.<X4X.X5XoXoX<X<X2X_.'..Xc.'.[..X.X`.f.8.7.7.7.9.w.r.s.s.w.f..X].+X X XoXoX-X.X<X[.'..X.XoXoX<X2X<X[.x.%XXXf.f.x.oXz.7.",
"5X5X2X X%X1X4X>X:X{.).-X<X1X2XoX`.q.'..X[.[..X.X'.k.9.7.7.7.7.7.7.9.0.j.[.<X<X1X%X.X<X.X'.@X<X<X<X2XoXoXoX.Xv.[.<X<X-X'.r.+X.X7.",
"4X5X1X5X5X1X-X:XaXx n.U.>X5X2X.X[.[.%X.X.X.X[.[.[.s.0.9.0.r.f.f.z.c.[.[..X[..X<X<Xk.k.k.9.0.v.[.[.XX1X<X<Xv.7.9.'..X.Xf.d. X[.7.",
"5X5X5X5X2X<X{.sXzXkXkXkXD.I.1XXX.X-X2X.X[.'.r.f.[..X[.[.[..X@X[..X.X<X2X<X.X[.[..X'.s..Xc.r.0.r.q.f..X.X[.9.7.7.r.j.[..X[.v.v.7.",
"5X4X5X5X5X1X!.hXzXzXzXzX7X- Z.XX-X2X<X.X.X.X.X.X.X.X.X<X2X2X2X%X[..X2X5X2X2XoX.X.X.X[..X.X.X[.[..X[.[.[.w.7.7.r.r.f.[.'.z.'.d.7.",
"5X5X5X1X1X5XG.y 9XhX9XzXqXx s *X1X5X2X5X2X<X5X2X<X<X2X2X1X5X5X1X%X.X<X2X2X.X[.oX2X2X2X%X.X2X<X.X.X.X[.f.7.9.k.[.[.%X<X@X@X X7.7.",
"4X5X2X2X5X*Xx F.lXqX6XlX7Xf i J.5X5X5X2X5X5X<Xz.f.f.oX,X%X.X.X.X-X%X2X5X2Xc.s.].1X5X4X2XoX<X1X X[.f.c.9.7.c..X.X.X[.'.s.k.c.0.r.",
"2X5X2X2X*Xm.K V.8XH.pXpXT f i L ;X5X2X5X2X2X2X%Xl.s.s.s.f.f.f.s.s.[.2X5X$Xk.oX5X5X5X1X5X2X%X2X<X'.8.7.7.9.'.c.f.q.f.s.7.q.[.[..X",
"oXXX{.W.| L N.#.N.U U U J a d i *X1X5X5X5X1X5X2X2X].k.s.s.s.s.s.s.f.<X Xf.f.f.v.'.oXoX-X<X5X2X<X.Xf.7.r.[..X[.c.k.`.'.s.q.k.[.[.",
"c...q } $.%.%.#.Y Y P P J a d i L.1X5X2X<XoX1X5X5X5X<X.X.X'.`.[.[.'.oX[. XoXoX-XoXc.k.[.v.oXoXz.f.v.0.9.c.[..X[..X.X.X[.9.k..X.X",
"p.N [ @.;.O.+.+.#.I P K J J 8 5 r h.k.k.v.[.$X2X-X<XoX.X.X.X.X.X.X`.f.s.d.[.c.k..X.XoXoXf.9.f.k.9.r.9.7.q.[..X.X[.z.f.s.q.[.'.'.",
"d.]  .$.@.G O.O.Y I P P J J 8 8 p :.f.'.c.s.f.c.v.'.]. X<X@X[.[.'.$XoXoX.X.X.X XoX.XoX X'.q.9.v.s.7.q.s.7.s..X[.w.7.7.7.r.f.w.f.",
".X*XC.l j V.N.L P V J J J V 8 8 p k |.1X2XoX[.'.'.[.v.c..X$X'.'.`.@X-XoXoX-X<X2X-X[.[.'._.v.q.s.'.r.e.[.s.9.k.`.9.9.7.w.w.9.9.0.",
"c.XXK.D.s 7Xz o.-.X.{ L j 9 8 8 6 g L.$X%X.X.X[..X.X`.r.s.'..XoXk.9.q.s.8.k.2X2X.X].k.8.[.z.v.0.c.[.s.k.'.s.0.`.c.c.z.[..X[.[.'.",
"k.oX{.!.-.D.n._..X].<X|.P. .N.u $ + | [.[.[..X.X[.[..X[.f.q.f..Xr.7.7.9.e.0.j..X'.[.oX[.z.s.[.j.w.`.[.r.`.[.w.r.[..X.X.X[.[.[..X",
"'.`.]..X).M.o..X.X.X.X.X.X!.eXB $ > u /.[..X.X[..X.X.X[.c.f.7.d.v.9.7.7.r.f.7.r.[.z.j.f.s.f.<XXXs.d.[.`.s.[.[.q.k.[.[..X.X.X.X.X",
"9.q.c.%X.X(.(..Xz.k.[..X.X=XtXm.6 6 y /..X[.[..X.X[.[.[.0.9.8.7.z.[.[.'.'.v.w.j.'.c.`.s.s.z.1X1X[.f.f. Xk.f.[.`.w.'.[..X[.[.[.[.",
"c..X.X X.X.X[..Xc.9.q.'..X2XiXU 6 7 5 W.[..X.X[..X[..Xv.7.7.7.7.7.s.[.[..X.X.X,Xc.f.v.s.s.`.2X[.f.'.z.'.[.s.`..X`.r.[.[..X.Xs.4.",
"-X;XoX[.[.[..X.X.X[.[..XoXuX&Xe 9 7 ; /..X[..X.X.X[..Xc.7.7.7.7.7.7.w.'.[.@Xl.[.f.s.s.f.s.@X$Xf.f.f.[.f.[..Xw.[.[.k.s..X[.`.f.[.",
"2X5XoX[..X.X.X[..X[.[..X,XiXR.A.O.j k (..X.X.X[.[.[..Xv.7.7.7.7.7.7.7.7.f..X'.s.s.f.s.s.z.%Xv.s.s.s.z.'.v.[.`.k.[.[.f.k..X.X.X[.",
"oXoX[.[..X[.[..X.XoX<X,X3XR.[ +.~.S.-.[..X.X[..X.X.X[..Xc.s.7.7.7.7.7.7.7.k.'.f.s.s.s.s.'.[.s.f.f.s.s. X[..X.X[..X[..Xk.k.[.[..X",
"[..XoXoX`.oX;X-X X[.@X*XtX#.S 4 L B.(.`.s.a.c.[.[..X.X`.[.[.k.k.9.7.7.w.k.%XoXf.f.f.s.s.c.f.f.[.k.k.'.'..X.X.X[..X.X[..Xf.v..X.X",
"s.f.c.v.f.'. Xs.9.7.p.iXT.S V V e ^ 9.9.9.9.9.k..X[.'.`..XoX.X.Xk.w.k.v.'.z.@X<Xc.j.s.s.s.s.s.k.f.v.,X<XoX.X[.[.[..X[..X'.c.[.`.",
"f.c.'.'.'.f.8.7.7.7.}.yXB.V V e r 4.v.c.'.[..X%X@X[.k.v.`.oX`.'.'.[.f.s.s.s.v.%Xs.f.s.s.s.f.s.s.f.[.5X2X<X2X.Xk..X[.c.[.[..X[.v.",
".X<X2X%Xv.s.s.r.s.c.fXeXu $ h q X.f.f.f.f.`.1X<X@X@X[.<X-X[.[.f.[.z.f.s.s.f.s.k.f.v.s.'.s.s.f.s.'.<X5X2X<X1X-Xk.k.[.'.[.[.[.s.8.",
"%X@X`.[.<X X[.$XoX>XjXG.X X c v u.f.f.`.c.f.[.k.s.f.f.%XoX[.[.s.k.s.s.s.s.s.s.s.s.k.f.k.s.s.f.c.<X5X1X5X X`.%X[.e.c..X'.k.k.7.s.",
"f.[.$X'.<X%Xv.<X1X4XjXm.M 2 , ~ s.f.j.<X-X'..Xj.v.k.z.[.[..Xk.s.s.s.s.s.s.s.f.s.s.s.s.s.s.s.s.'.1X5X2X2Xk.9.<X2X`.0.v.[.q.9.d.e.",
"r.7.s.'.c.k.k.z.'.uXgX[ F F r 4.v.'.c..X.X[..X[..X.X.X[.oX[.s.s.s.s.s.s.s.f.s.s.f.f.f.s.s.s.v.<X2X;X2X X0.9..Xj.v.f.0.v.q.f.k.q.",
"c.9.7.r.c.v.'.[.oXfXgXY D G t W.oX2X4X'.q.'.c.'.`.'..X@X.Xk.s.s.s.s.s.s.s.s.s.s.s.f.f.s.s.k.-X5X2Xc.[.j.f.j.s.9.0..X0.9.9.c.8.`.",
"7.7.7.7.7.7.9.a.v.fXdXY Z G k W.,X1X[.7.9.'.s.s.s.s.z.c.s.s.f.s.s.f.s.s.s.s.s.s.s.s.s.s.f.c.5X-X%Xf.[.c.'.oXr.9.f.<Xk.7.s.0.f.v.",
"s.r.0.r.d.f.[.XX=XsXdX) ( 5.C.>.f. Xq.7.l.j.s.s.f.s.f.s.s.p.u.1.1.<.,.,.u.s.f.s.s.s.s.f.f..X[.k.[.j.<X2XoX2X[.[.-X<Xq.q.f.0.c.f.",
"`.c.[.oX<X1X[.s.s.rXgX3.y.W...^ [.s.7.f..Xf.s.d.d.s.u.<...W t 7 6 , $ g | &.>.s.s.s.s.s.v.[.s.'.k. X2X5X2X.X.X'..XoXf.v.q.x.[.[.",
"f.s.z.<X1X5X5XoXc.wXfXE.*._ R r 4.e.k.].'.'.s.i.:.W w ; #.R.G 3 3 , @ ; j Q.' n 1.s.s.x.f.9.k. Xc.s.oX2X.X[.[.v.c.'..X`.0.[.[..X",
"f.f.v.oX@X.Xv.[.<X:XdXQ.) H A Q : b | { -.I.W r ; % y q 4 %.Y.4 5 : . & 3 y.Y.6 * W u._.w.9.[.[.9.d. X[.q.@Xc.d.6.d.h.h.k..X.X[.",
".X<X%X%X.X[.z.z.x.g.wXtX_ ( ( ( b c Q A F ^.E.F e 0 O 1 9 G OXe 4 ; . = 3 t.;.w * O 0 o.1.g.x.0.7.i.(.1.>.4.2.! n n K.M.M o.(..X",
"f.f.f.f.f.f.j.z.v.|.I.eX5.) ( R b # A Z Z *.#X) D 0 + 1 e G OXe 5 =   - Q b.[ q % * q U.z < > 0 E C.N < g q S.< 1 h M.0Xl = > P.",
"z.v.'.[..X%X<X<XoX@X).Z.Q.5.( ( m # A Z Z ` #X_ C 0 = > 7 t =.W &./ / W { ' q - % q r 3XN u & 1 w Q.k < q q m.k > + : ..= O O 2.",
"<X<X<X%X,X'.f.f.s.s.f.p...S.;. ., c F C C _ E.F t r O h ^ u.d.s.r.s.s.r.d.1.&.b < r -.o.q 1 & u } C.= ; 1 h E 0 o o v n n ! 4.oX"
};
