/* XPM */
static char *result[] = {
/* columns rows colors chars-per-pixel */
"64 64 40 1 ",
"  c #FDCC04",
". c #F7CF0D",
"X c #FBCD0C",
"o c #F7CF11",
"O c #FBCE13",
"+ c #FBCE1A",
"@ c #F7D117",
"# c #FAD015",
"$ c #F7D319",
"% c #FBD11C",
"& c #FCCF24",
"* c #FDD325",
"= c #FCD42B",
"- c #F9D82B",
"; c #F7D734",
": c #FBD633",
"> c #F7D936",
", c #FAD835",
"< c #FBD63B",
"1 c #F7DA3B",
"2 c #FBD93C",
"3 c #FCD743",
"4 c #F7DA41",
"5 c #FBDA44",
"6 c #F7DC4C",
"7 c #FCDC4C",
"8 c #F7DE53",
"9 c #FCDC53",
"0 c #F7DF58",
"q c #FBDE5B",
"w c #FAE056",
"e c #FAE05D",
"r c #F7DF61",
"t c #FBDF62",
"y c #F7E264",
"u c #FAE163",
"i c #F7E46C",
"p c #FAE26C",
"a c #F7E472",
"s c #F9E371",
/* pixels */
"**=*4spt9tu497,576pspu9tpsp:******=9<2;<2*<6***=*,,*6us7*3pqapss",
";=<8usyu8q==**=*=6pu9979usi:******-u9:2*:**=*-=*2u2**=:**8ptt1qa",
"$:76:1375=**=*<6uu979799tup9;=****;579y:u1**<44:*****:5==95e9-p6",
"%:=*****=****7spe99999799uspu9****<<764*<1:*=*=*****==:*;t8:*=r5",
"-2*:6:::9<**1up99977967qu96qu3==**:5:=****=*:***=:=*=&&=*<::=&ri",
"7,**5674s88qqq9w97qet9=8:=*396<****:******=*=****==**=*=**<89qti",
"=***56q2iu99779qqu9<=3<<**=79q<==*:<******=*=**=****==<==:0spqqs",
"****78s9q99qutup6:***=5=*=*8,4*=**::***********=****7qtt88upsqqp",
"**=3ttq99ueppssu8<**:*=****3-********=***=***==***:680530uusspps",
"=:qpq979espepsusppuu8*****=*********:*****=***3<5upq57# :qtpsst3",
"0uq77799uppptq0tppp6=************=*===*****&:98ppu:*:7=XX70e8e5*",
"879qqq57usp<<==;4,:*******==5***********:===968e6et:%2<  =7ups0=",
"q7qq:===*62*:=****=**=******5=******-**<q==*q5qO  :976q  X7:69qt",
"p<<=**=*=**=******<2=********34*=5-3***<q7<=193O   XX#;*  <+  X4",
"pi7******=****=&=*:-******2**7u<:6u7=<-=78:=oOX+&.    O:X :<**<9",
"spt7*=**************-**=**;<eq2:<*37,29=59&%:;<76<=:3379* :857t9",
"ssi8===***********=*===79<:*99:=q:=67:75:977ttq9777997q97O*776ue",
"ptsr:<=*****=****15677q909q::w6*7e=,w6:9<:q70ep8899qqeqt9=X<92==",
"ppsp===<:****,87q6puu9uqtqtq*5e7*u9*28529:6999q64<37uetq97O%77:=",
"qpst5=*<7-*-3799<*7ust8esutp6*8e23e5=7w557=89q>,7uau817q97% %702",
"tqqssq;<593*<*:3*:9656;e6<qtu7-te::93:99175-qeee71599:377*%  -99",
"tqtaiqq9799<<===*===eu4u9*6098:,ue*30<<3:183=5u,***2u9999qq% X8q",
"spis03;q9799<7971*;7e7=90uat5qp<48w=98*7-<78*=:1498e769p6q93X -q",
"spq<=*7ppe9777979teq5<t8<8ut87uuuw97=98*7=4p99qpq7<,**19**<9: O<",
"q5**=*ey8qi99999979wqqt93,5022979pq9<:6;:9:79q62<-**<4u96@5i9= -",
"9953=<p53es8tu67799777&XO+*:27799qt9336*<479999w697<q9te6833eq#%",
"tet95eswpqeutp279<77995*X   X#%*=#-q9w88qqt9t6599qqupu71qq-:1q,X",
"ssp8eiapsq7tups93#3979997:X       O:7ttpq8p73wuuupqqq9<6tut4%w9 ",
"ssssssuqpp9ppip977e799795*XXO%*-2<57979tu:::XO<760ptu2 X599*&86X",
"sssapew7qpppupsq9tpq77%*787799w799upu97795=9<%#%+=7q7X  %;7e6<, ",
"sssisspippppuipetpu99979999upspe79psppq9799999779777#  +%=83:5* ",
"aspssppspssspsssssppupspuupspssie9upp97qpppq9pt9997= X,77eu988  ",
"ssspsssspspssspsssssssp:==qtq989tetss<*6psap0ui97=2X <q9776*:<X%",
"pspusapsssusaasssspsppuq:***:=***7psq:qssppspepu5X  X5<=+=& +779",
"qqqq9997<0ppsspssppsssspp6;******:e8==:<7qqtpspp8* %777<:35*O:77",
",:;,::7uttsasipquispuqpssst8953774q78q0tq<:7190,;<OX<7999997O:99",
"*==***=<t9t87<==*;2:37epuuq8999993=**3<<99qq-O==XOO O7997:-*+755",
"=::<<<=:87<*=*==***4<*-12578u87750qqq998q9986+X2= +& *95O   %=#*",
"qu99q3399:**==*=:3eptt7547<28e735wtq0tupt973<3+*5%%7& <7XX #%XX#",
"<e9t5:779:;778qteqeuq997995%*599:X%&X:pp96:.6:3O<7%:7*X52<,77757",
"<q9e157798t99qtt999979797999*$=9*  X+#:94797:=6:O56%57+%79997979",
"537e597999999799979997977977<=.*,X  %= %72=:*=t0=%93*75+=9997997",
" %2e9799::799979799779979995OXX :77562O:4,5**:ip7=:7:=75$3777777",
"<9w79979<OO39797977999797793     *77998y2:<**3p8=7,56*373%7999*5",
"tp9999799779975799797797979<      #37w:7=****8q-*=7=99#77=&773=7",
"psq979999779797977999999779<        =95==***<q2***:5<73:99=<9997",
"qq5799799qqtqtpttq9779979979<&       :5-****76**==*87777979::979",
"78qq3qpq97qeept9qt77*=:7799377::X  #1q8*==**<=*7;:53q9979977=<99",
"**1<*58*X O*<=%O##XXXXX:97559q99:O:25:wt::*****;*<pt097779795:95",
"=<<73:X    XO#*<33<2<79q97=33q<776-***2u*;**&***=7spup9:97<7799<",
"9use2**%*=:33q9=:*==:5ppe97ut77:9:*****:=3*4****6qsiust::75797&X",
"e837u67eq85q-*=**==3<*8=**,eq77%:********:*:*=*<uaap63u7+<95:: %",
"-784ut1uu=*2******,et79:<-,77w:=****-**********6pssp:Xtp3O<7%X&$",
"%X*5<:<,4=-*::::<52q7797999697***********:****<pppp8O 812:O<+*,+",
":XX%<2679eqqweqqepp5+5<355999:********-**=***:usp<6-:;& O7O.X<o4",
"       &1qup990qyp7XX4****<<**=*-************<stt=7<3q%X=u: *O=<",
"*+%%*=5wq3:9****=8% ,:*********************==w6:7:upqp37tu#%=#<-",
"3<79up8**w9882-;7= =9=*=*************-******37*6<8psp9978q=3O<77",
"**,upasq<wspiuqt7O:755*-*******-*******-***,*X:9<*qp9961<593+797",
"*:<t0936up0773qs=39838***=**-******-*******3%X57X*96%7<% ==<:997",
"8uee952,2;=::<0q<9qq7e7e3*****-***-*-******3;35O ;7*+3>.  X37799",
"===*-*;:<799uuu977pp5:75********<:*******=*892=+=4<.21O   #<7777",
":1578euuuw7<:<<=*=weye3:***==***:=*****-*=<p:,=438O;6*    XX::39",
"uuuuu7=*******,38tpw77:*******-***********e6*77=*3<q3 .O     X39"
};
