/* XPM */
static char *result[] = {
/* columns rows colors chars-per-pixel */
"64 64 237 2 ",
"   c #733C39",
".  c #7C4536",
"X  c #1F0051",
"o  c #220054",
"O  c #2E0756",
"+  c #25005C",
"@  c #350C5D",
"#  c #3D125C",
"$  c #270061",
"%  c #290063",
"&  c #2B0069",
"*  c #360B66",
"=  c #3C1067",
"-  c #2C0078",
";  c #37017A",
":  c #471B5C",
">  c #512657",
",  c #6B3951",
"<  c #421564",
"1  c #592568",
"2  c #5C247C",
"3  c #6C356B",
"4  c #7A454C",
"5  c #754862",
"6  c #854C2C",
"7  c #8A4E2E",
"8  c #87502C",
"9  c #8A512F",
"0  c #864E33",
"q  c #8C4F31",
"w  c #834D3B",
"e  c #8D5231",
"r  c #885238",
"t  c #8A523E",
"y  c #925533",
"u  c #955935",
"i  c #995B37",
"p  c #925639",
"a  c #945A3A",
"s  c #9A5D3A",
"d  c #9D613C",
"f  c #A3653D",
"g  c #A7683E",
"h  c #A8683F",
"j  c #874F49",
"k  c #8A5340",
"l  c #885445",
"z  c #955C43",
"x  c #885A5B",
"c  c #9C6346",
"v  c #9A6457",
"b  c #A66A42",
"n  c #AB6D44",
"m  c #A66A48",
"M  c #AD7146",
"N  c #AD714A",
"B  c #AD704E",
"V  c #B47446",
"C  c #B77747",
"Z  c #B3754A",
"A  c #B5794C",
"S  c #BB7C4D",
"D  c #A36958",
"F  c #B67953",
"G  c #BB7D53",
"H  c #884F6F",
"J  c #96696F",
"K  c #97697B",
"L  c #A67268",
"P  c #A77572",
"I  c #EE5F5F",
"U  c #EF635B",
"Y  c #F06757",
"T  c #ED5868",
"R  c #F05B62",
"E  c #EB4C75",
"W  c #EA487B",
"Q  c #EC5673",
"!  c #C6796E",
"~  c #ED6B6D",
"^  c #D1A21E",
"/  c #EFB913",
"(  c #F6BE15",
")  c #C6962B",
"_  c #CC9A2E",
"`  c #C99B38",
"'  c #D49E3E",
"]  c #D8AC2B",
"[  c #ECBA37",
"{  c #FBCB07",
"}  c #FACE18",
"|  c #F9CB2C",
" . c #FDD325",
".. c #FCD42B",
"X. c #F0C634",
"o. c #FBD634",
"O. c #F9D63B",
"+. c #FAD93C",
"@. c #BF804E",
"#. c #BE8252",
"$. c #BF805B",
"%. c #B88776",
"&. c #C4834F",
"*. c #C89C48",
"=. c #C38453",
"-. c #C98956",
";. c #C48659",
":. c #CC8D5A",
">. c #CD915C",
",. c #D0915C",
"<. c #D3B04E",
"1. c #F4B845",
"2. c #EEAF53",
"3. c #D08E66",
"4. c #F09076",
"5. c #CBA86A",
"6. c #EBAD63",
"7. c #FADA44",
"8. c #F9D648",
"9. c #FBDB4C",
"0. c #EFC951",
"q. c #FAD657",
"w. c #FBDC53",
"e. c #FBDD5B",
"r. c #FAE15D",
"t. c #DBC369",
"y. c #E8C966",
"u. c #F1CD69",
"i. c #FADD63",
"p. c #FAE164",
"a. c #F6E369",
"s. c #FAE26C",
"d. c #F9E372",
"f. c #350093",
"g. c #3700A7",
"h. c #3C00B5",
"j. c #46028A",
"k. c #580992",
"l. c #680B99",
"z. c #662988",
"x. c #74388A",
"c. c #64289B",
"v. c #783597",
"b. c #5305AD",
"n. c #4401B7",
"m. c #6801A9",
"M. c #6D07AF",
"N. c #5E23A0",
"B. c #6624A7",
"V. c #6D2FA7",
"C. c #7F418A",
"Z. c #3F00C4",
"A. c #4801C7",
"S. c #4300CC",
"D. c #5300C9",
"F. c #5B12C0",
"G. c #4500D3",
"H. c #4800DA",
"J. c #4A00DC",
"K. c #5701D6",
"L. c #5C00DA",
"P. c #6A13CA",
"I. c #6702DA",
"U. c #7502D4",
"Y. c #7B01D5",
"T. c #7605DC",
"R. c #7A01DD",
"E. c #4C00E4",
"W. c #4E00ED",
"Q. c #5500E4",
"!. c #5300EC",
"~. c #5B00EB",
"^. c #4E00F0",
"/. c #5500F3",
"(. c #5B00F4",
"). c #5A00F9",
"_. c #6800E4",
"`. c #6300EC",
"'. c #6C00ED",
"]. c #7501E5",
"[. c #7C01E5",
"{. c #7400EC",
"}. c #7C00ED",
"|. c #6400F4",
" X c #6B00F4",
".X c #6200F8",
"XX c #7400F2",
"oX c #7A00F0",
"OX c #8F219E",
"+X c #B013B2",
"@X c #AF38B3",
"#X c #D73397",
"$X c #E73C89",
"%X c #E32C9D",
"&X c #E53493",
"*X c #E53698",
"=X c #D01CAF",
"-X c #DB16B7",
";X c #E01CAF",
":X c #CC27AA",
">X c #E224A5",
",X c #8E4D8E",
"<X c #976A88",
"1X c #AA7991",
"2X c #B44EA8",
"3X c #A553B2",
"4X c #E94284",
"5X c #EA5485",
"6X c #D86394",
"7X c #9213CD",
"8X c #8900DC",
"9X c #9902DB",
"0X c #A80EC9",
"qX c #A703DC",
"wX c #B702DA",
"eX c #A02BC8",
"rX c #8400E5",
"tX c #8C00E4",
"yX c #8908E7",
"uX c #8400ED",
"iX c #8C00EA",
"pX c #9400E6",
"aX c #9B00E5",
"sX c #9200E9",
"dX c #9801EB",
"fX c #8702F1",
"gX c #A300E3",
"hX c #AB00E0",
"jX c #B500E0",
"kX c #CA09CC",
"lX c #D10EC6",
"zX c #D409C8",
"xX c #C303D5",
"cX c #CB02D3",
"vX c #BA8689",
"bX c #B28793",
"nX c #E09388",
/* pixels */
" ..... .7.d.s.p.w.p.a.+.9.9.+.7.9.w.s.d.s.p.e.e.d.d.d.1.~ 5X4X5XE Q ~ ~ 0.6.2.1.7. .O.8. . .......O.o. .9.p.d.7. .7.s.p.s.s.d.d.",
"<.;.8.9.i.d.p.p.w.e... . . . . ...7.s.p.w.w.q.6.4.5X6X5X&X4XW W 4X4X4X%X5XT R T Q 4.1...........o.r.+. . ...o. . .e.p.i.p.O.y.d.",
"*.P.2Xu.o.O.7.8.7... . ... .+.w.i.p.w.8.q.4.5X4XW 4X>X;XT R W ;XkXxXxXwXE Y Y T 4XzX:X1.8.7.+... . . . . .o.9.....r.7.i.0.6Xv.0.",
"-.8XqX2XX. . . . . . ... .7.d.a.i.9.q.q.4.%X$X4XE 4X;XzXE U W kXaXsXtX0XR Y I $X;XkXjX4XQ ~ 1... . . . . ...o. ...p.w.<.3XiXB.<.",
"-.8XhXtX2XX.O.o.e.O. ...+.p.s.e.q.4.~ Q &X$XE E *X;XcXwX*XT $XxXiXoXoX:XR Y T -XxXwXwX>X5X;X=X3.| o... . . . . . .O.3.eXpXfXB.5.",
"3.Y.gXiXgX1X8.O.d.w.9.e.r.r.w.2.~ R U T >XE I E ;XcXjXgXlX&X>XwXuX}.}.#XR Y T ;XcXwX:X$XW >XxX0X! | .. . ... ... .,.eXsXpXoXV.t.",
"! Y.qXrXgX].nX7.a.p.w.w.w.q.6.Y Y U Q $X-X#XU E ;XcXcXjXqXkXcXwXsXfXrX#XT U I T >XlX&XW W >XxXgXgX3.|  .....O...1.eX8XiXdXfXB.t.",
"! Y.qXiX9X[.3Xy.e.9.w.i.i.u.~ Y I $X;XzXcXqX%X$X>XzXcXqXb.j.m.m.M.m.j.l.:X$XE E ;X&XW 4X$XzXjXpXyX2X1.| 8.i.i.u.3X8XtXfXsXfXB.t.",
"3.Y.aXiXaX}.yXvXe.e.r.i.nX:X*X~ T >XcXxXjXgXqX+X+X0Xm.; $ % % % $ & & & ; l.+X=X0XE I #XkXhXiXoX[.:X4X4.q.e.8.1X!.rXtXiXsXsXB.t.",
"P Y.aXsXgX[.uXyXy.d.s.nXE %XkX*XE ;XxXhXhXhX9X; & & & % % & $ % $ $ $ $ & + & & ; #XE =XhXuXXX X@XW E %X6X8.' P..XuXiXiXiXuXc.<.",
"vX8XpXsXaX[.uXuX2Xd.nX~ T W >XkX%X>XcXwXwX0Xf.& & & % % % % & % + % $ $ % & $ & * ; +X0XhXyX}.0XW R R $XkX2X@X/..XiXtXuXsXfXc.[ ",
"! Y.pXpXaXuXuXiXqX6X*X5XQ Q E %XcX;XzXcXM.; o + % % % % + % O % % $ % $ + % % & % + ; m.pXfX0X&XW E Q *XkXR._.(.(.iXrXrXiXiXc.] ",
"vXY.dXsX9XrXuXuXtX0X>X>X%X$X$X&XzXwX7Xk.$ % & & % & % % % % + + + % % % $ % O & % % & & j.b.+XlX-X-XzXkXhX`.'.(. XiXuXuXiXdXc.t.",
"vXR.aXsXpXrXuXuXsXI.lXwXwXkX-X-XcXqX& + & % & % % O % + + % % % % % % O % + % % % & & % & & +XhXgXgXgXaXuX^.|..X XiX}.uXiXdXz.[ ",
"vXY.dXsXaX8XuXuXtX~.qXgXuXgXxXxXxXl.+ $ & & & $ % $ % + % + & % % % % % + + % % % % & % & + ; 9XuXuXfXoX X^. X). XiXXXiXuXyXN.<.",
"vXY.pXiXaXpXuX}.pX|.uX}.uXsXhXwXM.& + & & & % % % & O % % % % & & % % % % % % + % % % & & $ % j._. X X9X[.W.'.|.|.sX XsXiX}.c.0.",
"bX8XsXsXaXyXrXoXpX XiXXX|.rX9XM.& + + % & & % $ $ * * = = * * * * = = = = @ + $ % % % & & & + o f.K.0X#XXX!.'.|. XtX XdXrXdXB.y.",
"vXY.sXaXaXuXdXXXiX'.iXpXoX`.f.+ + + $ % & % $ $ > v D c D D v v v v D L L D 3 + % + % & & & $ + + l.&X:X XE.`. XXXsX|.dXuXsXc.[ ",
"bXU.yXaXpX[.sX}.rX[.iXaXgXpXj.X o $ % & & % % : c n n V n b b f g g Z Z h b c : + % % & & & & + & +XU @X|.E.`. X XiX XpXyXfXc.X.",
"vXU.yXgXaX8XoXuX}.rXsXpXcXlX; X + % & & & $ + : e e e e q q 6 7 9 9 9 8 8 8 6 : + % % % & & & $ % OXI 7X'.!.`. X XyX.XdXiXyXc.[ ",
"vXY.iXaX9X8X{.uXXX}.pX8X-XOX$ o + % & & % $ % > s c f f h h i i u u u u i d d , % $ % % % & & + + 2 $XI.|.!.(.}. XiX XsXsXsXV.y.",
"bXU.iXaXpX8X XoX{.}.iX[.:Xj.+ o + % & & % $ > D S S S S C h h h V n h M M M A B , * $ % & & & $ o - +XU.|.!./.oXXXiXXXiXsXiXV.y.",
"bXU.iXgXpXtX|.XXXX[.uX{.l.+ o + $ & & & % + , f i p u u i i i i u u i u u u z p j @ $ & % & & % + o b.'.).(.`.{.XXiXXXiXpXpXv.y.",
"bXU.uXgXpXtX.X X{.[.uXoXj.o o o + & & & % *   q y 7 7 8 8 6 6 7 8 7 7 7 6 0 0 0 4 # + $ % & & & + + g. X).Q.]. XiXrX}.iXtXpXV.8.",
"vXU.iXgXtXtX|. X}.[.{.}.b.o o o & & % & + * j i i i i y i i i i u u u u y i a z j = $ $ & & & % + o h. X).~.{.|.dXrX}.iXsXaXv.X.",
"%.T.iXaXpXtX X.X{.rXXXuXb.o o + & & & % * 5 V C S S S S S C h C C C S S S C S S B j O & $ % & & + X n. X).~.{.).uXiXrXsXsXgXv.X.",
"bXU.iXgXpXtX|.|.}.R.XXuXn.+ o + % & & % , A S S S S S G S S S S &.=.&.&.G S S G S m , + % % & & % o n. X).!.{.|.XXiXrXuXgXgXv./ ",
"1XU.sXaXtXtX(.|.{.[.oXuXD.o o + & & % @ , 7 7 6 7 q q y y i y y y e 7 7 q 7 7 6 y y j @ % & & & & + A. X)./.}.|.`.rXrXuXgXgXv.( ",
"bXI.sXaXpXtXK.|..X/.!.~.n.o o $ & & % % . 0 7 7 7 7 6 6 7 q y q 7 7 7 7 7 7 7 7 e y 4 @ % % & & $ + n.!.W./..X|.L.rXrXuXhXaXv.( ",
"1XU.sXaXtXtXL.G.G.J.E.H.- X o + & & $ * 4 u y y y y y y q y y i y y y y u y y y y u w @ $ % & & % + f.J.J.G.G.J.~.iXrXuXgXqXv.( ",
"1XI.sXdXpX8X`.H.S.n.Z.h.- o o $ & & * 3 n F B M V V V V h C C C C V V V C C C C V V n 5 * % & & % + - g.f.g.G.J. XrXrXiXqXqX,X/ ",
"bX_.sXpXtX8X X|.'.L.~.S.g.o o $ & & 3 F G G G :.-.-.-.-.,.:.-.-.-.-.:.S S &.-.-.:.-.-.$.x * & & & + g.G.G.H.`.|.oXrXrXiXhX0XC./ ",
"1XU.pXdXpXrXXX X{.[.uX(.K.o o $ % = x c z z m m b b g b f d d b f V f M C C V S M n n b m : & & & $ S.|.(.~.{. X}.rX}.pXhX9XC.| ",
"bXU.aXiXpXuXoXXX}.}.uXXXL.o X + & < w . 0 w 0 0 e 6 7 7 7 6 6 6 6 6 6 7 u s a u p a u u a : & & $ & L. X(./.{. XXXrX{.aXhXpX,X8.",
"<XT.aXiXdXuXoXXX}.{.uXoXL.o o + & = . w w w 0 r 8 0 9 7 7 6 6 6 6 8 6 6 e a p p a a u u p : & & $ % L. X|./.}. XXXuX XaXhXpX,X0.",
"P T.aXiXpXuXuXoXoX].uXoXL.o o + & = l z t z z a a s s s y y y y e 9 e u y s d d d f d d s : & & % & I.'.XX!.}. XoXrX].aXhXpX,Xq.",
"L T.pXiXpXuXuXXX}.].uXoXI.o o + = x F G #.#.F #.G S G n n N n B N N M Z A G ;.;.=.#.=.#.;.x * & % & I.Q.{.!.}. XoX[.}.gXhXrX,X8.",
"L T.aXiXpXuXiXoXuX'.fXoXD.o o @ x :.:.:.:.>.>.>.,.:.S G #.F G G G F G F F F Z m n M n M M m , & & & K.W.XX!.}. XoX}.}.gXhXrXH ..",
"1XR.aXiXpX[.uXuX}.{.uXuXD.o X 5 ;.;.;.G =.=.=.:.=.#.=.A A G A A Z Z A A S G =.=.=.=.=.#.#.$.G H * - S.E.{.Q.rX XoX}.uXgXhX[.H } ",
"L ].aXsXpX}.sXXXuX XuXuXD.o O . e e e p y 9 8 u d b a u a u e e e e y y e u f b d f f c d d s z # & A.W.XX_.rX XoX}.rXgXhX}.,X8.",
"J T.aXsXsX}.iXoXuX XuXoXD.+ O . 6 6 9 e 7 9 9 8 0 e r e e e r e r e e e e y 9 y y y y r e e e w # $ h.W.].`.}.XX}.[.rXgXgX{.<X8.",
"P R.aXiXsX}.iXiXrXXXuXuXD.o O   6 6 8 8 7 7 6 . 6 0 7 0 0 0 0 8 0 e 8 8 0 e y 9 9 e t e q 0 r . @ + h.W. X_.rX XoX[.8XgXaX'.<Xw.",
"v [.aXiXsXuXiXiXuX{.uXoXA.o O   6 6 6 8 6 6 6 . 6 0 9 7 0 e 0 e e e r r r e e 9 e 0 e e 7 0 0 . @ o A.W. X_.[.XXXX[.pXgXdX'.K q.",
"J T.aXtXsXuXuXsXiX{.uX}.n.o > s f f f f g f g i d b b g h g g g S A S G A V h g g g g g b f f c > $ A.^.|.].rXXXXXuXpXgXiX}.v 8.",
"<XT.pXsXiXuXuXsXiX'.rXoXn.> B C C C C C h C C C C C C C C C C V S >.@.A Z V V V C C Z C S V A V B 1 A.^.(.{.}.oXXXuXpXaXiX[.J 9.",
"<X[.pXsXiXuXoXuXuX'.fXXXN.F G S S -.-.-.*.-.&.-.-.=.-.=.-.-.=.=.&.Z @.=.=.=.-.-.-.-.-.-.-.-.-.-.#.c V.^./.'.[.XXXX}.pXgXiXrXK 9.",
"P ].sXsXsX}.oX X|./.!.J.z.=.G S -.-.S &.-.S S -.#.=.=.-.=.-.-.:.:.:.:.>.-.A =.-.=.#.=.=.=.=.-.S A @.L P.^./..X XXX}.pXaXiXR.<X9.",
"K T.sXpXpX}.XX).E.W.J.A.1 u y i f i i i i y y i u y 9 9 y y y u y u a i y u u y e e e e y 9 e d f c c z.J.E.J.~.XX}.dXaXiX8XK w.",
"J [.pXpXpXuX XE.J.h.h.g.> 9 y y y y y y y y y y y y y y u 7 e 9 7 9 7 y y y y q e 7 7 7 9 8 8 y y u u 1 f.h.G.K.XXoXdXsXpXR.K 7.",
"J T.yXaXtXoX|./.E.E.!.G.1 9 y e y y y y q y y 7 7 q q y e y 7 9 9 7 7 y q q q q 7 7 7 7 8 6 8 9 u r r z.G.G.E.!.'.{.aXuXaXT.K +.",
"K ].aXaXrXoXXX}.oX|.'.!.2 e 7 9 q q e e q y q 7 7 7 y q 9 9 9 9 9 7 7 7 7 q 7 7 7 7 6 8 6 6 . 8 y p k c.W.`.{.~.XX}.pXuXgXI.L { ",
"K ].gXsXtXoXoXaXuX|.'.!.2 e y y u u u u y y y i y i i y y y 9 9 e 9 y y y y y u u i i i y 9 u a s s z c./.`.rXXX}.oXaXuXgX_.D  .",
"J ].gXsXpXoXuXdXrX(.(.E.z.m m n m N Z F #.#.@.@.C S V f f h h h h h h h h h h h h C S S @.S #.G G G S ,XE.~.[. X{.oXdXuXgX_.L } ",
"x ].gXsXtXoX}.aX}./.~.J.x.N Z Z B B N N N #.#.>.,.C V V V C C C C C C V C V V V V V S -.:.:.;.:.;.:.&.,XJ.~.}. XoX}.pXuXaXI.P } ",
"J ].gXsXtXoXoXdX}.~.W.G.v.F F F F $.F #.F A #.#.C S &.&.&.&.&.&.&.&.&.=.&.&.&.&.&.S &.&.>.,.:.:.:.;.S ,XH.K.'. XoX}.pXuXdXI.L 7.",
"l ].hXyXtXoXoXsX{.~.W.S.x.;.;.;.$.;.;.;.;.#.#.#.:.:.-.,.:.:.,.:.,.,.-.,.,.:.,.,.:.:.:.:.;.Z A S G G =.H G.K._. XoX[.iXiXaXI.P 7.",
"x ].gXsXpXoX XyX'.Q.E.S.z.m m v N m D D N N N #.=.C G &.G S V V n M V V n V M n M S V b n g V Z V V V C.G.J.~..XoXrXiXiXpXL.P o.",
"x ].hXsXtXoX.XXX`.E.G.S.2 k k p t r . r r . a y 7 y s y 7 7 7 y q q y q q q q y e y q q 6 6 q 6 6 6 7 3 G.S.!./. X].iXiXdXL.%.9.",
"x [.gXsX8X X/..X!.J.G.S.2 z k k r l t . . r p 8 7 7 q q 7 7 7 9 e q y y y y q y y 7 y 6 6 6 7 6 6 7 9 3 S.n.J.^.).].}.iXdXL.%.w.",
"x [.gXrXT.|.^.).E.G.S.S.2 k k k l r l . 4 r r 8 q q q y q 7 7 9 e q q q q q y q y q 9 6 6 6 7 6 6 7 9 3 S.h.G.H./.Q. XiXiXI.%.9.",
"J T.yXXXI.E.H.^.H.G.G.Z.2 l l k r t r . w t 0 q 7 q q q q 7 7 7 y e q 9 q e y q 9 e 7 6 6 6 6 6 6 6 7 3 Z.h.Z.Z.J.J.).oXuXL.3.q.",
"5 _.{.~.H.S.A.P.B.x.<X%.5.*.5.*.*.#.5.5.*.` *.` _ _ _ _ _ _ _ _ ` ` _ _ _ _ _ _ _ _ _ *.*.` ) ) ` &._ h <X3 N.n.A.S.E..X'.J.%.e.",
"J P.P.B.v.K vX5.t.0.8.O.o.o.o... ...w.r.i.e.O.o. . . . ... . ...o... . . . . . ... .+.a.O.O...7.7.w.} ..8.X./ ] V z x.B.F.F.>.w.",
"t.5.5.y.a.7.o....... . . ...o.7.w.p.d.w.9.9.o. . . . . . . . . . ... . . . . . . ...r.9. .8.8... .7.+.r.8.{ { } { { { / ^ ^ 8.w."
};
