/* XPM */
static char *result[] = {
/* columns rows colors chars-per-pixel */
"64 64 224 2 ",
"   c #3E010D",
".  c #340B2D",
"X  c #560400",
"o  c #570802",
"O  c #510709",
"+  c #5C1706",
"@  c #640700",
"#  c #750B00",
"$  c #7B0C00",
"%  c #6D1013",
"&  c #53201B",
"*  c #6B270B",
"=  c #7B2809",
"-  c #78370A",
";  c #4E162B",
":  c #502A37",
">  c #140F5C",
",  c #251E57",
"<  c #3D304F",
"1  c #161563",
"2  c #11136C",
"3  c #121B78",
"4  c #1B2C7A",
"5  c #2F3075",
"6  c #5A1F42",
"7  c #512F52",
"8  c #673C4D",
"9  c #3A457E",
"0  c #724F52",
"q  c #7B674A",
"w  c #4B477A",
"e  c #6A5267",
"r  c #6B5973",
"t  c #840F00",
"y  c #841100",
"u  c #891100",
"i  c #8D1901",
"p  c #911E02",
"a  c #872501",
"s  c #962500",
"d  c #972A07",
"f  c #9B2D01",
"g  c #9D3305",
"h  c #9C370A",
"j  c #8B3C19",
"k  c #973814",
"l  c #A23600",
"z  c #A53B01",
"x  c #A43D08",
"c  c #A03811",
"v  c #884A0D",
"b  c #8C4719",
"n  c #AB4200",
"m  c #A74509",
"M  c #B14600",
"N  c #B34900",
"B  c #BA4E00",
"V  c #AD540E",
"C  c #BD5102",
"Z  c #B2570E",
"A  c #A54816",
"S  c #A95319",
"D  c #B55915",
"F  c #9F6413",
"G  c #A36A14",
"H  c #925734",
"J  c #AB5E28",
"K  c #A45E30",
"L  c #96663B",
"P  c #A9672B",
"I  c #B76C28",
"U  c #B2762D",
"Y  c #AB6837",
"T  c #B36F38",
"R  c #BA773A",
"E  c #C45A07",
"W  c #CC5D00",
"Q  c #CE6308",
"!  c #D06000",
"~  c #D36A0D",
"^  c #CA6812",
"/  c #C57613",
"(  c #D57118",
")  c #C97627",
"_  c #D67D2B",
"`  c #C57C38",
"'  c #885644",
"]  c #84574F",
"[  c #90794C",
"{  c #AE7648",
"}  c #886B68",
"|  c #BA8A25",
" . c #BE8935",
".. c #CC8216",
"X. c #D28A17",
"o. c #DA9A1C",
"O. c #DCAB1F",
"+. c #E7B51E",
"@. c #D59A27",
"#. c #CD9335",
"$. c #DDA630",
"%. c #E8B725",
"&. c #F1BD21",
"*. c #E2AC33",
"=. c #E6B637",
"-. c #FDCC04",
";. c #F7CF0D",
":. c #FBCD0B",
">. c #F7CF11",
",. c #FBCE13",
"<. c #FBCE1A",
"1. c #FAD115",
"2. c #F7D118",
"3. c #FBD11C",
"4. c #DFC33F",
"5. c #F5C827",
"6. c #FACD24",
"7. c #FDD325",
"8. c #FCD42B",
"9. c #F9D82B",
"0. c #ECC935",
"q. c #F4CB3A",
"w. c #FBD633",
"e. c #F7D937",
"r. c #FAD835",
"t. c #FBD63B",
"y. c #FAD93C",
"u. c #9B8744",
"i. c #9F8854",
"p. c #AE8C59",
"a. c #968C6C",
"s. c #AB9267",
"d. c #ADA072",
"f. c #C88544",
"g. c #CB8947",
"h. c #D18B47",
"j. c #D9944C",
"k. c #DD9651",
"l. c #E2964D",
"z. c #E49D56",
"x. c #D0B250",
"c. c #E3B947",
"v. c #E3B04F",
"b. c #E8A058",
"n. c #C8BC71",
"m. c #E8C549",
"M. c #F2CE48",
"N. c #EED04D",
"B. c #FCD742",
"V. c #FBDA44",
"C. c #F6D74A",
"Z. c #FCDC4C",
"A. c #EAC954",
"S. c #F5D756",
"D. c #F6DD53",
"F. c #FCDC52",
"G. c #FBDE5B",
"H. c #F9E058",
"J. c #FAE05D",
"K. c #CBC26F",
"L. c #E4CE6A",
"P. c #F5DB63",
"I. c #FBDF62",
"U. c #F7E264",
"Y. c #FAE163",
"T. c #F7E46C",
"R. c #FAE26C",
"E. c #F7E472",
"W. c #F9E371",
"Q. c #161F82",
"!. c #14268B",
"~. c #102593",
"^. c #173A95",
"/. c #26358C",
"(. c #1238AC",
"). c #113AB4",
"_. c #113CB9",
"`. c #1D468E",
"'. c #354591",
"]. c #1544BA",
"[. c #1C56B2",
"{. c #2D51B0",
"}. c #2C66B7",
"|. c #42488D",
" X c #4E5287",
".X c #546BA6",
"XX c #1142C2",
"oX c #1547C5",
"OX c #154DD3",
"+X c #1959D6",
"@X c #2959C4",
"#X c #355CC2",
"$X c #1D64C0",
"%X c #2B66CA",
"&X c #376CCE",
"*X c #2777C5",
"=X c #3A7DC9",
"-X c #2B6BD8",
";X c #2472D4",
":X c #1555E1",
">X c #195BE5",
",X c #165CEA",
"<X c #1860F0",
"1X c #4F7FC5",
"2X c #3C81BD",
"3X c #6C8CB4",
"4X c #2D81C1",
"5X c #3B85C5",
"6X c #448AC5",
"7X c #578AC8",
"8X c #4C91C7",
"9X c #5B93C9",
"0X c #558AD2",
"qX c #6595CB",
"wX c #69A3C9",
"eX c #73A3CD",
"rX c #75A9CE",
"tX c #7CADCF",
"yX c #7FAFD0",
"uX c #849FAE",
"iX c #8AAABB",
"pX c #C9C486",
"aX c #85AAC1",
"sX c #80B0D0",
/* pixels */
"7.7.8.7.V.W.R.I.F.I.Y.y.F.Z.e.V.Z.D.R.W.R.Y.F.G.W.W.R.r.7.6.7.6.7.7.8.F.t.y.w.t.y.7.V.Z.7.7.8.8.7.r.r.7.V.R.W.V.7.V.Y.P.T.R.W.W.",
"w.8.t.D.Y.W.U.U.D.I.8.7.7.7.7.7.8.V.R.Y.G.F.Z.F.Y.W.R.w.6.+.+.+.+.+.%.P.F.w.y.7.8.8.8.7.7.8.8.9.r.Y.t.7.7.8.w.7.8.F.T.I.Y.t.G.E.",
"2.w.Z.Z.r.t.y.Z.V.8.7.8.8.7.e.D.Y.Y.G.Z.Z.Z.F.G.J.Y.R.C.@.c s s s s m =.M.C.Y.e.Y.e.7.7.y.y.y.9.7.7.7.7.7.w.Z.8.8.G.V.J.Z.8.R.C.",
"7.w.9.7.7.7.7.8.7.7.8.7.7.Z.W.R.J.Z.F.F.F.F.Z.Z.F.U.W.j.c u u u u u i c A #.y.8.V.e.8.7.8.7.w.7.7.7.7.7.7.8.w.7.w.I.D.w.7.8.U.V.",
"9.e.7.w.Z.w.w.8.F.y.7.8.y.Y.R.F.F.F.Z.Z.F.D.Z.G.Y.F.#.S f f f f p u u u u x X.7.7.7.8.7.r.8.7.7.8.r.w.7.7.6.7.7.8.e.w.t.8.7.J.T.",
"V.r.7.7.Z.C.Z.V.W.D.D.G.J.G.H.F.Z.Z.G.J.I.F.6.F.r.8.Z s z z M B z p s p u u x o.6.7.w.7.8.7.7.7.7.8.7.7.7.8.7.8.7.7.w.Z.G.G.I.T.",
"8.7.7.7.V.Z.Y.e.U.Y.F.F.Z.F.Z.G.G.Y.F.e.8.V.w.y.7.7.Z s M M W W E z M z s p u c &.7.7.7.7.7.7.7.7.7.7.8.8.8.t.8.8.w.G.E.R.J.G.T.",
"7.7.7.8.V.D.T.H.G.F.Z.G.Y.I.Y.R.Z.w.8.7.7.8.B.8.7.6.Z s M W ! ! ! ! W W M z s l &.7.7.7.8.7.7.8.7.7.7.7.V.I.R.G.G.F.Y.T.W.G.G.R.",
"7.8.8.V.Y.I.G.F.J.J.G.Y.W.W.W.Y.F.t.7.8.8.8.8.7.7.7.Z s N W ! W ! ! ! ! W B f g &.8.7.7.7.8.8.7.7.8.w.Z.D.G.V.B.G.U.J.E.W.R.W.W.",
"8.w.F.R.G.F.Z.F.G.W.R.Y.R.W.Y.W.R.R.U.U.Z.7.7.8.7.6.Z s N W ! ! ! ! ! ! ! B f g &.8.7.7.7.7.B.y.B.U.R.G.V.Z.2.-.8.D.Y.R.E.W.I.y.",
"G.Y.G.Z.Z.Z.F.F.Y.W.R.Y.I.G.G.T.W.R.R.Z.9.7.7.7.7.6.Z s M W ! ! ! ! ! ! ! B f g &.7.7.8.w.F.D.T.R.J.e.7.8.Z.8.:.:.Z.G.J.D.G.Z.7.",
"F.Z.F.G.G.G.V.Z.Y.W.R.y.t.8.8.8.y.e.w.7.7.7.8.7.7.8.Z s N W ! ! ! ! ! ! ! B f g &.8.8.8.F.D.Z.J.Z.G.I.w.7.e.w.-.-.8.C.R.R.T.G.8.",
"J.Z.G.G.t.8.7.8.7.Z.t.7.w.8.7.7.8.7.7.7.8.7.7.6.+.%.V f M W ! ! ! ! ! ! ! B f h A.8.6.7.G.V.I.,.-.-.e.D.V.Z.G.:.-.:.Z.w.V.G.G.I.",
"R.t.t.7.7.7.8.7.8.7.7.8.7.7.7.7.7.7.V.r.7.6.7.O.- * j A M W ! ! ! ! ! ! W B f h A.Z.t.9.t.D.B.:.-.-.-.:.,.,.w.7.-.-.t.,.-.-.;.y.",
"R.T.Z.7.7.7.7.7.7.8.7.7.7.7.7.7.7.7.w.5.G v v - o @ j P ) W ! ! ! ! ! ! E M f h M.Z.t.9.2.:.:.<.6.-.-.-.-.-.,.r.:.-.t.t.7.7.t.F.",
"R.R.T.V.7.8.7.7.7.7.7.7.8.7.7.7.7.+.G G + X @ @ @ t h J ` _ _ ( Q W ! W z m c A I m.7.3.w.w.y.F.Z.y.8.w.y.V.Z.F.7.-.w.F.V.Z.I.F.",
"E.W.E.G.7.8.7.8.7.7.7.7.8.7.7.7.+.F X X X # u u u u f D ` j.z.h._ ( ( ( D A H j O | m.H.Y.I.J.Z.Z.Z.Z.Z.Z.F.F.G.V.,.3.Z.F.Z.Y.H.",
"W.I.W.U.w.t.8.7.7.7.7.7.8.7.7.7.G o X $ t t u u u u f M Z ` l.l.k.k.k.k.` J k $ o O U c.m.G.T.D.G.D.F.F.G.J.G.I.Z.w.:.y.F.y.w.8.",
"R.R.W.I.8.8.8.t.w.7.8.7.7.y.Z.V.U y $ t t u u u u l z N W Q ~ ~ ) #.f.` D d i u # X + * b m.D.C.y.y.V.D.Y.J.I.J.F.Z.1.3.V.Z.w.8.",
"G.R.W.I.V.8.7.t.Z.8.7.7.y.V.J.H.=.^ i u u u t i f l E W W W ! ! E ^ ^ ^ N x s u y # # o O b 0.9.V.Y.W.Y.G.e.Z.I.F.Z.3.-.3.Z.G.t.",
"I.G.G.R.W.G.w.t.V.F.B.8.y.7.r.B.8.%.) I s u p d z z W ! ! ! ! ! ! ! ! ! N n g u y u t $ @ O H x.Z.y.V.Z.D.w.B.V.Z.7.3.-.-.8.G.D.",
"R.G.Y.E.T.G.G.D.Z.F.F.y.t.8.8.8.7.9.7.5.I d d D l z W W ! ! ! ! ! ! ! W C n g i u u t u t o o | 7.8.8.e.J.H.F.F.F.I.G.3.-.:.Z.G.",
"R.R.T.E.G.B.w.G.F.Z.F.Z.y.Z.F.Z.e.8.w.C.S.I A ` c B Q ! ! ! ! ! ! W ! ! ! C n z i u u u u y * #.V.Z.G.G.F.Z.F.R.C.J.F.V.:.-.9.G.",
"W.R.G.B.8.7.V.T.R.I.F.Z.Z.Z.Z.F.H.J.G.G.B.#.f.v.#.J R ) Q ! ! W W E ^ E D N h g m d i p i k #.P.J.Z.y.r.7.7.t.F.8.3.y.F.8.-.,.y.",
"G.V.7.7.7.8.J.U.D.G.T.F.F.F.F.F.F.Z.F.H.G.A.A.S.=.k P h.#.) ` J J ' |.'.|.< . 7 @.x.O.$.v.v.C.e.t.8.7.7.y.V.G.G.D.1.V.T.D.8.-.9.",
"Z.F.Z.B.8.t.R.V.y.J.T.G.G.R.V.F.Z.F.F.Z.Z.F.7.:.%.0 ] ` g.` Y e  X|.$X$X%X[.`.4 q c.Z.F.Z.C.H.Z.D.F.V.y.G.D.I.J.Z.Z.V.V.G.G.1.3.",
"I.J.G.F.Z.J.R.H.R.G.G.Y.I.R.y.Z.F.y.V.Z.F.F.y.0.u.{. X0 ' 0 e {.>X;X4X8X8X5X}.[./.x.G.H.G.Z.V.F.F.G.J.Y.R.G.Z.y.J.G.8.8.y.G.e.:.",
"W.W.R.D.J.T.W.W.W.G.Z.Y.J.R.W.G.B.1.V.F.Z.Z.N.d.`.+X%X`.3 , ].+X;X4X6XrXyXwX6X*X}.n.Y.Z.B.F.U.R.Y.R.G.G.G.F.y.Z.U.Y.I.V.3.D.D.-.",
"E.W.R.E.E.W.J.G.R.Y.F.Y.R.R.R.F.Z.Z.J.F.F.F.s./.+X}.^.^.%X1X1X=X6X9XrXyXyXwX6X*X-Xx.y.w.:.,.y.F.V.G.T.I.Y.e.-.:.Z.F.F.8.7.D.Z.:.",
"W.W.W.W.R.J.H.Z.G.W.R.R.R.R.W.G.F.I.R.F.F.B.u.!.}.4 (.%X0XeX7X7X7XqXtXsXsX9X4X;X-XK.8.H.y.3.,.1.3.8.Z.G.Z.:.-.-.1.8.Z.G.Z.y.w.-.",
"W.E.W.E.E.W.R.R.Y.R.W.R.J.T.R.J.I.R.Y.F.F.F.i.1 4 ].}.0XeXtXeX9X9XeXsXsXsX9X6X=X-XK.F.F.F.F.Z.Z.D.Z.F.Z.1.-.-.1.3.8.D.y.w.V.7.-.",
"W.W.W.R.W.R.R.W.W.W.W.W.W.E.W.R.W.W.R.W.R.Y.a.1 1 %X0XeXtXsXtX9X8XqXyXsXsXeX9X=X%XpXR.G.F.R.I.F.F.F.Z.7.-.:.t.Z.Z.Y.U.D.H.D.-.-.",
"W.W.R.W.W.W.W.W.W.W.R.W.W.W.W.W.R.W.W.R.E.E.a.2 > .XqXtXsXsXyX6X4X8XsXsXsXsXqX2X#XpXW.R.G.Y.R.H.Z.8.y.-.-.t.F.F.Z.F.Z.7.8.e.,.3.",
"R.W.R.Y.W.E.R.W.W.W.Y.W.E.E.W.W.W.W.W.W.R.R.s., > (.&X7XrXrXrX6X=X9XeXaXiXaXiXuX=XpXR.W.R.G.R.J.V.;.-.-.:.V.y.8.<.8.6.-.3.Z.Z.F.",
"G.G.G.G.F.F.F.Z.t.G.R.R.R.E.W.R.W.R.W.W.W.W.L.d.!.(.oX@X%X7X5X;X;X2X3Xs.p.p.{ ] {.K.G.I.R.W.R.R.D.7.-.<.Z.Z.Z.y.w.B.V.7.,.w.Z.Z.",
"r.e.w.w.w.w.Z.I.I.I.R.E.W.W.Y.I.Y.T.W.R.I.G.W.n./.~.(.XXXX@XoX).^.'.} j.k.g.T Y d.m.w.Z.e.G.G.w.8.V.,.:.B.Z.Z.F.F.F.F.Z.,.w.F.F.",
"7.8.8.7.7.7.8.y.I.G.Y.D.V.y.8.8.7.w.e.r.y.V.I.L.} , ~.).XXXX_.).5 8 K k.b.j.T P N.F.G.G.8.,.8.w.:.1.:.-.,.Z.F.F.V.r.9.7.<.Z.V.V.",
"7.r.w.t.y.t.8.w.Z.C.w.7.7.7.8.8.8.7.7.V.t.8.8.e.4.< 2 ~._._.'.'.e K { k.b.g.L ' A.S.F.G.C.,.;.y.8.-.<.6.-.7.F.V.,.-.-.-.1.w.,.8.",
"F.R.F.F.F.V.V.F.Z.t.7.7.8.8.8.8.8.V.G.T.I.G.Z.Z.c.< 2 Q./.'.] H Y f.z.z.l.{ 8 w L.C.Z.B.V.t.,.7.Z.3.<.F.7.:.r.Z.:.:.-.1.1.:.:.,.",
"y.J.F.I.V.r.F.Z.F.w.t.V.Z.F.G.I.G.G.J.Y.G.F.G.F.A.< 2 < H { { h.l.z.z.z.f.0 , 5 A.Z.w.>.V.e.V.:.r.Z.3.w.Z.6.:.V.y.y.r.Z.F.Z.Z.V.",
"t.G.F.J.e.Z.Z.Z.F.Z.I.F.Z.G.I.I.F.F.F.F.Z.Z.F.Z.A.< 6 H { j.l.z.z.k.f.{ r `.~.9 c.Z.G.B.w.7.D.w.,.V.C.3.V.Z.,.3.Z.F.F.F.Z.F.Z.Z.",
"V.V.Z.G.V.F.Z.Z.F.F.G.F.F.F.G.F.F.F.F.Z.F.F.F.F.N.i.H Y g.b.b.b.l.s..Xw (.(.'.u.N.t.w.w.7.8.Y.G.8.3.F.B.7.Z.Z.<.w.F.F.F.Z.F.F.F.",
"-.<.t.J.F.Z.F.F.r.w.Z.F.Z.Z.F.Z.F.Z.F.F.F.Z.Z.F.F.Z.#.P g.z.z.l.h.} #XXX(.9 [ w.V.y.V.7.8.w.U.T.Z.8.w.Z.w.8.Z.V.,.V.Z.Z.Z.Z.Z.Z.",
"y.F.F.D.F.F.Z.F.y.,.,.B.F.F.Z.F.Z.F.F.Z.Z.F.F.Z.Z.Z.g.R p.l.z.h.Y e >XoX3 [ D.U.r.8.y.6.7.V.R.F.8.V.w.V.Z.7.B.Z.V.<.Z.F.F.F.7.B.",
"R.R.F.F.F.F.Z.F.F.Z.Z.F.F.Z.V.Z.Z.F.F.F.F.Z.F.Z.H.Z.C.#.T f.k.g.Y r >X:XQ.[ r.Z.8.7.7.7.7.H.G.8.8.8.V.8.F.F.1.Z.Z.8.6.Z.Z.B.8.Z.",
"Y.W.G.F.Z.F.F.F.F.Z.Z.F.Z.Z.F.F.F.Z.F.F.F.F.F.F.Z.F.F.q.o.J K K r #X<X:XQ.[ V.7.7.8.8.7.r.J.t.7.8.7.w.Z.y.Z.B.r.F.F.8.t.F.F.F.Z.",
"G.G.Z.V.F.F.Z.F.F.G.G.I.G.I.Y.I.G.I.F.Z.Z.F.Z.F.H.Z.Z.Z.x.7 < |.#X<X<XOX3 [ V.9.7.7.7.7.V.Z.7.8.8.7.7.D.Z.Z.Z.Z.F.Z.F.w.w.F.Z.F.",
"D.F.G.G.B.F.R.I.F.F.F.J.Y.R.I.G.G.G.Z.V.8.8.w.Z.C.#. .) [ 4 ~.OX<X<X,XXX!.} G.7.8.8.7.7.y.8.8.Z.w.w.V.V.G.F.F.Z.F.F.Z.Z.8.y.F.F.",
"7.7.y.y.8.V.D.7.:.-.1.8.t.w.<.,.,.,.,.:.-.:.:.q.*.- o X ; Q.).:X<X<X,XXX).a.H.P.e.w.7.7.7.7.7.w.8.t.T.J.G.H.Z.Z.Z.F.Z.F.V.w.F.B.",
"8.y.y.V.B.8.:.-.-.-.-.-.:.1.7.r.y.V.y.t.V.Z.G.c.k g i u % Q.).:X<X<X,X].3 L 0.U.8.8.7.7.7.8.7.7.8.Z.W.R.Y.R.F.8.F.Z.t.Z.Z.F.Z.y.",
"F.Y.W.J.y.7.7.3.3.8.r.B.V.F.F.8.8.8.8.8.w.B.R.v.d g z s % > ).:X<X<X,X].2 . G 9.8.y.7.V.7.7.7.7.V.Y.W.R.Y.R.P.w.r.F.V.Z.Z.Z.6.:.",
"J.Z.V.Z.Y.D.Z.J.J.F.Z.G.8.8.8.8.7.8.w.t.t.8.Z.5...a a i % > (.:X<X<X,X].2 . v 6.7.w.8.w.7.7.8.B.Y.E.R.E.Z.V.Y.Z.<.r.F.V.w.w.-.7.",
"8.Z.G.V.Y.J.y.Y.R.7.7.y.7.8.7.7.7.8.8.J.I.Z.F.w.0.G = @ O 3 ).:X<X,X:X].3 . v 6.7.7.7.7.7.7.7.V.T.W.E.R.w.:.I.Y.B.,.B.Z.3.:.7.2.",
"3.:.7.V.t.w.e.e.V.8.9.8.8.r.w.r.y.V.V.G.Z.Z.F.Z.H.H.P - : Q.XX>X<X:XXX].~.: F 5.8.8.8.7.7.7.t.Y.W.I.R.D.,.:.G.e.y.8.,.t.<.7.w.<.",
"t.:.-.3.t.e.V.Z.F.J.J.G.J.F.G.G.G.R.T.V.<.V.y.V.V.V.N.c.p.Q.+X,X<X<X:XXX~.q %.7.7.9.8.7.7.w.Y.W.W.e.Z.8.w.8.7.:.,.Z.,.:.:.t.>.V.",
"-.-.-.-.-.-.:.6.e.F.Y.U.F.D.G.G.Y.T.F.:.-.V.7.7.7.7.w.| & > ).+X,X:XXX_.2 ; F 7.7.7.7.7.8.e.W.P.I.8.Z.t.B.G.3.;.8.Y.w.-.7.,.8.y.",
"7.<.1.3.7.8.V.G.Y.B.w.Z.8.7.7.7.9.G.,.-.r.w.7.7.7.7...d % % 6 8 0 8 6 6 .   v 7.7.7.7.8.8.F.Z.w.Z.w.Y.R.G.I.Z.Z.Y.U.<.<.8.>.t.8.",
"V.t.F.F.Y.T.D.7.7.D.J.Z.D.e.9.w.Z.8.-.9.F.8.7.6.6.X.m s s s f l n h s u # o v 7.8.7.7.7.y.Z.7.V.w.F.R.W.R.F.F.V.G.G.8.y.<.t.Z.Z.",
"7.7.e.Y.T.W.W.G.y.H.R.R.R.G.G.R.Z.,.w.Z.B.V.8.5.o.g l B n M M z n n g y t = G 7.7.7.7.e.8.:.r.F.t.7.G.R.G.D.D.e.w.V.F.B.<.Z.F.Z.",
"7.w.t.G.G.F.y.Z.Y.R.G.Z.Z.V.G.R.8.V.F.F.V.D.7.+.g z B W W W W B g g n f f ..6.7.7.8.7.V.1.:.Z.Z.,.7.F.D.<.Z.y.3.-.8.8.t.r.F.F.Z.",
"G.J.J.G.H.V.e.r.e.w.8.w.r.t.G.G.t.G.F.G.Z.G.Z.c.d z n B ! W M z f s x o.%.5.7.7.7.7.7.y.w.y.V.,.-.9.Z.7.2.B.e.:.-.-.-.B.Z.Z.F.F.",
"8.8.8.8.8.7.w.r.y.F.Z.F.I.R.G.D.Z.Z.I.W.V.w.Z.M.X.h p l N M s p D @.o.6.6.7.7.7.7.8.7.F.D.y.8.<.9.V.e.:.e.V.,.-.-.-.1.y.Z.Z.Z.Z.",
"w.y.V.Z.G.J.Y.Y.I.F.Z.y.w.r.y.8.7.8.H.H.U.G.V.8.6.X.^ / X.../ / O.8.7.7.8.7.7.7.7.7.t.R.w.e.w.B.B.D.<.w.V.7.-.-.-.-.:.:.w.w.B.F.",
"Y.Y.U.J.Y.V.8.8.7.7.7.7.7.8.r.V.D.Y.R.G.Z.Z.8.7.7.7.7.7.8.7.6.7.7.8.7.7.7.7.7.7.7.8.Y.Z.6.Z.V.9.7.B.t.G.V.-.:.,.-.-.-.-.-.:.V.F."
};
