/* XPM */
static char *result[] = {
/* columns rows colors chars-per-pixel */
"64 64 225 2 ",
"   c #340B2D",
".  c #560400",
"X  c #570802",
"o  c #510709",
"O  c #5C1705",
"+  c #640700",
"@  c #6C0901",
"#  c #750B00",
"$  c #7B0C00",
"%  c #6D1013",
"&  c #54201B",
"*  c #6B2609",
"=  c #792F0C",
"-  c #4D172C",
";  c #572D31",
":  c #78623C",
">  c #140F5C",
",  c #251E57",
"<  c #3D304D",
"1  c #3C3154",
"2  c #161663",
"3  c #11136C",
"4  c #121B78",
"5  c #1B2C7A",
"6  c #2E3074",
"7  c #4F2D4F",
"8  c #4F2F59",
"9  c #673C4D",
"0  c #745051",
"q  c #7C6D5D",
"w  c #6A5267",
"e  c #6B566F",
"r  c #840F00",
"t  c #841101",
"y  c #891100",
"u  c #8D1901",
"i  c #911E02",
"p  c #872501",
"a  c #962500",
"s  c #972906",
"d  c #9B2D01",
"f  c #9E3405",
"g  c #9B3609",
"h  c #8C3C19",
"j  c #9A3B14",
"k  c #A23600",
"l  c #A53B01",
"z  c #A43B08",
"x  c #864C17",
"c  c #914A11",
"v  c #AB4200",
"b  c #A9470A",
"n  c #B14600",
"m  c #B34900",
"M  c #BA4E00",
"N  c #BA5406",
"B  c #B3570E",
"V  c #A44617",
"C  c #A8531B",
"Z  c #B25612",
"A  c #9E6615",
"S  c #A46B14",
"D  c #BD691D",
"F  c #AD7417",
"G  c #91532C",
"H  c #8D583E",
"J  c #AB5E28",
"K  c #A45E30",
"L  c #9A6A2F",
"P  c #A66929",
"I  c #B67126",
"U  c #AB6837",
"Y  c #B36E37",
"T  c #BA773A",
"R  c #C45A07",
"E  c #CC5D00",
"W  c #CE6307",
"Q  c #D06000",
"!  c #D36A0D",
"~  c #C86A15",
"^  c #C67814",
"/  c #D57118",
"(  c #C97627",
")  c #D67D2B",
"_  c #C57D37",
"`  c #855145",
"'  c #876E50",
"]  c #927B50",
"[  c #AE7649",
"{  c #886B68",
"}  c #BB871A",
"|  c #B58834",
" . c #CE8416",
".. c #D38A16",
"X. c #DA9919",
"o. c #D7A31A",
"O. c #E5A91E",
"+. c #EBB41F",
"@. c #CA9A3B",
"#. c #D19232",
"$. c #DDB42B",
"%. c #D8A439",
"&. c #E6B422",
"*. c #E9B824",
"=. c #F1BD22",
"-. c #E4AD31",
";. c #E6BB35",
":. c #FDCC04",
">. c #F7CF0D",
",. c #FBCD0B",
"<. c #EEC61A",
"1. c #F7CF11",
"2. c #FBCE13",
"3. c #FBCE1A",
"4. c #FAD115",
"5. c #F7D218",
"6. c #FBD11C",
"7. c #F4C725",
"8. c #FACC25",
"9. c #FDD325",
"0. c #F8D52A",
"q. c #FCD42B",
"w. c #EBC434",
"e. c #F7CA39",
"r. c #F7D737",
"t. c #FBD633",
"y. c #FAD835",
"u. c #FBD63B",
"i. c #FAD93C",
"p. c #9E8D5A",
"a. c #AF8D54",
"s. c #988865",
"d. c #989171",
"f. c #AB9168",
"g. c #C98645",
"h. c #D18B47",
"j. c #D9944D",
"k. c #CD8E52",
"l. c #DD9651",
"z. c #E2964D",
"x. c #E49D56",
"c. c #DCA944",
"v. c #CEB54B",
"b. c #E4AA4B",
"n. c #E3BC48",
"m. c #E8A058",
"M. c #CAB968",
"N. c #E7C449",
"B. c #EECF4D",
"V. c #FCD742",
"C. c #FBDA44",
"Z. c #F7D849",
"A. c #FCDC4C",
"S. c #E5C858",
"D. c #F5D854",
"F. c #FCDC52",
"G. c #FBDE5B",
"H. c #F9E059",
"J. c #FAE05D",
"K. c #D0C373",
"L. c #E5D06B",
"P. c #F4D964",
"I. c #FBDF62",
"U. c #F7E264",
"Y. c #FAE163",
"T. c #F7E46C",
"R. c #FAE26C",
"E. c #F7E472",
"W. c #F9E371",
"Q. c #161F81",
"!. c #14268B",
"~. c #102593",
"^. c #173A95",
"/. c #252C83",
"(. c #273C97",
"). c #1238AC",
"_. c #113AB4",
"`. c #113CB9",
"'. c #364691",
"]. c #1E55A6",
"[. c #1544BA",
"{. c #1C56B2",
"}. c #2D4DAD",
"|. c #2C5ABC",
" X c #2C66B7",
".X c #42488D",
"XX c #4E5287",
"oX c #546BA6",
"OX c #1142C2",
"+X c #1547C5",
"@X c #154DD3",
"#X c #1959D7",
"$X c #2858C5",
"%X c #355CC2",
"&X c #1D64C0",
"*X c #2B66CA",
"=X c #376BCE",
"-X c #2777C5",
";X c #3A7DC9",
":X c #2B6BD7",
">X c #2472D4",
",X c #1555E1",
"<X c #195BE5",
"1X c #165CEA",
"2X c #1860F0",
"3X c #4F7FC5",
"4X c #6C8CB4",
"5X c #2D81C1",
"6X c #3B85C5",
"7X c #448AC5",
"8X c #578AC8",
"9X c #4C91C7",
"0X c #5B93C9",
"qX c #558AD2",
"wX c #6595CB",
"eX c #69A3C9",
"rX c #73A3CD",
"tX c #75A9CE",
"yX c #7CADCF",
"uX c #7FAFD0",
"iX c #98A090",
"pX c #8AAAB9",
"aX c #C8C485",
"sX c #85AAC1",
"dX c #80B0D0",
/* pixels */
"9.9.0.9.C.W.Y.I.F.R.Y.C.A.A.i.C.A.A.R.T.R.Y.F.G.R.W.R.t.6.9.q.9.9.9.e.A.t.V.t.u.i.9.i.A.9.9.q.9.9.y.y.9.C.R.W.C.9.V.U.U.T.W.W.W.",
"t.q.r.F.Y.W.U.Y.F.G.q.9.9.9.q.6.q.Z.R.R.G.F.A.F.Y.W.R.y.8.=.+.+.+.+.&.D.G.q.i.9.t.q.0.q.9.0.q.q.y.Y.y.9.q.q.t.9.0.F.R.I.I.r.G.E.",
"5.t.A.F.t.i.C.C.C.0.9.9.q.9.i.F.Y.Y.G.A.A.A.F.G.Y.Y.P.B.-.z s a a a g %.Z.F.Y.y.Y.y.9.9.i.i.i.q.9.9.q.9.9.t.C.q.q.G.C.H.A.q.R.Z.",
"6.t.0.9.q.9.9.q.9.0.9.q.9.A.T.T.J.A.F.F.F.A.F.A.F.Y.j.V j u y y y y u g #.Z.i.0.C.y.q.9.q.9.y.9.9.q.9.9.q.q.t.9.t.Y.F.t.9.q.Y.Z.",
"0.i.9.t.A.t.y.0.F.i.6.q.i.Y.R.G.F.F.A.A.F.F.A.G.J.#.V y y y y i d d d d B ..q.9.9.9.q.9.y.q.9.9.q.y.q.9.9.9.9.9.q.r.t.r.q.0.G.T.",
"A.y.9.9.A.Z.A.i.E.F.F.G.G.G.F.A.F.A.G.G.I.G.8.Z.#.z y y i i i k M m v l a B 9.9.9.9.y.9.q.9.9.9.9.9.q.9.q.q.9.q.9.9.r.A.F.G.Y.E.",
"0.9.9.q.C.A.J.i.T.Y.G.F.A.A.F.G.G.Y.G.u.9.V.t.w.k u u a n l n R E E m v a B 8.9.9.9.9.9.9.9.9.q.9.9.9.q.q.q.u.q.q.t.G.E.R.J.F.W.",
"9.9.9.9.C.F.E.H.G.F.A.G.Y.Y.Y.R.A.q.9.q.9.q.V.=.z d l n E E E Q Q E E n a B 9.9.9.9.9.9.q.9.9.9.9.9.9.9.C.I.R.G.G.F.Y.R.W.G.G.R.",
"q.9.q.C.I.I.G.F.G.J.G.R.R.W.W.Y.F.r.0.q.q.q.q.=.z d m E Q Q Q Q Q Q E n a B 8.9.9.q.9.9.9.9.q.9.9.q.t.A.A.G.C.V.G.U.Y.E.W.R.W.W.",
"q.t.G.Y.G.F.A.A.J.W.R.J.R.W.Y.W.R.R.U.U.A.9.9.=.f d M Q Q Q Q Q Q Q Q n a B 9.9.9.9.q.9.9.9.C.u.C.J.R.G.Z.A.3.:.0.F.Y.R.W.R.I.u.",
"F.Y.G.A.A.F.F.F.G.W.R.R.I.G.G.T.R.T.R.A.0.9.9.=.f s M Q Q Q Q Q Q Q E n a B 9.0.9.9.9.9.y.G.H.T.R.J.r.0.t.A.0.,.,.F.G.J.D.J.C.9.",
"F.F.F.G.G.G.C.A.Y.W.R.i.u.9.q.0.C.y.t.9.9.9.q.7.z d M Q Q Q Q Q Q Q E m a B 9.9.t.q.q.q.A.D.Z.J.A.H.J.t.9.y.t.,.:.0.A.Y.R.W.G.0.",
"J.A.I.G.r.q.q.q.0.A.u.9.t.q.9.9.9.9.9.9.q.9.9.=.f d R E Q Q Q Q Q Q E m s Z &.w.G.8.q.0.G.C.G.2.:.:.r.F.C.A.G.:.:.,.C.t.A.F.G.Y.",
"R.r.u.9.9.9.9.q.9.9.q.9.9.9.9.9.9.q.V.y.q.9.9.=.f d M E Q Q Q Q Q Q E m V h * = c.Z.e.t.r.F.C.,.:.:.:.,.2.4.t.9.:.:.i.3.:.:.>.C.",
"R.R.A.9.9.9.9.9.9.q.9.9.9.9.q.9.9.9.y.q.9.9.q.=.k k l R E Q Q E Q Q Q ~ J h @ . = x x A <.,.,.6.9.,.:.:.:.:.2.t.,.:.r.u.9.9.t.F.",
"R.W.Y.Z.9.q.9.9.9.9.q.9.9.9.9.9.9.9.9.9.9.9.=.F j j z n E Q Q ! ( ) ) _ P g r + O @ . O S F -.D.A.u.q.t.V.C.A.F.9.:.t.F.C.A.I.F.",
"W.W.E.F.q.q.9.q.9.9.9.9.9.9.9.9.9.q.0.9.9.*.F O h G C Z / / / ) h.x.l._ Z d y y y y # . . . L N.Z.Z.A.A.F.A.G.G.C.2.6.A.F.A.Y.H.",
"R.R.W.U.t.u.q.9.9.9.9.9.q.9.9.q.9.y.A.N.n.F o X r h K _ z.z.z.z.z.z._ Z n d y y y y r r $ X X P F.G.H.G.G.J.G.I.F.q.,.i.F.i.t.q.",
"R.R.R.Y.q.q.q.u.t.9.q.9.9.y.H.C.G.Z.S.x * O X $ t u g Z _ g._ ( ! ! W E M l k u y y y y t $ y I i.i.i.F.Y.H.I.J.F.A.4.6.A.A.t.q.",
"G.R.W.I.C.q.9.r.A.q.9.q.i.A.H.A.u.*.x o + # # t t a k m ~ ~ ~ W Q E Q E E M l d y y y y r u D ;.Z.Y.W.Y.F.i.A.I.G.C.6.:.6.A.F.u.",
"I.G.G.R.W.G.t.r.C.F.C.q.u.9.t.V.$.c o + # y y y y f v m Q Q Q Q Q Q Q Q Q R l l d u y a I _ n.J.A.i.C.A.H.q.V.C.A.9.6.:.:.0.G.F.",
"R.G.Y.E.R.I.G.F.A.A.F.u.u.q.q.t.} . . $ r y y y u f v M Q Q Q Q Q Q Q Q Q R n k Z s s ~ 7.C.Y.u.9.9.q.y.Y.H.F.G.F.J.J.6.:.>.A.G.",
"W.R.T.W.J.V.t.G.F.A.F.A.i.A.F.C.#.* r r y y y u k v M Q Q Q Q Q Q Q Q Q Q W N g _ V I D.9.9.t.y.C.F.H.G.F.C.G.Y.A.G.F.V.,.:.0.G.",
"R.R.G.u.q.9.Z.T.R.J.G.F.C.A.F.F.D.%.j i i i s z z f B B W B R E E W Q Q ( I J #.b.T @.E.G.F.J.R.H.A.u.y.9.9.u.F.9.6.u.H.q.:.4.u.",
"G.C.q.9.q.9.J.Y.F.G.T.F.F.G.F.A.D.Z.-.c.c.c.c.%.; < 1 '..X.XH C J ( ) #.h.J j ;.e.N.w.A.A.H.A.i.u.q.9.0.i.C.J.H.F.5.C.R.F.0.,.0.",
"F.A.C.V.q.i.R.C.i.Y.T.F.G.I.C.F.A.A.F.H.A.A.*.: /.^.].&X&X&XoX.Xw U [ h.T ` w ;.i.C.A.H.F.H.H.A.F.A.C.C.G.F.I.H.Z.F.C.C.G.G.4.6.",
"I.J.I.F.Z.J.W.H.R.G.J.Y.I.W.i.C.A.u.C.A.G.F.v.6 {.-X6X9X6X5X>X#X}.w ` ` 0 XX|.f.P.H.J.H.Y.A.i.G.F.G.F.U.R.I.A.i.J.G.0.0.i.G.t.,.",
"W.W.T.F.J.T.W.R.E.G.A.Y.J.R.W.G.C.4.V.G.A.G.M.|.-X7XwXyXtX9X5X>X#X[.5 2 ^.*X#X(.f.S.Y.Z.V.H.U.Y.Y.R.G.G.F.G.i.A.U.Y.I.C.5.H.F.:.",
"E.W.W.W.E.W.J.G.R.Y.G.Y.R.Y.R.G.C.A.J.A.F.A.K.:X-X;XwXdXuXyX0X;X;X3X3X*X^.^. X#X(.a.0.r.,.2.i.A.Z.G.U.R.Y.i.,.,.V.H.A.t.9.D.A.:.",
"W.W.E.E.R.J.H.A.G.W.R.R.Y.R.W.G.G.I.R.G.F.C.v.:X5X X0XdXuXuXwXqX8X8XrXqX>X].5  X!.p.9.A.u.6.2.6.6.q.C.G.A.,.:.:.4.t.A.J.A.i.i.:.",
"W.W.W.T.W.W.R.R.R.R.W.R.U.R.R.J.I.R.Y.F.F.G.K.:X6X7XwXdXuXuXtXwX8XrXyXrXqX*X[.5 3 p.A.A.G.A.A.A.F.C.F.C.,.:.:.6.6.0.A.i.y.Z.9.:.",
"E.W.R.W.W.R.R.W.R.W.W.E.W.W.W.T.W.W.R.W.R.Y.aX*X6XqXrXdXuXuXeX9X0XyXuXuXeXqX X> > f.R.G.G.R.Y.F.F.G.F.q.:.,.y.A.A.J.U.H.A.D.:.:.",
"W.W.R.W.W.W.W.W.W.W.R.W.W.E.W.W.R.W.W.R.W.W.aX%X3XrXdXdXuXuX9X X7XyXuXuXyXwX X, 3 d.E.R.H.Y.R.H.C.q.y.,.:.u.F.F.F.A.Z.9.t.i.2.6.",
"R.W.R.Y.W.E.R.W.W.W.Y.W.W.W.W.W.W.W.W.W.W.I.aX;XiXpXsXsXsXuX0X;X6XtXyXrX0X=X).> , f.T.W.R.H.R.J.A.>.:.:.,.C.u.q.3.q.9.:.6.C.C.F.",
"G.G.G.G.G.F.G.A.r.G.R.R.R.E.R.R.W.R.W.W.W.W.aX}.0 a.a.a.f.4X7X=X>X6X8X%X$X+X_.5 a.S.J.I.R.W.R.R.F.q.:.6.A.F.A.i.t.V.C.9.2.t.A.F.",
"y.t.t.y.q.t.C.Y.G.R.R.W.E.E.R.J.Y.R.W.R.I.G.P.iXL U g.j.k.{ (.~._.&X$X[.`.).~./.M.t.t.Z.y.J.H.t.0.i.2.,.u.A.F.A.F.F.G.C.2.t.F.F.",
"9.q.q.9.9.9.q.u.I.F.I.A.C.u.q.q.q.t.u.t.i.A.H.P.U Y k.m.l.K 9 6 ).OX`.`.).~.2 { S.F.G.G.t.,.q.t.,.3.,.:.2.C.F.F.A.y.q.9.3.A.C.A.",
"q.t.t.u.i.y.q.t.F.A.t.0.q.9.q.q.9.9.0.C.u.9.0.w.H K g.m.z.[ K w (.(.`._.~.3 < S.G.F.F.G.V.5.,.i.9.:.6.8.:.q.G.C.4.:.:.:.6.q.2.9.",
"G.Y.J.A.G.V.C.A.F.u.9.q.q.q.q.q.t.V.F.T.Y.J.A.N.6 9 [ x.x.x.g.[ K ` }./.Q.3 1 L.I.A.Z.V.C.i.2.9.A.6.6.A.q.,.u.V.,.,.:.4.6.,.,.2.",
"u.G.G.G.C.t.F.A.F.t.t.Z.A.F.G.I.J.G.J.Y.G.F.H.B.6 2 0 g.x.x.x.x.k.[ [ ` 8 3 1 S.F.F.t.>.A.r.V.2.t.F.6.t.C.9.,.C.u.u.y.A.A.F.C.C.",
"t.G.G.H.i.C.F.A.F.A.Y.G.A.G.I.I.H.A.F.F.A.A.F.S.6 !.'.XX_ g.m.m.x.x.l._ H 7 < S.Z.A.H.A.y.9.A.t.2.C.Z.6.C.A.2.9.A.F.F.F.A.A.A.F.",
"C.C.A.H.C.A.A.F.F.F.F.F.F.A.G.F.F.A.F.A.F.F.F.B.s.'._.).e oX[ z.x.m.x.g.U G F <.Z.y.0.t.9.0.Y.G.9.9.F.V.9.F.C.3.y.A.A.F.F.F.F.F.",
":.2.u.J.G.A.F.A.y.t.C.F.A.F.A.A.F.A.F.F.F.A.A.F.F.s.'.).OX<X{ g.x.x.x.g.P | 1.y.C.y.Z.6.9.y.U.R.A.0.t.A.t.q.C.C.4.V.F.F.A.A.C.F.",
"i.G.G.A.A.F.A.F.V.2.3.V.F.F.A.F.A.F.F.A.F.F.A.F.C.Z.] 4 OX<Xw Y g.x.l.g.T @.D.U.i.q.i.q.9.V.W.F.q.Z.y.C.A.9.V.F.i.6.A.A.F.F.9.C.",
"Y.R.G.F.F.F.A.F.F.A.F.F.F.A.C.C.F.A.F.A.A.A.F.A.A.F.] 4 ,X1Xe U g.l.a.I @.Z.y.A.q.9.9.q.9.H.H.0.9.q.C.0.A.F.4.A.A.q.9.A.A.V.0.A.",
"R.W.G.F.A.F.F.F.A.A.A.A.F.F.F.F.F.A.F.F.F.F.F.F.A.F.] 4 1X2X*Xe K K P ..=.F.C.9.q.q.9.9.y.H.i.9.q.9.t.A.u.A.V.t.F.F.q.u.F.F.F.A.",
"G.G.C.C.F.A.A.F.F.G.I.I.G.G.Y.I.G.I.G.A.A.F.F.A.A.F.] 4 @X1X2X$XXX8 9 o.,.i.C.0.9.9.9.9.C.A.9.q.9.0.9.F.C.F.F.A.F.A.F.t.t.F.A.F.",
"A.F.G.G.V.G.R.I.G.C.G.H.Y.R.Y.G.G.G.A.C.q.q.u.C.Z.D.s.!.OX1X2X2X@X~.!.L } | h.0.9.q.9.q.i.q.q.A.t.t.C.C.G.F.F.A.F.F.A.A.q.u.F.F.",
"9.q.i.u.0.C.F.6.,.,.4.q.u.q.6.2.4.4.,.,.,.,.,.u.A.C.d._.OX1X2X2X,X`.4   X X = c.t.y.9.9.9.9.9.t.q.V.R.Y.G.F.A.F.A.F.A.F.C.u.A.C.",
"q.u.i.C.V.0.2.:.:.:.:.:.,.4.9.u.C.i.i.u.C.C.F.G.F.Z.' 4 `.1X2X2X,X`.4 % $ p d V &.0.9.q.9.q.9.9.q.C.W.R.Y.R.F.0.F.A.r.A.A.F.F.u.",
"H.Y.W.J.i.9.9.6.6.9.t.V.i.G.F.q.q.q.q.q.t.V.R.Y.Z.P   2 OX1X2X2X,X_.2 % a l l s O.V.9.i.9.9.9.9.Z.Y.W.R.Y.W.I.t.t.F.C.A.F.A.8.>.",
"J.F.C.A.Y.F.A.J.J.G.Z.J.q.q.q.q.q.q.q.V.u.q.A.t.0.x   3 [.1X2X2X,X).> % u p p ^ 7.t.q.t.9.q.q.u.Y.E.T.R.A.V.U.A.3.t.F.C.t.t.:.6.",
"0.C.G.C.Y.J.i.U.Y.0.9.u.9.q.9.9.q.9.y.J.I.C.H.y.r.x   3 [.@X1X2X,X_.3 o @ = S 7.9.9.9.9.9.9.9.Z.R.W.W.R.q.,.Y.R.C.2.u.A.6.,.9.6.",
"6.,.9.C.i.t.y.t.C.q.0.9.q.y.t.t.y.V.i.G.A.A.F.A.Z.P 7 ~.OXOX1X2X,XOXQ.; * S 6.9.8.q.q.9.9.9.i.Y.R.R.R.H.2.,.F.r.i.q.2.u.6.9.t.2.",
"t.,.:.6.r.i.C.A.G.J.J.G.H.H.G.G.J.R.R.Z.3.A.y.V.C.;.q !.OX,X2X2X2X@X/.Y +.7.9.9.9.q.q.9.9.t.R.W.R.u.Z.0.t.0.9.,.2.F.2.,.,.u.1.C.",
",.:.:.:.:.:.,.8.y.G.J.Y.G.F.G.J.U.R.A.,.,.i.9.9.9.A   4 `.OX,X1X#X`.2 & } 9.9.9.9.9.9.9.q.t.E.I.J.q.A.V.C.G.6.,.q.I.t.:.9.2.0.i.",
"9.3.6.6.9.q.C.H.J.C.t.A.0.6.9.9.q.F.6.:.t.y.9.9.7.c o   - 7 9 0 9 7 % % s  .8.9.9.9.9.9.q.F.A.t.A.t.Y.R.H.Y.C.A.I.U.3.3.q.4.u.t.",
"C.u.A.F.Y.W.A.0.9.F.G.F.D.i.t.t.A.q.:.0.F.q.9.9.5.x . # u a l v k a a a a b ..8.q.9.9.9.V.C.9.Z.y.F.R.R.Y.G.H.Z.F.G.0.V.3.t.A.C.",
"9.9.y.Y.T.W.W.J.i.F.R.R.R.J.H.R.C.3.u.C.C.C.0.q.8.S p y u z v l l l n n m k k X.8.9.9.i.q.,.t.F.u.0.G.R.G.A.D.r.u.C.F.V.3.A.F.A.",
"9.t.i.G.G.F.i.A.U.R.J.A.A.i.J.R.q.i.G.F.V.F.9.q.0.8./ s s k l l R E Q E E M k f +.9.9.V.6.,.C.A.2.6.G.A.6.A.r.9.:.0.t.t.t.F.F.A.",
"F.Y.J.J.A.Z.y.y.y.q.q.q.t.r.G.J.u.G.G.G.A.G.F.H.i.9.7.+.X.z i d l n E E M l k d O.9.9.r.t.u.C.2.:.t.C.9.5.V.r.:.:.:.:.V.F.A.F.A.",
"0.q.q.q.t.9.y.t.C.H.F.G.Y.R.J.F.A.A.Y.R.Z.t.A.C.q.q.9.9.9.X.X.B a a n m k i z ..8.q.9.G.F.V.0.3.0.C.i.,.i.i.2.:.:.:.4.u.C.F.A.F.",
"t.i.V.A.F.J.U.Y.J.H.C.V.t.y.u.q.9.0.H.H.Y.J.u.t.9.9.9.9.q.9.9.O.~ ^ ....^ ~  .8.9.9.u.R.y.i.0.V.C.F.3.t.A.0.:.:.:.:.,.,.t.t.C.F.",
"U.Y.U.J.Y.A.q.9.9.9.9.9.9.9.u.V.A.Y.R.H.A.A.t.9.9.9.9.q.9.9.9.9.9.q.9.9.9.9.q.9.9.0.J.A.9.Z.A.0.9.C.r.G.C.:.:.4.:.:.:.:.:.,.V.F."
};
