/* XPM */
static char *result[] = {
/* columns rows colors chars-per-pixel */
"64 64 241 2 ",
"   c #7B2E06",
".  c #7B3308",
"X  c #703111",
"o  c #7D4326",
"O  c #833405",
"+  c #8B3D04",
"@  c #86320C",
"#  c #863809",
"$  c #8A3C0A",
"%  c #933D07",
"&  c #8D4204",
"*  c #8D420A",
"=  c #934304",
"-  c #9C4C05",
";  c #94450C",
":  c #9A4509",
">  c #954A0C",
",  c #9D4C0C",
"<  c #9C520B",
"1  c #984712",
"2  c #9E5314",
"3  c #9E5B1B",
"4  c #A54604",
"5  c #A54B03",
"6  c #AA4C03",
"7  c #A24D0B",
"8  c #A94D0A",
"9  c #B34E05",
"0  c #A45205",
"q  c #AC5404",
"w  c #AE5A04",
"e  c #A4520B",
"r  c #AB550C",
"t  c #A65908",
"y  c #AC5A0C",
"u  c #B35403",
"i  c #B65506",
"p  c #B35B05",
"a  c #BA5A04",
"s  c #B35C0A",
"d  c #BB5C0B",
"f  c #A24D13",
"g  c #A45313",
"h  c #AA5512",
"j  c #AD5A13",
"k  c #A65A1A",
"l  c #B35E13",
"z  c #B15A15",
"x  c #9F621D",
"c  c #AD6403",
"v  c #AD640B",
"b  c #B46206",
"n  c #BB6406",
"m  c #B46C05",
"M  c #BC6B05",
"N  c #B5630C",
"B  c #BB640B",
"V  c #B56A0C",
"C  c #BC6B0C",
"Z  c #B57205",
"A  c #BC7304",
"S  c #BC7B04",
"D  c #B5750B",
"F  c #BC730C",
"G  c #BD7B0B",
"H  c #AC6418",
"J  c #B46313",
"K  c #BB6512",
"L  c #B56B12",
"P  c #BC6B13",
"I  c #B56A1A",
"U  c #BC6C1A",
"Y  c #BC7213",
"T  c #BC7A12",
"R  c #BC741A",
"E  c #975727",
"W  c #915835",
"Q  c #A35B27",
"!  c #A35F36",
"~  c #AB6423",
"^  c #AD6B23",
"/  c #A9682C",
"(  c #B0702A",
")  c #B77928",
"_  c #A66B37",
"`  c #AB783A",
"'  c #B27D39",
"]  c #C15801",
"[  c #C26709",
"{  c #C26D0C",
"}  c #C27305",
"|  c #CA7507",
" . c #C37C04",
".. c #CA7C06",
"X. c #C4730C",
"o. c #CA750D",
"O. c #C37C0B",
"+. c #CC7B0C",
"@. c #D0770C",
"#. c #D27D0C",
"$. c #C16611",
"%. c #C26C12",
"&. c #C36E18",
"*. c #C47313",
"=. c #CA7512",
"-. c #C57B13",
";. c #CC7C13",
":. c #C3731A",
">. c #C97619",
",. c #C57B1A",
"<. c #CB7C1A",
"1. c #D17D12",
"2. c #D17E1B",
"3. c #C27520",
"4. c #CB7E21",
"5. c #8F5E4A",
"6. c #935E46",
"7. c #AA6947",
"8. c #A87C48",
"9. c #A97955",
"0. c #9C7260",
"q. c #AD7E66",
"w. c #BE8106",
"e. c #BE8113",
"r. c #B78436",
"t. c #C48404",
"y. c #CA8506",
"u. c #CB8B05",
"i. c #C4840C",
"p. c #CC830C",
"a. c #C68B0C",
"s. c #CB8B0C",
"d. c #D48D06",
"f. c #D3830D",
"g. c #D48B0C",
"h. c #DA8E0C",
"j. c #CC9305",
"k. c #CD920B",
"l. c #CE9B0B",
"z. c #D39405",
"x. c #D99605",
"c. c #D49A06",
"v. c #DB9B05",
"b. c #D4920C",
"n. c #DB940C",
"m. c #D59B0B",
"M. c #DC9C0A",
"N. c #C58312",
"B. c #CC8314",
"V. c #C68B14",
"C. c #CB8C13",
"Z. c #C5841A",
"A. c #CD831B",
"S. c #CD8B1B",
"D. c #D38312",
"F. c #D98511",
"G. c #D48B13",
"H. c #D98C14",
"J. c #D2841C",
"K. c #D38B1C",
"L. c #DA8D1C",
"P. c #CD9314",
"I. c #CC9815",
"U. c #CD9419",
"Y. c #D39413",
"T. c #DB9413",
"R. c #D49915",
"E. c #DD9B14",
"W. c #D4931B",
"Q. c #DC931C",
"!. c #D49B1A",
"~. c #DB9B1C",
"^. c #E09D07",
"/. c #E19E0B",
"(. c #E19617",
"). c #E29B13",
"_. c #E19C1C",
"`. c #DBA20B",
"'. c #DDA408",
"]. c #DAA415",
"[. c #D4A21B",
"{. c #DBA21D",
"}. c #E3A106",
"|. c #E2A10B",
" X c #E3A80D",
".X c #E3A413",
"XX c #E4A916",
"oX c #E3A41C",
"OX c #E6AA1B",
"+X c #E9AA1E",
"@X c #CE8321",
"#X c #CD8B21",
"$X c #D38622",
"%X c #D48B23",
"&X c #D88C28",
"*X c #D39422",
"=X c #DB9423",
"-X c #D69B23",
";X c #DB9B23",
":X c #D99529",
">X c #CF9233",
",X c #E09023",
"<X c #E29C21",
"1X c #DBA322",
"2X c #D8A526",
"3X c #DCAA24",
"4X c #DEA52C",
"5X c #DFB22B",
"6X c #E3A324",
"7X c #E7A724",
"8X c #E5AA22",
"9X c #E2AC2A",
"0X c #E3B62C",
"qX c #E1A732",
"wX c #E5B432",
"eX c #AE8250",
"rX c #B6885B",
"tX c #B79070",
"yX c #C3986F",
"uX c #B79A88",
"iX c #BAA297",
"pX c #C6AB93",
"aX c #C6AA98",
"sX c #CCB6A9",
"dX c #CDBCB4",
"fX c #D1BEB3",
"gX c #CEC2BD",
"hX c #D3C1B4",
"jX c #D7C6B9",
"kX c #DACCC6",
"lX c #DDD2CE",
"zX c #DCD4D2",
"xX c #E2D7CA",
"cX c #E1D5D1",
"vX c #E5DCD8",
"bX c #E8E1DE",
"nX c #EAE4E3",
"mX c #EEEAE9",
"MX c #F2EEEE",
"NX c #F4F1F1",
"BX c #FDFCFC",
/* pixels */
"zXtX7.7 6 , 0 6 5 4 4 4 4 4 4 6 6 6 6 9 i 6 q K $.$.P %.{ P B V p 6 r 4 5 5 q s d r q 6 4 5 5 4 5 6 q 6 9 6 9 9 4 6 5 5 ! cXBXBX",
"iXE 8 6 4 7 5 s N 5 4 6 6 4 6 6 6 6 d $.r 9 u q q q w p w w q q p s d s 5 5 5 6 q u 6 5 6 q q q 5 5 6 6 9 u 9 u 9 9 6 5 Q dXBXBX",
"aX3 5 5 6 9 q u %.$.u 6 6 6 6 4 u $.{ u u B K p q 6 0 q q w q q s p p u q 5 6 q s B i q q s s s q 5 5 6 9 u i i u 9 u q h 7.vXBX",
"zX! , t q u i a [ [ { B a u 6 u K $.a q q a %.$.K a q 0 w w q w p p s s p p p p a B B s u w q q q q u u u u a a i ] ] u 9 8 q.kX",
"mX9.8 y p u a a a n X.o.{ d n $.B p u u q b =.N d K s p p w w q w u p s p p p b b s s p n b B n [ } { [ [ [ [ [ [ d ] a z 9 h 9.",
"mX9.r p a n n a n M +.-.M { { n n B d N s B <.B q u u p s s s p p s N p b m b b n b n M B s b N n [ M { { o.{ [ ] a ] i ] ] d ! ",
"sX( d $.M [ { =.*.} +.=XB.A [ M B b b N N b ,.<.p w q y w w q w p N b m m M  .y.O.m V V N N L C C F X.| 1.o.X.o.X.b a d ] ] z tX",
"( &.:.>.{ n { o.X.| A G.;Xi.| D.;.Z m m w 0 F S.G w v N N c b b V M m M  .i.d.u.y.m V L V V m C G -.K.W.=XK.+.S s.~.@.$.z ] 7.vX",
"H L C V n n n M A } }  .!.~.C.O.B.C.B.O.F L V V.S.Y c v c c c m m m  .y.d.z.u.u.S Z Z Z m m A i.C.S.W.U.W.V.e.w.3XwXH.} C K tXMX",
"tXk w b M M } O...+. . .s.;X{.P.w.i.p.B.-.#XB.V.P.S.T c c c m O. .t.u.z.j.u.t.S S S i.k.i.i.S.S.G.W.I.P.a.w.I.[.0X0XC.A G C tXNX",
"sX3 p C g.M.j.u.t. . .w.i.I.[.!.I.i.Z A O.G.*XC.P.V.U.D c m A y.u.j.u.u.t.t.u.a.k.t.t.P.P.b.s.C.V.N.i.G V.-X-X2X0X3Xj.Z V N 9.MX",
"tX1 y m g.|.'.'.m.c.j.j.j.j.l.].[.!.V.G S S i.V.V.I.C.P.s.i. .t.u.u.t.t.a.B.a.C.V.C.a.t.Y.R.s.i.i.i.P.*X-X[.5X5X3X3XR.G v L rXMX",
"tXt t c Z u.c.'. X'.'.`.l.l.j.l.[.I.I.!.P.w.S w.w.i.P.P.W.!.Y.P.z.g.s.i.i.i.i.i.i.i.i.i.P.R.Y.U.U.-X-XW.*X-XwX5X3X9X!.Z V R 9.NX",
"yXI < t Z S t.u.l.c.j.j.c.j.l.l.l.I.I.I.P.k.u.a.s.a.a.Y.I.U.U.U.Y.Y.T.Y.Q.~.W.!.Y.W.W.Y.C.*X-X-X-X*X*XU.U.2XwXwXwX3Xi.Z T L 8.MX",
"aX^ c c w.k.j.j.j.c.j.z.u.j.j.j.j.u.k.P.k.k.a.u.u.t.t.u.P.R.P.s.u.u.a.b.x.b.b.n.b.b.s.C.Y.W.!.W.W.C.N.V.2X9X2X5X3XI.D D e.V 8.nX",
"hXx L D w.`.'.l.`.l.z.c.c.c.c.c.x.j.k.u.a.I.b.k.j.m.`.m.j.j.k.b.k.k.d.j.c.M.x.j.z.j.s.b.C.G.Y.Y.b.a.s.I.4X5X[.3X2XV.D e.@Xm 8.bX",
"hXx v G G t.j.k.j.j.x.z.j.k.u.x.c.x.x.c.E..XM.M.`.`.`.`.l.j.z.c.c.j.m.m.z.M.}.x.x.x.x.c.c.g.].E.b.b.R.!.3X3X3X0X4XS.w.V.T v ) xX",
"uXH V A N.i.k.I.P.u.d.x.z.M.x.`.`.M.M.M.].XX|.x.M.'.`.`.`.c.}.}.m.l.m.[..Xc.x./.v.v.'.'.M.z.M.E.~.P.~.9X].3X9X1XV.G w.V.T D e.lX",
"rXR Z } O.N.!.{.R.b.u.z.x.m.M.x.}.|.|.c.OXOX|.x.x.x.v.'.c.'.}.v.m.`.].`.{.XXM.x.v.}.'.}. XM.m.{.[.a.{.1XP.[.1XU.G T w.N.w.Z r.lX",
"r.e.A  .A O.P.3X1X~.E.m.m.x.x.x.v./.M.x.oX8XXX`.v.x.x.v.}.}.v.'.'.c.`.`.m.v.|.M.x.v.v.v.'.m.{.~.Y.P.{.~.R.9X4XW.T T V.V.S D r.lX",
") Y S O.p.V.C.{.3XR.Y.E.E.m.x.n.x.^.M.h.R.8XXX.X|./.x.^.^.x.^.^.v.'.'.v.m.}.}./.}.`.`.|.|..XY.s.!.!.Y.!.6X{.U.N.G T V.N.G w.` vX",
") T G O.;XW.k.I.3X1XY.g.b.n.g.d.n.x.x.^.b.oXOXXX`.M./.|.v.v.^./.}.}.}.'. X|.|.|.|.|..X.XM.n.g.s.Q.Y.s.!.R.P.S G -.Z.C.a.i.D eXnX",
"r.O.G G ;X4XY.k.{.6XR.b.n.M.n.u.y.d.d.d.d.b.OX+X.XM.v./.x.v.|./.^./.|.|.|.|..X.X.X.XM.M.x.d.u.p.W.G.R.].1X~.O.G N.U.C.p.w.e.eXbX",
"tXT Z.G C.9X{.P.Y.9X!.n.n.n.E.n.d.h.h.d.).b.n.OXOX.XM./.x.v.}.^.h.^..X.X.X.X.XE.M.c.M./.^.n.g. .C.Q.{.1X;XS.G i.W.W.s.i.T D eXbX",
"aXI Z.Z.w.1X9X{.P.!.6XQ.n.T.E.M.n.n.d.x.^.h.d.Y.OX+XXXXXM.x.}.}.v.x.n././.M.M.M.n.M.x.n.M.M.g.s.C.=XS.~.S.G N.K.W.g.y...| V ` bX",
"jXI M B.B.V.3X9X!.s.~.~.Y.n.).T.n.n.d.).n.h.T.E.~.oX8X8X].x./.}./.)..X^.M.}./.v.x.x.z.z.n.n.n.~.~.p.i.N.O.N.K.K.G.p.y...X.m ` vX",
"jX^ F B.W.C.I.9X9XP.B.Q.=XG.Y.T.n.d.d.(.).n.Q.7X{.Y.oX+X+X|.x.m.|..X.X/.x.x.^././.^.x.d.z.z.T._.T.B.B.O.B.K.G.p.y.g.g.f.O.A ` vX",
"hX^ -.Z.S.;XY.R.9X6Xp.B.L.W.g.G.H.H.h.h.T.H.~.7X_.n.T.E.+X8X8XOX+X.X}.|./.^.x.x.n./.M.^.n.b.E._.G.Q.K.G.G.N.C.p.......O.O.S r.lX",
"jX) R Z.S.*X;XQ.W.6XQ.B.p.L.K.p.Q._.T.G.T.G.<X7XE.g.).T.T.].oX8X+X+X.X.X.X.X).).E.E.).oXoXn._.Q.T.Y.G.g.g.+.p.p.D.p.-.G F Z ' xX",
"jX>XT T Z.K.Q.~.;XQ.<X=XK.D.L.K.L.<XH.T.T.Y.7X<XE.T._._._._.T.E.oXOX+X+X+X+X8X+XOX8X+X6XE.R._.g.G.g.y.g.h.f.+.+.+.+.-.-.>.F ' cX",
"jX>X#X#XZ.S.Y.W.W.K.K.L.,X%XD.K.,X=XL.L.Q.Q.<X_.Q.H.<XoXoX).T.z.b.n.n.M.).).).).T.E.T.Y.b.~.T.p.p.g.g.f.g.y.p.f.p.p.+.B.<.Y ' cX",
"hX) #X-X*X-XW.*X*XK.B.-.1.L.=XJ.G.K.W.Q.Q.,X<X<X_.T.6X6XT.T.E.E.g.n.)./.).).).T.n.~.T.g.T.~.h.d.f...y.f.g.g...p.F.G.L.K.@X*.` cX",
"hX( T *X-X-X;X;X-X:X*XZ.-.+.J.%XA.B.J.=X,X,XL.H.W.H.<X<XT.T.n.).).h.).^.h.(.(.(.h.T._.Q._.Q.g.f.f.f.f.f.g.p.f.H.L.Q.K.J.A.,.` lX",
"hX^ V F #X:X2X2X4X;X;X-XK.K.S.A.A.A.A.J.=X(.L.H.(.H.;X;XT.(.(.h.h.n.).).n.g.h.d.h.g.H.;X_.H.g.f.f.f...f.+.F.H.L.L.K.K.L.J.F _ lX",
"hXH C T G V.W.4XqXqX4X:X-X%X%XK.K.J.J.Z.;.D.H.L.L.G.<X<XQ._.n.n.n.g.M.n.(./.h.h.h.h.G.G.H.T.H.F.F.f.+...+.J.F.J.H.L.&XJ.-.F _ lX",
"jX( C *.} O.O.C.*X-X:X*X*XU.S.K.B.1.D.A.;.D.J.G.L.G.;XQ.Q.n.h.E.g.n.T.T.h.h.n.h.d.T.Q.Q.D.B.H.L.K.D.+...+.D.J.K.L.L.J.;.{ P _ kX",
"jX) -.-.O.B.S.K.U.#XS.S.L.$X;.o.D.F.@.#.-.+.f.G.J.D.=XQ.T.H.T.n.g.h.(.H.h.).h.h.T._.T.F.g.f.i.+.p.G.K.D.D.<.A.J.A.;.<.<.=.U _ kX",
"jX>X%XK.W.=X=X*X#XK.A.B.J.L.J.+.o.F.F.H.D.+.+.f.f.D.=XQ.F.F.g.f.f.h.h.g.h.F.H.T.Q.H.g.#.#.+.p.f.B.o.X.X.-.;.;.,.<.-.:.*.%.U / fX",
"jX) =.N.B.-.i.N.B.-.o.;.$XJ.2.1.#.+.F.F.f.#...f.J.1.Q.Q.G.F.F.h.f.h.F.g.F.H.(.Q.H.F.f.F.f.f.D.J.;.o.X.F o.X.X.o.{ { C C C l Q pX",
"hXH N F B.A.B.B.;.-.o.A.J.2.F.+.J.;.+.f.J.F.f...#.D.Q.L.F.f.G.F.D.H.H.Q.Q.(.L.G.D.g.#.F.F.D.D.f.D.X.X.X.X.+.D.f.#.1.o.o.&.N s rX",
"hX^ K C } B.K.K.K.-.;.J.2.J.1.;.$X&X;.o.1.g.F.#.o.;.Q.G.+.+.g.L.Q.(.,X(.Q.H.F.f.#.1.f.f.D.D.p.J.-.X.{ { o.@.#.#.@.@.o.| n B J eX",
"fX~ K C C O.D.V.S.S.@X<.2.<.-.-.J.J.J.1.o.o.f.f.D.1.=Xf.g.D.+.#.J.L.L.H.F.#.1.f.D.f.f.1.+.D.J.;.X.M { { =.1.@.@.@.@.=.M a B H uX",
"hX/ B C B M X.S.B.S.<.<.;.<.%X<.*.<.<.=.o.o.| ..-.D.L.B.F.F.#.#.+.#.1.f.#.D.1.#.1.D.D.1.D.J.1.-.[ } *.M [ =.=.1.| o.[ N d l Q iX",
"fX~ N K B { M -.K.A.A.&X%XJ.J.A.o.M ;.2.o.1.D.#.| 2.L.D.1.f.#.f.F.f.f.#.f.D.1.#.1.D.1.;.J.;.-.o.M { o.*.C M ;.<.o.o.B %.K l Q uX",
"sXQ y s B <.*.;.#XK.A.B.K.A.X.A.2.=.2.1.o.| ..1.=.;.D.+.#.F.F.#.D.+.#.+.+.| o.D.1.;.;.J.K.%X%XA.;.<.<.<.<.;.<.2.2.;.*.B B l k q.",
"sX~ :.:.P *.Z.Z.Z.%XW.A.%XS.%X:X$X{ =.@.o.o.} X.=.;.<.D.#.1.#.1.+.| ..o.=.} X.J.;.;.<.$X$X%X%X%X%X$X$X%X$X$X$X<.*.C b N $.s g _ ",
"sXk I I :.#X:X:XqXqX:X:X%X;.%XA.*.[ =.1.@.;.1.=.2.J.D.1.#.@.{ o.1.#.1.;.=.P X.<.J.-.<.K.&X*X&X&X%X$X$X$XA.,.*.N s B K L $.r h ~ ",
"tX2 - e R &X%X#X:X%X-.A.*.*.*.*.=.X.{ X.X.o.;.<.2.J.1...@.@.| ..o.o.o.*.X.C P C =.<.=.*.J.A.A.@X*.Y P N N b b b p a s l J s j / ",
"_ e : - < t t c L v t L Y $X%XJ.<.{ M *.o.;.J.<.<.<.+.#.1.#.o.o.o.{ =.>.<.o.%.C { F =.,.<.&X$X%X<.%.B w N N B B M { N y r y k ` ",
"_ < < - - - - - - < P 4.@X%XA.B.B.Z.A.K.J.A.<.<.<.;.;.@.#.o.o.o.{ =.2.2.;.*.{ &.%.Y P K *.<.&X$X%X$XF w N N C P { $.J J r 8 2 9.",
"uX2 y y h t t t w P &X:X:XK.Z.K.:X&XJ.<.<.*.<.:.>.=.o.o.o.{ o.X.n *.;.=.{ =.%.C :.K R *.V B :.%X$X$XJ.P K N K C B C J l r g E uX",
"aX2 y w K K V :.A.%X%XB.S.K.B.%X:XA.C Y @X<.P =.;.o.o.o.o.[ =.{ [ %.*.*.{ { X.B K *.N C *.P N N 4.$X$X$X4.*.P P K K N l r k E dX",
"dXQ t e N P Y A.%X&X%X<.A.&XZ.&X$X*.P 4.&X<.:.>.>.=.=.=.o.o.=.[ { B { %.%.o.{ *.V P *.N N N P C K P ,.@X$X4.:.J s s s e 6 g E kX",
"hXE h < L #X#XZ.V.S.%XJ.&XJ.*.<.Y K <.@X&X>.:.>.{ $.{ =.=.=.o.o.=.M C *.%.o.C M B b K :.N K :.U U L N Y :.4.4.4.:.K N r e f W kX",
"sXE v L Z.%X*X*XS.&X%XZ.$X,.K s v U @X$X4.U C &.K $.%.B d [ [ [ { C p P C B C M *.C b N K :.&.L N N K L K P P R R :.$.j g 7 W vX",
"jXx R @XZ.Z.%XS.#X&X:.U 3.K 0 e K :.4.<.&.N P &.C C %.$.$.%.%.B K M B d P %.$.{ B N N N P U K K K N y w v l J J J J d j k k W vX",
"jX_ ) Y Y Z.@XY R ) L e e - e L L 4.4.:.N N %.P $.C d C $.%.$.C %.>.>.K s K $.N K N N K U J K L K N J j q - e y e e 8 g ~ h 6.bX",
"gXE > < H I H e e 8 - & = , J I U 4.:.V y J P K C B s K K K d K K $.&.&.K y J $.&.J K &.J J y J J J J J j - e z h , 8 k g % 6.nX",
"gXo + & & > = & + + = = > H H v R R U K y J l q s p B n B B p d r N N l d 8 r l l K J j l l z e e j J J J h e , , , 5 , ; # 5.nX",
"hXo . O + + + + & & = - j H j y R J l s h l r r r r s u d r s i q q d q r y 8 y J z y y y e j j j e e t j j 8 7 , , : ; # . 5.nX",
"hXo . & * * & * * * 1 j H g e J I h h r h h h r r r h h h h y z r q q r r s l z g e g j j y y l l l y e , f , 1 ; ; = @ .   5.bX",
"lXW > > > * & & : 7 h h - 8 e y y e r e 2 , 7 e e 6 8 5 8 8 8 8 r h r z z z h r 8 4 8 h r r r 8 r j h g , , : % ; 1 * @ @   0.MX",
"mX0.> < * . @ ; 2 2 ; : 1 % , k , , , 7 7 7 8 8 e 7 : e 7 , 7 7 8 h j k h e 7 7 7 g 7 ; 1 f f 7 , , ; 1 1 1 $ # # $ $ % @ X iXBX",
"BXgX0.E . . . $ * # O O # # 1 1 % 4 f f = % : % = > = , f k f k k f > ; , : ; : : 1 ; ; $ ; : : 7 = % $ $ $ .     @ % $ @ o dXBX"
};
